<svg width="606" height="524" fill="none" xmlns="http://www.w3.org/2000/svg"><rect x="60" y="60" width="486" height="400" rx="32" fill="#F5F8FF" style="fill:color(display-p3 .9608 .9725 1);fill-opacity:1"/><path fill="#FD7228" style="fill:color(display-p3 .9922 .4471 .1569);fill-opacity:1" d="M137.527 143h21.738v70h-21.738zM287 143h22v43h-22z"/><path fill="#CFCFCF" style="fill:color(display-p3 .8125 .8125 .8125);fill-opacity:1" d="M287 209h22v26h-22z"/><path fill="#FD7228" style="fill:color(display-p3 .9922 .4471 .1569);fill-opacity:1" d="M438 143h21v29h-21z"/><path fill="#CFCFCF" style="fill:color(display-p3 .8125 .8125 .8125);fill-opacity:1" d="M437.882 182h21.503v13h-21.503z"/><path opacity=".2" fill-rule="evenodd" clip-rule="evenodd" d="M287 143.015c-64.5 0-64.5-.015-129-.015v43c64.5 0 64.5-.355 129-.355" fill="url(#a)"/><path opacity=".2" fill-rule="evenodd" clip-rule="evenodd" d="M287.135 208.34c-64.573 0-64.573-22.34-129.145-22.34v26.66c64.572 0 64.572 22.34 129.145 22.34" fill="url(#b)"/><path opacity=".2" fill-rule="evenodd" clip-rule="evenodd" d="M438 143H309v29h129" fill="url(#c)"/><path opacity=".2" fill-rule="evenodd" clip-rule="evenodd" d="M437.879 181.352c-64.508 0-64.508-9.352-129.017-9.352v13.648c64.509 0 64.509 9.352 129.017 9.352" fill="url(#d)"/><g opacity=".8"><rect x="391.36" y="92" width="113.64" height="44" rx="8" fill="#040815" style="fill:color(display-p3 .0157 .0314 .0824);fill-opacity:1"/><path d="M406.832 110v-9.8h1.792v9.8h-1.792Zm3.649 0v-6.944h1.582l.154.938c.224-.336.518-.602.882-.798a2.633 2.633 0 0 1 1.288-.308c1.073 0 1.834.415 2.282 1.246a2.709 2.709 0 0 1 1.008-.91 2.98 2.98 0 0 1 1.4-.336c.905 0 1.601.271 2.086.812.485.541.728 1.335.728 2.38V110h-1.792v-3.752c0-.597-.117-1.055-.35-1.372-.224-.317-.574-.476-1.05-.476-.485 0-.877.177-1.176.532-.289.355-.434.849-.434 1.484V110h-1.792v-3.752c0-.597-.117-1.055-.35-1.372-.233-.317-.593-.476-1.078-.476-.476 0-.863.177-1.162.532-.289.355-.434.849-.434 1.484V110h-1.792Zm13.111 3.08v-10.024h1.596l.196.994c.224-.308.518-.579.882-.812.374-.233.854-.35 1.442-.35.654 0 1.237.159 1.75.476.514.317.92.751 1.218 1.302.299.551.448 1.176.448 1.876s-.149 1.325-.448 1.876a3.428 3.428 0 0 1-1.218 1.288c-.513.308-1.096.462-1.75.462-.522 0-.98-.098-1.372-.294a2.473 2.473 0 0 1-.952-.826v4.032h-1.792Zm3.738-4.48c.57 0 1.041-.191 1.414-.574.374-.383.56-.877.56-1.484s-.186-1.106-.56-1.498c-.373-.392-.844-.588-1.414-.588-.578 0-1.054.196-1.428.588-.364.383-.546.877-.546 1.484s.182 1.106.546 1.498c.374.383.85.574 1.428.574Zm5.395 1.4v-6.944h1.596l.168 1.302a2.87 2.87 0 0 1 1.022-1.064c.439-.271.952-.406 1.54-.406v1.89h-.504c-.392 0-.742.061-1.05.182a1.443 1.443 0 0 0-.728.63c-.168.299-.252.714-.252 1.246V110h-1.792Zm8.76.168a3.614 3.614 0 0 1-1.82-.462 3.475 3.475 0 0 1-1.274-1.274c-.308-.551-.462-1.185-.462-1.904 0-.719.158-1.349.476-1.89a3.44 3.44 0 0 1 1.274-1.288 3.614 3.614 0 0 1 1.82-.462c.662 0 1.26.154 1.792.462.541.308.966.737 1.274 1.288.317.541.476 1.171.476 1.89 0 .719-.159 1.353-.476 1.904a3.346 3.346 0 0 1-1.274 1.274 3.59 3.59 0 0 1-1.806.462Zm0-1.554a1.67 1.67 0 0 0 1.218-.518c.345-.355.518-.877.518-1.568 0-.691-.173-1.209-.518-1.554-.346-.355-.747-.532-1.204-.532a1.66 1.66 0 0 0-1.232.532c-.336.345-.504.863-.504 1.554 0 .691.168 1.213.504 1.568.345.345.751.518 1.218.518Zm6.692 1.386-2.548-6.944h1.876l1.764 5.25 1.764-5.25h1.876L450.347 110h-2.17Zm8.895.168c-.7 0-1.321-.149-1.862-.448a3.243 3.243 0 0 1-1.274-1.26c-.308-.541-.462-1.167-.462-1.876 0-.719.149-1.358.448-1.918.308-.56.728-.994 1.26-1.302.541-.317 1.176-.476 1.904-.476.681 0 1.283.149 1.806.448.522.299.928.709 1.218 1.232.298.513.448 1.087.448 1.722 0 .103-.005.21-.014.322 0 .112-.005.229-.014.35h-5.278c.037.541.224.966.56 1.274.345.308.76.462 1.246.462.364 0 .667-.079.91-.238.252-.168.438-.383.56-.644h1.82c-.131.439-.35.84-.658 1.204a3.159 3.159 0 0 1-1.12.84c-.439.205-.938.308-1.498.308Zm.014-5.824c-.439 0-.826.126-1.162.378-.336.243-.551.616-.644 1.12h3.458c-.028-.457-.196-.821-.504-1.092-.308-.271-.691-.406-1.148-.406Zm8.171 5.824a3.263 3.263 0 0 1-1.75-.476 3.41 3.41 0 0 1-1.218-1.302c-.299-.551-.448-1.176-.448-1.876s.149-1.321.448-1.862c.299-.551.705-.98 1.218-1.288a3.263 3.263 0 0 1 1.75-.476c.523 0 .98.098 1.372.294.392.196.709.471.952.826V99.92h1.792V110h-1.596l-.196-.994a3.157 3.157 0 0 1-.896.812c-.364.233-.84.35-1.428.35Zm.378-1.568c.579 0 1.05-.191 1.414-.574.373-.392.56-.891.56-1.498s-.187-1.101-.56-1.484c-.364-.392-.835-.588-1.414-.588-.569 0-1.041.191-1.414.574-.373.383-.56.877-.56 1.484s.187 1.106.56 1.498c.373.392.845.588 1.414.588Zm13.015 1.568c-.523 0-.98-.098-1.372-.294a2.465 2.465 0 0 1-.952-.826l-.196.952h-1.596V99.92h1.792v4.13c.224-.308.518-.579.882-.812.373-.233.854-.35 1.442-.35.653 0 1.236.159 1.75.476a3.41 3.41 0 0 1 1.218 1.302c.298.551.448 1.176.448 1.876s-.15 1.325-.448 1.876a3.443 3.443 0 0 1-1.218 1.288c-.514.308-1.097.462-1.75.462Zm-.378-1.568c.569 0 1.04-.191 1.414-.574.373-.383.56-.877.56-1.484s-.187-1.106-.56-1.498c-.374-.392-.845-.588-1.414-.588-.579 0-1.055.196-1.428.588-.364.383-.546.877-.546 1.484s.182 1.106.546 1.498c.373.383.849.574 1.428.574Zm5.634 4.48 1.61-3.542h-.42l-2.702-6.482h1.946l1.946 4.886 2.03-4.886h1.904l-4.41 10.024h-1.904ZM438.89 128v-7.756l-1.61.378v-1.372l2.366-1.05h1.106v9.8h-1.862Zm7.78.168c-.906 0-1.68-.21-2.324-.63-.644-.429-1.144-1.022-1.498-1.778-.346-.765-.518-1.652-.518-2.66 0-.999.172-1.881.518-2.646.354-.765.854-1.358 1.498-1.778.644-.429 1.418-.644 2.324-.644.905 0 1.68.215 2.324.644.644.42 1.138 1.013 1.484 1.778.354.765.532 1.647.532 2.646 0 1.008-.178 1.895-.532 2.66-.346.756-.84 1.349-1.484 1.778-.644.42-1.419.63-2.324.63Zm0-1.61c.737 0 1.339-.308 1.806-.924.466-.616.7-1.461.7-2.534 0-1.073-.234-1.918-.7-2.534-.467-.616-1.069-.924-1.806-.924-.747 0-1.354.308-1.82.924-.458.616-.686 1.461-.686 2.534 0 1.073.228 1.918.686 2.534.466.616 1.073.924 1.82.924Zm5.221 1.442 2.52-3.472-2.52-3.472h1.918l1.764 2.464 1.75-2.464h1.932l-2.534 3.472 2.534 3.472h-1.932l-1.75-2.464-1.764 2.464h-1.918Z" fill="#F5F5F5" style="fill:color(display-p3 .96 .96 .96);fill-opacity:1"/></g><g filter="url(#e)"><rect x="48" y="256" width="357" height="216" rx="32" fill="#fff" style="fill:#fff;fill-opacity:1" shape-rendering="crispEdges"/><path d="M80.5 292a3.5 3.5 0 0 1 3.5-3.5h147.5v31H84a3.5 3.5 0 0 1-3.5-3.5v-24Z" fill="#fff" style="fill:#fff;fill-opacity:1"/><path d="M80.5 292a3.5 3.5 0 0 1 3.5-3.5h147.5v31H84a3.5 3.5 0 0 1-3.5-3.5v-24Z" stroke="#040815" style="stroke:color(display-p3 .0157 .0314 .0824);stroke-opacity:1"/><path d="M88.814 308v-7.7h.924v6.963h3.586V308h-4.51Zm6.285-6.666a.65.65 0 0 1-.462-.176.65.65 0 0 1-.176-.462c0-.176.059-.323.176-.44a.65.65 0 0 1 .462-.176c.176 0 .327.059.451.176a.579.579 0 0 1 .187.44.629.629 0 0 1-.187.462.636.636 0 0 1-.45.176ZM94.637 308v-5.456h.924V308h-.924Zm5.041.132c-.52 0-.99-.117-1.408-.352a2.676 2.676 0 0 1-.979-1.001c-.234-.433-.352-.935-.352-1.507 0-.572.118-1.071.352-1.496.242-.433.569-.766.98-1.001a2.759 2.759 0 0 1 1.407-.363c.645 0 1.188.169 1.628.506.447.337.73.788.847 1.353h-.946a1.192 1.192 0 0 0-.539-.781 1.76 1.76 0 0 0-1-.286c-.309 0-.599.077-.87.231a1.723 1.723 0 0 0-.66.693c-.169.308-.253.689-.253 1.144 0 .455.084.836.253 1.144.169.308.389.543.66.704.272.154.561.231.87.231.38 0 .714-.092 1-.275.286-.191.466-.458.539-.803h.946c-.11.55-.389.997-.836 1.342-.447.345-.994.517-1.639.517Zm6.219 0a2.7 2.7 0 0 1-1.386-.352 2.61 2.61 0 0 1-.957-1.001c-.228-.425-.341-.928-.341-1.507 0-.572.113-1.071.341-1.496.227-.433.542-.766.946-1.001.41-.242.883-.363 1.419-.363.528 0 .982.121 1.364.363.388.235.685.546.891.935a2.65 2.65 0 0 1 .297 1.496v.275h-4.345c.022.418.117.766.286 1.045.176.271.392.477.649.616.264.139.542.209.836.209.381 0 .7-.088.957-.264.256-.176.443-.414.561-.715h.913a2.48 2.48 0 0 1-.847 1.265c-.411.33-.939.495-1.584.495Zm0-4.939c-.44 0-.833.136-1.177.407-.338.264-.532.653-.583 1.166h3.432c-.022-.491-.191-.876-.506-1.155-.316-.279-.704-.418-1.166-.418Zm3.809 4.807v-5.456h.836l.055.979a1.98 1.98 0 0 1 .759-.814c.33-.198.704-.297 1.122-.297.646 0 1.159.198 1.54.594.389.389.583.99.583 1.804V308h-.924v-3.091c0-1.137-.469-1.705-1.408-1.705a1.53 1.53 0 0 0-1.177.517c-.308.337-.462.821-.462 1.452V308h-.924Zm8.803.132c-.52 0-.99-.117-1.408-.352a2.68 2.68 0 0 1-.979-1.001c-.234-.433-.352-.935-.352-1.507 0-.572.118-1.071.352-1.496.242-.433.569-.766.979-1.001a2.76 2.76 0 0 1 1.408-.363c.646 0 1.188.169 1.628.506.448.337.73.788.847 1.353h-.946a1.192 1.192 0 0 0-.539-.781 1.758 1.758 0 0 0-1.001-.286c-.308 0-.597.077-.869.231a1.727 1.727 0 0 0-.66.693c-.168.308-.253.689-.253 1.144 0 .455.085.836.253 1.144.169.308.389.543.66.704.272.154.561.231.869.231.382 0 .715-.092 1.001-.275.286-.191.466-.458.539-.803h.946c-.11.55-.388.997-.836 1.342-.447.345-.993.517-1.639.517Zm6.219 0a2.7 2.7 0 0 1-1.386-.352 2.61 2.61 0 0 1-.957-1.001c-.228-.425-.341-.928-.341-1.507 0-.572.113-1.071.341-1.496.227-.433.542-.766.946-1.001.41-.242.883-.363 1.419-.363.528 0 .982.121 1.364.363.388.235.685.546.891.935a2.65 2.65 0 0 1 .297 1.496v.275h-4.345c.022.418.117.766.286 1.045.176.271.392.477.649.616.264.139.542.209.836.209.381 0 .7-.088.957-.264.256-.176.443-.414.561-.715h.913a2.48 2.48 0 0 1-.847 1.265c-.411.33-.939.495-1.584.495Zm0-4.939c-.44 0-.833.136-1.177.407-.338.264-.532.653-.583 1.166h3.432c-.022-.491-.191-.876-.506-1.155-.316-.279-.704-.418-1.166-.418Zm5.899 4.939c-.652 0-1.195-.165-1.628-.495-.432-.33-.685-.777-.759-1.342h.946c.059.286.209.535.451.748.25.205.583.308 1.001.308.389 0 .675-.081.858-.242a.782.782 0 0 0 .275-.594c0-.33-.121-.55-.363-.66-.234-.11-.568-.209-1.001-.297a5.742 5.742 0 0 1-.88-.253 2.04 2.04 0 0 1-.737-.462c-.198-.205-.297-.473-.297-.803 0-.477.176-.865.528-1.166.36-.308.844-.462 1.452-.462.58 0 1.053.147 1.419.44.374.286.591.697.649 1.232h-.913a.919.919 0 0 0-.363-.649c-.198-.161-.465-.242-.803-.242-.33 0-.586.07-.77.209a.667.667 0 0 0-.264.55c0 .22.114.392.341.517.235.125.55.231.946.319.338.073.657.165.957.275a1.7 1.7 0 0 1 .748.473c.198.205.297.506.297.902.008.491-.179.898-.561 1.221-.374.315-.883.473-1.529.473Z" fill="#040815" style="fill:color(display-p3 .0157 .0314 .0824);fill-opacity:1"/><g opacity=".8"><mask id="f" style="mask-type:alpha" maskUnits="userSpaceOnUse" x="203" y="292" width="24" height="24"><path fill="#D9D9D9" style="fill:color(display-p3 .851 .851 .851);fill-opacity:1" d="M203 292h24v24h-24z"/></mask><g mask="url(#f)"><path d="m215 307-5-5h10l-5 5Z" fill="#000" style="fill:#000;fill-opacity:1"/></g></g><path d="M231.5 288.5H369a3.5 3.5 0 0 1 3.5 3.5v24a3.5 3.5 0 0 1-3.5 3.5H231.5v-31Z" fill="#fff" style="fill:#fff;fill-opacity:1"/><path d="M231.5 288.5H369a3.5 3.5 0 0 1 3.5 3.5v24a3.5 3.5 0 0 1-3.5 3.5H231.5v-31Z" stroke="#040815" style="stroke:color(display-p3 .0157 .0314 .0824);stroke-opacity:1"/><path d="M239.882 309v-.826a36.347 36.347 0 0 0 1.876-1.582 19.392 19.392 0 0 0 1.582-1.596 7.573 7.573 0 0 0 1.092-1.54c.271-.504.406-.989.406-1.456a2.55 2.55 0 0 0-.182-.966 1.462 1.462 0 0 0-.56-.714c-.261-.187-.616-.28-1.064-.28-.429 0-.789.098-1.078.294a1.79 1.79 0 0 0-.658.756c-.14.317-.21.658-.21 1.022h-1.134c0-.644.135-1.195.406-1.652a2.696 2.696 0 0 1 1.106-1.064 3.375 3.375 0 0 1 1.582-.364c.868 0 1.577.247 2.128.742.56.485.84 1.213.84 2.184a3.77 3.77 0 0 1-.434 1.722 8.853 8.853 0 0 1-1.106 1.638 15.278 15.278 0 0 1-1.442 1.47c-.504.457-.975.868-1.414 1.232h4.732v.98h-6.468Zm7.158 1.666.812-3.094h1.218l-1.218 3.094h-.812Zm7.024-1.498c-.709 0-1.307-.131-1.792-.392a3.36 3.36 0 0 1-1.176-1.078 5.023 5.023 0 0 1-.644-1.498 7.471 7.471 0 0 1-.196-1.708c0-1.083.149-2.03.448-2.842.299-.821.728-1.461 1.288-1.918.569-.467 1.255-.7 2.058-.7.616 0 1.143.121 1.582.364.439.243.784.569 1.036.98.261.401.425.849.49 1.344h-1.092c-.103-.532-.331-.943-.686-1.232-.355-.289-.803-.434-1.344-.434-.737 0-1.358.35-1.862 1.05-.495.691-.761 1.773-.798 3.248.224-.439.579-.817 1.064-1.134.495-.327 1.087-.49 1.778-.49.56 0 1.083.131 1.568.392.495.261.896.63 1.204 1.106.308.467.462 1.017.462 1.652 0 .551-.135 1.078-.406 1.582a3.235 3.235 0 0 1-1.176 1.232c-.504.317-1.106.476-1.806.476Zm-.084-1.036c.439 0 .831-.093 1.176-.28.345-.187.616-.443.812-.77.196-.336.294-.719.294-1.148 0-.663-.219-1.19-.658-1.582-.429-.401-.971-.602-1.624-.602-.439 0-.831.103-1.176.308a2.258 2.258 0 0 0-.826.798 2.13 2.13 0 0 0-.294 1.092c0 .42.098.798.294 1.134.205.327.481.583.826.77.345.187.737.28 1.176.28Zm8.426 1.036c-.625 0-1.19-.112-1.694-.336a2.92 2.92 0 0 1-1.218-1.036c-.298-.457-.457-1.027-.476-1.708h1.19c.01.56.206 1.045.588 1.456.383.401.92.602 1.61.602.691 0 1.209-.191 1.554-.574.355-.383.532-.845.532-1.386 0-.457-.112-.831-.336-1.12a1.89 1.89 0 0 0-.882-.644 3.327 3.327 0 0 0-1.204-.21h-.728v-.994h.728c.635 0 1.13-.145 1.484-.434.364-.289.546-.695.546-1.218 0-.439-.144-.798-.434-1.078-.28-.289-.7-.434-1.26-.434-.541 0-.975.163-1.302.49-.326.317-.508.719-.546 1.204h-1.19a2.955 2.955 0 0 1 .42-1.414 2.629 2.629 0 0 1 1.064-.952c.448-.233.966-.35 1.554-.35.635 0 1.162.112 1.582.336.43.224.752.523.966.896.224.373.336.784.336 1.232 0 .495-.135.947-.406 1.358-.27.401-.676.672-1.218.812a2.59 2.59 0 0 1 1.442.826c.383.429.574.994.574 1.694 0 .541-.126 1.041-.378 1.498a2.694 2.694 0 0 1-1.092 1.078c-.485.271-1.087.406-1.806.406Zm9.001 0c-.868 0-1.62-.21-2.254-.63-.626-.429-1.106-1.022-1.442-1.778-.336-.765-.504-1.652-.504-2.66 0-1.008.168-1.89.504-2.646.336-.765.816-1.358 1.442-1.778.634-.429 1.386-.644 2.254-.644.868 0 1.614.215 2.24.644.625.42 1.106 1.013 1.442 1.778.336.756.504 1.638.504 2.646s-.168 1.895-.504 2.66c-.336.756-.817 1.349-1.442 1.778-.626.42-1.372.63-2.24.63Zm0-1.036c.569 0 1.078-.159 1.526-.476.457-.327.812-.789 1.064-1.386.261-.607.392-1.33.392-2.17 0-.84-.131-1.559-.392-2.156-.252-.597-.607-1.055-1.064-1.372a2.523 2.523 0 0 0-1.526-.49c-.579 0-1.092.163-1.54.49-.448.317-.803.775-1.064 1.372-.262.597-.392 1.316-.392 2.156 0 .84.13 1.563.392 2.17.261.597.616 1.059 1.064 1.386a2.6 2.6 0 0 0 1.54.476Z" fill="#040815" style="fill:color(display-p3 .0157 .0314 .0824);fill-opacity:1"/><mask id="g" style="mask-type:alpha" maskUnits="userSpaceOnUse" x="80" y="332" width="24" height="24"><path fill="#D9D9D9" style="fill:color(display-p3 .851 .851 .851);fill-opacity:1" d="M80 332h24v24H80z"/></mask><g mask="url(#g)"><path d="m94 353-1.425-1.425 3.6-3.575H85v-12h2v10h9.175l-3.6-3.6 1.4-1.425L100 347l-6 6Z" fill="#000" style="fill:#000;fill-opacity:1"/></g><path d="M111.5 332a3.5 3.5 0 0 1 3.5-3.5h147.5v31H115a3.5 3.5 0 0 1-3.5-3.5v-24Z" fill="#fff" style="fill:#fff;fill-opacity:1"/><path d="M111.5 332a3.5 3.5 0 0 1 3.5-3.5h147.5v31H115a3.5 3.5 0 0 1-3.5-3.5v-24Z" stroke="#040815" style="stroke:color(display-p3 .0157 .0314 .0824);stroke-opacity:1"/><path d="m119.33 348 2.838-7.7h.979l2.827 7.7h-.979l-.704-1.98h-3.278l-.715 1.98h-.968Zm1.958-2.728h2.728l-1.364-3.806-1.364 3.806Zm7.983 2.86c-.521 0-.99-.117-1.408-.352a2.673 2.673 0 0 1-.979-1.001c-.235-.433-.352-.935-.352-1.507 0-.572.117-1.071.352-1.496.242-.433.568-.766.979-1.001a2.758 2.758 0 0 1 1.408-.363c.645 0 1.188.169 1.628.506.447.337.73.788.847 1.353h-.946a1.192 1.192 0 0 0-.539-.781 1.76 1.76 0 0 0-1.001-.286c-.308 0-.598.077-.869.231a1.727 1.727 0 0 0-.66.693c-.169.308-.253.689-.253 1.144 0 .455.084.836.253 1.144.169.308.389.543.66.704.271.154.561.231.869.231.381 0 .715-.092 1.001-.275.286-.191.466-.458.539-.803h.946c-.11.55-.389.997-.836 1.342-.447.345-.994.517-1.639.517Zm5.771-.132c-.499 0-.891-.121-1.177-.363-.286-.242-.429-.678-.429-1.309v-3.003h-.946v-.781h.946l.121-1.309h.803v1.309h1.606v.781h-1.606v3.003c0 .345.07.579.209.704.139.117.385.176.737.176h.572V348h-.836Zm2.659-6.666a.651.651 0 0 1-.462-.176.651.651 0 0 1-.176-.462c0-.176.059-.323.176-.44a.651.651 0 0 1 .462-.176c.176 0 .326.059.451.176a.577.577 0 0 1 .187.44.627.627 0 0 1-.187.462.636.636 0 0 1-.451.176Zm-.462 6.666v-5.456h.924V348h-.924Zm4.106 0-2.068-5.456h.968l1.639 4.565 1.65-4.565h.946L142.412 348h-1.067Zm5.699.132c-.455 0-.833-.077-1.133-.231a1.562 1.562 0 0 1-.671-.616 1.653 1.653 0 0 1-.22-.836c0-.557.212-.986.638-1.287.425-.301 1.004-.451 1.738-.451h1.474v-.066c0-.477-.125-.836-.374-1.078-.25-.249-.583-.374-1.001-.374-.36 0-.671.092-.935.275-.257.176-.418.436-.484.781h-.946a1.76 1.76 0 0 1 .396-1.001c.234-.271.524-.477.869-.616a2.77 2.77 0 0 1 1.1-.22c.762 0 1.334.205 1.716.616.388.403.583.942.583 1.617V348h-.825l-.055-.979a2.197 2.197 0 0 1-.682.792c-.294.213-.69.319-1.188.319Zm.143-.781c.352 0 .652-.092.902-.275.256-.183.451-.422.583-.715.132-.293.198-.601.198-.924v-.011h-1.397c-.543 0-.928.095-1.155.286a.864.864 0 0 0-.33.693c0 .286.102.517.308.693.212.169.509.253.891.253Zm5.999.649c-.499 0-.891-.121-1.177-.363-.286-.242-.429-.678-.429-1.309v-3.003h-.946v-.781h.946l.121-1.309h.803v1.309h1.606v.781h-1.606v3.003c0 .345.069.579.209.704.139.117.385.176.737.176h.572V348h-.836Zm4.4.132a2.7 2.7 0 0 1-1.386-.352 2.625 2.625 0 0 1-.957-1.001c-.227-.425-.341-.928-.341-1.507 0-.572.114-1.071.341-1.496.227-.433.543-.766.946-1.001.411-.242.884-.363 1.419-.363.528 0 .983.121 1.364.363.389.235.686.546.891.935a2.65 2.65 0 0 1 .297 1.496v.275h-4.345c.022.418.117.766.286 1.045.176.271.392.477.649.616.264.139.543.209.836.209.381 0 .7-.088.957-.264.257-.176.444-.414.561-.715h.913a2.48 2.48 0 0 1-.847 1.265c-.411.33-.939.495-1.584.495Zm0-4.939c-.44 0-.832.136-1.177.407-.337.264-.532.653-.583 1.166h3.432c-.022-.491-.191-.876-.506-1.155s-.704-.418-1.166-.418Zm6.285 4.939c-.543 0-1.02-.125-1.43-.374a2.587 2.587 0 0 1-.946-1.023 3.207 3.207 0 0 1-.33-1.474c0-.55.113-1.038.341-1.463.227-.433.542-.77.946-1.012.403-.249.88-.374 1.43-.374.447 0 .843.092 1.188.275.344.183.612.44.803.77v-3.377h.924V348h-.836l-.088-.902a2.559 2.559 0 0 1-.759.715c-.33.213-.745.319-1.243.319Zm.099-.803c.366 0 .689-.084.968-.253.286-.176.506-.418.66-.726.161-.308.242-.667.242-1.078 0-.411-.081-.77-.242-1.078a1.686 1.686 0 0 0-.66-.715 1.776 1.776 0 0 0-.968-.264c-.36 0-.682.088-.968.264a1.777 1.777 0 0 0-.66.715 2.38 2.38 0 0 0-.231 1.078c0 .411.077.77.231 1.078.161.308.381.55.66.726.286.169.608.253.968.253Z" fill="#040815" style="fill:color(display-p3 .0157 .0314 .0824);fill-opacity:1"/><path d="M262.5 328.5H338a3.5 3.5 0 0 1 3.5 3.5v24a3.5 3.5 0 0 1-3.5 3.5h-75.5v-31Z" fill="#fff" style="fill:#fff;fill-opacity:1"/><path d="M262.5 328.5H338a3.5 3.5 0 0 1 3.5 3.5v24a3.5 3.5 0 0 1-3.5 3.5h-75.5v-31Z" stroke="#040815" style="stroke:color(display-p3 .0157 .0314 .0824);stroke-opacity:1"/><path d="M274.564 349.168c-.709 0-1.307-.131-1.792-.392a3.36 3.36 0 0 1-1.176-1.078 5.023 5.023 0 0 1-.644-1.498 7.471 7.471 0 0 1-.196-1.708c0-1.083.149-2.03.448-2.842.299-.821.728-1.461 1.288-1.918.569-.467 1.255-.7 2.058-.7.616 0 1.143.121 1.582.364.439.243.784.569 1.036.98.261.401.425.849.49 1.344h-1.092c-.103-.532-.331-.943-.686-1.232-.355-.289-.803-.434-1.344-.434-.737 0-1.358.35-1.862 1.05-.495.691-.761 1.773-.798 3.248.224-.439.579-.817 1.064-1.134.495-.327 1.087-.49 1.778-.49.56 0 1.083.131 1.568.392.495.261.896.63 1.204 1.106.308.467.462 1.017.462 1.652 0 .551-.135 1.078-.406 1.582a3.235 3.235 0 0 1-1.176 1.232c-.504.317-1.106.476-1.806.476Zm-.084-1.036c.439 0 .831-.093 1.176-.28.345-.187.616-.443.812-.77.196-.336.294-.719.294-1.148 0-.663-.219-1.19-.658-1.582-.429-.401-.971-.602-1.624-.602-.439 0-.831.103-1.176.308a2.258 2.258 0 0 0-.826.798 2.13 2.13 0 0 0-.294 1.092c0 .42.098.798.294 1.134.205.327.481.583.826.77.345.187.737.28 1.176.28Zm8.608 1.036c-.644 0-1.222-.117-1.736-.35a3.073 3.073 0 0 1-1.218-.994 2.594 2.594 0 0 1-.434-1.484c0-.597.173-1.134.518-1.61a2.538 2.538 0 0 1 1.4-.952c-.532-.177-.942-.462-1.232-.854a2.123 2.123 0 0 1-.434-1.288c0-.476.126-.91.378-1.302a2.625 2.625 0 0 1 1.078-.952c.467-.233 1.027-.35 1.68-.35.654 0 1.214.117 1.68.35.467.233.826.551 1.078.952.252.392.378.826.378 1.302 0 .457-.144.887-.434 1.288-.289.392-.7.677-1.232.854a2.467 2.467 0 0 1 1.386.952c.355.476.532 1.013.532 1.61 0 .56-.149 1.055-.448 1.484-.289.42-.69.751-1.204.994-.513.233-1.092.35-1.736.35Zm0-5.81c.598 0 1.069-.149 1.414-.448.355-.308.532-.709.532-1.204 0-.551-.172-.966-.518-1.246-.345-.28-.821-.42-1.428-.42-.606 0-1.082.14-1.428.42-.336.28-.504.695-.504 1.246 0 .495.173.896.518 1.204.346.299.817.448 1.414.448Zm0 4.774c.738 0 1.288-.168 1.652-.504.374-.345.56-.798.56-1.358 0-.635-.2-1.115-.602-1.442-.401-.327-.938-.49-1.61-.49-.672 0-1.208.163-1.61.49-.401.327-.602.807-.602 1.442 0 .56.182 1.013.546 1.358.374.336.929.504 1.666.504Zm10.78-4.382c-.42 0-.802-.093-1.148-.28a2.153 2.153 0 0 1-.798-.812c-.196-.355-.294-.775-.294-1.26s.098-.901.294-1.246c.206-.355.476-.625.812-.812a2.287 2.287 0 0 1 1.148-.294c.42 0 .798.098 1.134.294.336.187.602.457.798.812.196.345.294.761.294 1.246s-.102.905-.308 1.26a2.153 2.153 0 0 1-.798.812c-.336.187-.714.28-1.134.28ZM293 349l5.698-9.8h1.176l-5.698 9.8H293Zm.868-6.16c.327 0 .612-.121.854-.364.252-.243.378-.602.378-1.078 0-.485-.121-.849-.364-1.092a1.147 1.147 0 0 0-.854-.378c-.326 0-.62.126-.882.378-.252.243-.378.607-.378 1.092 0 .476.126.835.378 1.078.252.243.542.364.868.364Zm5.236 6.328c-.42 0-.802-.093-1.148-.28a2.153 2.153 0 0 1-.798-.812c-.196-.355-.294-.775-.294-1.26s.098-.901.294-1.246c.206-.355.476-.625.812-.812a2.209 2.209 0 0 1 1.134-.294c.42 0 .798.098 1.134.294.336.187.602.457.798.812.196.345.294.761.294 1.246s-.098.905-.294 1.26a2.153 2.153 0 0 1-.798.812c-.336.187-.714.28-1.134.28Zm-.014-.91c.336 0 .626-.121.868-.364.252-.243.378-.602.378-1.078 0-.485-.121-.849-.364-1.092a1.183 1.183 0 0 0-.868-.364c-.326 0-.616.121-.868.364s-.378.607-.378 1.092c0 .476.122.835.364 1.078.252.243.542.364.868.364Z" fill="#040815" style="fill:color(display-p3 .0157 .0314 .0824);fill-opacity:1"/><mask id="h" style="mask-type:alpha" maskUnits="userSpaceOnUse" x="349" y="332" width="24" height="24"><path fill="#D9D9D9" style="fill:color(display-p3 .851 .851 .851);fill-opacity:1" d="M349 332h24v24h-24z"/></mask><g mask="url(#h)"><path d="m355.4 351-1.4-1.4 5.6-5.6-5.6-5.6 1.4-1.4 5.6 5.6 5.6-5.6 1.4 1.4-5.6 5.6 5.6 5.6-1.4 1.4-5.6-5.6-5.6 5.6Z" fill="#fff" style="fill:#fff;fill-opacity:1"/></g><mask id="i" style="mask-type:alpha" maskUnits="userSpaceOnUse" x="80" y="372" width="24" height="24"><path fill="#D9D9D9" style="fill:color(display-p3 .851 .851 .851);fill-opacity:1" d="M80 372h24v24H80z"/></mask><g mask="url(#i)"><path d="m94 393-1.425-1.425 3.6-3.575H85v-12h2v10h9.175l-3.6-3.6 1.4-1.425L100 387l-6 6Z" fill="#000" style="fill:#000;fill-opacity:1"/></g><path d="M111.5 372a3.5 3.5 0 0 1 3.5-3.5h147.5v31H115a3.5 3.5 0 0 1-3.5-3.5v-24Z" fill="#fff" style="fill:#fff;fill-opacity:1"/><path d="M111.5 372a3.5 3.5 0 0 1 3.5-3.5h147.5v31H115a3.5 3.5 0 0 1-3.5-3.5v-24Z" stroke="#040815" style="stroke:color(display-p3 .0157 .0314 .0824);stroke-opacity:1"/><path d="M119.814 388v-7.7h.924v7.7h-.924Zm2.502 0v-5.456h.836l.066.792c.176-.293.41-.521.704-.682.293-.161.623-.242.99-.242.432 0 .803.088 1.111.264.315.176.557.444.726.803.19-.33.451-.59.781-.781.337-.191.7-.286 1.089-.286.652 0 1.173.198 1.562.594.388.389.583.99.583 1.804V388h-.913v-3.091c0-.565-.114-.99-.341-1.276-.228-.286-.554-.429-.979-.429-.44 0-.807.172-1.1.517-.286.337-.429.821-.429 1.452V388h-.924v-3.091c0-.565-.114-.99-.341-1.276-.228-.286-.554-.429-.979-.429-.433 0-.796.172-1.089.517-.286.337-.429.821-.429 1.452V388h-.924Zm9.839 2.42v-7.876h.836l.088.902a2.61 2.61 0 0 1 .748-.715c.33-.213.748-.319 1.254-.319.543 0 1.016.125 1.419.374.404.249.715.59.935 1.023.228.433.341.924.341 1.474 0 .55-.113 1.041-.341 1.474-.22.425-.535.763-.946 1.012-.403.242-.876.363-1.419.363-.447 0-.847-.092-1.199-.275a1.915 1.915 0 0 1-.792-.77v3.333h-.924Zm2.816-3.091c.367 0 .69-.084.968-.253.279-.176.499-.418.66-.726.162-.308.242-.667.242-1.078 0-.411-.08-.77-.242-1.078a1.777 1.777 0 0 0-.66-.715 1.772 1.772 0 0 0-.968-.264 1.791 1.791 0 0 0-1.628.979 2.294 2.294 0 0 0-.242 1.078c0 .411.081.77.242 1.078.162.308.382.55.66.726.279.169.602.253.968.253Zm5.907.803c-.455 0-.833-.077-1.133-.231a1.562 1.562 0 0 1-.671-.616 1.653 1.653 0 0 1-.22-.836c0-.557.212-.986.638-1.287.425-.301 1.004-.451 1.738-.451h1.474v-.066c0-.477-.125-.836-.374-1.078-.25-.249-.583-.374-1.001-.374-.36 0-.671.092-.935.275-.257.176-.418.436-.484.781h-.946a1.76 1.76 0 0 1 .396-1.001c.234-.271.524-.477.869-.616a2.77 2.77 0 0 1 1.1-.22c.762 0 1.334.205 1.716.616.388.403.583.942.583 1.617V388h-.825l-.055-.979a2.197 2.197 0 0 1-.682.792c-.294.213-.69.319-1.188.319Zm.143-.781c.352 0 .652-.092.902-.275.256-.183.451-.422.583-.715.132-.293.198-.601.198-.924v-.011h-1.397c-.543 0-.928.095-1.155.286a.864.864 0 0 0-.33.693c0 .286.102.517.308.693.212.169.509.253.891.253Zm6.501.781c-.521 0-.99-.117-1.408-.352a2.673 2.673 0 0 1-.979-1.001c-.235-.433-.352-.935-.352-1.507 0-.572.117-1.071.352-1.496.242-.433.568-.766.979-1.001a2.758 2.758 0 0 1 1.408-.363c.645 0 1.188.169 1.628.506.447.337.73.788.847 1.353h-.946a1.192 1.192 0 0 0-.539-.781 1.76 1.76 0 0 0-1.001-.286c-.308 0-.598.077-.869.231a1.727 1.727 0 0 0-.66.693c-.169.308-.253.689-.253 1.144 0 .455.084.836.253 1.144.169.308.389.543.66.704.271.154.561.231.869.231.381 0 .715-.092 1.001-.275.286-.191.466-.458.539-.803h.946c-.11.55-.389.997-.836 1.342-.447.345-.994.517-1.639.517Zm5.771-.132c-.499 0-.891-.121-1.177-.363-.286-.242-.429-.678-.429-1.309v-3.003h-.946v-.781h.946l.121-1.309h.803v1.309h1.606v.781h-1.606v3.003c0 .345.07.579.209.704.139.117.385.176.737.176h.572V388h-.836Zm4.4.132c-.52 0-.982-.117-1.386-.352a2.625 2.625 0 0 1-.957-1.001c-.227-.425-.341-.928-.341-1.507 0-.572.114-1.071.341-1.496.228-.433.543-.766.946-1.001.411-.242.884-.363 1.419-.363.528 0 .983.121 1.364.363.389.235.686.546.891.935a2.639 2.639 0 0 1 .297 1.496v.275h-4.345c.022.418.118.766.286 1.045.176.271.393.477.649.616.264.139.543.209.836.209.382 0 .701-.088.957-.264.257-.176.444-.414.561-.715h.913a2.474 2.474 0 0 1-.847 1.265c-.41.33-.938.495-1.584.495Zm0-4.939c-.44 0-.832.136-1.177.407-.337.264-.531.653-.583 1.166h3.432c-.022-.491-.19-.876-.506-1.155-.315-.279-.704-.418-1.166-.418Zm6.285 4.939c-.543 0-1.019-.125-1.43-.374a2.594 2.594 0 0 1-.946-1.023 3.207 3.207 0 0 1-.33-1.474c0-.55.114-1.038.341-1.463.227-.433.543-.77.946-1.012.403-.249.88-.374 1.43-.374.447 0 .843.092 1.188.275.345.183.612.44.803.77v-3.377h.924V388h-.836l-.088-.902a2.559 2.559 0 0 1-.759.715c-.33.213-.744.319-1.243.319Zm.099-.803c.367 0 .689-.084.968-.253.286-.176.506-.418.66-.726.161-.308.242-.667.242-1.078 0-.411-.081-.77-.242-1.078a1.686 1.686 0 0 0-.66-.715 1.774 1.774 0 0 0-.968-.264 1.81 1.81 0 0 0-.968.264 1.777 1.777 0 0 0-.66.715 2.38 2.38 0 0 0-.231 1.078c0 .411.077.77.231 1.078.161.308.381.55.66.726.286.169.609.253.968.253Z" fill="#040815" style="fill:color(display-p3 .0157 .0314 .0824);fill-opacity:1"/><path d="M262.5 368.5H338a3.5 3.5 0 0 1 3.5 3.5v24a3.5 3.5 0 0 1-3.5 3.5h-75.5v-31Z" fill="#fff" style="fill:#fff;fill-opacity:1"/><path d="M262.5 368.5H338a3.5 3.5 0 0 1 3.5 3.5v24a3.5 3.5 0 0 1-3.5 3.5h-75.5v-31Z" stroke="#040815" style="stroke:color(display-p3 .0157 .0314 .0824);stroke-opacity:1"/><path d="M270.882 389v-.826a36.347 36.347 0 0 0 1.876-1.582 19.392 19.392 0 0 0 1.582-1.596 7.573 7.573 0 0 0 1.092-1.54c.271-.504.406-.989.406-1.456a2.55 2.55 0 0 0-.182-.966 1.462 1.462 0 0 0-.56-.714c-.261-.187-.616-.28-1.064-.28-.429 0-.789.098-1.078.294a1.79 1.79 0 0 0-.658.756c-.14.317-.21.658-.21 1.022h-1.134c0-.644.135-1.195.406-1.652a2.696 2.696 0 0 1 1.106-1.064 3.375 3.375 0 0 1 1.582-.364c.868 0 1.577.247 2.128.742.56.485.84 1.213.84 2.184a3.77 3.77 0 0 1-.434 1.722 8.853 8.853 0 0 1-1.106 1.638 15.278 15.278 0 0 1-1.442 1.47c-.504.457-.975.868-1.414 1.232h4.732v.98h-6.468Zm11.498.168c-.672 0-1.256-.121-1.75-.364a3.105 3.105 0 0 1-1.19-.994 3.253 3.253 0 0 1-.532-1.456h1.148c.112.541.373.98.784 1.316.41.327.928.49 1.554.49.466 0 .868-.107 1.204-.322.336-.224.592-.523.77-.896.186-.373.28-.789.28-1.246 0-.728-.206-1.316-.616-1.764-.411-.448-.943-.672-1.596-.672-.542 0-1.004.121-1.386.364a2.17 2.17 0 0 0-.84.952h-1.12l.84-5.376h5.138v1.022h-4.228l-.574 2.982c.224-.271.532-.495.924-.672a3.365 3.365 0 0 1 1.372-.266c.644 0 1.204.149 1.68.448.485.299.863.705 1.134 1.218.27.513.406 1.097.406 1.75 0 .625-.136 1.204-.406 1.736a3.062 3.062 0 0 1-1.162 1.274c-.504.317-1.116.476-1.834.476Zm10.709-5.418a2.37 2.37 0 0 1-1.148-.28 2.153 2.153 0 0 1-.798-.812c-.196-.355-.294-.775-.294-1.26s.098-.901.294-1.246c.205-.355.476-.625.812-.812a2.284 2.284 0 0 1 1.148-.294c.42 0 .798.098 1.134.294.336.187.602.457.798.812.196.345.294.761.294 1.246s-.103.905-.308 1.26a2.153 2.153 0 0 1-.798.812c-.336.187-.714.28-1.134.28Zm-.868 5.25 5.698-9.8h1.176l-5.698 9.8h-1.176Zm.868-6.16c.327 0 .611-.121.854-.364.252-.243.378-.602.378-1.078 0-.485-.121-.849-.364-1.092a1.149 1.149 0 0 0-.854-.378c-.327 0-.621.126-.882.378-.252.243-.378.607-.378 1.092 0 .476.126.835.378 1.078.252.243.541.364.868.364Zm5.236 6.328a2.37 2.37 0 0 1-1.148-.28 2.153 2.153 0 0 1-.798-.812c-.196-.355-.294-.775-.294-1.26s.098-.901.294-1.246c.205-.355.476-.625.812-.812a2.209 2.209 0 0 1 1.134-.294c.42 0 .798.098 1.134.294.336.187.602.457.798.812.196.345.294.761.294 1.246s-.098.905-.294 1.26a2.153 2.153 0 0 1-.798.812c-.336.187-.714.28-1.134.28Zm-.014-.91c.336 0 .625-.121.868-.364.252-.243.378-.602.378-1.078 0-.485-.121-.849-.364-1.092a1.184 1.184 0 0 0-.868-.364c-.327 0-.616.121-.868.364s-.378.607-.378 1.092c0 .476.121.835.364 1.078.252.243.541.364.868.364Z" fill="#040815" style="fill:color(display-p3 .0157 .0314 .0824);fill-opacity:1"/><mask id="j" style="mask-type:alpha" maskUnits="userSpaceOnUse" x="349" y="372" width="24" height="24"><path fill="#D9D9D9" style="fill:color(display-p3 .851 .851 .851);fill-opacity:1" d="M349 372h24v24h-24z"/></mask><g mask="url(#j)"><path d="m355.4 391-1.4-1.4 5.6-5.6-5.6-5.6 1.4-1.4 5.6 5.6 5.6-5.6 1.4 1.4-5.6 5.6 5.6 5.6-1.4 1.4-5.6-5.6-5.6 5.6Z" fill="#fff" style="fill:#fff;fill-opacity:1"/></g><mask id="k" style="mask-type:alpha" maskUnits="userSpaceOnUse" x="80" y="412" width="24" height="24"><path fill="#D9D9D9" style="fill:color(display-p3 .851 .851 .851);fill-opacity:1" d="M80 412h24v24H80z"/></mask><g mask="url(#k)"><path d="m94 433-1.425-1.425 3.6-3.575H85v-12h2v10h9.175l-3.6-3.6 1.4-1.425L100 427l-6 6Z" fill="#fff" style="fill:#fff;fill-opacity:1"/></g><path d="M112.5 424c0-8.56 6.94-15.5 15.5-15.5h60.5v31H128c-8.56 0-15.5-6.94-15.5-15.5Z" fill="#fff" style="fill:#fff;fill-opacity:1"/><path d="M112.5 424c0-8.56 6.94-15.5 15.5-15.5h60.5v31H128c-8.56 0-15.5-6.94-15.5-15.5Z" stroke="#040815" style="stroke:color(display-p3 .0157 .0314 .0824);stroke-opacity:1"/><path d="M147.886 423.75a2.37 2.37 0 0 1-1.148-.28 2.153 2.153 0 0 1-.798-.812c-.196-.355-.294-.775-.294-1.26s.098-.901.294-1.246c.205-.355.476-.625.812-.812a2.284 2.284 0 0 1 1.148-.294c.42 0 .798.098 1.134.294.336.187.602.457.798.812.196.345.294.761.294 1.246s-.103.905-.308 1.26a2.153 2.153 0 0 1-.798.812c-.336.187-.714.28-1.134.28Zm-.868 5.25 5.698-9.8h1.176l-5.698 9.8h-1.176Zm.868-6.16c.327 0 .611-.121.854-.364.252-.243.378-.602.378-1.078 0-.485-.121-.849-.364-1.092a1.149 1.149 0 0 0-.854-.378c-.327 0-.621.126-.882.378-.252.243-.378.607-.378 1.092 0 .476.126.835.378 1.078.252.243.541.364.868.364Zm5.236 6.328a2.37 2.37 0 0 1-1.148-.28 2.153 2.153 0 0 1-.798-.812c-.196-.355-.294-.775-.294-1.26s.098-.901.294-1.246c.205-.355.476-.625.812-.812a2.209 2.209 0 0 1 1.134-.294c.42 0 .798.098 1.134.294.336.187.602.457.798.812.196.345.294.761.294 1.246s-.098.905-.294 1.26a2.153 2.153 0 0 1-.798.812c-.336.187-.714.28-1.134.28Zm-.014-.91c.336 0 .625-.121.868-.364.252-.243.378-.602.378-1.078 0-.485-.121-.849-.364-1.092a1.184 1.184 0 0 0-.868-.364c-.327 0-.616.121-.868.364s-.378.607-.378 1.092c0 .476.121.835.364 1.078.252.243.541.364.868.364Z" fill="#040815" style="fill:color(display-p3 .0157 .0314 .0824);fill-opacity:1"/><path fill="#fff" style="fill:#fff;fill-opacity:1" d="M188.5 408.5h76v31h-76z"/><path stroke="#040815" style="stroke:color(display-p3 .0157 .0314 .0824);stroke-opacity:1" d="M188.5 408.5h76v31h-76z"/><path d="m224.616 427.516-.7-.7 1.876-1.89-1.806-1.806.714-.7 1.806 1.806 1.876-1.89.7.7-1.876 1.89 1.806 1.806-.714.7-1.806-1.806-1.876 1.89Z" fill="#040815" style="fill:color(display-p3 .0157 .0314 .0824);fill-opacity:1"/><path d="M264.5 408.5H325c8.56 0 15.5 6.94 15.5 15.5 0 8.56-6.94 15.5-15.5 15.5h-60.5v-31Z" fill="#fff" style="fill:#fff;fill-opacity:1"/><path d="M264.5 408.5H325c8.56 0 15.5 6.94 15.5 15.5 0 8.56-6.94 15.5-15.5 15.5h-60.5v-31Z" stroke="#040815" style="stroke:color(display-p3 .0157 .0314 .0824);stroke-opacity:1"/><path d="m300.158 430.33 3.514-12.026h1.162l-3.514 12.026h-1.162Z" fill="#040815" style="fill:color(display-p3 .0157 .0314 .0824);fill-opacity:1"/></g><defs><linearGradient id="a" x1="158" y1="143" x2="222.5" y2="186" gradientUnits="userSpaceOnUse"><stop stop-color="#FD7228" style="stop-color:color(display-p3 .9922 .4471 .1569);stop-opacity:1"/><stop offset=".5" stop-color="#FD7228" style="stop-color:color(display-p3 .9922 .4471 .1569);stop-opacity:1"/></linearGradient><linearGradient id="b" x1="157.99" y1="206" x2="287.135" y2="206" gradientUnits="userSpaceOnUse"><stop stop-color="#FD7228" style="stop-color:color(display-p3 .9922 .4471 .1569);stop-opacity:1"/><stop offset=".5" stop-color="#CFCFCF" style="stop-color:color(display-p3 .8118 .8118 .8118);stop-opacity:1"/></linearGradient><linearGradient id="c" x1="309" y1="143" x2="373.5" y2="172" gradientUnits="userSpaceOnUse"><stop stop-color="#FD7228" style="stop-color:color(display-p3 .9922 .4471 .1569);stop-opacity:1"/><stop offset=".5" stop-color="#FD7228" style="stop-color:color(display-p3 .9922 .4471 .1569);stop-opacity:1"/></linearGradient><linearGradient id="d" x1="308.862" y1="180.625" x2="437.879" y2="180.625" gradientUnits="userSpaceOnUse"><stop stop-color="#FD7228" style="stop-color:color(display-p3 .9922 .4471 .1569);stop-opacity:1"/><stop offset=".5" stop-color="#CFCFCF" style="stop-color:color(display-p3 .8125 .8125 .8125);stop-opacity:1"/></linearGradient><filter id="e" x="0" y="212" width="453" height="312" filterUnits="userSpaceOnUse" color-interpolation-filters="sRGB"><feFlood flood-opacity="0" result="BackgroundImageFix"/><feColorMatrix in="SourceAlpha" values="0 0 0 0 0 0 0 0 0 0 0 0 0 0 0 0 0 0 127 0" result="hardAlpha"/><feOffset dy="4"/><feGaussianBlur stdDeviation="24"/><feComposite in2="hardAlpha" operator="out"/><feColorMatrix values="0 0 0 0 0 0 0 0 0 0 0 0 0 0 0 0 0 0 0.25 0"/><feBlend in2="BackgroundImageFix" result="effect1_dropShadow_532_1617"/><feBlend in="SourceGraphic" in2="effect1_dropShadow_532_1617" result="shape"/></filter></defs></svg>