<svg width="606" height="520" fill="none" xmlns="http://www.w3.org/2000/svg"><rect x="60" y="60" width="486" height="400" rx="32" fill="#F5F8FF" style="fill:color(display-p3 .9608 .9725 1);fill-opacity:1"/><g opacity=".8" filter="url(#a)" shape-rendering="crispEdges"><rect x="102" y="193.643" width="404.1" height="209.568" rx="15.943" fill="#fff" style="fill:#fff;fill-opacity:1"/><rect x="102.498" y="194.141" width="403.104" height="208.571" rx="15.445" stroke="#fff" stroke-opacity=".1" style="stroke:#fff;stroke-opacity:.1" stroke-width=".996"/></g><g opacity=".8" filter="url(#b)" shape-rendering="crispEdges"><rect x="91" y="157.821" width="426.55" height="221.21" rx="16.829" fill="#fff" style="fill:#fff;fill-opacity:1"/><rect x="91.526" y="158.347" width="425.498" height="220.158" rx="16.303" stroke="#fff" stroke-opacity=".1" style="stroke:#fff;stroke-opacity:.1" stroke-width="1.052"/></g><g filter="url(#c)"><rect x="79" y="117" width="449" height="232.853" rx="17.714" fill="#fff" style="fill:#fff;fill-opacity:1" shape-rendering="crispEdges"/><rect x="79.554" y="117.554" width="447.893" height="231.746" rx="17.161" stroke="#fff" stroke-opacity=".1" style="stroke:#fff;stroke-opacity:.1" stroke-width="1.107" shape-rendering="crispEdges"/><path d="M317.417 166.857v-9.8h1.792l4.606 6.902v-6.902h1.792v9.8h-1.792l-4.606-6.888v6.888h-1.792Zm13.38.168a3.614 3.614 0 0 1-1.82-.462 3.468 3.468 0 0 1-1.274-1.274c-.308-.55-.462-1.185-.462-1.904 0-.718.158-1.348.476-1.89.317-.55.742-.98 1.274-1.288a3.614 3.614 0 0 1 1.82-.462c.662 0 1.26.154 1.792.462a3.32 3.32 0 0 1 1.274 1.288c.317.542.476 1.172.476 1.89 0 .719-.159 1.354-.476 1.904a3.339 3.339 0 0 1-1.274 1.274 3.59 3.59 0 0 1-1.806.462Zm0-1.554c.466 0 .872-.172 1.218-.518.345-.354.518-.877.518-1.568 0-.69-.173-1.208-.518-1.554-.346-.354-.747-.532-1.204-.532-.476 0-.887.178-1.232.532-.336.346-.504.864-.504 1.554 0 .691.168 1.214.504 1.568.345.346.751.518 1.218.518Zm10.888 1.554c-.597 0-1.087-.093-1.47-.28-.383-.196-.667-.452-.854-.77a2.028 2.028 0 0 1-.28-1.05c0-.644.252-1.166.756-1.568.504-.401 1.26-.602 2.268-.602h1.764v-.168c0-.476-.135-.826-.406-1.05-.271-.224-.607-.336-1.008-.336-.364 0-.681.089-.952.266a1.09 1.09 0 0 0-.504.756h-1.75a2.48 2.48 0 0 1 .504-1.316 2.861 2.861 0 0 1 1.148-.854 3.859 3.859 0 0 1 1.568-.308c.989 0 1.769.248 2.338.742.569.495.854 1.195.854 2.1v4.27h-1.526l-.168-1.12a2.557 2.557 0 0 1-.868.924c-.364.243-.835.364-1.414.364Zm.406-1.4c.513 0 .91-.168 1.19-.504.289-.336.471-.751.546-1.246h-1.526c-.476 0-.817.089-1.022.266a.783.783 0 0 0-.308.63c0 .271.103.481.308.63.205.15.476.224.812.224Zm8.682 1.4c-.709 0-1.335-.154-1.876-.462a3.411 3.411 0 0 1-1.288-1.288c-.308-.55-.462-1.18-.462-1.89 0-.709.154-1.339.462-1.89.317-.55.747-.98 1.288-1.288.541-.308 1.167-.462 1.876-.462.887 0 1.633.234 2.24.7.607.458.994 1.092 1.162 1.904h-1.89a1.34 1.34 0 0 0-.56-.784 1.604 1.604 0 0 0-.966-.294c-.495 0-.915.187-1.26.56-.345.374-.518.892-.518 1.554 0 .663.173 1.181.518 1.554.345.374.765.56 1.26.56.373 0 .695-.093.966-.28.28-.186.467-.452.56-.798h1.89c-.168.784-.555 1.414-1.162 1.89-.607.476-1.353.714-2.24.714Zm7.991-.168c-.728 0-1.312-.177-1.75-.532-.439-.354-.658-.984-.658-1.89v-3.024h-1.19v-1.498h1.19l.21-1.862h1.582v1.862h1.876v1.498h-1.876v3.038c0 .336.07.57.21.7.149.122.401.182.756.182h.868v1.526h-1.218Zm3.764-8.022c-.326 0-.597-.098-.812-.294a.983.983 0 0 1-.308-.742.94.94 0 0 1 .308-.728c.215-.196.486-.294.812-.294.327 0 .593.098.798.294a.92.92 0 0 1 .322.728.96.96 0 0 1-.322.742c-.205.196-.471.294-.798.294Zm-.896 8.022v-6.944h1.792v6.944h-1.792Zm6.995.168a3.614 3.614 0 0 1-1.82-.462 3.468 3.468 0 0 1-1.274-1.274c-.308-.55-.462-1.185-.462-1.904 0-.718.158-1.348.476-1.89.317-.55.742-.98 1.274-1.288a3.614 3.614 0 0 1 1.82-.462c.662 0 1.26.154 1.792.462a3.32 3.32 0 0 1 1.274 1.288c.317.542.476 1.172.476 1.89 0 .719-.159 1.354-.476 1.904a3.339 3.339 0 0 1-1.274 1.274 3.59 3.59 0 0 1-1.806.462Zm0-1.554c.466 0 .872-.172 1.218-.518.345-.354.518-.877.518-1.568 0-.69-.173-1.208-.518-1.554-.346-.354-.747-.532-1.204-.532-.476 0-.887.178-1.232.532-.336.346-.504.864-.504 1.554 0 .691.168 1.214.504 1.568.345.346.751.518 1.218.518Zm5.158 1.386v-6.944h1.582l.14 1.176c.215-.41.523-.737.924-.98.411-.242.891-.364 1.442-.364.859 0 1.526.271 2.002.812.476.542.714 1.335.714 2.38v3.92h-1.792v-3.752c0-.597-.121-1.054-.364-1.372-.243-.317-.621-.476-1.134-.476-.504 0-.919.178-1.246.532-.317.355-.476.85-.476 1.484v3.584h-1.792Zm50.312-.118c-.719 0-1.354-.121-1.904-.364a3.12 3.12 0 0 1-1.302-1.064c-.318-.466-.481-1.031-.49-1.694h1.89c.018.458.182.845.49 1.162.317.308.751.462 1.302.462.476 0 .854-.112 1.134-.336.28-.233.42-.541.42-.924 0-.401-.126-.714-.378-.938-.243-.224-.57-.406-.98-.546l-1.316-.448c-.756-.261-1.335-.597-1.736-1.008-.392-.41-.588-.956-.588-1.638-.01-.578.126-1.073.406-1.484.289-.42.681-.742 1.176-.966.494-.233 1.064-.35 1.708-.35.653 0 1.227.117 1.722.35.504.234.896.56 1.176.98.289.42.443.92.462 1.498h-1.918a1.307 1.307 0 0 0-.406-.91c-.252-.27-.607-.406-1.064-.406-.392-.009-.724.089-.994.294-.262.196-.392.486-.392.868 0 .327.102.588.308.784.205.187.485.346.84.476.354.131.76.271 1.218.42.485.168.928.364 1.33.588.401.224.723.523.966.896.242.364.364.836.364 1.414 0 .514-.131.99-.392 1.428-.262.439-.649.794-1.162 1.064-.514.262-1.144.392-1.89.392Zm6.323-.168-2.03-6.944h1.778l1.204 4.998 1.4-4.998h1.988l1.4 4.998 1.218-4.998h1.778l-2.044 6.944h-1.862l-1.484-5.194-1.484 5.194h-1.862Zm10.833-8.022c-.327 0-.597-.098-.812-.294a.983.983 0 0 1-.308-.742.94.94 0 0 1 .308-.728c.215-.196.485-.294.812-.294.327 0 .593.098.798.294a.92.92 0 0 1 .322.728.96.96 0 0 1-.322.742c-.205.196-.471.294-.798.294Zm-.896 8.022v-6.944h1.792v6.944h-1.792Zm6.756 0c-.728 0-1.311-.177-1.75-.532-.438-.354-.658-.984-.658-1.89v-3.024h-1.19v-1.498h1.19l.21-1.862h1.582v1.862h1.876v1.498h-1.876v3.038c0 .336.07.57.21.7.15.122.402.182.756.182h.868v1.526h-1.218Zm6.023.168c-.709 0-1.334-.154-1.876-.462a3.418 3.418 0 0 1-1.288-1.288c-.308-.55-.462-1.18-.462-1.89 0-.709.154-1.339.462-1.89.318-.55.747-.98 1.288-1.288.542-.308 1.167-.462 1.876-.462.887 0 1.634.234 2.24.7.607.458.994 1.092 1.162 1.904h-1.89a1.34 1.34 0 0 0-.56-.784 1.6 1.6 0 0 0-.966-.294c-.494 0-.914.187-1.26.56-.345.374-.518.892-.518 1.554 0 .663.173 1.181.518 1.554.346.374.766.56 1.26.56.374 0 .696-.093.966-.28.28-.186.467-.452.56-.798h1.89c-.168.784-.555 1.414-1.162 1.89-.606.476-1.353.714-2.24.714Zm4.993-.168v-10.08h1.792v4.2c.233-.382.546-.681.938-.896a2.764 2.764 0 0 1 1.372-.336c.858 0 1.521.271 1.988.812.476.542.714 1.335.714 2.38v3.92h-1.778v-3.752c0-.597-.122-1.054-.364-1.372-.234-.317-.607-.476-1.12-.476-.504 0-.924.178-1.26.532-.327.355-.49.85-.49 1.484v3.584h-1.792Zm11.853 0v-6.944h1.582l.14 1.176c.215-.41.523-.737.924-.98.411-.242.892-.364 1.442-.364.859 0 1.526.271 2.002.812.476.542.714 1.335.714 2.38v3.92h-1.792v-3.752c0-.597-.121-1.054-.364-1.372-.242-.317-.62-.476-1.134-.476-.504 0-.919.178-1.246.532-.317.355-.476.85-.476 1.484v3.584h-1.792Zm11.85.168a3.614 3.614 0 0 1-1.82-.462 3.468 3.468 0 0 1-1.274-1.274c-.308-.55-.462-1.185-.462-1.904 0-.718.159-1.348.476-1.89.317-.55.742-.98 1.274-1.288a3.614 3.614 0 0 1 1.82-.462c.663 0 1.26.154 1.792.462a3.32 3.32 0 0 1 1.274 1.288c.317.542.476 1.172.476 1.89 0 .719-.159 1.354-.476 1.904a3.339 3.339 0 0 1-1.274 1.274 3.586 3.586 0 0 1-1.806.462Zm0-1.554c.467 0 .873-.172 1.218-.518.345-.354.518-.877.518-1.568 0-.69-.173-1.208-.518-1.554-.345-.354-.747-.532-1.204-.532-.476 0-.887.178-1.232.532-.336.346-.504.864-.504 1.554 0 .691.168 1.214.504 1.568.345.346.751.518 1.218.518Zm6.27 1.386-2.03-6.944h1.778l1.204 4.998 1.4-4.998h1.988l1.4 4.998 1.218-4.998h1.778l-2.044 6.944h-1.862l-1.484-5.194-1.484 5.194h-1.862Z" fill="#040815" style="fill:color(display-p3 .0157 .0314 .0824);fill-opacity:1"/><path d="M492.571 216.571H114.428v2h378.143v-2Z" fill="#040815" fill-opacity=".1" style="fill:color(display-p3 .0157 .0314 .0824);fill-opacity:.1" mask="url(#path-10-inside-1_532_2362)"/><path d="M115.464 205.571v-9.8h1.176v8.862h4.564v.938h-5.74Zm8-8.484a.824.824 0 0 1-.588-.224.824.824 0 0 1-.224-.588c0-.224.075-.41.224-.56a.828.828 0 0 1 .588-.224.81.81 0 0 1 .574.224c.159.15.238.336.238.56 0 .234-.079.43-.238.588a.805.805 0 0 1-.574.224Zm-.588 8.484v-6.944h1.176v6.944h-1.176Zm6.416.168c-.663 0-1.26-.149-1.792-.448a3.395 3.395 0 0 1-1.246-1.274c-.299-.55-.448-1.19-.448-1.918s.149-1.362.448-1.904c.308-.55.723-.975 1.246-1.274a3.51 3.51 0 0 1 1.792-.462c.821 0 1.512.215 2.072.644.569.43.928 1.004 1.078 1.722h-1.204a1.523 1.523 0 0 0-.686-.994 2.249 2.249 0 0 0-1.274-.364c-.392 0-.761.098-1.106.294-.346.196-.626.49-.84.882-.215.392-.322.878-.322 1.456 0 .579.107 1.064.322 1.456.214.392.494.691.84.896.345.196.714.294 1.106.294.485 0 .91-.116 1.274-.35.364-.242.592-.583.686-1.022h1.204a2.78 2.78 0 0 1-1.064 1.708c-.57.439-1.265.658-2.086.658Zm7.914 0c-.663 0-1.251-.149-1.764-.448a3.332 3.332 0 0 1-1.218-1.274c-.289-.541-.434-1.18-.434-1.918 0-.728.145-1.362.434-1.904.289-.55.691-.975 1.204-1.274.523-.308 1.125-.462 1.806-.462.672 0 1.251.154 1.736.462a3.02 3.02 0 0 1 1.134 1.19 3.371 3.371 0 0 1 .378 1.904v.35h-5.53c.028.532.149.976.364 1.33.224.346.499.607.826.784.336.178.691.266 1.064.266.485 0 .891-.112 1.218-.336.327-.224.565-.527.714-.91h1.162a3.156 3.156 0 0 1-1.078 1.61c-.523.42-1.195.63-2.016.63Zm0-6.286a2.36 2.36 0 0 0-1.498.518c-.429.336-.677.831-.742 1.484h4.368c-.028-.625-.243-1.115-.644-1.47-.401-.354-.896-.532-1.484-.532Zm4.849 6.118v-6.944h1.064l.07 1.246c.224-.438.546-.784.966-1.036.42-.252.896-.378 1.428-.378.821 0 1.474.252 1.96.756.494.495.742 1.26.742 2.296v4.06h-1.176v-3.934c0-1.446-.598-2.17-1.792-2.17-.598 0-1.097.22-1.498.658-.392.43-.588 1.046-.588 1.848v3.598h-1.176Zm11.203.168c-.662 0-1.26-.149-1.792-.448a3.403 3.403 0 0 1-1.246-1.274c-.298-.55-.448-1.19-.448-1.918s.15-1.362.448-1.904c.308-.55.724-.975 1.246-1.274a3.513 3.513 0 0 1 1.792-.462c.822 0 1.512.215 2.072.644.57.43.929 1.004 1.078 1.722h-1.204a1.52 1.52 0 0 0-.686-.994 2.246 2.246 0 0 0-1.274-.364c-.392 0-.76.098-1.106.294-.345.196-.625.49-.84.882-.214.392-.322.878-.322 1.456 0 .579.108 1.064.322 1.456.215.392.495.691.84.896.346.196.714.294 1.106.294.486 0 .91-.116 1.274-.35.364-.242.593-.583.686-1.022h1.204c-.14.7-.494 1.27-1.064 1.708-.569.439-1.264.658-2.086.658Zm7.915 0c-.663 0-1.251-.149-1.764-.448a3.317 3.317 0 0 1-1.218-1.274c-.29-.541-.434-1.18-.434-1.918 0-.728.144-1.362.434-1.904.289-.55.69-.975 1.204-1.274.522-.308 1.124-.462 1.806-.462.672 0 1.25.154 1.736.462.494.299.872.696 1.134 1.19a3.371 3.371 0 0 1 .378 1.904v.35h-5.53c.028.532.149.976.364 1.33.224.346.499.607.826.784.336.178.69.266 1.064.266.485 0 .891-.112 1.218-.336.326-.224.564-.527.714-.91h1.162a3.156 3.156 0 0 1-1.078 1.61c-.523.42-1.195.63-2.016.63Zm0-6.286c-.56 0-1.06.173-1.498.518-.43.336-.677.831-.742 1.484h4.368c-.028-.625-.243-1.115-.644-1.47-.402-.354-.896-.532-1.484-.532Zm11.745 6.286c-.662 0-1.26-.149-1.792-.448a3.403 3.403 0 0 1-1.246-1.274c-.298-.55-.448-1.19-.448-1.918s.15-1.362.448-1.904c.308-.55.724-.975 1.246-1.274a3.513 3.513 0 0 1 1.792-.462c.822 0 1.512.215 2.072.644.57.43.929 1.004 1.078 1.722h-1.204a1.52 1.52 0 0 0-.686-.994 2.246 2.246 0 0 0-1.274-.364c-.392 0-.76.098-1.106.294-.345.196-.625.49-.84.882-.214.392-.322.878-.322 1.456 0 .579.108 1.064.322 1.456.215.392.495.691.84.896.346.196.714.294 1.106.294.486 0 .91-.116 1.274-.35.364-.242.593-.583.686-1.022h1.204c-.14.7-.494 1.27-1.064 1.708-.569.439-1.264.658-2.086.658Zm7.957 0a3.49 3.49 0 0 1-1.764-.448 3.287 3.287 0 0 1-1.246-1.26c-.299-.55-.448-1.194-.448-1.932 0-.737.154-1.376.462-1.918.308-.55.723-.975 1.246-1.274a3.577 3.577 0 0 1 1.778-.448 3.5 3.5 0 0 1 1.764.448c.523.299.933.724 1.232 1.274.308.542.462 1.181.462 1.918 0 .738-.154 1.382-.462 1.932a3.26 3.26 0 0 1-1.26 1.26 3.49 3.49 0 0 1-1.764.448Zm0-1.008c.401 0 .775-.098 1.12-.294.345-.196.625-.49.84-.882.215-.392.322-.877.322-1.456 0-.578-.107-1.064-.322-1.456a2.104 2.104 0 0 0-.826-.882 2.204 2.204 0 0 0-1.106-.294c-.401 0-.775.098-1.12.294-.345.196-.625.49-.84.882-.215.392-.322.878-.322 1.456 0 .579.107 1.064.322 1.456.215.392.49.686.826.882.345.196.714.294 1.106.294Zm7.781 1.008c-.831 0-1.521-.21-2.072-.63-.551-.42-.873-.989-.966-1.708h1.204c.075.364.266.682.574.952.317.262.742.392 1.274.392.495 0 .859-.102 1.092-.308.233-.214.35-.466.35-.756 0-.42-.154-.7-.462-.84-.299-.14-.723-.266-1.274-.378a7.148 7.148 0 0 1-1.12-.322 2.594 2.594 0 0 1-.938-.588c-.252-.261-.378-.602-.378-1.022 0-.606.224-1.101.672-1.484.457-.392 1.073-.588 1.848-.588.737 0 1.339.187 1.806.56.476.364.751.887.826 1.568h-1.162c-.047-.354-.201-.63-.462-.826-.252-.205-.593-.308-1.022-.308-.42 0-.747.089-.98.266a.85.85 0 0 0-.336.7c0 .28.145.5.434.658.299.159.7.294 1.204.406.429.094.835.21 1.218.35.392.131.709.332.952.602.252.262.378.644.378 1.148.009.626-.229 1.144-.714 1.554-.476.402-1.125.602-1.946.602Zm6.77-.168c-.635 0-1.134-.154-1.498-.462-.364-.308-.546-.863-.546-1.666v-3.822h-1.204v-.994h1.204l.154-1.666h1.022v1.666h2.044v.994h-2.044v3.822c0 .439.088.738.266.896.177.15.49.224.938.224h.728v1.008h-1.064Z" fill="#040815" style="fill:color(display-p3 .0157 .0314 .0824);fill-opacity:1"/><circle cx="324.571" cy="200.571" r="8" fill="#BFF6E5" style="fill:color(display-p3 .749 .9647 .898);fill-opacity:1"/><path d="M341.635 205.571v-1.05a4.5 4.5 0 0 0 .84-1.12c.196-.392.294-.896.294-1.512 0-.158-.014-.322-.042-.49h-1.596v-1.232h1.204a9.037 9.037 0 0 1-.224-.756 3.927 3.927 0 0 1-.084-.826c0-.616.131-1.148.392-1.596a2.642 2.642 0 0 1 1.12-1.022c.486-.242 1.041-.364 1.666-.364.71 0 1.298.136 1.764.406.467.271.822.635 1.064 1.092.243.458.378.966.406 1.526h-1.652c-.018-.438-.158-.802-.42-1.092-.261-.298-.639-.448-1.134-.448-.41 0-.765.126-1.064.378-.298.252-.448.644-.448 1.176 0 .243.038.495.112.756.075.252.159.509.252.77h2.618v1.232h-2.282c.028.168.042.332.042.49 0 .383-.074.77-.224 1.162a3.021 3.021 0 0 1-.742 1.092h4.984v1.428h-6.846Zm9.648 0v-7.756l-1.61.378v-1.372l2.366-1.05h1.106v9.8h-1.862Zm7.78.168c-.906 0-1.68-.21-2.324-.63-.644-.429-1.144-1.022-1.498-1.778-.346-.765-.518-1.652-.518-2.66 0-.998.172-1.88.518-2.646.354-.765.854-1.358 1.498-1.778.644-.429 1.418-.644 2.324-.644.905 0 1.68.215 2.324.644.644.42 1.138 1.013 1.484 1.778.354.766.532 1.648.532 2.646 0 1.008-.178 1.895-.532 2.66-.346.756-.84 1.349-1.484 1.778-.644.42-1.419.63-2.324.63Zm0-1.61c.737 0 1.339-.308 1.806-.924.466-.616.7-1.46.7-2.534 0-1.073-.234-1.918-.7-2.534-.467-.616-1.069-.924-1.806-.924-.747 0-1.354.308-1.82.924-.458.616-.686 1.461-.686 2.534 0 1.074.228 1.918.686 2.534.466.616 1.073.924 1.82.924Zm9.939 1.61c-.905 0-1.68-.21-2.324-.63-.644-.429-1.143-1.022-1.498-1.778-.345-.765-.518-1.652-.518-2.66 0-.998.173-1.88.518-2.646.355-.765.854-1.358 1.498-1.778.644-.429 1.419-.644 2.324-.644.906 0 1.68.215 2.324.644.644.42 1.139 1.013 1.484 1.778.355.766.532 1.648.532 2.646 0 1.008-.177 1.895-.532 2.66-.345.756-.84 1.349-1.484 1.778-.644.42-1.418.63-2.324.63Zm0-1.61c.738 0 1.34-.308 1.806-.924.467-.616.7-1.46.7-2.534 0-1.073-.233-1.918-.7-2.534-.466-.616-1.068-.924-1.806-.924-.746 0-1.353.308-1.82.924-.457.616-.686 1.461-.686 2.534 0 1.074.229 1.918.686 2.534.467.616 1.074.924 1.82.924Zm5.922 1.442v-9.8h1.792v3.962l3.626-3.962h2.212l-3.612 3.892 3.71 5.908h-2.198l-2.8-4.536-.938 1.022v3.514h-1.792Z" fill="#040815" style="fill:color(display-p3 .0157 .0314 .0824);fill-opacity:1"/><circle cx="436.571" cy="200.571" r="8" fill="#FD7228" style="fill:color(display-p3 .9922 .4471 .1569);fill-opacity:1"/><path d="M453.635 205.571v-1.05a4.5 4.5 0 0 0 .84-1.12c.196-.392.294-.896.294-1.512 0-.158-.014-.322-.042-.49h-1.596v-1.232h1.204a9.037 9.037 0 0 1-.224-.756 3.927 3.927 0 0 1-.084-.826c0-.616.131-1.148.392-1.596a2.642 2.642 0 0 1 1.12-1.022c.486-.242 1.041-.364 1.666-.364.71 0 1.298.136 1.764.406.467.271.822.635 1.064 1.092.243.458.378.966.406 1.526h-1.652c-.018-.438-.158-.802-.42-1.092-.261-.298-.639-.448-1.134-.448-.41 0-.765.126-1.064.378-.298.252-.448.644-.448 1.176 0 .243.038.495.112.756.075.252.159.509.252.77h2.618v1.232h-2.282c.028.168.042.332.042.49 0 .383-.074.77-.224 1.162a3.021 3.021 0 0 1-.742 1.092h4.984v1.428h-6.846Zm9.144 0 3.696-8.274h-4.83v-1.526h6.678v1.274l-3.682 8.526h-1.862Zm10.09.168c-.718 0-1.339-.126-1.862-.378a3.084 3.084 0 0 1-1.218-1.036 3.244 3.244 0 0 1-.504-1.512h1.75c.084.402.29.738.616 1.008.327.262.733.392 1.218.392.523 0 .948-.191 1.274-.574.336-.382.504-.858.504-1.428 0-.588-.168-1.054-.504-1.4-.326-.345-.742-.518-1.246-.518-.42 0-.784.103-1.092.308a1.74 1.74 0 0 0-.658.77h-1.722l.84-5.6h5.432v1.568h-4.088l-.448 2.268c.206-.224.486-.406.84-.546a3.048 3.048 0 0 1 1.19-.224c.7 0 1.284.159 1.75.476a2.96 2.96 0 0 1 1.064 1.232c.243.504.364 1.055.364 1.652 0 .682-.149 1.288-.448 1.82-.289.532-.7.952-1.232 1.26-.522.308-1.129.462-1.82.462Zm5.168-.168v-9.8h1.792v3.962l3.626-3.962h2.212l-3.612 3.892 3.71 5.908h-2.198l-2.8-4.536-.938 1.022v3.514h-1.792Z" fill="#040815" style="fill:color(display-p3 .0157 .0314 .0824);fill-opacity:1"/><path d="M492.571 250.571H114.428v2h378.143v-2Z" fill="#040815" fill-opacity=".1" style="fill:color(display-p3 .0157 .0314 .0824);fill-opacity:.1" mask="url(#path-17-inside-2_532_2362)"/><path d="M115.464 239.571v-9.8h3.164c.766 0 1.391.126 1.876.378.486.252.845.598 1.078 1.036.234.439.35.924.35 1.456 0 .616-.168 1.172-.504 1.666-.326.495-.84.845-1.54 1.05l2.142 4.214h-1.386l-1.988-4.046h-2.016v4.046h-1.176Zm1.176-4.97h1.904c.756 0 1.307-.182 1.652-.546.346-.364.518-.83.518-1.4 0-.578-.172-1.036-.518-1.372-.336-.345-.891-.518-1.666-.518h-1.89v3.836Zm11.575 5.138c-.961 0-1.806-.21-2.534-.63a4.544 4.544 0 0 1-1.694-1.792c-.401-.765-.602-1.647-.602-2.646 0-.998.201-1.876.602-2.632a4.557 4.557 0 0 1 1.694-1.792c.728-.429 1.573-.644 2.534-.644.971 0 1.816.215 2.534.644a4.42 4.42 0 0 1 1.694 1.792c.402.756.602 1.634.602 2.632 0 .999-.2 1.881-.602 2.646a4.408 4.408 0 0 1-1.694 1.792c-.718.42-1.563.63-2.534.63Zm0-1.036c.719 0 1.349-.158 1.89-.476a3.259 3.259 0 0 0 1.274-1.386c.308-.606.462-1.33.462-2.17 0-.84-.154-1.558-.462-2.156a3.184 3.184 0 0 0-1.274-1.372c-.541-.326-1.171-.49-1.89-.49-.718 0-1.353.164-1.904.49a3.307 3.307 0 0 0-1.274 1.372c-.298.598-.448 1.316-.448 2.156 0 .84.15 1.564.448 2.17.308.598.733 1.06 1.274 1.386.551.318 1.186.476 1.904.476Zm6.527.868v-9.8h1.176v9.8h-1.176Z" fill="#040815" style="fill:color(display-p3 .0157 .0314 .0824);fill-opacity:1"/><circle cx="324.571" cy="234.571" r="8" fill="#BFF6E5" style="fill:color(display-p3 .749 .9647 .898);fill-opacity:1"/><path d="M345.205 239.739c-.737 0-1.358-.135-1.862-.406a3.344 3.344 0 0 1-1.218-1.092 4.782 4.782 0 0 1-.672-1.526 7.59 7.59 0 0 1-.196-1.722c0-1.092.154-2.039.462-2.842.308-.812.752-1.437 1.33-1.876.579-.448 1.279-.672 2.1-.672.672 0 1.242.136 1.708.406.476.262.845.607 1.106 1.036.262.43.416.892.462 1.386h-1.666c-.084-.429-.266-.76-.546-.994-.28-.233-.639-.35-1.078-.35-.625 0-1.129.29-1.512.868-.382.57-.588 1.442-.616 2.618.224-.382.56-.7 1.008-.952a3.004 3.004 0 0 1 1.498-.378c.542 0 1.05.131 1.526.392.476.262.859.63 1.148 1.106.299.476.448 1.036.448 1.68 0 .588-.144 1.134-.434 1.638-.28.504-.681.91-1.204 1.218-.513.308-1.11.462-1.792.462Zm-.098-1.54c.523 0 .952-.158 1.288-.476.346-.326.518-.737.518-1.232 0-.522-.172-.942-.518-1.26-.345-.317-.784-.476-1.316-.476-.345 0-.658.08-.938.238-.27.15-.485.355-.644.616a1.576 1.576 0 0 0-.238.854c0 .504.173.92.518 1.246.355.327.798.49 1.33.49Zm4.589 1.372 2.52-3.472-2.52-3.472h1.918l1.764 2.464 1.75-2.464h1.932l-2.534 3.472 2.534 3.472h-1.932l-1.75-2.464-1.764 2.464h-1.918Z" fill="#040815" style="fill:color(display-p3 .0157 .0314 .0824);fill-opacity:1"/><circle cx="436.571" cy="234.571" r="8" fill="#FD7228" style="fill:color(display-p3 .9922 .4471 .1569);fill-opacity:1"/><path d="M454.587 239.571v-7.756l-1.61.378v-1.372l2.366-1.05h1.106v9.8h-1.862Zm3.524 0v-1.302a93.475 93.475 0 0 0 1.736-1.47c.57-.485 1.074-.966 1.512-1.442a7.75 7.75 0 0 0 1.064-1.386c.271-.457.406-.9.406-1.33 0-.401-.112-.756-.336-1.064-.214-.308-.574-.462-1.078-.462-.513 0-.9.168-1.162.504-.261.336-.392.742-.392 1.218h-1.736c.019-.718.178-1.316.476-1.792a2.77 2.77 0 0 1 1.19-1.078 3.742 3.742 0 0 1 1.666-.364c.999 0 1.774.276 2.324.826.56.542.84 1.246.84 2.114 0 .542-.126 1.069-.378 1.582a6.776 6.776 0 0 1-.966 1.484 13.53 13.53 0 0 1-1.302 1.344c-.466.411-.919.794-1.358 1.148h4.242v1.47h-6.748Zm7.687 0 2.52-3.472-2.52-3.472h1.918l1.764 2.464 1.75-2.464h1.932l-2.534 3.472 2.534 3.472h-1.932l-1.75-2.464-1.764 2.464h-1.918Z" fill="#040815" style="fill:color(display-p3 .0157 .0314 .0824);fill-opacity:1"/><rect x="114.928" y="289.781" width="377.143" height="33" rx="7.5" stroke="#938F99" style="stroke:color(display-p3 .5765 .5608 .6);stroke-opacity:1"/><mask id="d" style="mask-type:alpha" maskUnits="userSpaceOnUse" x="203" y="294" width="24" height="25"><path fill="#D9D9D9" style="fill:color(display-p3 .851 .851 .851);fill-opacity:1" d="M203.046 294.327h23.908v23.908h-23.908z"/></mask><g mask="url(#d)"><path d="m212.559 312.258-5.678-5.678 1.419-1.419 4.259 4.258 9.14-9.139 1.419 1.419-10.559 10.559Z" fill="#040815" style="fill:color(display-p3 .0157 .0314 .0824);fill-opacity:1"/></g><path d="M235.934 310.781V300.69h4.051c1.048 0 1.845.245 2.393.735.558.481.836 1.101.836 1.86 0 .634-.173 1.144-.519 1.528-.336.375-.749.63-1.239.764a2.395 2.395 0 0 1 1.427.865c.375.452.562.98.562 1.586 0 .798-.288 1.456-.865 1.975-.577.519-1.393.778-2.451.778h-4.195Zm1.845-5.853h1.932c.519 0 .918-.12 1.197-.36s.418-.582.418-1.024c0-.422-.139-.754-.418-.994-.269-.25-.678-.375-1.226-.375h-1.903v2.753Zm0 4.354h2.062c.548 0 .971-.125 1.269-.375.307-.259.461-.62.461-1.081 0-.471-.159-.841-.476-1.11-.317-.269-.745-.404-1.283-.404h-2.033v2.97Zm9.888 1.672c-.894 0-1.586-.278-2.076-.836-.48-.557-.721-1.374-.721-2.451v-4.036h1.831v3.863c0 .616.125 1.086.375 1.413.25.327.644.49 1.182.49.509 0 .928-.182 1.254-.547.337-.366.505-.875.505-1.529v-3.69h1.845v7.15h-1.629l-.144-1.211c-.221.423-.543.76-.966 1.01-.413.249-.899.374-1.456.374Zm9.045 0c-.635 0-1.192-.101-1.673-.302-.48-.212-.864-.5-1.153-.865a2.491 2.491 0 0 1-.519-1.269h1.86c.058.279.211.519.461.721.26.192.591.288.995.288s.697-.082.879-.245c.193-.163.289-.351.289-.562 0-.308-.135-.514-.404-.62-.269-.115-.644-.226-1.124-.332-.308-.067-.62-.149-.938-.245a4.813 4.813 0 0 1-.879-.36 2.037 2.037 0 0 1-.634-.577c-.164-.24-.245-.533-.245-.879 0-.634.25-1.168.749-1.6.51-.433 1.221-.649 2.134-.649.846 0 1.518.197 2.018.591.51.394.812.937.908 1.629h-1.744c-.106-.529-.504-.793-1.196-.793-.346 0-.616.067-.808.202-.182.134-.274.303-.274.504 0 .212.14.38.418.505.279.125.649.24 1.11.346.5.115.957.245 1.37.389.423.135.759.341 1.009.62.25.269.375.659.375 1.168.01.442-.106.841-.346 1.196-.24.356-.586.635-1.038.837-.452.201-.985.302-1.6.302Zm5.613-8.433c-.336 0-.615-.101-.836-.303a1.012 1.012 0 0 1-.317-.764c0-.308.106-.557.317-.75.221-.201.5-.302.836-.302.337 0 .611.101.822.302a.948.948 0 0 1 .332.75.99.99 0 0 1-.332.764c-.211.202-.485.303-.822.303Zm-.922 8.26v-7.15h1.845v7.15h-1.845Zm3.771 0v-7.15h1.629l.144 1.211c.221-.423.538-.759.952-1.009.423-.25.918-.375 1.485-.375.884 0 1.571.279 2.061.836.49.557.735 1.374.735 2.451v4.036h-1.845v-3.863c0-.615-.125-1.086-.375-1.413-.25-.327-.639-.49-1.167-.49-.519 0-.947.182-1.284.548-.326.365-.49.874-.49 1.528v3.69h-1.845Zm12.245.173c-.721 0-1.36-.153-1.917-.461a3.34 3.34 0 0 1-1.312-1.297c-.317-.558-.476-1.202-.476-1.932 0-.74.154-1.399.462-1.975a3.41 3.41 0 0 1 1.297-1.341c.557-.327 1.211-.49 1.961-.49.701 0 1.321.154 1.859.461a3.25 3.25 0 0 1 1.255 1.269c.307.528.461 1.12.461 1.773 0 .106-.005.216-.015.332 0 .115-.004.235-.014.36h-5.435c.039.557.231.995.577 1.312a1.86 1.86 0 0 0 1.283.476c.375 0 .687-.082.937-.245.259-.173.452-.394.577-.664h1.874a3.422 3.422 0 0 1-.678 1.24 3.252 3.252 0 0 1-1.153.865c-.452.212-.966.317-1.543.317Zm.015-5.997c-.452 0-.851.13-1.197.389-.346.25-.567.635-.663 1.154h3.561c-.029-.471-.202-.846-.519-1.125-.317-.278-.711-.418-1.182-.418Zm8.082 5.997c-.634 0-1.191-.101-1.672-.302a2.949 2.949 0 0 1-1.153-.865 2.474 2.474 0 0 1-.519-1.269h1.859c.058.279.212.519.462.721.259.192.591.288.994.288.404 0 .697-.082.88-.245.192-.163.288-.351.288-.562 0-.308-.134-.514-.404-.62-.269-.115-.643-.226-1.124-.332-.308-.067-.62-.149-.937-.245a4.813 4.813 0 0 1-.879-.36 2.041 2.041 0 0 1-.635-.577c-.163-.24-.245-.533-.245-.879 0-.634.25-1.168.75-1.6.509-.433 1.22-.649 2.133-.649.846 0 1.519.197 2.019.591.509.394.812.937.908 1.629h-1.744c-.106-.529-.505-.793-1.197-.793-.346 0-.615.067-.807.202-.183.134-.274.303-.274.504 0 .212.139.38.418.505.279.125.649.24 1.11.346.5.115.956.245 1.369.389.423.135.76.341 1.01.62.249.269.374.659.374 1.168.01.442-.105.841-.346 1.196-.24.356-.586.635-1.038.837-.451.201-.985.302-1.6.302Zm7.574 0c-.634 0-1.191-.101-1.672-.302-.48-.212-.865-.5-1.153-.865a2.491 2.491 0 0 1-.519-1.269h1.86c.057.279.211.519.461.721.259.192.591.288.995.288.403 0 .696-.082.879-.245.192-.163.288-.351.288-.562 0-.308-.134-.514-.403-.62-.269-.115-.644-.226-1.125-.332-.307-.067-.62-.149-.937-.245a4.813 4.813 0 0 1-.879-.36 2.041 2.041 0 0 1-.635-.577c-.163-.24-.245-.533-.245-.879 0-.634.25-1.168.75-1.6.509-.433 1.221-.649 2.134-.649.845 0 1.518.197 2.018.591.509.394.812.937.908 1.629h-1.744c-.106-.529-.505-.793-1.197-.793-.346 0-.615.067-.807.202-.183.134-.274.303-.274.504 0 .212.139.38.418.505.279.125.649.24 1.11.346.5.115.956.245 1.37.389.423.135.759.341 1.009.62.25.269.375.659.375 1.168.009.442-.106.841-.346 1.196-.241.356-.587.635-1.038.837-.452.201-.985.302-1.601.302Zm11.558 0c-.731 0-1.375-.158-1.932-.475-.558-.318-1-.76-1.326-1.327-.318-.567-.476-1.215-.476-1.946 0-.73.158-1.379.476-1.946a3.503 3.503 0 0 1 1.326-1.326c.557-.318 1.201-.476 1.932-.476.913 0 1.682.24 2.306.721.625.471 1.024 1.124 1.197 1.96h-1.946a1.385 1.385 0 0 0-.577-.807 1.65 1.65 0 0 0-.995-.303c-.509 0-.942.192-1.297.577-.356.384-.534.918-.534 1.6s.178 1.216.534 1.6c.355.385.788.577 1.297.577.385 0 .716-.096.995-.288.288-.193.48-.466.577-.822h1.946c-.173.807-.572 1.456-1.197 1.946-.624.49-1.393.735-2.306.735Zm7.606 0c-.615 0-1.12-.096-1.514-.288-.394-.202-.687-.466-.879-.793a2.086 2.086 0 0 1-.289-1.081c0-.663.26-1.201.779-1.615.519-.413 1.297-.62 2.335-.62h1.817v-.173c0-.49-.14-.85-.418-1.081-.279-.23-.625-.346-1.038-.346-.375 0-.702.091-.981.274a1.13 1.13 0 0 0-.519.779h-1.802a2.55 2.55 0 0 1 .519-1.356 2.954 2.954 0 0 1 1.182-.879 3.978 3.978 0 0 1 1.615-.317c1.019 0 1.821.255 2.408.764.586.509.879 1.23.879 2.162v4.397h-1.571l-.173-1.153a2.65 2.65 0 0 1-.894.952c-.375.249-.86.374-1.456.374Zm.418-1.441c.528 0 .937-.173 1.225-.519.298-.346.486-.774.562-1.283h-1.571c-.49 0-.841.091-1.052.274a.803.803 0 0 0-.317.648c0 .279.105.495.317.649.211.154.49.231.836.231Zm8.392 1.441c-.634 0-1.191-.101-1.672-.302a2.949 2.949 0 0 1-1.153-.865 2.474 2.474 0 0 1-.519-1.269h1.859c.058.279.212.519.462.721.259.192.591.288.994.288.404 0 .697-.082.88-.245.192-.163.288-.351.288-.562 0-.308-.134-.514-.403-.62-.27-.115-.644-.226-1.125-.332-.307-.067-.62-.149-.937-.245a4.813 4.813 0 0 1-.879-.36 2.041 2.041 0 0 1-.635-.577c-.163-.24-.245-.533-.245-.879 0-.634.25-1.168.75-1.6.509-.433 1.22-.649 2.133-.649.846 0 1.519.197 2.019.591.509.394.812.937.908 1.629h-1.744c-.106-.529-.505-.793-1.197-.793-.346 0-.615.067-.807.202-.183.134-.274.303-.274.504 0 .212.139.38.418.505.279.125.649.24 1.11.346.5.115.956.245 1.37.389.422.135.759.341 1.009.62.25.269.374.659.374 1.168.01.442-.105.841-.346 1.196-.24.356-.586.635-1.037.837-.452.201-.986.302-1.601.302Zm8.093 0c-.72 0-1.359-.153-1.917-.461a3.346 3.346 0 0 1-1.312-1.297c-.317-.558-.476-1.202-.476-1.932 0-.74.154-1.399.462-1.975a3.41 3.41 0 0 1 1.297-1.341c.558-.327 1.211-.49 1.961-.49.701 0 1.321.154 1.86.461.538.308.956.731 1.254 1.269.307.528.461 1.12.461 1.773 0 .106-.005.216-.014.332 0 .115-.005.235-.015.36h-5.435c.039.557.231.995.577 1.312.356.317.783.476 1.283.476.375 0 .687-.082.937-.245a1.59 1.59 0 0 0 .577-.664h1.874a3.422 3.422 0 0 1-.678 1.24 3.252 3.252 0 0 1-1.153.865c-.452.212-.966.317-1.543.317Zm.015-5.997c-.452 0-.851.13-1.197.389-.346.25-.567.635-.663 1.154h3.561c-.029-.471-.202-.846-.519-1.125-.317-.278-.711-.418-1.182-.418Zm11.027 5.997c-.615 0-1.119-.096-1.513-.288-.394-.202-.687-.466-.88-.793a2.095 2.095 0 0 1-.288-1.081c0-.663.26-1.201.779-1.615.519-.413 1.297-.62 2.335-.62h1.816v-.173c0-.49-.139-.85-.418-1.081-.278-.23-.624-.346-1.038-.346-.374 0-.701.091-.98.274a1.123 1.123 0 0 0-.519.779h-1.802a2.55 2.55 0 0 1 .519-1.356 2.954 2.954 0 0 1 1.182-.879 3.978 3.978 0 0 1 1.615-.317c1.019 0 1.821.255 2.407.764.587.509.88 1.23.88 2.162v4.397h-1.572l-.173-1.153a2.64 2.64 0 0 1-.893.952c-.375.249-.861.374-1.457.374Zm.419-1.441c.528 0 .937-.173 1.225-.519.298-.346.485-.774.562-1.283h-1.571c-.49 0-.841.091-1.053.274a.806.806 0 0 0-.317.648c0 .279.106.495.317.649.212.154.491.231.837.231Zm5.437 4.44v-10.322h1.643l.202 1.023c.231-.317.533-.595.908-.836.385-.24.88-.36 1.485-.36.673 0 1.273.163 1.802.49.529.327.947.774 1.254 1.341.308.567.462 1.211.462 1.932 0 .72-.154 1.364-.462 1.931-.307.558-.725 1-1.254 1.327-.529.317-1.129.475-1.802.475-.538 0-1.009-.101-1.413-.302a2.556 2.556 0 0 1-.98-.851v4.152h-1.845Zm3.849-4.613c.586 0 1.071-.197 1.456-.591.384-.394.577-.904.577-1.528 0-.625-.193-1.139-.577-1.543-.385-.404-.87-.605-1.456-.605-.596 0-1.086.201-1.471.605-.374.394-.562.903-.562 1.528s.188 1.139.562 1.543c.385.394.875.591 1.471.591Zm5.555 4.613v-10.322h1.644l.201 1.023c.231-.317.534-.595.909-.836.384-.24.879-.36 1.484-.36.673 0 1.274.163 1.802.49.529.327.947.774 1.255 1.341.307.567.461 1.211.461 1.932 0 .72-.154 1.364-.461 1.931-.308.558-.726 1-1.255 1.327-.528.317-1.129.475-1.802.475-.538 0-1.009-.101-1.412-.302a2.551 2.551 0 0 1-.981-.851v4.152h-1.845Zm3.849-4.613c.586 0 1.072-.197 1.456-.591.385-.394.577-.904.577-1.528 0-.625-.192-1.139-.577-1.543-.384-.404-.87-.605-1.456-.605-.596 0-1.086.201-1.47.605-.375.394-.563.903-.563 1.528s.188 1.139.563 1.543c.384.394.874.591 1.47.591Zm5.555 1.441v-7.15h1.644l.173 1.341c.259-.462.61-.827 1.052-1.096.452-.279.981-.418 1.586-.418v1.946h-.519c-.404 0-.764.063-1.081.187a1.497 1.497 0 0 0-.75.649c-.173.308-.259.735-.259 1.283v3.258h-1.846Zm9.021.173a3.722 3.722 0 0 1-1.874-.475 3.581 3.581 0 0 1-1.312-1.312c-.318-.567-.476-1.221-.476-1.961s.163-1.389.49-1.946a3.546 3.546 0 0 1 1.312-1.326 3.712 3.712 0 0 1 1.874-.476c.682 0 1.298.158 1.845.476.558.317.995.759 1.312 1.326.327.557.49 1.206.49 1.946s-.163 1.394-.49 1.961a3.445 3.445 0 0 1-1.312 1.312 3.692 3.692 0 0 1-1.859.475Zm0-1.6c.48 0 .898-.178 1.254-.533.355-.365.533-.904.533-1.615s-.178-1.244-.533-1.6c-.356-.365-.769-.548-1.24-.548-.49 0-.913.183-1.269.548-.346.356-.519.889-.519 1.6 0 .711.173 1.25.519 1.615a1.72 1.72 0 0 0 1.255.533Zm6.891 1.427-2.624-7.15h1.932l1.817 5.406 1.816-5.406h1.932l-2.638 7.15h-2.235Zm9.159.173c-.721 0-1.36-.153-1.917-.461a3.34 3.34 0 0 1-1.312-1.297c-.317-.558-.476-1.202-.476-1.932 0-.74.154-1.399.461-1.975a3.42 3.42 0 0 1 1.298-1.341c.557-.327 1.211-.49 1.96-.49.702 0 1.322.154 1.86.461.538.308.956.731 1.254 1.269.308.528.462 1.12.462 1.773 0 .106-.005.216-.015.332 0 .115-.004.235-.014.36h-5.435c.038.557.231.995.577 1.312a1.86 1.86 0 0 0 1.283.476c.374 0 .687-.082.937-.245.259-.173.451-.394.576-.664h1.874c-.134.452-.36.865-.677 1.24a3.26 3.26 0 0 1-1.153.865c-.452.212-.966.317-1.543.317Zm.014-5.997c-.451 0-.85.13-1.196.389-.346.25-.567.635-.663 1.154h3.561c-.029-.471-.202-.846-.519-1.125-.318-.278-.712-.418-1.183-.418Zm8.415 5.997c-.673 0-1.274-.163-1.802-.49a3.51 3.51 0 0 1-1.255-1.341c-.307-.567-.461-1.21-.461-1.931 0-.721.154-1.36.461-1.918a3.405 3.405 0 0 1 1.255-1.326c.528-.327 1.129-.49 1.802-.49.538 0 1.009.101 1.412.303.404.201.731.485.981.85v-4.209h1.845v10.379h-1.643l-.202-1.023a3.247 3.247 0 0 1-.923.836c-.375.24-.865.36-1.47.36Zm.389-1.614c.596 0 1.081-.197 1.456-.591.384-.404.577-.918.577-1.543 0-.625-.193-1.134-.577-1.528-.375-.404-.86-.605-1.456-.605-.586 0-1.072.197-1.456.591-.385.394-.577.903-.577 1.528 0 .624.192 1.139.577 1.542.384.404.87.606 1.456.606Z" fill="#040815" style="fill:color(display-p3 .0157 .0314 .0824);fill-opacity:1"/></g><defs><filter id="a" x="58.8" y="154.043" width="490.5" height="295.968" filterUnits="userSpaceOnUse" color-interpolation-filters="sRGB"><feFlood flood-opacity="0" result="BackgroundImageFix"/><feColorMatrix in="SourceAlpha" values="0 0 0 0 0 0 0 0 0 0 0 0 0 0 0 0 0 0 127 0" result="hardAlpha"/><feOffset dy="3.6"/><feGaussianBlur stdDeviation="21.6"/><feComposite in2="hardAlpha" operator="out"/><feColorMatrix values="0 0 0 0 0 0 0 0 0 0 0 0 0 0 0 0 0 0 0.25 0"/><feBlend in2="BackgroundImageFix" result="effect1_dropShadow_532_2362"/><feBlend in="SourceGraphic" in2="effect1_dropShadow_532_2362" result="shape"/><feGaussianBlur stdDeviation="1.8" result="effect2_foregroundBlur_532_2362"/></filter><filter id="b" x="45.4" y="116.021" width="517.75" height="312.41" filterUnits="userSpaceOnUse" color-interpolation-filters="sRGB"><feFlood flood-opacity="0" result="BackgroundImageFix"/><feColorMatrix in="SourceAlpha" values="0 0 0 0 0 0 0 0 0 0 0 0 0 0 0 0 0 0 127 0" result="hardAlpha"/><feOffset dy="3.8"/><feGaussianBlur stdDeviation="22.8"/><feComposite in2="hardAlpha" operator="out"/><feColorMatrix values="0 0 0 0 0 0 0 0 0 0 0 0 0 0 0 0 0 0 0.25 0"/><feBlend in2="BackgroundImageFix" result="effect1_dropShadow_532_2362"/><feBlend in="SourceGraphic" in2="effect1_dropShadow_532_2362" result="shape"/><feGaussianBlur stdDeviation=".95" result="effect2_foregroundBlur_532_2362"/></filter><filter id="c" x="31" y="73" width="545" height="328.853" filterUnits="userSpaceOnUse" color-interpolation-filters="sRGB"><feFlood flood-opacity="0" result="BackgroundImageFix"/><feColorMatrix in="SourceAlpha" values="0 0 0 0 0 0 0 0 0 0 0 0 0 0 0 0 0 0 127 0" result="hardAlpha"/><feOffset dy="4"/><feGaussianBlur stdDeviation="24"/><feComposite in2="hardAlpha" operator="out"/><feColorMatrix values="0 0 0 0 0 0 0 0 0 0 0 0 0 0 0 0 0 0 0.25 0"/><feBlend in2="BackgroundImageFix" result="effect1_dropShadow_532_2362"/><feBlend in="SourceGraphic" in2="effect1_dropShadow_532_2362" result="shape"/></filter></defs></svg>