<svg width="606" height="520" fill="none" xmlns="http://www.w3.org/2000/svg"><rect x="60" y="60" width="486" height="400" rx="32" fill="#F5F8FF" style="fill:color(display-p3 .9608 .9725 1);fill-opacity:1"/><path d="M433 260.4a128.472 128.472 0 0 0-30.792-83.44 128.707 128.707 0 0 0-77.637-43.504l-5.06 31.736a96.531 96.531 0 0 1 58.228 32.628 96.357 96.357 0 0 1 23.094 62.58H433Z" fill="#FD7228" style="fill:color(display-p3 .9922 .4471 .1569);fill-opacity:1"/><path d="M324.571 133.457a128.786 128.786 0 0 0-67.55 7.404 128.66 128.66 0 0 0-54.353 40.748 128.442 128.442 0 0 0-16.384 129.932l29.512-12.785a96.322 96.322 0 0 1-7.209-50.405 96.352 96.352 0 0 1 19.497-47.044 96.484 96.484 0 0 1 40.765-30.561 96.59 96.59 0 0 1 50.662-5.553l5.06-31.736ZM186.284 311.541a128.559 128.559 0 0 0 34.984 47.03 128.712 128.712 0 0 0 52.243 26.632 128.792 128.792 0 0 0 58.647.7 128.718 128.718 0 0 0 52.865-25.377l-20.173-25.031a96.575 96.575 0 0 1-122.816-1.467 96.396 96.396 0 0 1-26.238-35.272l-29.512 12.785Z" fill="#FD7228" style="fill:color(display-p3 .9922 .4471 .1569);fill-opacity:1"/><path d="M385.023 360.526a128.564 128.564 0 0 0 35.365-44.622A128.45 128.45 0 0 0 433 260.401h-32.167a96.33 96.33 0 0 1-9.459 41.627 96.422 96.422 0 0 1-26.523 33.466l20.172 25.032Z" fill="#EAEAEA" stroke="#F5F5F5" style="fill:color(display-p3 .9188 .9188 .9188);fill-opacity:1;stroke:color(display-p3 .96 .96 .96);stroke-opacity:1" stroke-width="1.608"/><g filter="url(#a)"><rect x="401.147" y="297.875" width="78.172" height="27.543" rx="3.086" fill="#040815" style="fill:color(display-p3 .0157 .0314 .0824);fill-opacity:1" shape-rendering="crispEdges"/><path d="M407.816 306.749c-.583 0-1.087-.128-1.511-.382a2.647 2.647 0 0 1-.976-1.078c-.232-.464-.348-1.002-.348-1.613 0-.605.116-1.137.348-1.595.232-.464.557-.826.976-1.086.424-.261.928-.391 1.511-.391.678 0 1.23.164 1.654.492.43.323.705.776.824 1.358h-.79a1.55 1.55 0 0 0-.56-.882c-.277-.227-.653-.34-1.128-.34-.425 0-.795.099-1.112.297a1.93 1.93 0 0 0-.739.84c-.169.363-.254.798-.254 1.307 0 .51.085.948.254 1.316.176.362.422.642.739.84.317.192.687.289 1.112.289.475 0 .851-.108 1.128-.323a1.55 1.55 0 0 0 .56-.874h.79c-.119.571-.394 1.018-.824 1.341-.424.322-.976.484-1.654.484Zm5.378 0c-.396 0-.753-.091-1.069-.272a2.003 2.003 0 0 1-.756-.764c-.181-.334-.271-.724-.271-1.171 0-.447.093-.834.28-1.163.186-.333.438-.591.755-.772a2.166 2.166 0 0 1 1.078-.272c.396 0 .752.091 1.069.272.317.181.566.439.747.772.187.329.28.716.28 1.163 0 .447-.093.837-.28 1.171a1.982 1.982 0 0 1-.764.764 2.117 2.117 0 0 1-1.069.272Zm0-.611a1.327 1.327 0 0 0 1.188-.713c.13-.238.195-.532.195-.883s-.065-.645-.195-.883a1.272 1.272 0 0 0-.501-.534 1.331 1.331 0 0 0-.67-.178c-.243 0-.47.059-.679.178a1.334 1.334 0 0 0-.509.534c-.13.238-.195.532-.195.883s.065.645.195.883c.13.237.297.416.5.534.21.119.433.179.671.179Zm4.717.611c-.504 0-.922-.128-1.256-.382a1.492 1.492 0 0 1-.586-1.036h.73c.045.221.161.413.348.577.192.159.45.238.772.238.3 0 .521-.062.662-.187a.601.601 0 0 0 .213-.458c0-.254-.094-.424-.281-.509a3.562 3.562 0 0 0-.772-.229 4.596 4.596 0 0 1-.679-.195 1.564 1.564 0 0 1-.568-.357.854.854 0 0 1-.23-.619c0-.368.136-.668.408-.9.277-.238.651-.357 1.12-.357.447 0 .812.114 1.095.34.288.221.455.537.501.951h-.705a.711.711 0 0 0-.28-.501c-.153-.125-.359-.187-.619-.187-.255 0-.453.054-.594.161a.516.516 0 0 0-.204.425c0 .169.088.302.263.399.181.096.424.178.73.246.26.056.506.127.738.212.238.079.43.201.577.365.153.158.229.39.229.696.006.379-.138.693-.432.942-.289.243-.682.365-1.18.365Zm4.104-.102c-.385 0-.688-.094-.908-.28-.221-.187-.331-.524-.331-1.01v-2.317h-.73v-.603h.73l.093-1.01h.619v1.01h1.24v.603h-1.24v2.317c0 .266.054.447.162.543.107.091.297.136.568.136h.442v.611h-.645Zm5.782.102c-.396 0-.752-.091-1.069-.272a1.994 1.994 0 0 1-.755-.764c-.181-.334-.272-.724-.272-1.171 0-.447.093-.834.28-1.163a1.99 1.99 0 0 1 .756-.772 2.16 2.16 0 0 1 1.077-.272c.396 0 .753.091 1.07.272.317.181.566.439.747.772.186.329.28.716.28 1.163 0 .447-.094.837-.28 1.171a1.989 1.989 0 0 1-.764.764 2.12 2.12 0 0 1-1.07.272Zm0-.611a1.33 1.33 0 0 0 1.189-.713c.13-.238.195-.532.195-.883s-.065-.645-.195-.883a1.284 1.284 0 0 0-.501-.534 1.335 1.335 0 0 0-.671-.178c-.243 0-.469.059-.679.178a1.334 1.334 0 0 0-.509.534c-.13.238-.195.532-.195.883s.065.645.195.883c.13.237.297.416.501.534.209.119.433.179.67.179Zm3.334.509v-3.607h-.636v-.603h.636v-.73c0-.407.102-.704.306-.891.203-.186.5-.28.891-.28h.424v.611h-.314c-.215 0-.368.046-.458.136-.091.085-.136.232-.136.441v.713h1.035v.603h-1.035v3.607h-.713Zm6.761.102c-.396 0-.752-.091-1.069-.272a1.994 1.994 0 0 1-.755-.764c-.182-.334-.272-.724-.272-1.171 0-.447.093-.834.28-1.163.187-.333.438-.591.755-.772a2.166 2.166 0 0 1 1.078-.272c.396 0 .753.091 1.07.272.316.181.565.439.746.772.187.329.28.716.28 1.163 0 .447-.093.837-.28 1.171a1.98 1.98 0 0 1-.763.764 2.12 2.12 0 0 1-1.07.272Zm0-.611a1.32 1.32 0 0 0 1.188-.713c.131-.238.196-.532.196-.883s-.065-.645-.196-.883a1.276 1.276 0 0 0-.5-.534 1.337 1.337 0 0 0-.671-.178c-.243 0-.469.059-.679.178a1.334 1.334 0 0 0-.509.534c-.13.238-.195.532-.195.883s.065.645.195.883c.13.237.297.416.501.534.209.119.433.179.67.179Zm3.796.509-1.231-4.21h.713l.891 3.302.985-3.302h.806l.993 3.302.883-3.302h.721l-1.231 4.21h-.729l-1.036-3.471-1.035 3.471h-.73Zm5.55 0v-4.21h.645l.042.756c.136-.266.331-.476.586-.628.254-.153.543-.23.865-.23.498 0 .894.153 1.188.459.3.3.45.764.45 1.392v2.461h-.713v-2.385c0-.877-.362-1.315-1.086-1.315-.362 0-.665.133-.908.398-.238.261-.357.634-.357 1.121v2.181h-.712Zm6.749.102c-.402 0-.758-.091-1.069-.272a2.017 2.017 0 0 1-.739-.772c-.175-.328-.263-.716-.263-1.163 0-.441.088-.826.263-1.154a1.89 1.89 0 0 1 .73-.772 2.115 2.115 0 0 1 1.095-.281c.407 0 .758.094 1.052.281.3.181.529.421.688.721a2.043 2.043 0 0 1 .229 1.154v.212h-3.352c.017.323.09.592.22.807.136.209.303.367.501.475.204.107.419.161.645.161.294 0 .54-.068.738-.204.198-.135.343-.319.433-.551h.705c-.114.39-.331.716-.654.976-.317.254-.724.382-1.222.382Zm0-3.811c-.34 0-.642.105-.908.314-.26.204-.41.504-.45.9h2.648c-.017-.379-.147-.676-.39-.891a1.313 1.313 0 0 0-.9-.323Zm2.939 3.709v-4.21h.645l.06.807a1.52 1.52 0 0 1 .594-.662c.266-.164.594-.247.984-.247v.747h-.195a1.72 1.72 0 0 0-.687.136c-.21.085-.377.232-.501.441-.125.21-.187.498-.187.866v2.122h-.713Zm4.696.102c-.504 0-.922-.128-1.256-.382a1.492 1.492 0 0 1-.586-1.036h.73c.045.221.161.413.348.577.192.159.45.238.772.238.3 0 .521-.062.662-.187a.601.601 0 0 0 .213-.458c0-.254-.094-.424-.28-.509a3.592 3.592 0 0 0-.773-.229 4.596 4.596 0 0 1-.679-.195 1.564 1.564 0 0 1-.568-.357.854.854 0 0 1-.23-.619c0-.368.136-.668.408-.9.277-.238.651-.357 1.12-.357.447 0 .812.114 1.095.34.288.221.455.537.501.951h-.705a.711.711 0 0 0-.28-.501c-.153-.125-.359-.187-.619-.187-.255 0-.453.054-.594.161a.516.516 0 0 0-.204.425c0 .169.088.302.263.399.181.096.424.178.73.246.26.056.506.127.738.212.238.079.43.201.577.365.153.158.229.39.229.696.006.379-.138.693-.432.942-.289.243-.682.365-1.18.365Zm2.631-.102v-6.111h.713v2.623a1.47 1.47 0 0 1 .602-.603c.261-.147.544-.221.849-.221.487 0 .877.153 1.171.459.294.3.442.764.442 1.392v2.461h-.705v-2.385c0-.877-.353-1.315-1.061-1.315a1.22 1.22 0 0 0-.925.398c-.249.261-.373.634-.373 1.121v2.181h-.713Zm5.289-5.143a.498.498 0 0 1-.356-.136.502.502 0 0 1-.136-.356c0-.136.046-.249.136-.34a.502.502 0 0 1 .356-.136c.136 0 .252.046.348.136a.446.446 0 0 1 .145.34.481.481 0 0 1-.493.492Zm-.356 5.143v-4.21h.713v4.21h-.713Zm1.954 1.867v-6.077h.645l.068.696c.136-.203.328-.387.577-.551.255-.164.577-.247.968-.247.418 0 .783.097 1.095.289.311.192.551.456.721.789.175.334.263.713.263 1.138 0 .424-.088.803-.263 1.137-.17.328-.413.588-.73.781-.311.186-.676.28-1.095.28a1.98 1.98 0 0 1-.925-.212 1.479 1.479 0 0 1-.611-.595v2.572h-.713Zm2.173-2.385c.283 0 .532-.065.747-.195.215-.136.384-.323.509-.56.124-.238.187-.515.187-.832 0-.317-.063-.594-.187-.832a1.378 1.378 0 0 0-1.256-.755c-.283 0-.532.068-.747.204a1.37 1.37 0 0 0-.509.551 1.763 1.763 0 0 0-.187.832c0 .317.062.594.187.832.124.237.294.424.509.56.215.13.464.195.747.195Zm-52.016 14.518v-.81c.281-.281.497-.569.648-.864.151-.303.227-.692.227-1.167 0-.122-.011-.248-.033-.378h-1.231v-.951h.929a6.613 6.613 0 0 1-.173-.583 3.043 3.043 0 0 1-.065-.637c0-.475.101-.886.303-1.231.208-.346.496-.609.864-.789a2.838 2.838 0 0 1 1.285-.281c.547 0 1.001.105 1.361.313.36.209.634.49.821.843.187.353.292.745.313 1.177h-1.274a1.302 1.302 0 0 0-.324-.842c-.202-.231-.494-.346-.875-.346-.317 0-.591.097-.821.292-.231.194-.346.497-.346.907 0 .187.029.382.087.583.057.195.122.393.194.594h2.02v.951h-1.761c.022.13.033.256.033.378 0 .295-.058.594-.173.897a2.332 2.332 0 0 1-.573.842h3.846v1.102h-5.282Zm6.438 0v-1.005c.461-.381.908-.759 1.34-1.134.439-.374.828-.745 1.166-1.112.346-.368.62-.724.821-1.07.209-.353.314-.695.314-1.026 0-.31-.087-.583-.26-.821-.165-.237-.443-.356-.831-.356-.396 0-.695.129-.897.389a1.48 1.48 0 0 0-.302.939h-1.34c.015-.554.137-1.015.367-1.382.231-.375.537-.652.919-.832a2.88 2.88 0 0 1 1.285-.281c.771 0 1.368.213 1.793.637.432.418.648.962.648 1.631 0 .418-.097.825-.291 1.221a5.293 5.293 0 0 1-.746 1.145c-.309.367-.644.713-1.004 1.037-.36.317-.71.612-1.048.886h3.273v1.134h-5.207Zm8.884.129c-.526 0-.969-.1-1.329-.302a2.333 2.333 0 0 1-.842-.81 2.476 2.476 0 0 1-.357-1.069h1.286c.057.331.194.586.41.766.223.18.504.271.842.271.483 0 .872-.22 1.167-.659.295-.447.454-1.124.475-2.031-.172.295-.435.54-.788.734a2.29 2.29 0 0 1-1.145.292c-.418 0-.81-.101-1.178-.302a2.419 2.419 0 0 1-.896-.854c-.23-.367-.346-.799-.346-1.296 0-.454.112-.875.335-1.264.223-.389.533-.702.929-.939.396-.238.861-.357 1.393-.357.569 0 1.048.105 1.437.313.389.209.699.49.929.843.238.353.407.745.508 1.177.108.432.162.875.162 1.329 0 .842-.119 1.577-.357 2.203-.23.62-.572 1.102-1.026 1.448-.446.338-.983.507-1.609.507Zm.043-3.975c.266 0 .508-.057.724-.172.216-.123.385-.281.507-.476.123-.201.184-.424.184-.669 0-.389-.137-.71-.411-.962-.266-.252-.604-.378-1.015-.378-.403 0-.738.126-1.004.378-.267.245-.4.558-.4.94 0 .403.133.727.4.972.266.245.604.367 1.015.367Zm3.638 5.099.615-2.69h1.34l-1.048 2.69h-.907Zm6.539-1.253v-1.404h-3.726v-1.102l3.543-5.055h1.566v4.958h.994v1.199h-.994v1.404h-1.383Zm-2.246-2.603h2.333v-3.435l-2.333 3.435Zm8.421 2.732c-.555 0-1.033-.097-1.437-.291a2.38 2.38 0 0 1-.939-.799 2.492 2.492 0 0 1-.389-1.167h1.35c.065.31.223.569.475.778.252.201.565.302.94.302.403 0 .731-.148.983-.443.259-.295.389-.662.389-1.102 0-.453-.13-.813-.389-1.08a1.267 1.267 0 0 0-.961-.399c-.325 0-.605.079-.843.237a1.343 1.343 0 0 0-.508.594h-1.328l.648-4.32h4.191v1.21h-3.154l-.346 1.749c.159-.172.375-.313.648-.421a2.35 2.35 0 0 1 .918-.173c.54 0 .991.123 1.351.368.36.237.633.554.82.95.188.389.281.814.281 1.275 0 .525-.115.993-.345 1.404-.224.41-.54.734-.951.972-.403.238-.871.356-1.404.356Zm4.808-.129v-5.984l-1.242.291v-1.058l1.825-.81h.853v7.561h-1.436Z" fill="#F5F5F5" style="fill:color(display-p3 .96 .96 .96);fill-opacity:1"/></g><g filter="url(#b)"><rect x="112" y="161.622" width="98.702" height="47.675" rx="5.351" fill="#040815" style="fill:color(display-p3 .0157 .0314 .0824);fill-opacity:1" shape-rendering="crispEdges"/><path d="M150.599 177.96v-10.301h3.325c.805 0 1.462.132 1.972.397s.888.628 1.133 1.089c.246.461.368.971.368 1.53 0 .648-.176 1.232-.53 1.752-.343.52-.882.887-1.618 1.103l2.251 4.43h-1.457l-2.089-4.253h-2.119v4.253h-1.236Zm1.236-5.224h2.001c.795 0 1.374-.192 1.737-.574.362-.383.544-.873.544-1.472 0-.608-.182-1.089-.544-1.442-.354-.363-.937-.544-1.752-.544h-1.986v4.032Zm12.166 5.4c-1.01 0-1.898-.221-2.663-.662a4.77 4.77 0 0 1-1.781-1.884c-.422-.804-.633-1.731-.633-2.781s.211-1.972.633-2.766a4.77 4.77 0 0 1 1.781-1.884c.765-.451 1.653-.677 2.663-.677 1.02 0 1.908.226 2.664.677a4.64 4.64 0 0 1 1.78 1.884c.422.794.633 1.716.633 2.766s-.211 1.977-.633 2.781a4.64 4.64 0 0 1-1.78 1.884c-.756.441-1.644.662-2.664.662Zm0-1.089c.756 0 1.418-.167 1.987-.5a3.437 3.437 0 0 0 1.339-1.457c.324-.638.485-1.398.485-2.281 0-.883-.161-1.638-.485-2.266a3.342 3.342 0 0 0-1.339-1.442c-.569-.343-1.231-.515-1.987-.515-.755 0-1.422.172-2.001.515a3.458 3.458 0 0 0-1.339 1.442c-.314.628-.471 1.383-.471 2.266s.157 1.643.471 2.281a3.56 3.56 0 0 0 1.339 1.457c.579.333 1.246.5 2.001.5Zm6.86.913v-10.301h1.236v10.301h-1.236Zm-51.9 24v-1.405c.487-.487.862-.986 1.124-1.498.262-.525.393-1.199.393-2.023 0-.212-.018-.431-.056-.656h-2.135v-1.648h1.611a11.473 11.473 0 0 1-.3-1.011 5.26 5.26 0 0 1-.112-1.105c0-.824.174-1.536.524-2.135a3.53 3.53 0 0 1 1.498-1.367c.65-.325 1.393-.487 2.229-.487.949 0 1.736.181 2.36.543a3.634 3.634 0 0 1 1.423 1.461c.325.612.506 1.292.543 2.041h-2.21c-.025-.587-.212-1.074-.561-1.461-.35-.399-.856-.599-1.517-.599-.55 0-1.024.169-1.424.506-.399.337-.599.861-.599 1.573 0 .324.05.662.15 1.011.1.337.212.681.337 1.03h3.502v1.648h-3.053c.038.225.056.444.056.656 0 .512-.099 1.03-.299 1.554-.2.525-.531 1.012-.993 1.461h6.668v1.911h-9.159Zm15.772.224c-.862 0-1.642-.149-2.341-.449a3.887 3.887 0 0 1-1.686-1.424c-.425-.636-.649-1.435-.674-2.397h2.36c.012.637.218 1.174.618 1.611.412.424.986.637 1.723.637.699 0 1.236-.194 1.61-.581.375-.387.562-.874.562-1.461 0-.687-.25-1.205-.749-1.554-.487-.362-1.117-.543-1.892-.543h-.974v-1.967h.993c.637 0 1.168-.15 1.592-.449.425-.3.637-.743.637-1.33 0-.487-.162-.874-.487-1.161-.312-.3-.749-.45-1.311-.45-.612 0-1.093.181-1.442.543a2.11 2.11 0 0 0-.562 1.33h-2.341c.05-1.211.468-2.166 1.255-2.865.799-.7 1.829-1.049 3.09-1.049.899 0 1.654.162 2.266.487.624.312 1.093.73 1.405 1.254.324.525.487 1.105.487 1.742 0 .737-.206 1.361-.618 1.873-.4.5-.899.837-1.499 1.011.737.15 1.336.512 1.798 1.087.462.562.693 1.273.693 2.135 0 .724-.175 1.386-.524 1.985-.35.599-.862 1.08-1.536 1.442-.662.362-1.479.543-2.453.543Zm6.549-.224v-1.742c.799-.662 1.573-1.317 2.322-1.967a23.228 23.228 0 0 0 2.023-1.929c.6-.637 1.074-1.255 1.424-1.854.362-.612.543-1.205.543-1.779 0-.537-.15-1.011-.45-1.424-.287-.412-.768-.618-1.442-.618-.687 0-1.205.225-1.554.675-.35.449-.525.992-.525 1.629h-2.322c.025-.961.237-1.76.637-2.397.399-.649.93-1.13 1.592-1.442.661-.325 1.404-.487 2.228-.487 1.336 0 2.373.368 3.109 1.105.749.724 1.124 1.667 1.124 2.828 0 .724-.169 1.429-.506 2.116a9.096 9.096 0 0 1-1.292 1.985 18.127 18.127 0 0 1-1.742 1.798c-.624.55-1.23 1.062-1.816 1.536h5.674v1.967h-9.027Zm16.302.224c-1.211 0-2.248-.281-3.109-.842-.862-.575-1.53-1.368-2.004-2.379-.462-1.024-.693-2.21-.693-3.558 0-1.336.231-2.516.693-3.54.474-1.024 1.142-1.817 2.004-2.379.861-.574 1.898-.861 3.109-.861s2.247.287 3.109.861c.861.562 1.523 1.355 1.985 2.379.474 1.024.712 2.204.712 3.54 0 1.348-.238 2.534-.712 3.558-.462 1.011-1.124 1.804-1.985 2.379-.862.561-1.898.842-3.109.842Zm0-2.153c.986 0 1.791-.412 2.416-1.237.624-.824.936-1.954.936-3.389 0-1.436-.312-2.566-.936-3.39-.625-.824-1.43-1.236-2.416-1.236-.999 0-1.811.412-2.435 1.236-.612.824-.918 1.954-.918 3.39 0 1.435.306 2.565.918 3.389.624.825 1.436 1.237 2.435 1.237Zm6.343 4.101 1.067-4.663h2.323l-1.817 4.663h-1.573Zm10.721-1.948c-1.211 0-2.247-.281-3.109-.842-.861-.575-1.529-1.368-2.004-2.379-.462-1.024-.693-2.21-.693-3.558 0-1.336.231-2.516.693-3.54.475-1.024 1.143-1.817 2.004-2.379.862-.574 1.898-.861 3.109-.861s2.248.287 3.109.861c.862.562 1.523 1.355 1.985 2.379.475 1.024.712 2.204.712 3.54 0 1.348-.237 2.534-.712 3.558-.462 1.011-1.123 1.804-1.985 2.379-.861.561-1.898.842-3.109.842Zm0-2.153c.987 0 1.792-.412 2.416-1.237.624-.824.937-1.954.937-3.389 0-1.436-.313-2.566-.937-3.39-.624-.824-1.429-1.236-2.416-1.236-.999 0-1.81.412-2.435 1.236-.611.824-.917 1.954-.917 3.39 0 1.435.306 2.565.917 3.389.625.825 1.436 1.237 2.435 1.237Zm13.915 1.929v-2.435h-6.462v-1.91l6.143-8.766h2.716v8.597h1.723v2.079h-1.723v2.435h-2.397Zm-3.896-4.514h4.046v-5.956l-4.046 5.956Zm14.377 4.738c-.912 0-1.679-.174-2.304-.524a4.05 4.05 0 0 1-1.461-1.405 4.312 4.312 0 0 1-.618-1.854h2.229c.1.574.337 1.018.712 1.33.387.312.874.468 1.461.468.836 0 1.51-.381 2.022-1.142.512-.774.787-1.948.824-3.521-.299.512-.755.936-1.367 1.273a3.98 3.98 0 0 1-1.985.506 4.17 4.17 0 0 1-2.041-.525 4.196 4.196 0 0 1-1.555-1.479c-.399-.637-.599-1.386-.599-2.248 0-.786.193-1.517.58-2.191a4.475 4.475 0 0 1 1.611-1.629c.687-.412 1.492-.618 2.416-.618.986 0 1.817.181 2.491.543a4.338 4.338 0 0 1 1.611 1.461c.412.612.705 1.292.88 2.041.187.749.281 1.517.281 2.304 0 1.461-.206 2.734-.618 3.82-.4 1.074-.993 1.911-1.779 2.51-.775.587-1.705.88-2.791.88Zm.075-6.892c.462 0 .88-.1 1.255-.3.374-.212.668-.486.88-.824.212-.349.318-.736.318-1.161 0-.674-.237-1.23-.711-1.667-.462-.437-1.049-.655-1.761-.655-.699 0-1.28.218-1.742.655-.462.425-.693.968-.693 1.63 0 .699.231 1.261.693 1.685.462.425 1.049.637 1.761.637Z" fill="#fff" style="fill:#fff;fill-opacity:1"/></g><path d="M252.578 239.214v-10.888h-3.606v-1.19h8.661v1.19h-3.606v10.888h-1.449Zm9.088.207c-.805 0-1.53-.184-2.174-.552a4.07 4.07 0 0 1-1.536-1.553c-.368-.679-.552-1.473-.552-2.381 0-.909.19-1.697.57-2.364a4.025 4.025 0 0 1 1.535-1.57 4.4 4.4 0 0 1 2.192-.552c.805 0 1.529.184 2.174.552.644.368 1.15.891 1.518 1.57.38.667.569 1.455.569 2.364 0 .908-.189 1.702-.569 2.381a4.03 4.03 0 0 1-1.553 1.553c-.644.368-1.369.552-2.174.552Zm0-1.242c.495 0 .955-.121 1.38-.363.426-.241.771-.604 1.036-1.087.264-.483.397-1.081.397-1.794 0-.713-.133-1.312-.397-1.795-.253-.483-.593-.845-1.018-1.087a2.724 2.724 0 0 0-1.363-.362c-.495 0-.955.121-1.381.362-.425.242-.77.604-1.035 1.087-.265.483-.397 1.082-.397 1.795 0 .713.132 1.311.397 1.794.265.483.604.846 1.018 1.087.426.242.88.363 1.363.363Zm9.356 1.035c-.782 0-1.397-.19-1.846-.57-.448-.379-.673-1.064-.673-2.053v-4.71h-1.484v-1.225h1.484l.19-2.054h1.26v2.054h2.519v1.225h-2.519v4.71c0 .541.109.909.327 1.104.219.184.604.276 1.157.276h.897v1.243h-1.312Zm6.138.207c-.713 0-1.306-.121-1.777-.363-.472-.241-.823-.563-1.053-.966a2.595 2.595 0 0 1-.345-1.311c0-.874.334-1.547 1.001-2.019.667-.471 1.576-.707 2.726-.707h2.312v-.104c0-.747-.195-1.311-.586-1.691-.392-.391-.915-.586-1.571-.586-.563 0-1.052.143-1.466.431-.403.276-.656.684-.759 1.225h-1.484c.057-.621.264-1.144.621-1.57a3.5 3.5 0 0 1 1.363-.966 4.363 4.363 0 0 1 1.725-.345c1.197 0 2.094.322 2.692.966.61.633.915 1.478.915 2.536v5.263h-1.295l-.086-1.536a3.428 3.428 0 0 1-1.07 1.242c-.46.334-1.081.501-1.863.501Zm.224-1.225c.552 0 1.024-.144 1.415-.432a2.72 2.72 0 0 0 .915-1.121c.207-.46.31-.943.31-1.449v-.018h-2.191c-.851 0-1.455.15-1.812.449-.345.287-.517.65-.517 1.087 0 .449.161.811.483 1.087.333.264.799.397 1.397.397Zm6.264 1.018v-12.423h1.449v12.423h-1.449Zm10.858 0-3.243-8.558h1.518l2.571 7.16 2.588-7.16h1.484l-3.244 8.558h-1.674Zm8.94.207c-.714 0-1.306-.121-1.778-.363-.471-.241-.822-.563-1.052-.966a2.595 2.595 0 0 1-.345-1.311c0-.874.333-1.547 1-2.019.668-.471 1.576-.707 2.727-.707h2.312v-.104c0-.747-.196-1.311-.587-1.691-.391-.391-.914-.586-1.57-.586-.564 0-1.053.143-1.467.431-.402.276-.655.684-.759 1.225h-1.484c.058-.621.265-1.144.621-1.57a3.51 3.51 0 0 1 1.364-.966 4.356 4.356 0 0 1 1.725-.345c1.196 0 2.093.322 2.692.966.609.633.914 1.478.914 2.536v5.263h-1.294l-.086-1.536a3.437 3.437 0 0 1-1.07 1.242c-.46.334-1.081.501-1.863.501Zm.224-1.225c.552 0 1.024-.144 1.415-.432.402-.287.707-.661.914-1.121.207-.46.311-.943.311-1.449v-.018h-2.192c-.851 0-1.455.15-1.811.449-.345.287-.518.65-.518 1.087 0 .449.161.811.483 1.087.334.264.8.397 1.398.397Zm6.263 1.018v-12.423h1.45v12.423h-1.45Zm6.948.207c-1.012 0-1.817-.305-2.415-.915-.599-.621-.898-1.57-.898-2.847v-5.003h1.45v4.848c0 1.783.73 2.675 2.191 2.675.748 0 1.363-.265 1.846-.794.495-.541.742-1.306.742-2.295v-4.434h1.449v8.558h-1.311l-.103-1.536a2.97 2.97 0 0 1-1.191 1.277c-.518.311-1.104.466-1.76.466Zm10.599 0c-.817 0-1.542-.184-2.174-.552a4.107 4.107 0 0 1-1.501-1.57c-.357-.668-.535-1.456-.535-2.364 0-.897.178-1.68.535-2.347a3.837 3.837 0 0 1 1.483-1.57c.645-.38 1.387-.569 2.226-.569.828 0 1.542.189 2.14.569a3.72 3.72 0 0 1 1.397 1.467c.322.609.483 1.265.483 1.967 0 .126-.005.253-.017.379v.432h-6.815c.034.655.184 1.202.448 1.639a2.83 2.83 0 0 0 1.018.966c.415.218.852.328 1.312.328.598 0 1.098-.138 1.501-.414.402-.276.696-.65.88-1.122h1.432a3.885 3.885 0 0 1-1.329 1.984c-.644.518-1.472.777-2.484.777Zm0-7.747c-.69 0-1.306.213-1.846.638-.53.414-.834 1.024-.915 1.829h5.383c-.034-.771-.299-1.375-.793-1.812-.495-.437-1.105-.655-1.829-.655Zm14.441 7.747c-.805 0-1.53-.184-2.174-.552a4.061 4.061 0 0 1-1.535-1.553c-.369-.679-.553-1.473-.553-2.381 0-.909.19-1.697.57-2.364a4.025 4.025 0 0 1 1.535-1.57 4.4 4.4 0 0 1 2.192-.552c.805 0 1.53.184 2.174.552.644.368 1.15.891 1.518 1.57.38.667.569 1.455.569 2.364 0 .908-.189 1.702-.569 2.381a4.03 4.03 0 0 1-1.553 1.553c-.644.368-1.369.552-2.174.552Zm0-1.242c.495 0 .955-.121 1.38-.363.426-.241.771-.604 1.036-1.087.264-.483.397-1.081.397-1.794 0-.713-.133-1.312-.397-1.795-.253-.483-.593-.845-1.018-1.087a2.724 2.724 0 0 0-1.363-.362c-.495 0-.955.121-1.381.362-.425.242-.77.604-1.035 1.087-.264.483-.397 1.082-.397 1.795 0 .713.133 1.311.397 1.794.265.483.604.846 1.018 1.087.426.242.88.363 1.363.363Zm6.777 1.035v-7.333h-1.294v-1.225h1.294v-1.484c0-.828.208-1.432.622-1.812.414-.379 1.018-.569 1.811-.569h.863v1.242h-.638c-.437 0-.748.092-.932.276-.184.173-.276.472-.276.897v1.45h2.105v1.225h-2.105v7.333h-1.45Zm-80.924 22.207c-.805 0-1.53-.184-2.174-.552a4.07 4.07 0 0 1-1.536-1.553c-.368-.679-.552-1.473-.552-2.381 0-.909.19-1.697.57-2.364a4.025 4.025 0 0 1 1.535-1.57 4.4 4.4 0 0 1 2.192-.552c.805 0 1.529.184 2.174.552.644.368 1.15.891 1.518 1.57.38.667.569 1.455.569 2.364 0 .908-.189 1.702-.569 2.381a4.03 4.03 0 0 1-1.553 1.553c-.644.368-1.369.552-2.174.552Zm0-1.242c.495 0 .955-.121 1.38-.363.426-.241.771-.604 1.036-1.087.264-.483.397-1.081.397-1.794 0-.713-.133-1.312-.397-1.795-.253-.483-.593-.845-1.018-1.087a2.724 2.724 0 0 0-1.363-.362c-.495 0-.955.121-1.381.362-.425.242-.77.604-1.035 1.087-.265.483-.397 1.082-.397 1.795 0 .713.132 1.311.397 1.794.265.483.604.846 1.018 1.087.426.242.88.363 1.363.363Zm9.435 1.242c-1.013 0-1.818-.305-2.416-.915-.598-.621-.897-1.57-.897-2.847v-5.003h1.449v4.848c0 1.783.731 2.675 2.191 2.675.748 0 1.363-.265 1.847-.794.494-.541.742-1.306.742-2.295v-4.434h1.449v8.558h-1.311l-.104-1.536a2.968 2.968 0 0 1-1.19 1.277c-.518.311-1.105.466-1.76.466Zm10.132-.207c-.782 0-1.397-.19-1.846-.57-.448-.379-.673-1.064-.673-2.053v-4.71h-1.484v-1.225h1.484l.19-2.054h1.26v2.054h2.519v1.225h-2.519v4.71c0 .541.109.909.327 1.104.219.184.604.276 1.156.276h.898v1.243h-1.312Zm6.989.207c-.817 0-1.553-.184-2.208-.552a4.187 4.187 0 0 1-1.536-1.57c-.368-.679-.552-1.467-.552-2.364 0-.897.184-1.68.552-2.347a4.027 4.027 0 0 1 1.536-1.57c.655-.38 1.391-.569 2.208-.569 1.012 0 1.863.264 2.554.793.701.529 1.144 1.237 1.328 2.123h-1.484a1.869 1.869 0 0 0-.845-1.225c-.449-.299-.972-.449-1.57-.449-.483 0-.938.121-1.363.362-.426.242-.771.604-1.036 1.087-.264.483-.396 1.082-.396 1.795 0 .713.132 1.311.396 1.794.265.483.61.851 1.036 1.104.425.242.88.363 1.363.363.598 0 1.121-.144 1.57-.432.448-.299.73-.719.845-1.259h1.484a3.422 3.422 0 0 1-1.311 2.105c-.702.54-1.559.811-2.571.811Zm9.806 0c-.805 0-1.53-.184-2.174-.552a4.07 4.07 0 0 1-1.536-1.553c-.368-.679-.552-1.473-.552-2.381 0-.909.19-1.697.569-2.364a4.034 4.034 0 0 1 1.536-1.57 4.4 4.4 0 0 1 2.191-.552c.805 0 1.53.184 2.174.552a3.914 3.914 0 0 1 1.519 1.57c.379.667.569 1.455.569 2.364 0 .908-.19 1.702-.569 2.381a4.037 4.037 0 0 1-1.553 1.553c-.644.368-1.369.552-2.174.552Zm0-1.242c.494 0 .954-.121 1.38-.363.426-.241.771-.604 1.035-1.087.265-.483.397-1.081.397-1.794 0-.713-.132-1.312-.397-1.795-.253-.483-.592-.845-1.018-1.087a2.722 2.722 0 0 0-1.363-.362c-.494 0-.954.121-1.38.362-.426.242-.771.604-1.035 1.087-.265.483-.397 1.082-.397 1.795 0 .713.132 1.311.397 1.794.264.483.604.846 1.018 1.087.425.242.88.363 1.363.363Zm6.311 1.035v-8.558h1.312l.103 1.242a2.9 2.9 0 0 1 1.104-1.07c.46-.253.978-.379 1.553-.379.679 0 1.26.138 1.743.414.494.276.874.696 1.139 1.259a3.295 3.295 0 0 1 1.225-1.225 3.413 3.413 0 0 1 1.708-.448c1.024 0 1.84.31 2.45.931.61.61.914 1.553.914 2.83v5.004h-1.432v-4.849c0-.885-.178-1.553-.535-2.001-.356-.449-.868-.673-1.535-.673-.69 0-1.266.27-1.726.811-.448.529-.673 1.288-.673 2.277v4.435h-1.449v-4.849c0-.885-.178-1.553-.535-2.001-.356-.449-.868-.673-1.535-.673-.679 0-1.248.27-1.709.811-.448.529-.672 1.288-.672 2.277v4.435h-1.45Zm19.282.207c-.817 0-1.541-.184-2.174-.552a4.114 4.114 0 0 1-1.501-1.57c-.357-.668-.535-1.456-.535-2.364 0-.897.178-1.68.535-2.347a3.84 3.84 0 0 1 1.484-1.57c.644-.38 1.386-.569 2.226-.569.828 0 1.541.189 2.139.569.61.368 1.076.857 1.398 1.467.322.609.483 1.265.483 1.967 0 .126-.006.253-.017.379v.432h-6.816c.035.655.184 1.202.449 1.639.276.425.615.747 1.018.966.414.218.851.328 1.311.328.598 0 1.099-.138 1.501-.414.403-.276.696-.65.88-1.122h1.432a3.89 3.89 0 0 1-1.328 1.984c-.644.518-1.473.777-2.485.777Zm0-7.747c-.69 0-1.305.213-1.846.638-.529.414-.834 1.024-.914 1.829h5.383c-.035-.771-.299-1.375-.794-1.812-.495-.437-1.104-.655-1.829-.655Zm9.254 7.747c-1.024 0-1.875-.259-2.553-.777-.679-.517-1.076-1.219-1.191-2.105h1.484c.092.449.328.84.707 1.174.391.322.915.483 1.57.483.61 0 1.059-.127 1.346-.38.288-.264.432-.575.432-.932 0-.517-.19-.862-.57-1.035-.368-.172-.891-.328-1.57-.466a8.843 8.843 0 0 1-1.38-.397 3.19 3.19 0 0 1-1.156-.724c-.311-.322-.466-.742-.466-1.26 0-.747.276-1.357.828-1.829.564-.483 1.323-.724 2.278-.724.908 0 1.65.23 2.225.69.587.448.926 1.093 1.018 1.932h-1.432c-.057-.437-.247-.776-.569-1.018-.311-.253-.731-.379-1.26-.379-.517 0-.92.109-1.207.328a1.047 1.047 0 0 0-.415.862c0 .345.179.616.535.811.368.196.863.363 1.484.501.529.115 1.03.258 1.501.431.483.161.875.408 1.174.742.31.322.465.794.465 1.415.012.77-.281 1.409-.88 1.915-.586.494-1.386.742-2.398.742Zm-92.894 28.793v-1.849c.641-.641 1.134-1.298 1.479-1.972.345-.69.518-1.577.518-2.662 0-.279-.025-.567-.074-.863h-2.81v-2.169h2.119a16.041 16.041 0 0 1-.394-1.331 6.9 6.9 0 0 1-.148-1.454c0-1.084.23-2.021.69-2.81a4.643 4.643 0 0 1 1.972-1.799c.855-.427 1.832-.641 2.933-.641 1.249 0 2.285.238 3.106.715a4.78 4.78 0 0 1 1.873 1.922c.428.805.666 1.701.715 2.687h-2.908c-.033-.772-.28-1.413-.74-1.923-.46-.525-1.125-.788-1.996-.788-.723 0-1.348.221-1.874.665-.525.444-.788 1.134-.788 2.071 0 .427.065.871.197 1.331.131.443.279.895.444 1.355h4.609v2.169h-4.018c.049.296.074.584.074.863 0 .674-.131 1.356-.394 2.046-.263.69-.699 1.331-1.307 1.923h8.775v2.514h-12.053Zm20.757.296c-1.134 0-2.161-.198-3.082-.592a5.129 5.129 0 0 1-2.218-1.873c-.559-.838-.854-1.89-.887-3.155h3.105c.017.838.288 1.544.814 2.119.542.559 1.298.838 2.268.838.92 0 1.626-.254 2.119-.764.493-.509.74-1.15.74-1.922 0-.904-.329-1.586-.986-2.046-.641-.477-1.471-.715-2.49-.715h-1.281v-2.588h1.306c.838 0 1.536-.197 2.095-.592.559-.394.838-.977.838-1.75 0-.64-.213-1.15-.641-1.528-.411-.394-.986-.591-1.725-.591-.805 0-1.438.238-1.898.714-.444.477-.69 1.06-.74 1.75h-3.081c.066-1.593.617-2.851 1.652-3.771 1.052-.92 2.407-1.38 4.067-1.38 1.183 0 2.177.214 2.982.641.822.411 1.438.961 1.849 1.651a4.27 4.27 0 0 1 .641 2.293c0 .969-.271 1.791-.814 2.464a3.85 3.85 0 0 1-1.971 1.331c.969.198 1.758.674 2.366 1.43.608.74.912 1.676.912 2.81 0 .953-.23 1.824-.69 2.613-.46.789-1.134 1.421-2.022 1.898-.87.476-1.947.715-3.228.715Zm16.926-.296v-3.205h-8.504v-2.514l8.085-11.535h3.574v11.313h2.268v2.736h-2.268v3.205h-3.155Zm-5.127-5.941h5.324v-7.838l-5.324 7.838Zm18.921 6.237c-1.2 0-2.21-.231-3.032-.691-.822-.476-1.462-1.092-1.923-1.848a5.66 5.66 0 0 1-.813-2.441h2.933c.132.756.444 1.34.937 1.751.509.41 1.15.616 1.922.616 1.101 0 1.989-.501 2.663-1.504.673-1.019 1.035-2.563 1.084-4.634-.394.674-.994 1.233-1.799 1.676a5.236 5.236 0 0 1-2.613.666 5.5 5.5 0 0 1-2.687-.69 5.525 5.525 0 0 1-2.046-1.948c-.525-.838-.788-1.824-.788-2.957 0-1.036.254-1.997.764-2.884a5.89 5.89 0 0 1 2.12-2.145c.903-.542 1.963-.813 3.179-.813 1.298 0 2.391.238 3.279.715a5.701 5.701 0 0 1 2.119 1.922 8.015 8.015 0 0 1 1.159 2.687c.246.986.37 1.997.37 3.032 0 1.922-.272 3.598-.814 5.028-.526 1.413-1.306 2.514-2.342 3.303-1.018.772-2.243 1.159-3.672 1.159Zm.098-9.071c.608 0 1.159-.132 1.652-.395.493-.279.879-.64 1.158-1.084.28-.46.419-.97.419-1.528 0-.888-.312-1.619-.936-2.194-.608-.575-1.381-.863-2.317-.863-.92 0-1.685.288-2.293.863-.608.559-.912 1.273-.912 2.144 0 .921.304 1.66.912 2.219.608.558 1.381.838 2.317.838Zm8.302 11.634 1.405-6.138h3.056l-2.391 6.138h-2.07Zm13.223-2.563c-1.266 0-2.359-.222-3.279-.666-.904-.444-1.618-1.052-2.144-1.824a5.703 5.703 0 0 1-.888-2.662h3.082a3.063 3.063 0 0 0 1.084 1.775c.575.46 1.29.69 2.145.69.92 0 1.667-.337 2.243-1.011.591-.674.887-1.512.887-2.514 0-1.035-.296-1.857-.887-2.465-.576-.608-1.307-.912-2.194-.912-.74 0-1.381.181-1.923.542-.542.362-.928.814-1.158 1.356h-3.032l1.479-9.859h9.564v2.76h-7.198l-.789 3.993c.362-.394.855-.714 1.479-.961.625-.263 1.323-.394 2.095-.394 1.233 0 2.26.279 3.082.838a5.22 5.22 0 0 1 1.873 2.169c.427.887.641 1.857.641 2.908 0 1.2-.263 2.268-.789 3.205a5.633 5.633 0 0 1-2.169 2.218c-.92.542-1.988.814-3.204.814Zm16.172 0c-1.594 0-2.958-.37-4.092-1.11-1.134-.756-2.013-1.799-2.637-3.13-.608-1.348-.912-2.909-.912-4.683 0-1.759.304-3.311.912-4.659.624-1.347 1.503-2.391 2.637-3.13 1.134-.756 2.498-1.134 4.092-1.134 1.594 0 2.958.378 4.092 1.134 1.133.739 2.004 1.783 2.612 3.13.625 1.348.937 2.9.937 4.659 0 1.774-.312 3.335-.937 4.683-.608 1.331-1.479 2.374-2.612 3.13-1.134.74-2.498 1.11-4.092 1.11Zm0-2.835c1.298 0 2.358-.542 3.18-1.627.821-1.084 1.232-2.572 1.232-4.461 0-1.89-.411-3.377-1.232-4.462-.822-1.084-1.882-1.627-3.18-1.627-1.315 0-2.383.543-3.204 1.627-.806 1.085-1.208 2.572-1.208 4.462 0 1.889.402 3.377 1.208 4.461.821 1.085 1.889 1.627 3.204 1.627Zm17.5 2.835c-1.594 0-2.958-.37-4.092-1.11-1.134-.756-2.013-1.799-2.638-3.13-.608-1.348-.912-2.909-.912-4.683 0-1.759.304-3.311.912-4.659.625-1.347 1.504-2.391 2.638-3.13 1.134-.756 2.498-1.134 4.092-1.134 1.593 0 2.957.378 4.091 1.134 1.134.739 2.005 1.783 2.613 3.13.624 1.348.937 2.9.937 4.659 0 1.774-.313 3.335-.937 4.683-.608 1.331-1.479 2.374-2.613 3.13-1.134.74-2.498 1.11-4.091 1.11Zm0-2.835c1.298 0 2.358-.542 3.179-1.627.822-1.084 1.233-2.572 1.233-4.461 0-1.89-.411-3.377-1.233-4.462-.821-1.084-1.881-1.627-3.179-1.627-1.315 0-2.383.543-3.205 1.627-.805 1.085-1.208 2.572-1.208 4.462 0 1.889.403 3.377 1.208 4.461.822 1.085 1.89 1.627 3.205 1.627Z" fill="#000" style="fill:#000;fill-opacity:1"/><defs><filter id="a" x="353.147" y="253.875" width="174.172" height="123.543" filterUnits="userSpaceOnUse" color-interpolation-filters="sRGB"><feFlood flood-opacity="0" result="BackgroundImageFix"/><feColorMatrix in="SourceAlpha" values="0 0 0 0 0 0 0 0 0 0 0 0 0 0 0 0 0 0 127 0" result="hardAlpha"/><feOffset dy="4"/><feGaussianBlur stdDeviation="24"/><feComposite in2="hardAlpha" operator="out"/><feColorMatrix values="0 0 0 0 0 0 0 0 0 0 0 0 0 0 0 0 0 0 0.25 0"/><feBlend in2="BackgroundImageFix" result="effect1_dropShadow_532_977"/><feBlend in="SourceGraphic" in2="effect1_dropShadow_532_977" result="shape"/></filter><filter id="b" x="64" y="117.622" width="194.702" height="143.676" filterUnits="userSpaceOnUse" color-interpolation-filters="sRGB"><feFlood flood-opacity="0" result="BackgroundImageFix"/><feColorMatrix in="SourceAlpha" values="0 0 0 0 0 0 0 0 0 0 0 0 0 0 0 0 0 0 127 0" result="hardAlpha"/><feOffset dy="4"/><feGaussianBlur stdDeviation="24"/><feComposite in2="hardAlpha" operator="out"/><feColorMatrix values="0 0 0 0 0 0 0 0 0 0 0 0 0 0 0 0 0 0 0.25 0"/><feBlend in2="BackgroundImageFix" result="effect1_dropShadow_532_977"/><feBlend in="SourceGraphic" in2="effect1_dropShadow_532_977" result="shape"/></filter></defs></svg>