<svg width="606" height="520" fill="none" xmlns="http://www.w3.org/2000/svg"><rect x="60" y="60" width="486" height="400" rx="32" fill="#F5F8FF" style="fill:color(display-p3 .9608 .9725 1);fill-opacity:1"/><g opacity=".8"><rect x="173" y="268" width="260" height="59.77" rx="29.885" fill="#FD7228" style="fill:color(display-p3 .9922 .4471 .1569);fill-opacity:1"/><circle cx="202.885" cy="297.885" r="23.908" fill="#040815" fill-opacity=".05" style="fill:color(display-p3 .0157 .0314 .0824);fill-opacity:.05"/><circle cx="202.885" cy="297.885" r="23.161" stroke="#040815" stroke-opacity=".2" style="stroke:color(display-p3 .0157 .0314 .0824);stroke-opacity:.2" stroke-width="1.494" stroke-dasharray="2.99 2.99"/><path d="M239.727 302.385v-10.091h6.517v1.484h-4.671v2.826h3.777v1.456h-3.777v4.325h-1.846Zm10.948.173a3.725 3.725 0 0 1-1.874-.476 3.574 3.574 0 0 1-1.312-1.312c-.317-.567-.475-1.22-.475-1.96s.163-1.389.49-1.946a3.549 3.549 0 0 1 1.312-1.327 3.722 3.722 0 0 1 1.874-.475c.682 0 1.297.158 1.845.475.557.317.995.76 1.312 1.327.327.557.49 1.206.49 1.946s-.163 1.393-.49 1.96a3.438 3.438 0 0 1-1.312 1.312 3.694 3.694 0 0 1-1.86.476Zm0-1.6c.481 0 .899-.178 1.255-.534.355-.365.533-.903.533-1.614 0-.711-.178-1.245-.533-1.6-.356-.366-.769-.548-1.24-.548-.49 0-.913.182-1.269.548-.346.355-.519.889-.519 1.6 0 .711.173 1.249.519 1.614.356.356.774.534 1.254.534Zm5.312 1.427v-7.15h1.643l.173 1.34a2.96 2.96 0 0 1 1.053-1.095c.452-.279.98-.418 1.586-.418v1.946h-.519c-.404 0-.764.062-1.082.187a1.486 1.486 0 0 0-.749.649c-.173.307-.26.735-.26 1.283v3.258h-1.845Zm9.063.173c-.72 0-1.36-.154-1.917-.461a3.342 3.342 0 0 1-1.312-1.298c-.317-.557-.476-1.201-.476-1.932 0-.74.154-1.398.462-1.975a3.414 3.414 0 0 1 1.297-1.34c.558-.327 1.211-.49 1.961-.49.701 0 1.321.153 1.86.461.538.307.956.73 1.254 1.268.307.529.461 1.12.461 1.774 0 .105-.005.216-.014.331 0 .116-.005.236-.015.361h-5.435c.039.557.231.994.577 1.312.356.317.783.475 1.283.475.375 0 .687-.081.937-.245.26-.173.452-.394.577-.663h1.874a3.422 3.422 0 0 1-.678 1.24 3.264 3.264 0 0 1-1.153.865c-.452.211-.966.317-1.543.317Zm.015-5.997c-.452 0-.851.13-1.197.389-.346.25-.567.634-.663 1.153h3.561c-.029-.471-.202-.845-.519-1.124-.317-.279-.711-.418-1.182-.418Zm8.63 5.997c-.73 0-1.374-.159-1.932-.476a3.517 3.517 0 0 1-1.326-1.326c-.317-.567-.476-1.216-.476-1.946 0-.731.159-1.379.476-1.946a3.52 3.52 0 0 1 1.326-1.327c.558-.317 1.202-.475 1.932-.475.913 0 1.682.24 2.307.72.625.471 1.023 1.125 1.196 1.961h-1.946a1.38 1.38 0 0 0-.576-.807 1.652 1.652 0 0 0-.995-.303 1.7 1.7 0 0 0-1.298.577c-.355.384-.533.917-.533 1.6 0 .682.178 1.216.533 1.6.356.384.788.577 1.298.577.384 0 .716-.096.995-.289.288-.192.48-.466.576-.821h1.946c-.173.807-.571 1.456-1.196 1.946s-1.394.735-2.307.735Zm7.606 0c-.615 0-1.119-.096-1.513-.288-.394-.202-.687-.466-.88-.793a2.095 2.095 0 0 1-.288-1.081c0-.664.259-1.202.778-1.615.519-.413 1.298-.62 2.336-.62h1.816v-.173c0-.49-.139-.851-.418-1.081-.278-.231-.624-.346-1.038-.346-.374 0-.701.091-.98.274a1.121 1.121 0 0 0-.519.778h-1.802c.048-.519.221-.97.519-1.355a2.954 2.954 0 0 1 1.182-.879 3.962 3.962 0 0 1 1.615-.317c1.019 0 1.821.254 2.407.764.587.509.88 1.23.88 2.162v4.397h-1.572l-.173-1.153a2.639 2.639 0 0 1-.894.951c-.374.25-.86.375-1.456.375Zm.419-1.442c.528 0 .937-.173 1.225-.519.298-.346.485-.773.562-1.283h-1.571c-.49 0-.841.092-1.053.274a.806.806 0 0 0-.317.649c0 .279.106.495.317.649.212.153.491.23.837.23Zm8.392 1.442c-.634 0-1.192-.101-1.672-.303a2.95 2.95 0 0 1-1.154-.865 2.488 2.488 0 0 1-.519-1.268h1.86c.058.278.212.519.461.72.26.193.591.289.995.289s.697-.082.88-.245c.192-.164.288-.351.288-.563 0-.307-.135-.514-.404-.619-.269-.116-.644-.226-1.124-.332-.308-.067-.62-.149-.937-.245a4.794 4.794 0 0 1-.88-.36 2.037 2.037 0 0 1-.634-.577c-.163-.24-.245-.534-.245-.88 0-.634.25-1.167.75-1.6.509-.432 1.22-.648 2.133-.648.846 0 1.519.197 2.018.591.51.394.813.937.909 1.629h-1.745c-.105-.529-.504-.793-1.196-.793-.346 0-.615.067-.808.202-.182.134-.274.302-.274.504 0 .212.14.38.419.505.278.125.648.24 1.11.346.499.115.956.245 1.369.389.423.134.759.341 1.009.62.25.269.375.658.375 1.168.01.442-.106.841-.346 1.196-.24.356-.586.634-1.038.836-.452.202-.985.303-1.6.303Zm7.58-.173c-.75 0-1.351-.183-1.802-.548-.452-.365-.678-1.014-.678-1.946v-3.114h-1.225v-1.542h1.225l.216-1.918h1.629v1.918h1.932v1.542h-1.932v3.128c0 .346.072.587.216.721.154.125.414.188.779.188h.894v1.571h-1.254Z" fill="#040815" style="fill:color(display-p3 .0157 .0314 .0824);fill-opacity:1"/></g><g opacity=".6"><rect x="173" y="192" width="260" height="59.77" rx="29.885" fill="#FD7228" style="fill:color(display-p3 .9922 .4471 .1569);fill-opacity:1"/><circle cx="202.885" cy="221.885" r="23.908" fill="#040815" fill-opacity=".05" style="fill:color(display-p3 .0157 .0314 .0824);fill-opacity:.05"/><circle cx="202.885" cy="221.885" r="23.161" stroke="#040815" stroke-opacity=".2" style="stroke:color(display-p3 .0157 .0314 .0824);stroke-opacity:.2" stroke-width="1.494" stroke-dasharray="2.99 2.99"/><path d="M239.727 226.385v-10.091h3.734c.808 0 1.475.134 2.004.403.529.269.923.639 1.182 1.11.26.471.389 1 .389 1.586 0 .558-.124 1.072-.374 1.543-.25.461-.639.836-1.168 1.124-.529.279-1.206.418-2.033.418h-1.888v3.907h-1.846Zm1.846-5.406h1.773c.644 0 1.105-.139 1.384-.418.288-.289.432-.678.432-1.168 0-.5-.144-.889-.432-1.168-.279-.288-.74-.432-1.384-.432h-1.773v3.186Zm6.868 5.406v-7.15h1.643l.173 1.34a2.96 2.96 0 0 1 1.053-1.095c.451-.279.98-.418 1.586-.418v1.946h-.519c-.404 0-.764.062-1.082.187a1.486 1.486 0 0 0-.749.649c-.173.307-.26.735-.26 1.283v3.258h-1.845Zm9.02.173a3.722 3.722 0 0 1-1.874-.476 3.574 3.574 0 0 1-1.312-1.312c-.317-.567-.476-1.22-.476-1.96s.164-1.389.491-1.946a3.546 3.546 0 0 1 1.311-1.327 3.728 3.728 0 0 1 1.875-.475c.682 0 1.297.158 1.845.475.557.317.995.76 1.312 1.327.326.557.49 1.206.49 1.946s-.164 1.393-.49 1.96a3.438 3.438 0 0 1-1.312 1.312 3.697 3.697 0 0 1-1.86.476Zm0-1.6c.481 0 .899-.178 1.254-.534.356-.365.534-.903.534-1.614 0-.711-.178-1.245-.534-1.6-.355-.366-.769-.548-1.239-.548-.491 0-.913.182-1.269.548-.346.355-.519.889-.519 1.6 0 .711.173 1.249.519 1.614.356.356.774.534 1.254.534Zm5.312 4.599v-10.322h1.643l.202 1.023c.231-.317.533-.596.908-.836.385-.24.88-.36 1.485-.36.673 0 1.274.163 1.802.49.529.326.947.773 1.254 1.34.308.567.462 1.211.462 1.932 0 .721-.154 1.365-.462 1.932a3.537 3.537 0 0 1-1.254 1.326c-.528.317-1.129.476-1.802.476-.538 0-1.009-.101-1.413-.303a2.553 2.553 0 0 1-.98-.85v4.152h-1.845Zm3.849-4.614c.586 0 1.072-.197 1.456-.591.384-.394.577-.903.577-1.528s-.193-1.139-.577-1.542c-.384-.404-.87-.606-1.456-.606-.596 0-1.086.202-1.471.606-.374.394-.562.903-.562 1.528 0 .624.188 1.139.562 1.542.385.394.875.591 1.471.591Zm8.986 1.615a3.725 3.725 0 0 1-1.874-.476 3.574 3.574 0 0 1-1.312-1.312c-.317-.567-.476-1.22-.476-1.96s.164-1.389.491-1.946a3.541 3.541 0 0 1 1.312-1.327 3.722 3.722 0 0 1 1.874-.475c.682 0 1.297.158 1.845.475.557.317.995.76 1.312 1.327.327.557.49 1.206.49 1.946s-.163 1.393-.49 1.96a3.438 3.438 0 0 1-1.312 1.312 3.694 3.694 0 0 1-1.86.476Zm0-1.6c.481 0 .899-.178 1.254-.534.356-.365.534-.903.534-1.614 0-.711-.178-1.245-.534-1.6-.355-.366-.768-.548-1.239-.548-.491 0-.913.182-1.269.548-.346.355-.519.889-.519 1.6 0 .711.173 1.249.519 1.614.356.356.774.534 1.254.534Zm8.267 1.6c-.634 0-1.192-.101-1.672-.303a2.94 2.94 0 0 1-1.153-.865 2.47 2.47 0 0 1-.519-1.268h1.859c.058.278.212.519.462.72.259.193.591.289.994.289.404 0 .697-.082.88-.245.192-.164.288-.351.288-.563 0-.307-.134-.514-.404-.619-.269-.116-.643-.226-1.124-.332-.308-.067-.62-.149-.937-.245a4.813 4.813 0 0 1-.879-.36 2.041 2.041 0 0 1-.635-.577c-.163-.24-.245-.534-.245-.88 0-.634.25-1.167.75-1.6.509-.432 1.22-.648 2.133-.648.846 0 1.519.197 2.019.591.509.394.812.937.908 1.629h-1.744c-.106-.529-.505-.793-1.197-.793-.346 0-.615.067-.807.202-.183.134-.274.302-.274.504 0 .212.139.38.418.505.279.125.649.24 1.11.346.5.115.956.245 1.369.389.423.134.76.341 1.01.62.249.269.374.658.374 1.168.01.442-.105.841-.346 1.196-.24.356-.586.634-1.038.836-.451.202-.985.303-1.6.303Zm7.084 0c-.615 0-1.119-.096-1.513-.288-.395-.202-.688-.466-.88-.793a2.095 2.095 0 0 1-.288-1.081c0-.664.259-1.202.778-1.615.519-.413 1.298-.62 2.336-.62h1.816v-.173c0-.49-.139-.851-.418-1.081-.279-.231-.625-.346-1.038-.346-.375 0-.701.091-.98.274a1.121 1.121 0 0 0-.519.778h-1.802c.048-.519.221-.97.519-1.355a2.94 2.94 0 0 1 1.182-.879 3.958 3.958 0 0 1 1.615-.317c1.018 0 1.821.254 2.407.764.586.509.879 1.23.879 2.162v4.397h-1.571l-.173-1.153a2.639 2.639 0 0 1-.894.951c-.375.25-.86.375-1.456.375Zm.418-1.442c.529 0 .937-.173 1.226-.519.298-.346.485-.773.562-1.283h-1.571c-.491 0-.841.092-1.053.274a.806.806 0 0 0-.317.649c0 .279.106.495.317.649.212.153.49.23.836.23Zm5.437 1.269v-10.38h1.846v10.38h-1.846Z" fill="#040815" style="fill:color(display-p3 .0157 .0314 .0824);fill-opacity:1"/></g><g opacity=".4"><rect x="173" y="116" width="260" height="59.77" rx="29.885" fill="#FD7228" style="fill:color(display-p3 .9922 .4471 .1569);fill-opacity:1"/><circle cx="202.885" cy="145.885" r="23.908" fill="#040815" fill-opacity=".05" style="fill:color(display-p3 .0157 .0314 .0824);fill-opacity:.05"/><circle cx="202.885" cy="145.885" r="23.161" stroke="#040815" stroke-opacity=".2" style="stroke:color(display-p3 .0157 .0314 .0824);stroke-opacity:.2" stroke-width="1.494" stroke-dasharray="2.99 2.99"/><path d="M239.727 150.385v-10.091h4.051c1.048 0 1.846.245 2.393.735.558.48.837 1.1.837 1.86 0 .634-.173 1.143-.519 1.528-.337.374-.75.629-1.24.764a2.39 2.39 0 0 1 1.427.865c.375.451.562.98.562 1.585 0 .798-.288 1.457-.865 1.976-.576.519-1.393.778-2.45.778h-4.196Zm1.846-5.853h1.931c.519 0 .918-.12 1.197-.36.279-.241.418-.582.418-1.024 0-.423-.139-.754-.418-.995-.269-.25-.678-.375-1.225-.375h-1.903v2.754Zm0 4.354h2.061c.548 0 .971-.125 1.269-.375.307-.26.461-.62.461-1.081 0-.471-.158-.841-.476-1.11-.317-.269-.744-.404-1.283-.404h-2.032v2.97Zm9.887 1.672c-.894 0-1.586-.279-2.076-.836-.48-.558-.721-1.374-.721-2.451v-4.036h1.831v3.863c0 .615.125 1.086.375 1.413.25.327.644.49 1.182.49.51 0 .928-.183 1.255-.548.336-.365.504-.874.504-1.528v-3.69h1.845v7.15h-1.629l-.144-1.211a2.499 2.499 0 0 1-.966 1.009c-.413.25-.898.375-1.456.375Zm9.045 0c-.634 0-1.192-.101-1.672-.303a2.95 2.95 0 0 1-1.154-.865 2.488 2.488 0 0 1-.519-1.268h1.86c.058.278.212.519.461.72.26.193.592.289.995.289.404 0 .697-.082.88-.245.192-.164.288-.351.288-.563 0-.307-.135-.514-.404-.619-.269-.116-.644-.226-1.124-.332-.308-.067-.62-.149-.937-.245a4.823 4.823 0 0 1-.88-.36 2.037 2.037 0 0 1-.634-.577c-.163-.24-.245-.534-.245-.88 0-.634.25-1.167.75-1.6.509-.432 1.22-.648 2.133-.648.846 0 1.519.197 2.018.591.51.394.813.937.909 1.629h-1.745c-.105-.529-.504-.793-1.196-.793-.346 0-.615.067-.808.202-.182.134-.273.302-.273.504 0 .212.139.38.418.505.278.125.648.24 1.11.346.499.115.956.245 1.369.389.423.134.759.341 1.009.62.25.269.375.658.375 1.168.01.442-.106.841-.346 1.196-.24.356-.586.634-1.038.836-.451.202-.985.303-1.6.303Zm5.614-8.434c-.337 0-.616-.1-.837-.302a1.014 1.014 0 0 1-.317-.764c0-.308.106-.558.317-.75.221-.202.5-.303.837-.303.336 0 .61.101.821.303a.947.947 0 0 1 .332.75.992.992 0 0 1-.332.764c-.211.202-.485.302-.821.302Zm-.923 8.261v-7.15h1.845v7.15h-1.845Zm3.771 0v-7.15h1.629l.144 1.21c.222-.422.539-.759.952-1.009.423-.25.918-.374 1.485-.374.884 0 1.571.278 2.061.836.491.557.736 1.374.736 2.45v4.037h-1.846v-3.864c0-.615-.125-1.086-.375-1.412-.249-.327-.639-.491-1.167-.491-.519 0-.947.183-1.283.548-.327.366-.49.875-.49 1.528v3.691h-1.846Zm12.245.173c-.72 0-1.359-.154-1.917-.461a3.342 3.342 0 0 1-1.312-1.298c-.317-.557-.476-1.201-.476-1.932 0-.74.154-1.398.462-1.975a3.414 3.414 0 0 1 1.297-1.34c.558-.327 1.211-.49 1.961-.49.701 0 1.321.153 1.86.461.538.307.956.73 1.254 1.268.307.529.461 1.12.461 1.774 0 .105-.005.216-.014.331 0 .116-.005.236-.015.361h-5.435c.039.557.231.994.577 1.312.356.317.783.475 1.283.475.375 0 .687-.081.937-.245.26-.173.452-.394.577-.663h1.874a3.422 3.422 0 0 1-.678 1.24 3.264 3.264 0 0 1-1.153.865c-.452.211-.966.317-1.543.317Zm.015-5.997c-.452 0-.851.13-1.197.389-.346.25-.567.634-.663 1.153h3.561c-.029-.471-.202-.845-.519-1.124-.317-.279-.711-.418-1.182-.418Zm8.082 5.997c-.634 0-1.191-.101-1.672-.303-.48-.211-.865-.5-1.153-.865a2.488 2.488 0 0 1-.519-1.268h1.86c.057.278.211.519.461.72.259.193.591.289.995.289.403 0 .696-.082.879-.245.192-.164.288-.351.288-.563 0-.307-.134-.514-.403-.619-.269-.116-.644-.226-1.125-.332-.307-.067-.62-.149-.937-.245a4.813 4.813 0 0 1-.879-.36 2.041 2.041 0 0 1-.635-.577c-.163-.24-.245-.534-.245-.88 0-.634.25-1.167.75-1.6.509-.432 1.221-.648 2.134-.648.845 0 1.518.197 2.018.591.509.394.812.937.908 1.629h-1.744c-.106-.529-.505-.793-1.197-.793-.346 0-.615.067-.807.202-.183.134-.274.302-.274.504 0 .212.139.38.418.505.279.125.649.24 1.11.346.5.115.956.245 1.37.389.423.134.759.341 1.009.62.25.269.375.658.375 1.168.009.442-.106.841-.346 1.196-.241.356-.587.634-1.038.836-.452.202-.985.303-1.601.303Zm7.575 0c-.635 0-1.192-.101-1.673-.303-.48-.211-.865-.5-1.153-.865a2.488 2.488 0 0 1-.519-1.268h1.86c.057.278.211.519.461.72.26.193.591.289.995.289.403 0 .697-.082.879-.245.192-.164.289-.351.289-.563 0-.307-.135-.514-.404-.619-.269-.116-.644-.226-1.125-.332a12.373 12.373 0 0 1-.937-.245 4.813 4.813 0 0 1-.879-.36 2.026 2.026 0 0 1-.634-.577c-.164-.24-.245-.534-.245-.88 0-.634.249-1.167.749-1.6.51-.432 1.221-.648 2.134-.648.846 0 1.518.197 2.018.591.51.394.812.937.908 1.629h-1.744c-.106-.529-.505-.793-1.197-.793-.346 0-.615.067-.807.202-.182.134-.274.302-.274.504 0 .212.14.38.418.505.279.125.649.24 1.11.346.5.115.957.245 1.37.389.423.134.759.341 1.009.62.25.269.375.658.375 1.168.009.442-.106.841-.346 1.196-.24.356-.586.634-1.038.836-.452.202-.985.303-1.6.303Zm11.557 0c-.731 0-1.375-.159-1.932-.476a3.517 3.517 0 0 1-1.326-1.326c-.317-.567-.476-1.216-.476-1.946 0-.731.159-1.379.476-1.946a3.52 3.52 0 0 1 1.326-1.327c.557-.317 1.201-.475 1.932-.475.913 0 1.682.24 2.306.72.625.471 1.024 1.125 1.197 1.961h-1.946a1.38 1.38 0 0 0-.577-.807 1.65 1.65 0 0 0-.995-.303 1.7 1.7 0 0 0-1.297.577c-.356.384-.533.917-.533 1.6 0 .682.177 1.216.533 1.6.356.384.788.577 1.297.577.385 0 .716-.096.995-.289.288-.192.481-.466.577-.821h1.946c-.173.807-.572 1.456-1.197 1.946-.624.49-1.393.735-2.306.735Zm7.606 0c-.615 0-1.12-.096-1.514-.288-.394-.202-.687-.466-.879-.793a2.095 2.095 0 0 1-.288-1.081c0-.664.259-1.202.778-1.615.519-.413 1.298-.62 2.335-.62h1.817v-.173c0-.49-.139-.851-.418-1.081-.279-.231-.625-.346-1.038-.346-.375 0-.702.091-.98.274a1.121 1.121 0 0 0-.519.778h-1.802c.048-.519.221-.97.519-1.355a2.94 2.94 0 0 1 1.182-.879 3.953 3.953 0 0 1 1.614-.317c1.019 0 1.822.254 2.408.764.586.509.879 1.23.879 2.162v4.397h-1.571l-.173-1.153c-.212.384-.51.701-.894.951-.375.25-.86.375-1.456.375Zm.418-1.442c.529 0 .937-.173 1.225-.519.298-.346.486-.773.563-1.283h-1.572c-.49 0-.841.092-1.052.274a.803.803 0 0 0-.317.649c0 .279.105.495.317.649.211.153.49.23.836.23Zm8.393 1.442c-.635 0-1.192-.101-1.673-.303-.48-.211-.865-.5-1.153-.865a2.488 2.488 0 0 1-.519-1.268h1.86c.057.278.211.519.461.72.259.193.591.289.995.289.403 0 .696-.082.879-.245.192-.164.288-.351.288-.563 0-.307-.134-.514-.403-.619-.269-.116-.644-.226-1.125-.332-.307-.067-.62-.149-.937-.245a4.813 4.813 0 0 1-.879-.36 2.026 2.026 0 0 1-.634-.577c-.164-.24-.246-.534-.246-.88 0-.634.25-1.167.75-1.6.509-.432 1.221-.648 2.134-.648.845 0 1.518.197 2.018.591.509.394.812.937.908 1.629h-1.744c-.106-.529-.505-.793-1.197-.793-.346 0-.615.067-.807.202-.183.134-.274.302-.274.504 0 .212.139.38.418.505.279.125.649.24 1.11.346.5.115.956.245 1.37.389.423.134.759.341 1.009.62.25.269.375.658.375 1.168.009.442-.106.841-.346 1.196-.241.356-.587.634-1.038.836-.452.202-.985.303-1.6.303Zm8.093 0c-.721 0-1.36-.154-1.918-.461a3.348 3.348 0 0 1-1.312-1.298c-.317-.557-.475-1.201-.475-1.932 0-.74.153-1.398.461-1.975a3.42 3.42 0 0 1 1.297-1.34c.558-.327 1.211-.49 1.961-.49.702 0 1.322.153 1.86.461.538.307.956.73 1.254 1.268.308.529.461 1.12.461 1.774 0 .105-.004.216-.014.331 0 .116-.005.236-.014.361h-5.435c.038.557.23.994.576 1.312.356.317.784.475 1.283.475.375 0 .687-.081.937-.245.26-.173.452-.394.577-.663h1.874c-.134.452-.36.865-.677 1.24a3.267 3.267 0 0 1-1.154.865c-.451.211-.966.317-1.542.317Zm.014-5.997c-.452 0-.85.13-1.196.389-.346.25-.567.634-.664 1.153h3.561c-.029-.471-.202-.845-.519-1.124-.317-.279-.711-.418-1.182-.418Z" fill="#040815" style="fill:color(display-p3 .0157 .0314 .0824);fill-opacity:1"/></g><rect x="173" y="344" width="260" height="59.77" rx="29.885" fill="#FD7228" style="fill:color(display-p3 .9922 .4471 .1569);fill-opacity:1"/><circle cx="202.885" cy="373.885" r="23.908" fill="#FD7228" style="fill:color(display-p3 .9922 .4471 .1569);fill-opacity:1"/><circle cx="202.885" cy="373.885" r="23.908" fill="#fff" fill-opacity=".4" style="fill:#fff;fill-opacity:.4"/><mask id="a" style="mask-type:alpha" maskUnits="userSpaceOnUse" x="190" y="361" width="25" height="25"><path fill="#D9D9D9" style="fill:color(display-p3 .851 .851 .851);fill-opacity:1" d="M190.931 361.931h23.908v23.908h-23.908z"/></mask><g mask="url(#a)"><path d="m200.444 379.862-5.678-5.678 1.42-1.42 4.258 4.259 9.14-9.14 1.42 1.42-10.56 10.559Z" fill="#040815" style="fill:color(display-p3 .0157 .0314 .0824);fill-opacity:1"/></g><path d="m241.075 378.385 3.69-10.091h2.076l3.691 10.091h-1.961l-.807-2.335h-3.936l-.821 2.335h-1.932Zm3.258-3.777h2.926l-1.47-4.195-1.456 4.195Zm10.621 3.95c-.731 0-1.375-.159-1.932-.476a3.517 3.517 0 0 1-1.326-1.326c-.317-.567-.476-1.216-.476-1.946 0-.731.159-1.379.476-1.946a3.52 3.52 0 0 1 1.326-1.327c.557-.317 1.201-.475 1.932-.475.913 0 1.682.24 2.306.72.625.471 1.024 1.125 1.197 1.961h-1.946a1.38 1.38 0 0 0-.577-.807 1.65 1.65 0 0 0-.995-.303 1.7 1.7 0 0 0-1.297.577c-.356.384-.533.917-.533 1.6 0 .682.177 1.216.533 1.6.356.384.788.577 1.297.577.385 0 .716-.096.995-.289.288-.192.481-.466.577-.821h1.946c-.173.807-.572 1.456-1.197 1.946-.624.49-1.393.735-2.306.735Zm8.228-.173c-.749 0-1.35-.183-1.802-.548-.451-.365-.677-1.014-.677-1.946v-3.114h-1.226v-1.542h1.226l.216-1.918h1.629v1.918h1.932v1.542h-1.932v3.128c0 .346.072.587.216.721.154.125.413.188.779.188h.893v1.571h-1.254Zm5.564.173c-.894 0-1.586-.279-2.076-.836-.481-.558-.721-1.374-.721-2.451v-4.036h1.831v3.863c0 .615.125 1.086.374 1.413.25.327.644.49 1.183.49.509 0 .927-.183 1.254-.548.336-.365.504-.874.504-1.528v-3.69h1.846v7.15h-1.629l-.145-1.211a2.503 2.503 0 0 1-.965 1.009c-.414.25-.899.375-1.456.375Zm8.554 0c-.615 0-1.12-.096-1.514-.288-.394-.202-.687-.466-.879-.793a2.095 2.095 0 0 1-.288-1.081c0-.664.259-1.202.778-1.615.519-.413 1.298-.62 2.336-.62h1.816v-.173c0-.49-.139-.85-.418-1.081-.279-.231-.625-.346-1.038-.346-.375 0-.702.091-.98.274a1.121 1.121 0 0 0-.519.778h-1.802c.048-.519.221-.97.519-1.355a2.94 2.94 0 0 1 1.182-.879 3.957 3.957 0 0 1 1.614-.317c1.019 0 1.822.254 2.408.764.586.509.879 1.23.879 2.162v4.397h-1.571l-.173-1.153a2.639 2.639 0 0 1-.894.951c-.375.25-.86.375-1.456.375Zm.418-1.442c.529 0 .937-.173 1.226-.519.298-.346.485-.773.562-1.283h-1.572c-.49 0-.841.092-1.052.274a.807.807 0 0 0-.317.649c0 .279.106.495.317.649.211.154.49.23.836.23Zm5.437 1.269v-10.38h1.846v10.38h-1.846Zm7.166 3.172v-10.322h1.644l.201 1.023c.231-.317.534-.596.909-.836.384-.24.879-.36 1.485-.36.672 0 1.273.163 1.802.49.528.327.946.773 1.254 1.34.307.567.461 1.211.461 1.932 0 .721-.154 1.365-.461 1.932-.308.557-.726 1-1.254 1.326-.529.317-1.13.476-1.802.476-.539 0-1.01-.101-1.413-.303a2.549 2.549 0 0 1-.981-.85v4.152h-1.845Zm3.849-4.614c.587 0 1.072-.197 1.456-.591.385-.394.577-.903.577-1.528 0-.624-.192-1.139-.577-1.542-.384-.404-.869-.606-1.456-.606-.596 0-1.086.202-1.47.606-.375.394-.562.903-.562 1.528s.187 1.139.562 1.542c.384.394.874.591 1.47.591Zm9.03 1.615c-.721 0-1.36-.154-1.917-.461a3.335 3.335 0 0 1-1.312-1.298c-.317-.557-.476-1.201-.476-1.932 0-.74.154-1.398.461-1.975a3.416 3.416 0 0 1 1.298-1.34c.557-.327 1.211-.49 1.96-.49.702 0 1.322.153 1.86.461.538.307.956.73 1.254 1.269.308.528.462 1.119.462 1.773 0 .105-.005.216-.015.331 0 .116-.005.236-.014.361h-5.435c.038.557.23.994.576 1.312.356.317.784.475 1.284.475.374 0 .687-.081.937-.245.259-.173.451-.394.576-.663h1.874c-.134.452-.36.865-.677 1.24a3.267 3.267 0 0 1-1.154.865c-.451.211-.965.317-1.542.317Zm.014-5.997c-.451 0-.85.13-1.196.389-.346.25-.567.634-.663 1.153h3.56c-.028-.471-.201-.845-.519-1.124-.317-.279-.711-.418-1.182-.418Zm5.128 5.824v-7.15h1.643l.173 1.34c.26-.461.61-.826 1.052-1.095.452-.279.981-.418 1.586-.418v1.946h-.519c-.403 0-.764.062-1.081.187a1.493 1.493 0 0 0-.75.649c-.173.307-.259.735-.259 1.283v3.258h-1.845Zm6.047 0v-5.608h-.98v-1.542h.98v-.837c0-.865.216-1.48.649-1.845.442-.365 1.038-.548 1.787-.548h.793v1.572h-.504c-.317 0-.543.062-.678.187-.134.125-.202.336-.202.634v.837h1.543v1.542h-1.543v5.608h-1.845Zm7.999.173a3.722 3.722 0 0 1-1.874-.476 3.574 3.574 0 0 1-1.312-1.312c-.317-.567-.476-1.22-.476-1.96s.163-1.389.49-1.946a3.549 3.549 0 0 1 1.312-1.327 3.724 3.724 0 0 1 1.874-.475c.683 0 1.298.158 1.846.475.557.317.994.76 1.311 1.327.327.557.491 1.206.491 1.946s-.164 1.393-.491 1.96a3.435 3.435 0 0 1-1.311 1.312 3.7 3.7 0 0 1-1.86.476Zm0-1.6c.48 0 .898-.178 1.254-.534.356-.365.533-.903.533-1.614 0-.711-.177-1.245-.533-1.6-.356-.366-.769-.548-1.24-.548-.49 0-.913.182-1.268.548-.346.355-.519.889-.519 1.6 0 .711.173 1.249.519 1.614.355.356.773.534 1.254.534Zm5.311 1.427v-7.15h1.644l.173 1.34a2.95 2.95 0 0 1 1.052-1.095c.452-.279.981-.418 1.586-.418v1.946h-.519c-.404 0-.764.062-1.081.187a1.493 1.493 0 0 0-.75.649c-.173.307-.259.735-.259 1.283v3.258h-1.846Zm5.716 0v-7.15h1.629l.159.965c.231-.346.533-.619.908-.821.385-.212.827-.317 1.326-.317 1.106 0 1.889.427 2.35 1.283.26-.394.606-.707 1.038-.937a3.067 3.067 0 0 1 1.442-.346c.932 0 1.648.278 2.148.836.5.557.75 1.374.75 2.451v4.036h-1.846v-3.864c0-.615-.12-1.086-.36-1.412-.231-.327-.591-.49-1.081-.49-.5 0-.904.182-1.211.547-.298.366-.447.875-.447 1.528v3.691h-1.846v-3.864c0-.615-.12-1.086-.36-1.412-.24-.327-.61-.49-1.11-.49-.49 0-.889.182-1.197.547-.297.366-.446.875-.446 1.528v3.691h-1.846Zm15.967.173c-.615 0-1.12-.096-1.514-.288-.394-.202-.687-.466-.879-.793a2.086 2.086 0 0 1-.289-1.081c0-.664.26-1.202.779-1.615.519-.413 1.297-.62 2.335-.62h1.817v-.173c0-.49-.14-.85-.418-1.081-.279-.231-.625-.346-1.038-.346-.375 0-.702.091-.981.274a1.127 1.127 0 0 0-.519.778h-1.802c.048-.519.221-.97.519-1.355a2.954 2.954 0 0 1 1.182-.879 3.962 3.962 0 0 1 1.615-.317c1.019 0 1.821.254 2.408.764.586.509.879 1.23.879 2.162v4.397h-1.571l-.173-1.153c-.212.384-.51.701-.894.951-.375.25-.86.375-1.456.375Zm.418-1.442c.528 0 .937-.173 1.225-.519.298-.346.485-.773.562-1.283h-1.571c-.49 0-.841.092-1.052.274a.806.806 0 0 0-.318.649c0 .279.106.495.318.649.211.154.49.23.836.23Zm5.437 1.269v-7.15h1.629l.144 1.211c.221-.423.538-.76.952-1.01.422-.249.917-.374 1.484-.374.885 0 1.572.278 2.062.836.49.557.735 1.374.735 2.451v4.036h-1.845v-3.864c0-.615-.125-1.086-.375-1.412-.25-.327-.639-.49-1.168-.49-.519 0-.946.182-1.283.547-.326.366-.49.875-.49 1.528v3.691h-1.845Zm12.274.173c-.731 0-1.374-.159-1.932-.476a3.517 3.517 0 0 1-1.326-1.326c-.317-.567-.476-1.216-.476-1.946 0-.731.159-1.379.476-1.946a3.52 3.52 0 0 1 1.326-1.327c.558-.317 1.201-.475 1.932-.475.913 0 1.682.24 2.306.72.625.471 1.024 1.125 1.197 1.961h-1.946a1.377 1.377 0 0 0-.577-.807 1.65 1.65 0 0 0-.995-.303 1.7 1.7 0 0 0-1.297.577c-.356.384-.533.917-.533 1.6 0 .682.177 1.216.533 1.6.356.384.788.577 1.297.577.385 0 .716-.096.995-.289a1.38 1.38 0 0 0 .577-.821h1.946c-.173.807-.572 1.456-1.197 1.946-.624.49-1.393.735-2.306.735Zm8.615 0c-.721 0-1.36-.154-1.917-.461a3.335 3.335 0 0 1-1.312-1.298c-.317-.557-.476-1.201-.476-1.932 0-.74.154-1.398.462-1.975a3.414 3.414 0 0 1 1.297-1.34c.557-.327 1.211-.49 1.961-.49.701 0 1.321.153 1.859.461.539.307.957.73 1.255 1.269.307.528.461 1.119.461 1.773 0 .105-.005.216-.015.331 0 .116-.004.236-.014.361h-5.435c.039.557.231.994.577 1.312a1.86 1.86 0 0 0 1.283.475c.375 0 .687-.081.937-.245a1.6 1.6 0 0 0 .577-.663h1.874a3.422 3.422 0 0 1-.678 1.24 3.264 3.264 0 0 1-1.153.865c-.452.211-.966.317-1.543.317Zm.015-5.997c-.452 0-.851.13-1.197.389-.346.25-.567.634-.663 1.153h3.561c-.029-.471-.202-.845-.519-1.124-.317-.279-.711-.418-1.182-.418Z" fill="#040815" style="fill:color(display-p3 .0157 .0314 .0824);fill-opacity:1"/><mask id="b" style="mask-type:alpha" maskUnits="userSpaceOnUse" x="394" y="364" width="19" height="19"><path fill="#D9D9D9" style="fill:color(display-p3 .851 .851 .851);fill-opacity:1" d="M394.693 364.92h17.931v17.931h-17.931z"/></mask><g mask="url(#b)"><path d="m408.982 371.513-2.97-2.951.99-.99a1.35 1.35 0 0 1 .991-.402c.392 0 .722.135.99.405l.979.984c.268.27.405.596.412.979.006.383-.125.708-.394.977l-.998.998Zm-.999 1.009-7.873 7.872h-2.97v-2.969l7.873-7.873 2.97 2.97Z" fill="#040815" style="fill:color(display-p3 .0157 .0314 .0824);fill-opacity:1"/></g></svg>