<svg width="300" height="256" fill="none" xmlns="http://www.w3.org/2000/svg"><rect width="300" height="255.073" rx="32" fill="#233565" style="fill:color(display-p3 .1373 .2078 .3961);fill-opacity:1"/><path fill-rule="evenodd" clip-rule="evenodd" d="M171.114 163.598c-12.82 17.825-28.693 30.696-44.288 37.51-17.387 7.598-33.453 7.358-45.214-.183-11.05-7.086-17.841-20.323-18.933-37.649h-8.385c1.108 19.383 8.737 35.683 22.805 44.703 29.324 18.804 75.656-1.061 104.181-44.381h-10.166ZM84.519 93.616c13.07-18.937 29.585-32.567 45.797-39.651 17.387-7.598 33.453-7.358 45.214.183 10.036 6.436 16.559 17.947 18.49 32.986h8.429c-1.992-17.321-9.481-31.753-22.406-40.04-29.033-18.617-74.738.67-103.326 43.099l7.802 3.424Z" fill="#fff" style="fill:#fff;fill-opacity:1"/><path d="M56.894 152.183c-3.307 0-6.23-.504-8.77-1.512-2.54-1.055-4.53-2.567-5.967-4.534-1.438-2.015-2.157-4.413-2.157-7.196 0-.48.024-.936.072-1.367l.144-1.44h9.777a16.06 16.06 0 0 0-.072 1.44c0 2.063.719 3.742 2.156 5.037 1.486 1.248 3.475 1.871 5.967 1.871 2.78 0 4.96-.695 6.542-2.087 1.582-1.439 2.373-3.31 2.373-5.613 0-1.727-.6-3.095-1.798-4.102-1.198-1.008-2.732-1.847-4.6-2.519a615.175 615.175 0 0 0-5.752-2.087c-3.163-1.151-5.583-2.735-7.26-4.75-1.678-2.015-2.517-4.389-2.517-7.124 0-3.215.815-6.021 2.445-8.42 1.677-2.447 3.953-4.342 6.829-5.685 2.924-1.344 6.278-2.015 10.065-2.015 4.553 0 8.219 1.103 10.999 3.31 2.78 2.207 4.17 5.206 4.17 8.996 0 .336-.025.695-.073 1.079 0 .384-.024.768-.072 1.152h-9.849c.048-.432.072-.84.072-1.224 0-1.487-.575-2.782-1.725-3.886-1.15-1.103-2.828-1.655-5.032-1.655-2.444 0-4.385.648-5.823 1.943-1.39 1.247-2.085 2.831-2.085 4.75 0 1.487.48 2.686 1.438 3.598.958.864 2.252 1.631 3.882 2.303 1.63.624 3.426 1.295 5.392 2.015 2.06.719 3.93 1.679 5.607 2.878 1.725 1.152 3.091 2.567 4.098 4.246 1.054 1.68 1.581 3.671 1.581 5.974 0 3.358-.862 6.284-2.588 8.779-1.725 2.495-4.098 4.438-7.117 5.829-3.02 1.344-6.47 2.016-10.352 2.016Zm30.948 14.968 8.268-18.207h-2.157l-13.875-33.32h9.993l9.993 25.116 10.424-25.116h9.777l-22.646 51.527h-9.777Zm33.406-15.832v-35.695h8.123l.791 4.822c1.15-1.727 2.66-3.095 4.529-4.102 1.917-1.056 4.122-1.583 6.614-1.583 5.512 0 9.418 2.135 11.718 6.404 1.294-1.967 3.019-3.526 5.176-4.677 2.205-1.152 4.601-1.727 7.189-1.727 4.649 0 8.219 1.391 10.712 4.174 2.492 2.782 3.738 6.86 3.738 12.234v20.15h-9.202v-19.287c0-3.07-.599-5.421-1.797-7.052-1.151-1.632-2.948-2.447-5.392-2.447-2.492 0-4.505.911-6.039 2.734-1.485 1.824-2.228 4.366-2.228 7.629v18.423h-9.202v-19.287c0-3.07-.599-5.421-1.797-7.052-1.199-1.632-3.044-2.447-5.536-2.447-2.444 0-4.433.911-5.967 2.734-1.485 1.824-2.228 4.366-2.228 7.629v18.423h-9.202Zm80.194.864c-2.636 0-4.912-.552-6.829-1.656-1.869-1.151-3.259-2.518-4.17-4.102l-1.869 4.894h-8.195l11.376-51.815h9.202l-3.595 20.654c1.342-1.487.773-2.759 2.786-3.814 2.061-1.056 4.529-1.583 7.405-1.583 2.923 0 5.463.671 7.62 2.015 2.157 1.343 3.834 3.19 5.032 5.541 1.246 2.303 1.869 4.918 1.869 7.844 0 3.071-.527 5.949-1.581 8.636-1.054 2.639-2.516 4.966-4.385 6.981a20.65 20.65 0 0 1-6.542 4.749c-2.492 1.104-5.2 1.656-8.124 1.656Zm-.503-8.061c2.205 0 4.17-.527 5.895-1.583 1.773-1.103 3.163-2.591 4.169-4.462 1.007-1.871 1.51-3.982 1.51-6.333 0-2.542-.767-4.653-2.3-6.333-1.534-1.727-3.619-2.59-6.255-2.59-2.204 0-4.193.551-5.966 1.655-1.726 1.103-3.092 2.615-4.098 4.534-1.007 1.919-1.51 4.078-1.51 6.477 0 2.494.767 4.557 2.301 6.189 1.581 1.631 3.666 2.446 6.254 2.446Zm41.161 8.061c-3.595 0-6.782-.768-9.562-2.303-2.779-1.536-4.96-3.695-6.542-6.477-1.581-2.783-2.372-5.997-2.372-9.644 0-3.694.767-6.98 2.3-9.859 1.582-2.878 3.739-5.109 6.471-6.693 2.779-1.631 6.038-2.446 9.776-2.446 3.499 0 6.59.767 9.274 2.302 2.684 1.536 4.769 3.647 6.255 6.333 1.533 2.639 2.3 5.59 2.3 8.852 0 .528-.024 1.08-.072 1.655 0 .576-.024 1.176-.072 1.799h-27.102c.192 2.783 1.15 4.966 2.876 6.549 1.773 1.584 3.906 2.375 6.398 2.375 1.869 0 3.426-.408 4.673-1.223 1.294-.864 2.252-1.967 2.875-3.311h9.346c-.671 2.255-1.798 4.318-3.379 6.189-1.534 1.823-3.451 3.263-5.751 4.318-2.253 1.056-4.817 1.584-7.692 1.584Zm.071-29.938c-2.252 0-4.241.648-5.966 1.943-1.726 1.247-2.828 3.166-3.307 5.757h17.756c-.143-2.351-1.006-4.222-2.588-5.613-1.581-1.391-3.546-2.087-5.895-2.087Z" style="fill:color(display-p3 .7763 .7998 .8625);fill-opacity:1" opacity=".4" fill="#C6CCDC"/><path d="M56.894 152.182c-3.307 0-6.23-.503-8.77-1.511-2.54-1.055-4.53-2.567-5.967-4.534-1.438-2.015-2.157-4.414-2.157-7.196 0-.48.024-.936.072-1.368l.144-1.439h9.777a16.057 16.057 0 0 0-.072 1.439c0 2.063.719 3.743 2.156 5.038 1.486 1.247 3.475 1.871 5.967 1.871 2.78 0 4.96-.696 6.542-2.087 1.582-1.439 2.373-3.31 2.373-5.613 0-1.727-.6-3.095-1.798-4.102-1.198-1.008-2.732-1.847-4.6-2.519a615.175 615.175 0 0 0-5.752-2.087c-3.163-1.151-5.583-2.735-7.26-4.75-1.678-2.015-2.517-4.39-2.517-7.124 0-3.215.815-6.021 2.445-8.42 1.677-2.447 3.953-4.342 6.829-5.686 2.924-1.343 6.278-2.015 10.065-2.015 4.553 0 8.219 1.104 10.999 3.311 2.78 2.207 4.17 5.205 4.17 8.996 0 .335-.025.695-.073 1.079 0 .384-.024.768-.072 1.151h-9.849c.048-.431.072-.839.072-1.223 0-1.487-.575-2.783-1.725-3.886-1.15-1.104-2.828-1.655-5.032-1.655-2.444 0-4.385.647-5.823 1.943-1.39 1.247-2.085 2.83-2.085 4.749 0 1.488.48 2.687 1.438 3.599.958.863 2.252 1.631 3.882 2.303a414.51 414.51 0 0 0 5.392 2.015c2.06.719 3.93 1.679 5.607 2.878 1.725 1.152 3.091 2.567 4.098 4.246 1.054 1.679 1.581 3.67 1.581 5.973 0 3.359-.862 6.285-2.588 8.78-1.725 2.495-4.098 4.438-7.117 5.829-3.02 1.344-6.47 2.015-10.352 2.015Zm144.548 0c-2.636 0-4.912-.551-6.829-1.655-1.869-1.151-3.259-2.519-4.17-4.102l-1.869 4.894h-8.195l11.376-51.815h9.202l-3.595 20.654c1.342-1.488.773-2.759 2.786-3.814 2.061-1.056 4.529-1.584 7.405-1.584 2.923 0 5.463.672 7.62 2.015 2.157 1.344 3.834 3.191 5.032 5.542 1.246 2.303 1.869 4.917 1.869 7.844 0 3.07-.527 5.949-1.581 8.636-1.055 2.639-2.516 4.965-4.385 6.98a20.664 20.664 0 0 1-6.542 4.75c-2.492 1.104-5.2 1.655-8.124 1.655Zm-.503-8.06c2.205 0 4.17-.528 5.895-1.583 1.773-1.103 3.163-2.591 4.169-4.462 1.007-1.871 1.51-3.982 1.51-6.333 0-2.543-.767-4.654-2.3-6.333-1.534-1.727-3.619-2.591-6.255-2.591-2.204 0-4.193.552-5.967 1.656-1.725 1.103-3.091 2.614-4.097 4.534-1.007 1.919-1.51 4.078-1.51 6.476 0 2.495.767 4.558 2.301 6.189 1.581 1.632 3.666 2.447 6.254 2.447Z" fill="#fff" style="fill:#fff;fill-opacity:1"/></svg>