<svg width="300" height="256" viewBox="0 0 300 256" fill="none" xmlns="http://www.w3.org/2000/svg">
<rect width="300" height="255.073" rx="32" fill="#233565" style="fill:#233565;fill:color(display-p3 0.1373 0.2078 0.3961);fill-opacity:1;"/>
<path fill-rule="evenodd" clip-rule="evenodd" d="M171.114 163.598C158.294 181.423 142.421 194.294 126.826 201.108C109.439 208.706 93.3726 208.466 81.6124 200.925C70.5623 193.839 63.7708 180.602 62.6794 163.276H54.2939C55.4019 182.659 63.0311 198.959 77.0986 207.979C106.423 226.783 152.755 206.918 181.28 163.598H171.114ZM84.5191 93.6165C97.5899 74.6794 114.104 61.0493 130.316 53.9649C147.703 46.3666 163.769 46.6074 175.53 54.1483C185.566 60.584 192.089 72.0949 194.02 87.1344H202.449C200.457 69.8128 192.968 55.381 180.043 47.0938C151.01 28.4769 105.305 47.7648 76.7168 90.1927L84.5191 93.6165Z" fill="white" style="fill:white;fill-opacity:1;"/>
<g opacity="0.4">
<path d="M56.894 152.183C53.5871 152.183 50.6636 151.679 48.1235 150.671C45.5834 149.616 43.5945 148.104 42.1567 146.137C40.7189 144.122 40 141.724 40 138.941C40 138.461 40.024 138.005 40.0719 137.574C40.1198 137.094 40.1677 136.614 40.2157 136.134H49.9926C49.9447 136.662 49.9207 137.142 49.9207 137.574C49.9207 139.637 50.6396 141.316 52.0774 142.611C53.5631 143.859 55.5521 144.482 58.0442 144.482C60.824 144.482 63.0046 143.787 64.5862 142.395C66.1677 140.956 66.9585 139.085 66.9585 136.782C66.9585 135.055 66.3594 133.687 65.1613 132.68C63.9631 131.672 62.4295 130.833 60.5604 130.161C58.7392 129.489 56.8221 128.794 54.8092 128.074C51.6461 126.923 49.2258 125.339 47.5484 123.324C45.871 121.309 45.0323 118.935 45.0323 116.2C45.0323 112.985 45.847 110.179 47.4765 107.78C49.1539 105.333 51.4304 103.438 54.306 102.095C57.2295 100.751 60.5843 100.08 64.3705 100.08C68.9235 100.08 72.5898 101.183 75.3696 103.39C78.1493 105.597 79.5392 108.596 79.5392 112.386C79.5392 112.722 79.5152 113.081 79.4673 113.465C79.4673 113.849 79.4433 114.233 79.3954 114.617H69.5465C69.5945 114.185 69.6184 113.777 69.6184 113.393C69.6184 111.906 69.0433 110.611 67.8931 109.507C66.7428 108.404 65.0654 107.852 62.8608 107.852C60.4166 107.852 58.4756 108.5 57.0378 109.795C55.6479 111.042 54.953 112.626 54.953 114.545C54.953 116.032 55.4323 117.231 56.3908 118.143C57.3493 119.007 58.6433 119.774 60.2728 120.446C61.9023 121.07 63.6995 121.741 65.6645 122.461C67.7253 123.18 69.5945 124.14 71.2719 125.339C72.9972 126.491 74.3631 127.906 75.3696 129.585C76.424 131.265 76.9511 133.256 76.9511 135.559C76.9511 138.917 76.0885 141.843 74.3631 144.338C72.6378 146.833 70.2654 148.776 67.2461 150.167C64.2267 151.511 60.776 152.183 56.894 152.183Z" fill="#C6CCDC" style="fill:#C6CCDC;fill:color(display-p3 0.7763 0.7998 0.8625);fill-opacity:1;"/>
<path d="M87.8424 167.151L96.1097 148.944H93.953L80.0784 115.624H90.071L100.064 140.74L110.488 115.624H120.265L97.6194 167.151H87.8424Z" fill="#C6CCDC" style="fill:#C6CCDC;fill:color(display-p3 0.7763 0.7998 0.8625);fill-opacity:1;"/>
<path d="M121.248 151.319V115.624H129.371L130.162 120.446C131.312 118.719 132.822 117.351 134.691 116.344C136.608 115.288 138.813 114.761 141.305 114.761C146.817 114.761 150.723 116.896 153.023 121.165C154.317 119.198 156.042 117.639 158.199 116.488C160.404 115.336 162.8 114.761 165.388 114.761C170.037 114.761 173.607 116.152 176.1 118.935C178.592 121.717 179.838 125.795 179.838 131.169V151.319H170.636V132.032C170.636 128.962 170.037 126.611 168.839 124.98C167.688 123.348 165.891 122.533 163.447 122.533C160.955 122.533 158.942 123.444 157.408 125.267C155.923 127.091 155.18 129.633 155.18 132.896V151.319H145.978V132.032C145.978 128.962 145.379 126.611 144.181 124.98C142.982 123.348 141.137 122.533 138.645 122.533C136.201 122.533 134.212 123.444 132.678 125.267C131.193 127.091 130.45 129.633 130.45 132.896V151.319H121.248Z" fill="#C6CCDC" style="fill:#C6CCDC;fill:color(display-p3 0.7763 0.7998 0.8625);fill-opacity:1;"/>
<path d="M201.442 152.183C198.806 152.183 196.53 151.631 194.613 150.527C192.744 149.376 191.354 148.009 190.443 146.425L188.574 151.319H180.379L191.755 99.5039H200.957L197.362 120.158C198.704 118.671 198.135 117.399 200.148 116.344C202.209 115.288 204.677 114.761 207.553 114.761C210.476 114.761 213.016 115.432 215.173 116.776C217.33 118.119 219.007 119.966 220.205 122.317C221.451 124.62 222.074 127.235 222.074 130.161C222.074 133.232 221.547 136.11 220.493 138.797C219.439 141.436 217.977 143.763 216.108 145.778C214.239 147.793 212.058 149.376 209.566 150.527C207.074 151.631 204.366 152.183 201.442 152.183ZM200.939 144.122C203.144 144.122 205.109 143.595 206.834 142.539C208.607 141.436 209.997 139.948 211.003 138.077C212.01 136.206 212.513 134.095 212.513 131.744C212.513 129.202 211.746 127.091 210.213 125.411C208.679 123.684 206.594 122.821 203.958 122.821C201.754 122.821 199.765 123.372 197.992 124.476C196.266 125.579 194.9 127.091 193.894 129.01C192.887 130.929 192.384 133.088 192.384 135.487C192.384 137.981 193.151 140.044 194.685 141.676C196.266 143.307 198.351 144.122 200.939 144.122Z" fill="#C6CCDC" style="fill:#C6CCDC;fill:color(display-p3 0.7763 0.7998 0.8625);fill-opacity:1;"/>
<path d="M242.1 152.183C238.505 152.183 235.318 151.415 232.538 149.88C229.759 148.344 227.578 146.185 225.996 143.403C224.415 140.62 223.624 137.406 223.624 133.759C223.624 130.065 224.391 126.779 225.924 123.9C227.506 121.022 229.663 118.791 232.395 117.207C235.174 115.576 238.433 114.761 242.171 114.761C245.67 114.761 248.761 115.528 251.445 117.063C254.129 118.599 256.214 120.71 257.7 123.396C259.233 126.035 260 128.986 260 132.248C260 132.776 259.976 133.328 259.928 133.903C259.928 134.479 259.904 135.079 259.856 135.702H232.754C232.946 138.485 233.904 140.668 235.63 142.251C237.403 143.835 239.536 144.626 242.028 144.626C243.897 144.626 245.454 144.218 246.701 143.403C247.995 142.539 248.953 141.436 249.576 140.092H258.922C258.251 142.347 257.124 144.41 255.543 146.281C254.009 148.104 252.092 149.544 249.792 150.599C247.539 151.655 244.975 152.183 242.1 152.183ZM242.171 122.245C239.919 122.245 237.93 122.893 236.205 124.188C234.479 125.435 233.377 127.354 232.898 129.945H250.654C250.511 127.594 249.648 125.723 248.066 124.332C246.485 122.941 244.52 122.245 242.171 122.245Z" fill="#C6CCDC" style="fill:#C6CCDC;fill:color(display-p3 0.7763 0.7998 0.8625);fill-opacity:1;"/>
</g>
<path d="M56.894 152.182C53.5871 152.182 50.6636 151.679 48.1235 150.671C45.5834 149.616 43.5945 148.104 42.1567 146.137C40.7189 144.122 40 141.723 40 138.941C40 138.461 40.024 138.005 40.0719 137.573C40.1198 137.094 40.1677 136.614 40.2157 136.134H49.9926C49.9447 136.662 49.9207 137.142 49.9207 137.573C49.9207 139.636 50.6396 141.316 52.0774 142.611C53.5631 143.858 55.5521 144.482 58.0442 144.482C60.824 144.482 63.0046 143.786 64.5862 142.395C66.1677 140.956 66.9585 139.085 66.9585 136.782C66.9585 135.055 66.3594 133.687 65.1613 132.68C63.9631 131.672 62.4295 130.833 60.5604 130.161C58.7392 129.489 56.8221 128.794 54.8092 128.074C51.6461 126.923 49.2258 125.339 47.5484 123.324C45.871 121.309 45.0323 118.934 45.0323 116.2C45.0323 112.985 45.847 110.179 47.4765 107.78C49.1539 105.333 51.4304 103.438 54.306 102.094C57.2295 100.751 60.5843 100.079 64.3705 100.079C68.9235 100.079 72.5898 101.183 75.3696 103.39C78.1493 105.597 79.5392 108.595 79.5392 112.386C79.5392 112.721 79.5152 113.081 79.4673 113.465C79.4673 113.849 79.4433 114.233 79.3954 114.616H69.5465C69.5945 114.185 69.6184 113.777 69.6184 113.393C69.6184 111.906 69.0433 110.61 67.8931 109.507C66.7428 108.403 65.0654 107.852 62.8608 107.852C60.4166 107.852 58.4756 108.499 57.0378 109.795C55.6479 111.042 54.953 112.625 54.953 114.544C54.953 116.032 55.4323 117.231 56.3908 118.143C57.3493 119.006 58.6433 119.774 60.2728 120.446C61.9023 121.069 63.6995 121.741 65.6645 122.461C67.7253 123.18 69.5945 124.14 71.2719 125.339C72.9972 126.491 74.3631 127.906 75.3696 129.585C76.4239 131.264 76.9511 133.255 76.9511 135.558C76.9511 138.917 76.0885 141.843 74.3631 144.338C72.6378 146.833 70.2654 148.776 67.2461 150.167C64.2267 151.511 60.776 152.182 56.894 152.182Z" fill="white" style="fill:white;fill-opacity:1;"/>
<path d="M201.442 152.182C198.806 152.182 196.53 151.631 194.613 150.527C192.744 149.376 191.354 148.008 190.443 146.425L188.574 151.319H180.379L191.755 99.5037H200.957L197.362 120.158C198.704 118.67 198.135 117.399 200.148 116.344C202.209 115.288 204.677 114.76 207.553 114.76C210.476 114.76 213.016 115.432 215.173 116.775C217.33 118.119 219.007 119.966 220.205 122.317C221.451 124.62 222.074 127.234 222.074 130.161C222.074 133.231 221.547 136.11 220.493 138.797C219.438 141.436 217.977 143.762 216.108 145.777C214.238 147.792 212.058 149.376 209.566 150.527C207.074 151.631 204.366 152.182 201.442 152.182ZM200.939 144.122C203.144 144.122 205.109 143.594 206.834 142.539C208.607 141.436 209.997 139.948 211.003 138.077C212.01 136.206 212.513 134.095 212.513 131.744C212.513 129.201 211.746 127.09 210.213 125.411C208.679 123.684 206.594 122.82 203.958 122.82C201.754 122.82 199.765 123.372 197.991 124.476C196.266 125.579 194.9 127.09 193.894 129.01C192.887 130.929 192.384 133.088 192.384 135.486C192.384 137.981 193.151 140.044 194.685 141.675C196.266 143.307 198.351 144.122 200.939 144.122Z" fill="white" style="fill:white;fill-opacity:1;"/>
</svg>
