<svg width="606" height="520" viewBox="0 0 606 520" fill="none" xmlns="http://www.w3.org/2000/svg">
<rect x="60" y="60" width="486" height="400" rx="32" fill="#F5F8FF" style="fill:#F5F8FF;fill:color(display-p3 0.9608 0.9725 1.0000);fill-opacity:1;"/>
<g opacity="0.8" filter="url(#filter0_df_532_2362)">
<rect x="102" y="193.643" width="404.1" height="209.568" rx="15.9429" fill="white" style="fill:white;fill-opacity:1;" shape-rendering="crispEdges"/>
<rect x="102.498" y="194.141" width="403.104" height="208.571" rx="15.4446" stroke="white" stroke-opacity="0.1" style="stroke:white;stroke-opacity:0.1;" stroke-width="0.996429" shape-rendering="crispEdges"/>
</g>
<g opacity="0.8" filter="url(#filter1_df_532_2362)">
<rect x="91" y="157.821" width="426.55" height="221.21" rx="16.8286" fill="white" style="fill:white;fill-opacity:1;" shape-rendering="crispEdges"/>
<rect x="91.5259" y="158.347" width="425.498" height="220.158" rx="16.3027" stroke="white" stroke-opacity="0.1" style="stroke:white;stroke-opacity:0.1;" stroke-width="1.05179" shape-rendering="crispEdges"/>
</g>
<g filter="url(#filter2_d_532_2362)">
<rect x="79" y="117" width="449" height="232.853" rx="17.7143" fill="white" style="fill:white;fill-opacity:1;" shape-rendering="crispEdges"/>
<rect x="79.5536" y="117.554" width="447.893" height="231.746" rx="17.1607" stroke="white" stroke-opacity="0.1" style="stroke:white;stroke-opacity:0.1;" stroke-width="1.10714" shape-rendering="crispEdges"/>
<path d="M317.417 166.857V157.057H319.209L323.815 163.959V157.057H325.607V166.857H323.815L319.209 159.969V166.857H317.417ZM330.797 167.025C330.125 167.025 329.518 166.871 328.977 166.563C328.445 166.255 328.02 165.831 327.703 165.289C327.395 164.739 327.241 164.104 327.241 163.385C327.241 162.667 327.399 162.037 327.717 161.495C328.034 160.945 328.459 160.515 328.991 160.207C329.532 159.899 330.139 159.745 330.811 159.745C331.473 159.745 332.071 159.899 332.603 160.207C333.144 160.515 333.569 160.945 333.877 161.495C334.194 162.037 334.353 162.667 334.353 163.385C334.353 164.104 334.194 164.739 333.877 165.289C333.569 165.831 333.144 166.255 332.603 166.563C332.061 166.871 331.459 167.025 330.797 167.025ZM330.797 165.471C331.263 165.471 331.669 165.299 332.015 164.953C332.36 164.599 332.533 164.076 332.533 163.385C332.533 162.695 332.36 162.177 332.015 161.831C331.669 161.477 331.268 161.299 330.811 161.299C330.335 161.299 329.924 161.477 329.579 161.831C329.243 162.177 329.075 162.695 329.075 163.385C329.075 164.076 329.243 164.599 329.579 164.953C329.924 165.299 330.33 165.471 330.797 165.471ZM341.685 167.025C341.088 167.025 340.598 166.932 340.215 166.745C339.832 166.549 339.548 166.293 339.361 165.975C339.174 165.658 339.081 165.308 339.081 164.925C339.081 164.281 339.333 163.759 339.837 163.357C340.341 162.956 341.097 162.755 342.105 162.755H343.869V162.587C343.869 162.111 343.734 161.761 343.463 161.537C343.192 161.313 342.856 161.201 342.455 161.201C342.091 161.201 341.774 161.29 341.503 161.467C341.232 161.635 341.064 161.887 340.999 162.223H339.249C339.296 161.719 339.464 161.281 339.753 160.907C340.052 160.534 340.434 160.249 340.901 160.053C341.368 159.848 341.89 159.745 342.469 159.745C343.458 159.745 344.238 159.993 344.807 160.487C345.376 160.982 345.661 161.682 345.661 162.587V166.857H344.135L343.967 165.737C343.762 166.111 343.472 166.419 343.099 166.661C342.735 166.904 342.264 167.025 341.685 167.025ZM342.091 165.625C342.604 165.625 343.001 165.457 343.281 165.121C343.57 164.785 343.752 164.37 343.827 163.875H342.301C341.825 163.875 341.484 163.964 341.279 164.141C341.074 164.309 340.971 164.519 340.971 164.771C340.971 165.042 341.074 165.252 341.279 165.401C341.484 165.551 341.755 165.625 342.091 165.625ZM350.773 167.025C350.064 167.025 349.438 166.871 348.897 166.563C348.356 166.255 347.926 165.826 347.609 165.275C347.301 164.725 347.147 164.095 347.147 163.385C347.147 162.676 347.301 162.046 347.609 161.495C347.926 160.945 348.356 160.515 348.897 160.207C349.438 159.899 350.064 159.745 350.773 159.745C351.66 159.745 352.406 159.979 353.013 160.445C353.62 160.903 354.007 161.537 354.175 162.349H352.285C352.192 162.013 352.005 161.752 351.725 161.565C351.454 161.369 351.132 161.271 350.759 161.271C350.264 161.271 349.844 161.458 349.499 161.831C349.154 162.205 348.981 162.723 348.981 163.385C348.981 164.048 349.154 164.566 349.499 164.939C349.844 165.313 350.264 165.499 350.759 165.499C351.132 165.499 351.454 165.406 351.725 165.219C352.005 165.033 352.192 164.767 352.285 164.421H354.175C354.007 165.205 353.62 165.835 353.013 166.311C352.406 166.787 351.66 167.025 350.773 167.025ZM358.764 166.857C358.036 166.857 357.452 166.68 357.014 166.325C356.575 165.971 356.356 165.341 356.356 164.435V161.411H355.166V159.913H356.356L356.566 158.051H358.148V159.913H360.024V161.411H358.148V164.449C358.148 164.785 358.218 165.019 358.358 165.149C358.507 165.271 358.759 165.331 359.114 165.331H359.982V166.857H358.764ZM362.528 158.835C362.202 158.835 361.931 158.737 361.716 158.541C361.511 158.345 361.408 158.098 361.408 157.799C361.408 157.501 361.511 157.258 361.716 157.071C361.931 156.875 362.202 156.777 362.528 156.777C362.855 156.777 363.121 156.875 363.326 157.071C363.541 157.258 363.648 157.501 363.648 157.799C363.648 158.098 363.541 158.345 363.326 158.541C363.121 158.737 362.855 158.835 362.528 158.835ZM361.632 166.857V159.913H363.424V166.857H361.632ZM368.627 167.025C367.955 167.025 367.348 166.871 366.807 166.563C366.275 166.255 365.85 165.831 365.533 165.289C365.225 164.739 365.071 164.104 365.071 163.385C365.071 162.667 365.229 162.037 365.547 161.495C365.864 160.945 366.289 160.515 366.821 160.207C367.362 159.899 367.969 159.745 368.641 159.745C369.303 159.745 369.901 159.899 370.433 160.207C370.974 160.515 371.399 160.945 371.707 161.495C372.024 162.037 372.183 162.667 372.183 163.385C372.183 164.104 372.024 164.739 371.707 165.289C371.399 165.831 370.974 166.255 370.433 166.563C369.891 166.871 369.289 167.025 368.627 167.025ZM368.627 165.471C369.093 165.471 369.499 165.299 369.845 164.953C370.19 164.599 370.363 164.076 370.363 163.385C370.363 162.695 370.19 162.177 369.845 161.831C369.499 161.477 369.098 161.299 368.641 161.299C368.165 161.299 367.754 161.477 367.409 161.831C367.073 162.177 366.905 162.695 366.905 163.385C366.905 164.076 367.073 164.599 367.409 164.953C367.754 165.299 368.16 165.471 368.627 165.471ZM373.785 166.857V159.913H375.367L375.507 161.089C375.722 160.679 376.03 160.352 376.431 160.109C376.842 159.867 377.322 159.745 377.873 159.745C378.732 159.745 379.399 160.016 379.875 160.557C380.351 161.099 380.589 161.892 380.589 162.937V166.857H378.797V163.105C378.797 162.508 378.676 162.051 378.433 161.733C378.19 161.416 377.812 161.257 377.299 161.257C376.795 161.257 376.38 161.435 376.053 161.789C375.736 162.144 375.577 162.639 375.577 163.273V166.857H373.785Z" fill="#040815" style="fill:#040815;fill:color(display-p3 0.0157 0.0314 0.0824);fill-opacity:1;"/>
<path d="M424.097 166.739C423.378 166.739 422.743 166.618 422.193 166.375C421.642 166.123 421.208 165.769 420.891 165.311C420.573 164.845 420.41 164.28 420.401 163.617H422.291C422.309 164.075 422.473 164.462 422.781 164.779C423.098 165.087 423.532 165.241 424.083 165.241C424.559 165.241 424.937 165.129 425.217 164.905C425.497 164.672 425.637 164.364 425.637 163.981C425.637 163.58 425.511 163.267 425.259 163.043C425.016 162.819 424.689 162.637 424.279 162.497C423.868 162.357 423.429 162.208 422.963 162.049C422.207 161.788 421.628 161.452 421.227 161.041C420.835 160.631 420.639 160.085 420.639 159.403C420.629 158.825 420.765 158.33 421.045 157.919C421.334 157.499 421.726 157.177 422.221 156.953C422.715 156.72 423.285 156.603 423.929 156.603C424.582 156.603 425.156 156.72 425.651 156.953C426.155 157.187 426.547 157.513 426.827 157.933C427.116 158.353 427.27 158.853 427.289 159.431H425.371C425.361 159.086 425.226 158.783 424.965 158.521C424.713 158.251 424.358 158.115 423.901 158.115C423.509 158.106 423.177 158.204 422.907 158.409C422.645 158.605 422.515 158.895 422.515 159.277C422.515 159.604 422.617 159.865 422.823 160.061C423.028 160.248 423.308 160.407 423.663 160.537C424.017 160.668 424.423 160.808 424.881 160.957C425.366 161.125 425.809 161.321 426.211 161.545C426.612 161.769 426.934 162.068 427.177 162.441C427.419 162.805 427.541 163.277 427.541 163.855C427.541 164.369 427.41 164.845 427.149 165.283C426.887 165.722 426.5 166.077 425.987 166.347C425.473 166.609 424.843 166.739 424.097 166.739ZM430.42 166.571L428.39 159.627H430.168L431.372 164.625L432.772 159.627H434.76L436.16 164.625L437.378 159.627H439.156L437.112 166.571H435.25L433.766 161.377L432.282 166.571H430.42ZM441.253 158.549C440.926 158.549 440.656 158.451 440.441 158.255C440.236 158.059 440.133 157.812 440.133 157.513C440.133 157.215 440.236 156.972 440.441 156.785C440.656 156.589 440.926 156.491 441.253 156.491C441.58 156.491 441.846 156.589 442.051 156.785C442.266 156.972 442.373 157.215 442.373 157.513C442.373 157.812 442.266 158.059 442.051 158.255C441.846 158.451 441.58 158.549 441.253 158.549ZM440.357 166.571V159.627H442.149V166.571H440.357ZM447.113 166.571C446.385 166.571 445.802 166.394 445.363 166.039C444.925 165.685 444.705 165.055 444.705 164.149V161.125H443.515V159.627H444.705L444.915 157.765H446.497V159.627H448.373V161.125H446.497V164.163C446.497 164.499 446.567 164.733 446.707 164.863C446.857 164.985 447.109 165.045 447.463 165.045H448.331V166.571H447.113ZM453.136 166.739C452.427 166.739 451.802 166.585 451.26 166.277C450.719 165.969 450.29 165.54 449.972 164.989C449.664 164.439 449.51 163.809 449.51 163.099C449.51 162.39 449.664 161.76 449.972 161.209C450.29 160.659 450.719 160.229 451.26 159.921C451.802 159.613 452.427 159.459 453.136 159.459C454.023 159.459 454.77 159.693 455.376 160.159C455.983 160.617 456.37 161.251 456.538 162.063H454.648C454.555 161.727 454.368 161.466 454.088 161.279C453.818 161.083 453.496 160.985 453.122 160.985C452.628 160.985 452.208 161.172 451.862 161.545C451.517 161.919 451.344 162.437 451.344 163.099C451.344 163.762 451.517 164.28 451.862 164.653C452.208 165.027 452.628 165.213 453.122 165.213C453.496 165.213 453.818 165.12 454.088 164.933C454.368 164.747 454.555 164.481 454.648 164.135H456.538C456.37 164.919 455.983 165.549 455.376 166.025C454.77 166.501 454.023 166.739 453.136 166.739ZM458.129 166.571V156.491H459.921V160.691C460.154 160.309 460.467 160.01 460.859 159.795C461.26 159.571 461.717 159.459 462.231 159.459C463.089 159.459 463.752 159.73 464.219 160.271C464.695 160.813 464.933 161.606 464.933 162.651V166.571H463.155V162.819C463.155 162.222 463.033 161.765 462.791 161.447C462.557 161.13 462.184 160.971 461.671 160.971C461.167 160.971 460.747 161.149 460.411 161.503C460.084 161.858 459.921 162.353 459.921 162.987V166.571H458.129ZM469.982 166.571V159.627H471.564L471.704 160.803C471.919 160.393 472.227 160.066 472.628 159.823C473.039 159.581 473.52 159.459 474.07 159.459C474.929 159.459 475.596 159.73 476.072 160.271C476.548 160.813 476.786 161.606 476.786 162.651V166.571H474.994V162.819C474.994 162.222 474.873 161.765 474.63 161.447C474.388 161.13 474.01 160.971 473.496 160.971C472.992 160.971 472.577 161.149 472.25 161.503C471.933 161.858 471.774 162.353 471.774 162.987V166.571H469.982ZM481.832 166.739C481.16 166.739 480.553 166.585 480.012 166.277C479.48 165.969 479.055 165.545 478.738 165.003C478.43 164.453 478.276 163.818 478.276 163.099C478.276 162.381 478.435 161.751 478.752 161.209C479.069 160.659 479.494 160.229 480.026 159.921C480.567 159.613 481.174 159.459 481.846 159.459C482.509 159.459 483.106 159.613 483.638 159.921C484.179 160.229 484.604 160.659 484.912 161.209C485.229 161.751 485.388 162.381 485.388 163.099C485.388 163.818 485.229 164.453 484.912 165.003C484.604 165.545 484.179 165.969 483.638 166.277C483.097 166.585 482.495 166.739 481.832 166.739ZM481.832 165.185C482.299 165.185 482.705 165.013 483.05 164.667C483.395 164.313 483.568 163.79 483.568 163.099C483.568 162.409 483.395 161.891 483.05 161.545C482.705 161.191 482.303 161.013 481.846 161.013C481.37 161.013 480.959 161.191 480.614 161.545C480.278 161.891 480.11 162.409 480.11 163.099C480.11 163.79 480.278 164.313 480.614 164.667C480.959 165.013 481.365 165.185 481.832 165.185ZM488.102 166.571L486.072 159.627H487.85L489.054 164.625L490.454 159.627H492.442L493.842 164.625L495.06 159.627H496.838L494.794 166.571H492.932L491.448 161.377L489.964 166.571H488.102Z" fill="#040815" style="fill:#040815;fill:color(display-p3 0.0157 0.0314 0.0824);fill-opacity:1;"/>
<path d="M492.571 216.571H114.428V218.571H492.571V216.571Z" fill="#040815" fill-opacity="0.1" style="fill:#040815;fill:color(display-p3 0.0157 0.0314 0.0824);fill-opacity:0.1;" mask="url(#path-10-inside-1_532_2362)"/>
<path d="M115.464 205.571V195.771H116.64V204.633H121.204V205.571H115.464ZM123.464 197.087C123.231 197.087 123.035 197.013 122.876 196.863C122.727 196.705 122.652 196.509 122.652 196.275C122.652 196.051 122.727 195.865 122.876 195.715C123.035 195.566 123.231 195.491 123.464 195.491C123.688 195.491 123.879 195.566 124.038 195.715C124.197 195.865 124.276 196.051 124.276 196.275C124.276 196.509 124.197 196.705 124.038 196.863C123.879 197.013 123.688 197.087 123.464 197.087ZM122.876 205.571V198.627H124.052V205.571H122.876ZM129.292 205.739C128.629 205.739 128.032 205.59 127.5 205.291C126.977 204.983 126.562 204.559 126.254 204.017C125.955 203.467 125.806 202.827 125.806 202.099C125.806 201.371 125.955 200.737 126.254 200.195C126.562 199.645 126.977 199.22 127.5 198.921C128.032 198.613 128.629 198.459 129.292 198.459C130.113 198.459 130.804 198.674 131.364 199.103C131.933 199.533 132.292 200.107 132.442 200.825H131.238C131.144 200.396 130.916 200.065 130.552 199.831C130.188 199.589 129.763 199.467 129.278 199.467C128.886 199.467 128.517 199.565 128.172 199.761C127.826 199.957 127.546 200.251 127.332 200.643C127.117 201.035 127.01 201.521 127.01 202.099C127.01 202.678 127.117 203.163 127.332 203.555C127.546 203.947 127.826 204.246 128.172 204.451C128.517 204.647 128.886 204.745 129.278 204.745C129.763 204.745 130.188 204.629 130.552 204.395C130.916 204.153 131.144 203.812 131.238 203.373H132.442C132.302 204.073 131.947 204.643 131.378 205.081C130.808 205.52 130.113 205.739 129.292 205.739ZM137.206 205.739C136.543 205.739 135.955 205.59 135.442 205.291C134.929 204.983 134.523 204.559 134.224 204.017C133.935 203.476 133.79 202.837 133.79 202.099C133.79 201.371 133.935 200.737 134.224 200.195C134.513 199.645 134.915 199.22 135.428 198.921C135.951 198.613 136.553 198.459 137.234 198.459C137.906 198.459 138.485 198.613 138.97 198.921C139.465 199.22 139.843 199.617 140.104 200.111C140.365 200.606 140.496 201.138 140.496 201.707C140.496 201.81 140.491 201.913 140.482 202.015C140.482 202.118 140.482 202.235 140.482 202.365H134.952C134.98 202.897 135.101 203.341 135.316 203.695C135.54 204.041 135.815 204.302 136.142 204.479C136.478 204.657 136.833 204.745 137.206 204.745C137.691 204.745 138.097 204.633 138.424 204.409C138.751 204.185 138.989 203.882 139.138 203.499H140.3C140.113 204.143 139.754 204.68 139.222 205.109C138.699 205.529 138.027 205.739 137.206 205.739ZM137.206 199.453C136.646 199.453 136.147 199.626 135.708 199.971C135.279 200.307 135.031 200.802 134.966 201.455H139.334C139.306 200.83 139.091 200.34 138.69 199.985C138.289 199.631 137.794 199.453 137.206 199.453ZM142.055 205.571V198.627H143.119L143.189 199.873C143.413 199.435 143.735 199.089 144.155 198.837C144.575 198.585 145.051 198.459 145.583 198.459C146.404 198.459 147.057 198.711 147.543 199.215C148.037 199.71 148.285 200.475 148.285 201.511V205.571H147.109V201.637C147.109 200.191 146.511 199.467 145.317 199.467C144.719 199.467 144.22 199.687 143.819 200.125C143.427 200.555 143.231 201.171 143.231 201.973V205.571H142.055ZM153.258 205.739C152.596 205.739 151.998 205.59 151.466 205.291C150.944 204.983 150.528 204.559 150.22 204.017C149.922 203.467 149.772 202.827 149.772 202.099C149.772 201.371 149.922 200.737 150.22 200.195C150.528 199.645 150.944 199.22 151.466 198.921C151.998 198.613 152.596 198.459 153.258 198.459C154.08 198.459 154.77 198.674 155.33 199.103C155.9 199.533 156.259 200.107 156.408 200.825H155.204C155.111 200.396 154.882 200.065 154.518 199.831C154.154 199.589 153.73 199.467 153.244 199.467C152.852 199.467 152.484 199.565 152.138 199.761C151.793 199.957 151.513 200.251 151.298 200.643C151.084 201.035 150.976 201.521 150.976 202.099C150.976 202.678 151.084 203.163 151.298 203.555C151.513 203.947 151.793 204.246 152.138 204.451C152.484 204.647 152.852 204.745 153.244 204.745C153.73 204.745 154.154 204.629 154.518 204.395C154.882 204.153 155.111 203.812 155.204 203.373H156.408C156.268 204.073 155.914 204.643 155.344 205.081C154.775 205.52 154.08 205.739 153.258 205.739ZM161.173 205.739C160.51 205.739 159.922 205.59 159.409 205.291C158.895 204.983 158.489 204.559 158.191 204.017C157.901 203.476 157.757 202.837 157.757 202.099C157.757 201.371 157.901 200.737 158.191 200.195C158.48 199.645 158.881 199.22 159.395 198.921C159.917 198.613 160.519 198.459 161.201 198.459C161.873 198.459 162.451 198.613 162.937 198.921C163.431 199.22 163.809 199.617 164.071 200.111C164.332 200.606 164.463 201.138 164.463 201.707C164.463 201.81 164.458 201.913 164.449 202.015C164.449 202.118 164.449 202.235 164.449 202.365H158.919C158.947 202.897 159.068 203.341 159.283 203.695C159.507 204.041 159.782 204.302 160.109 204.479C160.445 204.657 160.799 204.745 161.173 204.745C161.658 204.745 162.064 204.633 162.391 204.409C162.717 204.185 162.955 203.882 163.105 203.499H164.267C164.08 204.143 163.721 204.68 163.189 205.109C162.666 205.529 161.994 205.739 161.173 205.739ZM161.173 199.453C160.613 199.453 160.113 199.626 159.675 199.971C159.245 200.307 158.998 200.802 158.933 201.455H163.301C163.273 200.83 163.058 200.34 162.657 199.985C162.255 199.631 161.761 199.453 161.173 199.453ZM172.918 205.739C172.256 205.739 171.658 205.59 171.126 205.291C170.604 204.983 170.188 204.559 169.88 204.017C169.582 203.467 169.432 202.827 169.432 202.099C169.432 201.371 169.582 200.737 169.88 200.195C170.188 199.645 170.604 199.22 171.126 198.921C171.658 198.613 172.256 198.459 172.918 198.459C173.74 198.459 174.43 198.674 174.99 199.103C175.56 199.533 175.919 200.107 176.068 200.825H174.864C174.771 200.396 174.542 200.065 174.178 199.831C173.814 199.589 173.39 199.467 172.904 199.467C172.512 199.467 172.144 199.565 171.798 199.761C171.453 199.957 171.173 200.251 170.958 200.643C170.744 201.035 170.636 201.521 170.636 202.099C170.636 202.678 170.744 203.163 170.958 203.555C171.173 203.947 171.453 204.246 171.798 204.451C172.144 204.647 172.512 204.745 172.904 204.745C173.39 204.745 173.814 204.629 174.178 204.395C174.542 204.153 174.771 203.812 174.864 203.373H176.068C175.928 204.073 175.574 204.643 175.004 205.081C174.435 205.52 173.74 205.739 172.918 205.739ZM180.875 205.739C180.222 205.739 179.634 205.59 179.111 205.291C178.588 204.993 178.173 204.573 177.865 204.031C177.566 203.481 177.417 202.837 177.417 202.099C177.417 201.362 177.571 200.723 177.879 200.181C178.187 199.631 178.602 199.206 179.125 198.907C179.657 198.609 180.25 198.459 180.903 198.459C181.556 198.459 182.144 198.609 182.667 198.907C183.19 199.206 183.6 199.631 183.899 200.181C184.207 200.723 184.361 201.362 184.361 202.099C184.361 202.837 184.207 203.481 183.899 204.031C183.591 204.573 183.171 204.993 182.639 205.291C182.116 205.59 181.528 205.739 180.875 205.739ZM180.875 204.731C181.276 204.731 181.65 204.633 181.995 204.437C182.34 204.241 182.62 203.947 182.835 203.555C183.05 203.163 183.157 202.678 183.157 202.099C183.157 201.521 183.05 201.035 182.835 200.643C182.63 200.251 182.354 199.957 182.009 199.761C181.664 199.565 181.295 199.467 180.903 199.467C180.502 199.467 180.128 199.565 179.783 199.761C179.438 199.957 179.158 200.251 178.943 200.643C178.728 201.035 178.621 201.521 178.621 202.099C178.621 202.678 178.728 203.163 178.943 203.555C179.158 203.947 179.433 204.241 179.769 204.437C180.114 204.633 180.483 204.731 180.875 204.731ZM188.656 205.739C187.825 205.739 187.135 205.529 186.584 205.109C186.033 204.689 185.711 204.12 185.618 203.401H186.822C186.897 203.765 187.088 204.083 187.396 204.353C187.713 204.615 188.138 204.745 188.67 204.745C189.165 204.745 189.529 204.643 189.762 204.437C189.995 204.223 190.112 203.971 190.112 203.681C190.112 203.261 189.958 202.981 189.65 202.841C189.351 202.701 188.927 202.575 188.376 202.463C188.003 202.389 187.629 202.281 187.256 202.141C186.883 202.001 186.57 201.805 186.318 201.553C186.066 201.292 185.94 200.951 185.94 200.531C185.94 199.925 186.164 199.43 186.612 199.047C187.069 198.655 187.685 198.459 188.46 198.459C189.197 198.459 189.799 198.646 190.266 199.019C190.742 199.383 191.017 199.906 191.092 200.587H189.93C189.883 200.233 189.729 199.957 189.468 199.761C189.216 199.556 188.875 199.453 188.446 199.453C188.026 199.453 187.699 199.542 187.466 199.719C187.242 199.897 187.13 200.13 187.13 200.419C187.13 200.699 187.275 200.919 187.564 201.077C187.863 201.236 188.264 201.371 188.768 201.483C189.197 201.577 189.603 201.693 189.986 201.833C190.378 201.964 190.695 202.165 190.938 202.435C191.19 202.697 191.316 203.079 191.316 203.583C191.325 204.209 191.087 204.727 190.602 205.137C190.126 205.539 189.477 205.739 188.656 205.739ZM195.426 205.571C194.791 205.571 194.292 205.417 193.928 205.109C193.564 204.801 193.382 204.246 193.382 203.443V199.621H192.178V198.627H193.382L193.536 196.961H194.558V198.627H196.602V199.621H194.558V203.443C194.558 203.882 194.646 204.181 194.824 204.339C195.001 204.489 195.314 204.563 195.762 204.563H196.49V205.571H195.426Z" fill="#040815" style="fill:#040815;fill:color(display-p3 0.0157 0.0314 0.0824);fill-opacity:1;"/>
<circle cx="324.571" cy="200.571" r="8" fill="#BFF6E5" style="fill:#BFF6E5;fill:color(display-p3 0.7490 0.9647 0.8980);fill-opacity:1;"/>
<path d="M341.635 205.571V204.521C341.999 204.157 342.279 203.784 342.475 203.401C342.671 203.009 342.769 202.505 342.769 201.889C342.769 201.731 342.755 201.567 342.727 201.399H341.131V200.167H342.335C342.251 199.925 342.177 199.673 342.111 199.411C342.055 199.15 342.027 198.875 342.027 198.585C342.027 197.969 342.158 197.437 342.419 196.989C342.69 196.541 343.063 196.201 343.539 195.967C344.025 195.725 344.58 195.603 345.205 195.603C345.915 195.603 346.503 195.739 346.969 196.009C347.436 196.28 347.791 196.644 348.033 197.101C348.276 197.559 348.411 198.067 348.439 198.627H346.787C346.769 198.189 346.629 197.825 346.367 197.535C346.106 197.237 345.728 197.087 345.233 197.087C344.823 197.087 344.468 197.213 344.169 197.465C343.871 197.717 343.721 198.109 343.721 198.641C343.721 198.884 343.759 199.136 343.833 199.397C343.908 199.649 343.992 199.906 344.085 200.167H346.703V201.399H344.421C344.449 201.567 344.463 201.731 344.463 201.889C344.463 202.272 344.389 202.659 344.239 203.051C344.09 203.443 343.843 203.807 343.497 204.143H348.481V205.571H341.635ZM351.283 205.571V197.815L349.673 198.193V196.821L352.039 195.771H353.145V205.571H351.283ZM359.063 205.739C358.157 205.739 357.383 205.529 356.739 205.109C356.095 204.68 355.595 204.087 355.241 203.331C354.895 202.566 354.723 201.679 354.723 200.671C354.723 199.673 354.895 198.791 355.241 198.025C355.595 197.26 356.095 196.667 356.739 196.247C357.383 195.818 358.157 195.603 359.063 195.603C359.968 195.603 360.743 195.818 361.387 196.247C362.031 196.667 362.525 197.26 362.871 198.025C363.225 198.791 363.403 199.673 363.403 200.671C363.403 201.679 363.225 202.566 362.871 203.331C362.525 204.087 362.031 204.68 361.387 205.109C360.743 205.529 359.968 205.739 359.063 205.739ZM359.063 204.129C359.8 204.129 360.402 203.821 360.869 203.205C361.335 202.589 361.569 201.745 361.569 200.671C361.569 199.598 361.335 198.753 360.869 198.137C360.402 197.521 359.8 197.213 359.063 197.213C358.316 197.213 357.709 197.521 357.243 198.137C356.785 198.753 356.557 199.598 356.557 200.671C356.557 201.745 356.785 202.589 357.243 203.205C357.709 203.821 358.316 204.129 359.063 204.129ZM369.002 205.739C368.097 205.739 367.322 205.529 366.678 205.109C366.034 204.68 365.535 204.087 365.18 203.331C364.835 202.566 364.662 201.679 364.662 200.671C364.662 199.673 364.835 198.791 365.18 198.025C365.535 197.26 366.034 196.667 366.678 196.247C367.322 195.818 368.097 195.603 369.002 195.603C369.908 195.603 370.682 195.818 371.326 196.247C371.97 196.667 372.465 197.26 372.81 198.025C373.165 198.791 373.342 199.673 373.342 200.671C373.342 201.679 373.165 202.566 372.81 203.331C372.465 204.087 371.97 204.68 371.326 205.109C370.682 205.529 369.908 205.739 369.002 205.739ZM369.002 204.129C369.74 204.129 370.342 203.821 370.808 203.205C371.275 202.589 371.508 201.745 371.508 200.671C371.508 199.598 371.275 198.753 370.808 198.137C370.342 197.521 369.74 197.213 369.002 197.213C368.256 197.213 367.649 197.521 367.182 198.137C366.725 198.753 366.496 199.598 366.496 200.671C366.496 201.745 366.725 202.589 367.182 203.205C367.649 203.821 368.256 204.129 369.002 204.129ZM374.924 205.571V195.771H376.716V199.733L380.342 195.771H382.554L378.942 199.663L382.652 205.571H380.454L377.654 201.035L376.716 202.057V205.571H374.924Z" fill="#040815" style="fill:#040815;fill:color(display-p3 0.0157 0.0314 0.0824);fill-opacity:1;"/>
<circle cx="436.571" cy="200.571" r="8" fill="#FD7228" style="fill:#FD7228;fill:color(display-p3 0.9922 0.4471 0.1569);fill-opacity:1;"/>
<path d="M453.635 205.571V204.521C453.999 204.157 454.279 203.784 454.475 203.401C454.671 203.009 454.769 202.505 454.769 201.889C454.769 201.731 454.755 201.567 454.727 201.399H453.131V200.167H454.335C454.251 199.925 454.177 199.673 454.111 199.411C454.055 199.15 454.027 198.875 454.027 198.585C454.027 197.969 454.158 197.437 454.419 196.989C454.69 196.541 455.063 196.201 455.539 195.967C456.025 195.725 456.58 195.603 457.205 195.603C457.915 195.603 458.503 195.739 458.969 196.009C459.436 196.28 459.791 196.644 460.033 197.101C460.276 197.559 460.411 198.067 460.439 198.627H458.787C458.769 198.189 458.629 197.825 458.367 197.535C458.106 197.237 457.728 197.087 457.233 197.087C456.823 197.087 456.468 197.213 456.169 197.465C455.871 197.717 455.721 198.109 455.721 198.641C455.721 198.884 455.759 199.136 455.833 199.397C455.908 199.649 455.992 199.906 456.085 200.167H458.703V201.399H456.421C456.449 201.567 456.463 201.731 456.463 201.889C456.463 202.272 456.389 202.659 456.239 203.051C456.09 203.443 455.843 203.807 455.497 204.143H460.481V205.571H453.635ZM462.779 205.571L466.475 197.297H461.645V195.771H468.323V197.045L464.641 205.571H462.779ZM472.869 205.739C472.151 205.739 471.53 205.613 471.007 205.361C470.494 205.109 470.088 204.764 469.789 204.325C469.5 203.877 469.332 203.373 469.285 202.813H471.035C471.119 203.215 471.325 203.551 471.651 203.821C471.978 204.083 472.384 204.213 472.869 204.213C473.392 204.213 473.817 204.022 474.143 203.639C474.479 203.257 474.647 202.781 474.647 202.211C474.647 201.623 474.479 201.157 474.143 200.811C473.817 200.466 473.401 200.293 472.897 200.293C472.477 200.293 472.113 200.396 471.805 200.601C471.497 200.807 471.278 201.063 471.147 201.371H469.425L470.265 195.771H475.697V197.339H471.609L471.161 199.607C471.367 199.383 471.647 199.201 472.001 199.061C472.356 198.912 472.753 198.837 473.191 198.837C473.891 198.837 474.475 198.996 474.941 199.313C475.408 199.621 475.763 200.032 476.005 200.545C476.248 201.049 476.369 201.6 476.369 202.197C476.369 202.879 476.22 203.485 475.921 204.017C475.632 204.549 475.221 204.969 474.689 205.277C474.167 205.585 473.56 205.739 472.869 205.739ZM478.037 205.571V195.771H479.829V199.733L483.455 195.771H485.667L482.055 199.663L485.765 205.571H483.567L480.767 201.035L479.829 202.057V205.571H478.037Z" fill="#040815" style="fill:#040815;fill:color(display-p3 0.0157 0.0314 0.0824);fill-opacity:1;"/>
<path d="M492.571 250.571H114.428V252.571H492.571V250.571Z" fill="#040815" fill-opacity="0.1" style="fill:#040815;fill:color(display-p3 0.0157 0.0314 0.0824);fill-opacity:0.1;" mask="url(#path-17-inside-2_532_2362)"/>
<path d="M115.464 239.571V229.771H118.628C119.394 229.771 120.019 229.897 120.504 230.149C120.99 230.401 121.349 230.747 121.582 231.185C121.816 231.624 121.932 232.109 121.932 232.641C121.932 233.257 121.764 233.813 121.428 234.307C121.102 234.802 120.588 235.152 119.888 235.357L122.03 239.571H120.644L118.656 235.525H118.572H116.64V239.571H115.464ZM116.64 234.601H118.544C119.3 234.601 119.851 234.419 120.196 234.055C120.542 233.691 120.714 233.225 120.714 232.655C120.714 232.077 120.542 231.619 120.196 231.283C119.86 230.938 119.305 230.765 118.53 230.765H116.64V234.601ZM128.215 239.739C127.254 239.739 126.409 239.529 125.681 239.109C124.963 238.68 124.398 238.083 123.987 237.317C123.586 236.552 123.385 235.67 123.385 234.671C123.385 233.673 123.586 232.795 123.987 232.039C124.398 231.274 124.963 230.677 125.681 230.247C126.409 229.818 127.254 229.603 128.215 229.603C129.186 229.603 130.031 229.818 130.749 230.247C131.477 230.677 132.042 231.274 132.443 232.039C132.845 232.795 133.045 233.673 133.045 234.671C133.045 235.67 132.845 236.552 132.443 237.317C132.042 238.083 131.477 238.68 130.749 239.109C130.031 239.529 129.186 239.739 128.215 239.739ZM128.215 238.703C128.934 238.703 129.564 238.545 130.105 238.227C130.656 237.901 131.081 237.439 131.379 236.841C131.687 236.235 131.841 235.511 131.841 234.671C131.841 233.831 131.687 233.113 131.379 232.515C131.081 231.918 130.656 231.461 130.105 231.143C129.564 230.817 128.934 230.653 128.215 230.653C127.497 230.653 126.862 230.817 126.311 231.143C125.77 231.461 125.345 231.918 125.037 232.515C124.739 233.113 124.589 233.831 124.589 234.671C124.589 235.511 124.739 236.235 125.037 236.841C125.345 237.439 125.77 237.901 126.311 238.227C126.862 238.545 127.497 238.703 128.215 238.703ZM134.742 239.571V229.771H135.918V239.571H134.742Z" fill="#040815" style="fill:#040815;fill:color(display-p3 0.0157 0.0314 0.0824);fill-opacity:1;"/>
<circle cx="324.571" cy="234.571" r="8" fill="#BFF6E5" style="fill:#BFF6E5;fill:color(display-p3 0.7490 0.9647 0.8980);fill-opacity:1;"/>
<path d="M345.205 239.739C344.468 239.739 343.847 239.604 343.343 239.333C342.839 239.063 342.433 238.699 342.125 238.241C341.817 237.784 341.593 237.275 341.453 236.715C341.323 236.155 341.257 235.581 341.257 234.993C341.257 233.901 341.411 232.954 341.719 232.151C342.027 231.339 342.471 230.714 343.049 230.275C343.628 229.827 344.328 229.603 345.149 229.603C345.821 229.603 346.391 229.739 346.857 230.009C347.333 230.271 347.702 230.616 347.963 231.045C348.225 231.475 348.379 231.937 348.425 232.431H346.759C346.675 232.002 346.493 231.671 346.213 231.437C345.933 231.204 345.574 231.087 345.135 231.087C344.51 231.087 344.006 231.377 343.623 231.955C343.241 232.525 343.035 233.397 343.007 234.573C343.231 234.191 343.567 233.873 344.015 233.621C344.463 233.369 344.963 233.243 345.513 233.243C346.055 233.243 346.563 233.374 347.039 233.635C347.515 233.897 347.898 234.265 348.187 234.741C348.486 235.217 348.635 235.777 348.635 236.421C348.635 237.009 348.491 237.555 348.201 238.059C347.921 238.563 347.52 238.969 346.997 239.277C346.484 239.585 345.887 239.739 345.205 239.739ZM345.107 238.199C345.63 238.199 346.059 238.041 346.395 237.723C346.741 237.397 346.913 236.986 346.913 236.491C346.913 235.969 346.741 235.549 346.395 235.231C346.05 234.914 345.611 234.755 345.079 234.755C344.734 234.755 344.421 234.835 344.141 234.993C343.871 235.143 343.656 235.348 343.497 235.609C343.339 235.861 343.259 236.146 343.259 236.463C343.259 236.967 343.432 237.383 343.777 237.709C344.132 238.036 344.575 238.199 345.107 238.199ZM349.696 239.571L352.216 236.099L349.696 232.627H351.614L353.378 235.091L355.128 232.627H357.06L354.526 236.099L357.06 239.571H355.128L353.378 237.107L351.614 239.571H349.696Z" fill="#040815" style="fill:#040815;fill:color(display-p3 0.0157 0.0314 0.0824);fill-opacity:1;"/>
<circle cx="436.571" cy="234.571" r="8" fill="#FD7228" style="fill:#FD7228;fill:color(display-p3 0.9922 0.4471 0.1569);fill-opacity:1;"/>
<path d="M454.587 239.571V231.815L452.977 232.193V230.821L455.343 229.771H456.449V239.571H454.587ZM458.111 239.571V238.269C458.709 237.775 459.287 237.285 459.847 236.799C460.417 236.314 460.921 235.833 461.359 235.357C461.807 234.881 462.162 234.419 462.423 233.971C462.694 233.514 462.829 233.071 462.829 232.641C462.829 232.24 462.717 231.885 462.493 231.577C462.279 231.269 461.919 231.115 461.415 231.115C460.902 231.115 460.515 231.283 460.253 231.619C459.992 231.955 459.861 232.361 459.861 232.837H458.125C458.144 232.119 458.303 231.521 458.601 231.045C458.9 230.56 459.297 230.201 459.791 229.967C460.286 229.725 460.841 229.603 461.457 229.603C462.456 229.603 463.231 229.879 463.781 230.429C464.341 230.971 464.621 231.675 464.621 232.543C464.621 233.085 464.495 233.612 464.243 234.125C464.001 234.639 463.679 235.133 463.277 235.609C462.876 236.085 462.442 236.533 461.975 236.953C461.509 237.364 461.056 237.747 460.617 238.101H464.859V239.571H458.111ZM465.798 239.571L468.318 236.099L465.798 232.627H467.716L469.48 235.091L471.23 232.627H473.162L470.628 236.099L473.162 239.571H471.23L469.48 237.107L467.716 239.571H465.798Z" fill="#040815" style="fill:#040815;fill:color(display-p3 0.0157 0.0314 0.0824);fill-opacity:1;"/>
<rect x="114.928" y="289.781" width="377.143" height="33" rx="7.5" stroke="#938F99" style="stroke:#938F99;stroke:color(display-p3 0.5765 0.5608 0.6000);stroke-opacity:1;"/>
<mask id="mask0_532_2362" style="mask-type:alpha" maskUnits="userSpaceOnUse" x="203" y="294" width="24" height="25">
<rect x="203.046" y="294.327" width="23.908" height="23.908" fill="#D9D9D9" style="fill:#D9D9D9;fill:color(display-p3 0.8510 0.8510 0.8510);fill-opacity:1;"/>
</mask>
<g mask="url(#mask0_532_2362)">
<path d="M212.559 312.258L206.881 306.58L208.3 305.161L212.559 309.419L221.699 300.28L223.118 301.699L212.559 312.258Z" fill="#040815" style="fill:#040815;fill:color(display-p3 0.0157 0.0314 0.0824);fill-opacity:1;"/>
</g>
<path d="M235.934 310.781V300.69H239.985C241.033 300.69 241.83 300.935 242.378 301.425C242.936 301.906 243.214 302.526 243.214 303.285C243.214 303.919 243.041 304.429 242.695 304.813C242.359 305.188 241.946 305.443 241.456 305.577C242.032 305.692 242.508 305.981 242.883 306.442C243.258 306.894 243.445 307.422 243.445 308.028C243.445 308.826 243.157 309.484 242.58 310.003C242.003 310.522 241.187 310.781 240.129 310.781H235.934ZM237.779 304.928H239.711C240.23 304.928 240.629 304.808 240.908 304.568C241.187 304.328 241.326 303.986 241.326 303.544C241.326 303.122 241.187 302.79 240.908 302.55C240.639 302.3 240.23 302.175 239.682 302.175H237.779V304.928ZM237.779 309.282H239.841C240.389 309.282 240.812 309.157 241.11 308.907C241.417 308.648 241.571 308.287 241.571 307.826C241.571 307.355 241.412 306.985 241.095 306.716C240.778 306.447 240.35 306.312 239.812 306.312H237.779V309.282ZM247.667 310.954C246.773 310.954 246.081 310.676 245.591 310.118C245.111 309.561 244.87 308.744 244.87 307.667V303.631H246.701V307.494C246.701 308.11 246.826 308.58 247.076 308.907C247.326 309.234 247.72 309.397 248.258 309.397C248.767 309.397 249.186 309.215 249.512 308.85C249.849 308.484 250.017 307.975 250.017 307.321V303.631H251.862V310.781H250.233L250.089 309.57C249.868 309.993 249.546 310.33 249.123 310.58C248.71 310.829 248.224 310.954 247.667 310.954ZM256.712 310.954C256.077 310.954 255.52 310.853 255.039 310.652C254.559 310.44 254.175 310.152 253.886 309.787C253.598 309.421 253.425 308.999 253.367 308.518H255.227C255.285 308.797 255.438 309.037 255.688 309.239C255.948 309.431 256.279 309.527 256.683 309.527C257.087 309.527 257.38 309.445 257.562 309.282C257.755 309.119 257.851 308.931 257.851 308.72C257.851 308.412 257.716 308.206 257.447 308.1C257.178 307.985 256.803 307.874 256.323 307.768C256.015 307.701 255.703 307.619 255.385 307.523C255.068 307.427 254.775 307.307 254.506 307.163C254.247 307.009 254.035 306.817 253.872 306.586C253.708 306.346 253.627 306.053 253.627 305.707C253.627 305.073 253.877 304.539 254.376 304.107C254.886 303.674 255.597 303.458 256.51 303.458C257.356 303.458 258.028 303.655 258.528 304.049C259.038 304.443 259.34 304.986 259.436 305.678H257.692C257.586 305.149 257.188 304.885 256.496 304.885C256.15 304.885 255.88 304.952 255.688 305.087C255.506 305.221 255.414 305.39 255.414 305.591C255.414 305.803 255.554 305.971 255.832 306.096C256.111 306.221 256.481 306.336 256.942 306.442C257.442 306.557 257.899 306.687 258.312 306.831C258.735 306.966 259.071 307.172 259.321 307.451C259.571 307.72 259.696 308.11 259.696 308.619C259.706 309.061 259.59 309.46 259.35 309.815C259.11 310.171 258.764 310.45 258.312 310.652C257.86 310.853 257.327 310.954 256.712 310.954ZM262.325 302.521C261.989 302.521 261.71 302.42 261.489 302.218C261.278 302.016 261.172 301.762 261.172 301.454C261.172 301.146 261.278 300.897 261.489 300.704C261.71 300.503 261.989 300.402 262.325 300.402C262.662 300.402 262.936 300.503 263.147 300.704C263.368 300.897 263.479 301.146 263.479 301.454C263.479 301.762 263.368 302.016 263.147 302.218C262.936 302.42 262.662 302.521 262.325 302.521ZM261.403 310.781V303.631H263.248V310.781H261.403ZM265.174 310.781V303.631H266.803L266.947 304.842C267.168 304.419 267.485 304.083 267.899 303.833C268.322 303.583 268.817 303.458 269.384 303.458C270.268 303.458 270.955 303.737 271.445 304.294C271.935 304.851 272.18 305.668 272.18 306.745V310.781H270.335V306.918C270.335 306.303 270.21 305.832 269.96 305.505C269.71 305.178 269.321 305.015 268.793 305.015C268.274 305.015 267.846 305.197 267.509 305.563C267.183 305.928 267.019 306.437 267.019 307.091V310.781H265.174ZM277.419 310.954C276.698 310.954 276.059 310.801 275.502 310.493C274.944 310.185 274.507 309.753 274.19 309.196C273.873 308.638 273.714 307.994 273.714 307.264C273.714 306.524 273.868 305.865 274.176 305.289C274.493 304.712 274.925 304.265 275.473 303.948C276.03 303.621 276.684 303.458 277.434 303.458C278.135 303.458 278.755 303.612 279.293 303.919C279.832 304.227 280.25 304.65 280.548 305.188C280.855 305.716 281.009 306.308 281.009 306.961C281.009 307.067 281.004 307.177 280.994 307.293C280.994 307.408 280.99 307.528 280.98 307.653H275.545C275.584 308.21 275.776 308.648 276.122 308.965C276.477 309.282 276.905 309.441 277.405 309.441C277.78 309.441 278.092 309.359 278.342 309.196C278.601 309.023 278.794 308.802 278.919 308.532H280.793C280.658 308.984 280.432 309.397 280.115 309.772C279.808 310.137 279.423 310.426 278.962 310.637C278.51 310.849 277.996 310.954 277.419 310.954ZM277.434 304.957C276.982 304.957 276.583 305.087 276.237 305.346C275.891 305.596 275.67 305.981 275.574 306.5H279.135C279.106 306.029 278.933 305.654 278.616 305.375C278.299 305.097 277.905 304.957 277.434 304.957ZM285.516 310.954C284.882 310.954 284.325 310.853 283.844 310.652C283.363 310.44 282.979 310.152 282.691 309.787C282.402 309.421 282.229 308.999 282.172 308.518H284.031C284.089 308.797 284.243 309.037 284.493 309.239C284.752 309.431 285.084 309.527 285.487 309.527C285.891 309.527 286.184 309.445 286.367 309.282C286.559 309.119 286.655 308.931 286.655 308.72C286.655 308.412 286.521 308.206 286.251 308.1C285.982 307.985 285.608 307.874 285.127 307.768C284.819 307.701 284.507 307.619 284.19 307.523C283.873 307.427 283.58 307.307 283.311 307.163C283.051 307.009 282.84 306.817 282.676 306.586C282.513 306.346 282.431 306.053 282.431 305.707C282.431 305.073 282.681 304.539 283.181 304.107C283.69 303.674 284.401 303.458 285.314 303.458C286.16 303.458 286.833 303.655 287.333 304.049C287.842 304.443 288.145 304.986 288.241 305.678H286.497C286.391 305.149 285.992 304.885 285.3 304.885C284.954 304.885 284.685 304.952 284.493 305.087C284.31 305.221 284.219 305.39 284.219 305.591C284.219 305.803 284.358 305.971 284.637 306.096C284.916 306.221 285.286 306.336 285.747 306.442C286.247 306.557 286.703 306.687 287.116 306.831C287.539 306.966 287.876 307.172 288.126 307.451C288.375 307.72 288.5 308.11 288.5 308.619C288.51 309.061 288.395 309.46 288.154 309.815C287.914 310.171 287.568 310.45 287.116 310.652C286.665 310.853 286.131 310.954 285.516 310.954ZM293.09 310.954C292.456 310.954 291.899 310.853 291.418 310.652C290.938 310.44 290.553 310.152 290.265 309.787C289.977 309.421 289.804 308.999 289.746 308.518H291.606C291.663 308.797 291.817 309.037 292.067 309.239C292.326 309.431 292.658 309.527 293.062 309.527C293.465 309.527 293.758 309.445 293.941 309.282C294.133 309.119 294.229 308.931 294.229 308.72C294.229 308.412 294.095 308.206 293.826 308.1C293.557 307.985 293.182 307.874 292.701 307.768C292.394 307.701 292.081 307.619 291.764 307.523C291.447 307.427 291.154 307.307 290.885 307.163C290.625 307.009 290.414 306.817 290.25 306.586C290.087 306.346 290.005 306.053 290.005 305.707C290.005 305.073 290.255 304.539 290.755 304.107C291.264 303.674 291.976 303.458 292.889 303.458C293.734 303.458 294.407 303.655 294.907 304.049C295.416 304.443 295.719 304.986 295.815 305.678H294.071C293.965 305.149 293.566 304.885 292.874 304.885C292.528 304.885 292.259 304.952 292.067 305.087C291.884 305.221 291.793 305.39 291.793 305.591C291.793 305.803 291.932 305.971 292.211 306.096C292.49 306.221 292.86 306.336 293.321 306.442C293.821 306.557 294.277 306.687 294.691 306.831C295.114 306.966 295.45 307.172 295.7 307.451C295.95 307.72 296.075 308.11 296.075 308.619C296.084 309.061 295.969 309.46 295.729 309.815C295.488 310.171 295.142 310.45 294.691 310.652C294.239 310.853 293.706 310.954 293.09 310.954ZM304.648 310.954C303.917 310.954 303.273 310.796 302.716 310.479C302.158 310.161 301.716 309.719 301.39 309.152C301.072 308.585 300.914 307.937 300.914 307.206C300.914 306.476 301.072 305.827 301.39 305.26C301.716 304.693 302.158 304.251 302.716 303.934C303.273 303.616 303.917 303.458 304.648 303.458C305.561 303.458 306.33 303.698 306.954 304.179C307.579 304.65 307.978 305.303 308.151 306.139H306.205C306.108 305.793 305.916 305.524 305.628 305.332C305.349 305.13 305.018 305.029 304.633 305.029C304.124 305.029 303.691 305.221 303.336 305.606C302.98 305.99 302.802 306.524 302.802 307.206C302.802 307.888 302.98 308.422 303.336 308.806C303.691 309.191 304.124 309.383 304.633 309.383C305.018 309.383 305.349 309.287 305.628 309.095C305.916 308.902 306.108 308.629 306.205 308.273H308.151C307.978 309.08 307.579 309.729 306.954 310.219C306.33 310.709 305.561 310.954 304.648 310.954ZM312.254 310.954C311.639 310.954 311.134 310.858 310.74 310.666C310.346 310.464 310.053 310.2 309.861 309.873C309.668 309.546 309.572 309.186 309.572 308.792C309.572 308.129 309.832 307.591 310.351 307.177C310.87 306.764 311.648 306.557 312.686 306.557H314.503V306.384C314.503 305.894 314.363 305.534 314.085 305.303C313.806 305.073 313.46 304.957 313.047 304.957C312.672 304.957 312.345 305.048 312.066 305.231C311.788 305.404 311.615 305.664 311.547 306.01H309.745C309.793 305.491 309.966 305.039 310.264 304.654C310.572 304.27 310.966 303.977 311.446 303.775C311.927 303.564 312.465 303.458 313.061 303.458C314.08 303.458 314.882 303.713 315.469 304.222C316.055 304.731 316.348 305.452 316.348 306.384V310.781H314.777L314.604 309.628C314.392 310.013 314.094 310.33 313.71 310.58C313.335 310.829 312.85 310.954 312.254 310.954ZM312.672 309.513C313.2 309.513 313.609 309.34 313.897 308.994C314.195 308.648 314.383 308.22 314.459 307.711H312.888C312.398 307.711 312.047 307.802 311.836 307.985C311.624 308.158 311.519 308.374 311.519 308.633C311.519 308.912 311.624 309.128 311.836 309.282C312.047 309.436 312.326 309.513 312.672 309.513ZM321.064 310.954C320.43 310.954 319.873 310.853 319.392 310.652C318.911 310.44 318.527 310.152 318.239 309.787C317.95 309.421 317.777 308.999 317.72 308.518H319.579C319.637 308.797 319.791 309.037 320.041 309.239C320.3 309.431 320.632 309.527 321.035 309.527C321.439 309.527 321.732 309.445 321.915 309.282C322.107 309.119 322.203 308.931 322.203 308.72C322.203 308.412 322.069 308.206 321.8 308.1C321.53 307.985 321.156 307.874 320.675 307.768C320.368 307.701 320.055 307.619 319.738 307.523C319.421 307.427 319.128 307.307 318.859 307.163C318.599 307.009 318.388 306.817 318.224 306.586C318.061 306.346 317.979 306.053 317.979 305.707C317.979 305.073 318.229 304.539 318.729 304.107C319.238 303.674 319.949 303.458 320.862 303.458C321.708 303.458 322.381 303.655 322.881 304.049C323.39 304.443 323.693 304.986 323.789 305.678H322.045C321.939 305.149 321.54 304.885 320.848 304.885C320.502 304.885 320.233 304.952 320.041 305.087C319.858 305.221 319.767 305.39 319.767 305.591C319.767 305.803 319.906 305.971 320.185 306.096C320.464 306.221 320.834 306.336 321.295 306.442C321.795 306.557 322.251 306.687 322.665 306.831C323.087 306.966 323.424 307.172 323.674 307.451C323.924 307.72 324.048 308.11 324.048 308.619C324.058 309.061 323.943 309.46 323.702 309.815C323.462 310.171 323.116 310.45 322.665 310.652C322.213 310.853 321.679 310.954 321.064 310.954ZM329.157 310.954C328.437 310.954 327.798 310.801 327.24 310.493C326.683 310.185 326.245 309.753 325.928 309.196C325.611 308.638 325.452 307.994 325.452 307.264C325.452 306.524 325.606 305.865 325.914 305.289C326.231 304.712 326.663 304.265 327.211 303.948C327.769 303.621 328.422 303.458 329.172 303.458C329.873 303.458 330.493 303.612 331.032 303.919C331.57 304.227 331.988 304.65 332.286 305.188C332.593 305.716 332.747 306.308 332.747 306.961C332.747 307.067 332.742 307.177 332.733 307.293C332.733 307.408 332.728 307.528 332.718 307.653H327.283C327.322 308.21 327.514 308.648 327.86 308.965C328.216 309.282 328.643 309.441 329.143 309.441C329.518 309.441 329.83 309.359 330.08 309.196C330.34 309.023 330.532 308.802 330.657 308.532H332.531C332.396 308.984 332.17 309.397 331.853 309.772C331.546 310.137 331.161 310.426 330.7 310.637C330.248 310.849 329.734 310.954 329.157 310.954ZM329.172 304.957C328.72 304.957 328.321 305.087 327.975 305.346C327.629 305.596 327.408 305.981 327.312 306.5H330.873C330.844 306.029 330.671 305.654 330.354 305.375C330.037 305.097 329.643 304.957 329.172 304.957ZM340.199 310.954C339.584 310.954 339.08 310.858 338.686 310.666C338.292 310.464 337.999 310.2 337.806 309.873C337.614 309.546 337.518 309.186 337.518 308.792C337.518 308.129 337.778 307.591 338.297 307.177C338.816 306.764 339.594 306.557 340.632 306.557H342.448V306.384C342.448 305.894 342.309 305.534 342.03 305.303C341.752 305.073 341.406 304.957 340.992 304.957C340.618 304.957 340.291 305.048 340.012 305.231C339.733 305.404 339.56 305.664 339.493 306.01H337.691C337.739 305.491 337.912 305.039 338.21 304.654C338.518 304.27 338.912 303.977 339.392 303.775C339.873 303.564 340.411 303.458 341.007 303.458C342.026 303.458 342.828 303.713 343.414 304.222C344.001 304.731 344.294 305.452 344.294 306.384V310.781H342.722L342.549 309.628C342.338 310.013 342.04 310.33 341.656 310.58C341.281 310.829 340.795 310.954 340.199 310.954ZM340.618 309.513C341.146 309.513 341.555 309.34 341.843 308.994C342.141 308.648 342.328 308.22 342.405 307.711H340.834C340.344 307.711 339.993 307.802 339.781 307.985C339.57 308.158 339.464 308.374 339.464 308.633C339.464 308.912 339.57 309.128 339.781 309.282C339.993 309.436 340.272 309.513 340.618 309.513ZM346.055 313.953V303.631H347.698L347.9 304.654C348.131 304.337 348.433 304.059 348.808 303.818C349.193 303.578 349.688 303.458 350.293 303.458C350.966 303.458 351.566 303.621 352.095 303.948C352.624 304.275 353.042 304.722 353.349 305.289C353.657 305.856 353.811 306.5 353.811 307.221C353.811 307.941 353.657 308.585 353.349 309.152C353.042 309.71 352.624 310.152 352.095 310.479C351.566 310.796 350.966 310.954 350.293 310.954C349.755 310.954 349.284 310.853 348.88 310.652C348.477 310.45 348.15 310.166 347.9 309.801V313.953H346.055ZM349.904 309.34C350.49 309.34 350.975 309.143 351.36 308.749C351.744 308.355 351.937 307.845 351.937 307.221C351.937 306.596 351.744 306.082 351.36 305.678C350.975 305.274 350.49 305.073 349.904 305.073C349.308 305.073 348.818 305.274 348.433 305.678C348.059 306.072 347.871 306.581 347.871 307.206C347.871 307.831 348.059 308.345 348.433 308.749C348.818 309.143 349.308 309.34 349.904 309.34ZM355.459 313.953V303.631H357.103L357.304 304.654C357.535 304.337 357.838 304.059 358.213 303.818C358.597 303.578 359.092 303.458 359.697 303.458C360.37 303.458 360.971 303.621 361.499 303.948C362.028 304.275 362.446 304.722 362.754 305.289C363.061 305.856 363.215 306.5 363.215 307.221C363.215 307.941 363.061 308.585 362.754 309.152C362.446 309.71 362.028 310.152 361.499 310.479C360.971 310.796 360.37 310.954 359.697 310.954C359.159 310.954 358.688 310.853 358.285 310.652C357.881 310.45 357.554 310.166 357.304 309.801V313.953H355.459ZM359.308 309.34C359.894 309.34 360.38 309.143 360.764 308.749C361.149 308.355 361.341 307.845 361.341 307.221C361.341 306.596 361.149 306.082 360.764 305.678C360.38 305.274 359.894 305.073 359.308 305.073C358.712 305.073 358.222 305.274 357.838 305.678C357.463 306.072 357.275 306.581 357.275 307.206C357.275 307.831 357.463 308.345 357.838 308.749C358.222 309.143 358.712 309.34 359.308 309.34ZM364.863 310.781V303.631H366.507L366.68 304.972C366.939 304.51 367.29 304.145 367.732 303.876C368.184 303.597 368.713 303.458 369.318 303.458V305.404H368.799C368.395 305.404 368.035 305.467 367.718 305.591C367.401 305.716 367.151 305.933 366.968 306.24C366.795 306.548 366.709 306.975 366.709 307.523V310.781H364.863ZM373.884 310.954C373.192 310.954 372.567 310.796 372.01 310.479C371.462 310.161 371.024 309.724 370.698 309.167C370.38 308.6 370.222 307.946 370.222 307.206C370.222 306.466 370.385 305.817 370.712 305.26C371.039 304.693 371.476 304.251 372.024 303.934C372.581 303.616 373.206 303.458 373.898 303.458C374.58 303.458 375.196 303.616 375.743 303.934C376.301 304.251 376.738 304.693 377.055 305.26C377.382 305.817 377.545 306.466 377.545 307.206C377.545 307.946 377.382 308.6 377.055 309.167C376.738 309.724 376.301 310.161 375.743 310.479C375.186 310.796 374.566 310.954 373.884 310.954ZM373.884 309.354C374.364 309.354 374.782 309.176 375.138 308.821C375.493 308.456 375.671 307.917 375.671 307.206C375.671 306.495 375.493 305.962 375.138 305.606C374.782 305.241 374.369 305.058 373.898 305.058C373.408 305.058 372.985 305.241 372.629 305.606C372.283 305.962 372.11 306.495 372.11 307.206C372.11 307.917 372.283 308.456 372.629 308.821C372.985 309.176 373.403 309.354 373.884 309.354ZM380.775 310.781L378.151 303.631H380.083L381.9 309.037L383.716 303.631H385.648L383.01 310.781H380.775ZM389.934 310.954C389.213 310.954 388.574 310.801 388.017 310.493C387.459 310.185 387.022 309.753 386.705 309.196C386.388 308.638 386.229 307.994 386.229 307.264C386.229 306.524 386.383 305.865 386.69 305.289C387.008 304.712 387.44 304.265 387.988 303.948C388.545 303.621 389.199 303.458 389.948 303.458C390.65 303.458 391.27 303.612 391.808 303.919C392.346 304.227 392.764 304.65 393.062 305.188C393.37 305.716 393.524 306.308 393.524 306.961C393.524 307.067 393.519 307.177 393.509 307.293C393.509 307.408 393.505 307.528 393.495 307.653H388.06C388.098 308.21 388.291 308.648 388.637 308.965C388.992 309.282 389.42 309.441 389.92 309.441C390.294 309.441 390.607 309.359 390.857 309.196C391.116 309.023 391.308 308.802 391.433 308.532H393.307C393.173 308.984 392.947 309.397 392.63 309.772C392.322 310.137 391.938 310.426 391.477 310.637C391.025 310.849 390.511 310.954 389.934 310.954ZM389.948 304.957C389.497 304.957 389.098 305.087 388.752 305.346C388.406 305.596 388.185 305.981 388.089 306.5H391.65C391.621 306.029 391.448 305.654 391.131 305.375C390.813 305.097 390.419 304.957 389.948 304.957ZM398.363 310.954C397.69 310.954 397.089 310.791 396.561 310.464C396.032 310.137 395.614 309.691 395.306 309.123C394.999 308.556 394.845 307.913 394.845 307.192C394.845 306.471 394.999 305.832 395.306 305.274C395.614 304.707 396.032 304.265 396.561 303.948C397.089 303.621 397.69 303.458 398.363 303.458C398.901 303.458 399.372 303.559 399.775 303.761C400.179 303.962 400.506 304.246 400.756 304.611V300.402H402.601V310.781H400.958L400.756 309.758C400.525 310.075 400.218 310.354 399.833 310.594C399.458 310.834 398.968 310.954 398.363 310.954ZM398.752 309.34C399.348 309.34 399.833 309.143 400.208 308.749C400.592 308.345 400.785 307.831 400.785 307.206C400.785 306.581 400.592 306.072 400.208 305.678C399.833 305.274 399.348 305.073 398.752 305.073C398.166 305.073 397.68 305.27 397.296 305.664C396.911 306.058 396.719 306.567 396.719 307.192C396.719 307.816 396.911 308.331 397.296 308.734C397.68 309.138 398.166 309.34 398.752 309.34Z" fill="#040815" style="fill:#040815;fill:color(display-p3 0.0157 0.0314 0.0824);fill-opacity:1;"/>
</g>
<defs>
<filter id="filter0_df_532_2362" x="58.8" y="154.043" width="490.5" height="295.968" filterUnits="userSpaceOnUse" color-interpolation-filters="sRGB">
<feFlood flood-opacity="0" result="BackgroundImageFix"/>
<feColorMatrix in="SourceAlpha" type="matrix" values="0 0 0 0 0 0 0 0 0 0 0 0 0 0 0 0 0 0 127 0" result="hardAlpha"/>
<feOffset dy="3.6"/>
<feGaussianBlur stdDeviation="21.6"/>
<feComposite in2="hardAlpha" operator="out"/>
<feColorMatrix type="matrix" values="0 0 0 0 0 0 0 0 0 0 0 0 0 0 0 0 0 0 0.25 0"/>
<feBlend mode="normal" in2="BackgroundImageFix" result="effect1_dropShadow_532_2362"/>
<feBlend mode="normal" in="SourceGraphic" in2="effect1_dropShadow_532_2362" result="shape"/>
<feGaussianBlur stdDeviation="1.8" result="effect2_foregroundBlur_532_2362"/>
</filter>
<filter id="filter1_df_532_2362" x="45.4" y="116.021" width="517.75" height="312.41" filterUnits="userSpaceOnUse" color-interpolation-filters="sRGB">
<feFlood flood-opacity="0" result="BackgroundImageFix"/>
<feColorMatrix in="SourceAlpha" type="matrix" values="0 0 0 0 0 0 0 0 0 0 0 0 0 0 0 0 0 0 127 0" result="hardAlpha"/>
<feOffset dy="3.8"/>
<feGaussianBlur stdDeviation="22.8"/>
<feComposite in2="hardAlpha" operator="out"/>
<feColorMatrix type="matrix" values="0 0 0 0 0 0 0 0 0 0 0 0 0 0 0 0 0 0 0.25 0"/>
<feBlend mode="normal" in2="BackgroundImageFix" result="effect1_dropShadow_532_2362"/>
<feBlend mode="normal" in="SourceGraphic" in2="effect1_dropShadow_532_2362" result="shape"/>
<feGaussianBlur stdDeviation="0.95" result="effect2_foregroundBlur_532_2362"/>
</filter>
<filter id="filter2_d_532_2362" x="31" y="73" width="545" height="328.853" filterUnits="userSpaceOnUse" color-interpolation-filters="sRGB">
<feFlood flood-opacity="0" result="BackgroundImageFix"/>
<feColorMatrix in="SourceAlpha" type="matrix" values="0 0 0 0 0 0 0 0 0 0 0 0 0 0 0 0 0 0 127 0" result="hardAlpha"/>
<feOffset dy="4"/>
<feGaussianBlur stdDeviation="24"/>
<feComposite in2="hardAlpha" operator="out"/>
<feColorMatrix type="matrix" values="0 0 0 0 0 0 0 0 0 0 0 0 0 0 0 0 0 0 0.25 0"/>
<feBlend mode="normal" in2="BackgroundImageFix" result="effect1_dropShadow_532_2362"/>
<feBlend mode="normal" in="SourceGraphic" in2="effect1_dropShadow_532_2362" result="shape"/>
</filter>
</defs>
</svg>
