<svg width="606" height="520" viewBox="0 0 606 520" fill="none" xmlns="http://www.w3.org/2000/svg">
<rect x="60" y="60" width="486" height="400" rx="32" fill="#F5F8FF" style="fill:#F5F8FF;fill:color(display-p3 0.9608 0.9725 1.0000);fill-opacity:1;"/>
<g opacity="0.8">
<rect x="173" y="268" width="260" height="59.7701" rx="29.8851" fill="#FD7228" style="fill:#FD7228;fill:color(display-p3 0.9922 0.4471 0.1569);fill-opacity:1;"/>
<circle cx="202.885" cy="297.885" r="23.908" fill="#040815" fill-opacity="0.05" style="fill:#040815;fill:color(display-p3 0.0157 0.0314 0.0824);fill-opacity:0.05;"/>
<circle cx="202.885" cy="297.885" r="23.1609" stroke="#040815" stroke-opacity="0.2" style="stroke:#040815;stroke:color(display-p3 0.0157 0.0314 0.0824);stroke-opacity:0.2;" stroke-width="1.49425" stroke-dasharray="2.99 2.99"/>
<path d="M239.727 302.385V292.294H246.244V293.778H241.573V296.604H245.35V298.06H241.573V302.385H239.727ZM250.675 302.558C249.983 302.558 249.359 302.399 248.801 302.082C248.253 301.765 247.816 301.328 247.489 300.77C247.172 300.203 247.014 299.55 247.014 298.81C247.014 298.07 247.177 297.421 247.504 296.864C247.831 296.297 248.268 295.854 248.816 295.537C249.373 295.22 249.998 295.062 250.69 295.062C251.372 295.062 251.987 295.22 252.535 295.537C253.092 295.854 253.53 296.297 253.847 296.864C254.174 297.421 254.337 298.07 254.337 298.81C254.337 299.55 254.174 300.203 253.847 300.77C253.53 301.328 253.092 301.765 252.535 302.082C251.978 302.399 251.358 302.558 250.675 302.558ZM250.675 300.958C251.156 300.958 251.574 300.78 251.93 300.424C252.285 300.059 252.463 299.521 252.463 298.81C252.463 298.099 252.285 297.565 251.93 297.21C251.574 296.844 251.161 296.662 250.69 296.662C250.2 296.662 249.777 296.844 249.421 297.21C249.075 297.565 248.902 298.099 248.902 298.81C248.902 299.521 249.075 300.059 249.421 300.424C249.777 300.78 250.195 300.958 250.675 300.958ZM255.987 302.385V295.235H257.63L257.803 296.575C258.063 296.114 258.414 295.749 258.856 295.48C259.308 295.201 259.836 295.062 260.442 295.062V297.008H259.923C259.519 297.008 259.159 297.07 258.841 297.195C258.524 297.32 258.274 297.536 258.092 297.844C257.919 298.151 257.832 298.579 257.832 299.127V302.385H255.987ZM265.05 302.558C264.33 302.558 263.69 302.404 263.133 302.097C262.576 301.789 262.138 301.357 261.821 300.799C261.504 300.242 261.345 299.598 261.345 298.867C261.345 298.127 261.499 297.469 261.807 296.892C262.124 296.316 262.556 295.869 263.104 295.552C263.662 295.225 264.315 295.062 265.065 295.062C265.766 295.062 266.386 295.215 266.925 295.523C267.463 295.83 267.881 296.253 268.179 296.791C268.486 297.32 268.64 297.911 268.64 298.565C268.64 298.67 268.635 298.781 268.626 298.896C268.626 299.012 268.621 299.132 268.611 299.257H263.176C263.215 299.814 263.407 300.251 263.753 300.569C264.109 300.886 264.536 301.044 265.036 301.044C265.411 301.044 265.723 300.963 265.973 300.799C266.233 300.626 266.425 300.405 266.55 300.136H268.424C268.289 300.588 268.063 301.001 267.746 301.376C267.439 301.741 267.054 302.029 266.593 302.241C266.141 302.452 265.627 302.558 265.05 302.558ZM265.065 296.561C264.613 296.561 264.214 296.691 263.868 296.95C263.522 297.2 263.301 297.584 263.205 298.103H266.766C266.737 297.632 266.564 297.258 266.247 296.979C265.93 296.7 265.536 296.561 265.065 296.561ZM273.695 302.558C272.965 302.558 272.321 302.399 271.763 302.082C271.206 301.765 270.764 301.323 270.437 300.756C270.12 300.189 269.961 299.54 269.961 298.81C269.961 298.079 270.12 297.431 270.437 296.864C270.764 296.297 271.206 295.854 271.763 295.537C272.321 295.22 272.965 295.062 273.695 295.062C274.608 295.062 275.377 295.302 276.002 295.782C276.627 296.253 277.025 296.907 277.198 297.743H275.252C275.156 297.397 274.964 297.128 274.676 296.936C274.397 296.734 274.065 296.633 273.681 296.633C273.171 296.633 272.739 296.825 272.383 297.21C272.028 297.594 271.85 298.127 271.85 298.81C271.85 299.492 272.028 300.026 272.383 300.41C272.739 300.794 273.171 300.987 273.681 300.987C274.065 300.987 274.397 300.891 274.676 300.698C274.964 300.506 275.156 300.232 275.252 299.877H277.198C277.025 300.684 276.627 301.333 276.002 301.823C275.377 302.313 274.608 302.558 273.695 302.558ZM281.301 302.558C280.686 302.558 280.182 302.462 279.788 302.27C279.394 302.068 279.101 301.804 278.908 301.477C278.716 301.15 278.62 300.79 278.62 300.396C278.62 299.732 278.879 299.194 279.398 298.781C279.917 298.368 280.696 298.161 281.734 298.161H283.55V297.988C283.55 297.498 283.411 297.137 283.132 296.907C282.854 296.676 282.508 296.561 282.094 296.561C281.72 296.561 281.393 296.652 281.114 296.835C280.835 297.008 280.662 297.267 280.595 297.613H278.793C278.841 297.094 279.014 296.643 279.312 296.258C279.62 295.874 280.014 295.581 280.494 295.379C280.975 295.167 281.513 295.062 282.109 295.062C283.128 295.062 283.93 295.316 284.516 295.826C285.103 296.335 285.396 297.056 285.396 297.988V302.385H283.824L283.651 301.232C283.44 301.616 283.142 301.933 282.757 302.183C282.383 302.433 281.897 302.558 281.301 302.558ZM281.72 301.116C282.248 301.116 282.657 300.943 282.945 300.597C283.243 300.251 283.43 299.824 283.507 299.314H281.936C281.446 299.314 281.095 299.406 280.883 299.588C280.672 299.761 280.566 299.977 280.566 300.237C280.566 300.516 280.672 300.732 280.883 300.886C281.095 301.039 281.374 301.116 281.72 301.116ZM290.112 302.558C289.478 302.558 288.92 302.457 288.44 302.255C287.959 302.044 287.575 301.755 287.286 301.39C286.998 301.025 286.825 300.602 286.767 300.122H288.627C288.685 300.4 288.839 300.641 289.088 300.842C289.348 301.035 289.679 301.131 290.083 301.131C290.487 301.131 290.78 301.049 290.963 300.886C291.155 300.722 291.251 300.535 291.251 300.323C291.251 300.016 291.116 299.809 290.847 299.704C290.578 299.588 290.203 299.478 289.723 299.372C289.415 299.305 289.103 299.223 288.786 299.127C288.468 299.031 288.175 298.911 287.906 298.767C287.647 298.613 287.435 298.421 287.272 298.19C287.109 297.95 287.027 297.656 287.027 297.31C287.027 296.676 287.277 296.143 287.777 295.71C288.286 295.278 288.997 295.062 289.91 295.062C290.756 295.062 291.429 295.259 291.928 295.653C292.438 296.047 292.741 296.59 292.837 297.282H291.092C290.987 296.753 290.588 296.489 289.896 296.489C289.55 296.489 289.281 296.556 289.088 296.691C288.906 296.825 288.814 296.993 288.814 297.195C288.814 297.407 288.954 297.575 289.233 297.7C289.511 297.825 289.881 297.94 290.343 298.046C290.842 298.161 291.299 298.291 291.712 298.435C292.135 298.569 292.471 298.776 292.721 299.055C292.971 299.324 293.096 299.713 293.096 300.223C293.106 300.665 292.99 301.064 292.75 301.419C292.51 301.775 292.164 302.053 291.712 302.255C291.26 302.457 290.727 302.558 290.112 302.558ZM297.692 302.385C296.942 302.385 296.341 302.202 295.89 301.837C295.438 301.472 295.212 300.823 295.212 299.891V296.777H293.987V295.235H295.212L295.428 293.317H297.057V295.235H298.989V296.777H297.057V299.905C297.057 300.251 297.129 300.492 297.273 300.626C297.427 300.751 297.687 300.814 298.052 300.814H298.946V302.385H297.692Z" fill="#040815" style="fill:#040815;fill:color(display-p3 0.0157 0.0314 0.0824);fill-opacity:1;"/>
</g>
<g opacity="0.6">
<rect x="173" y="192" width="260" height="59.7701" rx="29.8851" fill="#FD7228" style="fill:#FD7228;fill:color(display-p3 0.9922 0.4471 0.1569);fill-opacity:1;"/>
<circle cx="202.885" cy="221.885" r="23.908" fill="#040815" fill-opacity="0.05" style="fill:#040815;fill:color(display-p3 0.0157 0.0314 0.0824);fill-opacity:0.05;"/>
<circle cx="202.885" cy="221.885" r="23.1609" stroke="#040815" stroke-opacity="0.2" style="stroke:#040815;stroke:color(display-p3 0.0157 0.0314 0.0824);stroke-opacity:0.2;" stroke-width="1.49425" stroke-dasharray="2.99 2.99"/>
<path d="M239.727 226.385V216.294H243.461C244.269 216.294 244.936 216.428 245.465 216.697C245.994 216.966 246.388 217.336 246.647 217.807C246.907 218.278 247.036 218.807 247.036 219.393C247.036 219.951 246.912 220.465 246.662 220.936C246.412 221.397 246.023 221.772 245.494 222.06C244.965 222.339 244.288 222.478 243.461 222.478H241.573V226.385H239.727ZM241.573 220.979H243.346C243.99 220.979 244.451 220.84 244.73 220.561C245.018 220.272 245.162 219.883 245.162 219.393C245.162 218.893 245.018 218.504 244.73 218.225C244.451 217.937 243.99 217.793 243.346 217.793H241.573V220.979ZM248.441 226.385V219.235H250.084L250.257 220.575C250.517 220.114 250.868 219.749 251.31 219.48C251.761 219.201 252.29 219.062 252.896 219.062V221.008H252.377C251.973 221.008 251.613 221.07 251.295 221.195C250.978 221.32 250.728 221.536 250.546 221.844C250.373 222.151 250.286 222.579 250.286 223.127V226.385H248.441ZM257.461 226.558C256.769 226.558 256.144 226.399 255.587 226.082C255.039 225.765 254.602 225.328 254.275 224.77C253.958 224.203 253.799 223.55 253.799 222.81C253.799 222.07 253.963 221.421 254.29 220.864C254.616 220.297 255.054 219.854 255.601 219.537C256.159 219.22 256.784 219.062 257.476 219.062C258.158 219.062 258.773 219.22 259.321 219.537C259.878 219.854 260.316 220.297 260.633 220.864C260.959 221.421 261.123 222.07 261.123 222.81C261.123 223.55 260.959 224.203 260.633 224.77C260.316 225.328 259.878 225.765 259.321 226.082C258.763 226.399 258.144 226.558 257.461 226.558ZM257.461 224.958C257.942 224.958 258.36 224.78 258.715 224.424C259.071 224.059 259.249 223.521 259.249 222.81C259.249 222.099 259.071 221.565 258.715 221.21C258.36 220.844 257.946 220.662 257.476 220.662C256.985 220.662 256.563 220.844 256.207 221.21C255.861 221.565 255.688 222.099 255.688 222.81C255.688 223.521 255.861 224.059 256.207 224.424C256.563 224.78 256.981 224.958 257.461 224.958ZM262.773 229.557V219.235H264.416L264.618 220.258C264.849 219.941 265.151 219.662 265.526 219.422C265.911 219.182 266.406 219.062 267.011 219.062C267.684 219.062 268.285 219.225 268.813 219.552C269.342 219.878 269.76 220.325 270.067 220.892C270.375 221.459 270.529 222.103 270.529 222.824C270.529 223.545 270.375 224.189 270.067 224.756C269.76 225.313 269.342 225.755 268.813 226.082C268.285 226.399 267.684 226.558 267.011 226.558C266.473 226.558 266.002 226.457 265.598 226.255C265.195 226.053 264.868 225.77 264.618 225.405V229.557H262.773ZM266.622 224.943C267.208 224.943 267.694 224.746 268.078 224.352C268.462 223.958 268.655 223.449 268.655 222.824C268.655 222.199 268.462 221.685 268.078 221.282C267.694 220.878 267.208 220.676 266.622 220.676C266.026 220.676 265.536 220.878 265.151 221.282C264.777 221.676 264.589 222.185 264.589 222.81C264.589 223.434 264.777 223.949 265.151 224.352C265.536 224.746 266.026 224.943 266.622 224.943ZM275.608 226.558C274.916 226.558 274.292 226.399 273.734 226.082C273.186 225.765 272.749 225.328 272.422 224.77C272.105 224.203 271.946 223.55 271.946 222.81C271.946 222.07 272.11 221.421 272.437 220.864C272.763 220.297 273.201 219.854 273.749 219.537C274.306 219.22 274.931 219.062 275.623 219.062C276.305 219.062 276.92 219.22 277.468 219.537C278.025 219.854 278.463 220.297 278.78 220.864C279.107 221.421 279.27 222.07 279.27 222.81C279.27 223.55 279.107 224.203 278.78 224.77C278.463 225.328 278.025 225.765 277.468 226.082C276.911 226.399 276.291 226.558 275.608 226.558ZM275.608 224.958C276.089 224.958 276.507 224.78 276.862 224.424C277.218 224.059 277.396 223.521 277.396 222.81C277.396 222.099 277.218 221.565 276.862 221.21C276.507 220.844 276.094 220.662 275.623 220.662C275.132 220.662 274.71 220.844 274.354 221.21C274.008 221.565 273.835 222.099 273.835 222.81C273.835 223.521 274.008 224.059 274.354 224.424C274.71 224.78 275.128 224.958 275.608 224.958ZM283.875 226.558C283.241 226.558 282.683 226.457 282.203 226.255C281.722 226.044 281.338 225.755 281.05 225.39C280.761 225.025 280.588 224.602 280.531 224.122H282.39C282.448 224.4 282.602 224.641 282.852 224.842C283.111 225.035 283.443 225.131 283.846 225.131C284.25 225.131 284.543 225.049 284.726 224.886C284.918 224.722 285.014 224.535 285.014 224.323C285.014 224.016 284.88 223.809 284.61 223.704C284.341 223.588 283.967 223.478 283.486 223.372C283.178 223.305 282.866 223.223 282.549 223.127C282.232 223.031 281.939 222.911 281.67 222.767C281.41 222.613 281.199 222.421 281.035 222.19C280.872 221.95 280.79 221.656 280.79 221.31C280.79 220.676 281.04 220.143 281.54 219.71C282.049 219.278 282.76 219.062 283.673 219.062C284.519 219.062 285.192 219.259 285.692 219.653C286.201 220.047 286.504 220.59 286.6 221.282H284.856C284.75 220.753 284.351 220.489 283.659 220.489C283.313 220.489 283.044 220.556 282.852 220.691C282.669 220.825 282.578 220.993 282.578 221.195C282.578 221.407 282.717 221.575 282.996 221.7C283.275 221.825 283.645 221.94 284.106 222.046C284.606 222.161 285.062 222.291 285.475 222.435C285.898 222.569 286.235 222.776 286.485 223.055C286.734 223.324 286.859 223.713 286.859 224.223C286.869 224.665 286.754 225.064 286.513 225.419C286.273 225.775 285.927 226.053 285.475 226.255C285.024 226.457 284.49 226.558 283.875 226.558ZM290.959 226.558C290.344 226.558 289.84 226.462 289.446 226.27C289.051 226.068 288.758 225.804 288.566 225.477C288.374 225.15 288.278 224.79 288.278 224.396C288.278 223.732 288.537 223.194 289.056 222.781C289.575 222.368 290.354 222.161 291.392 222.161H293.208V221.988C293.208 221.498 293.069 221.137 292.79 220.907C292.511 220.676 292.165 220.561 291.752 220.561C291.377 220.561 291.051 220.652 290.772 220.835C290.493 221.008 290.32 221.267 290.253 221.613H288.451C288.499 221.094 288.672 220.643 288.97 220.258C289.277 219.874 289.671 219.581 290.152 219.379C290.632 219.167 291.171 219.062 291.767 219.062C292.785 219.062 293.588 219.316 294.174 219.826C294.76 220.335 295.053 221.056 295.053 221.988V226.385H293.482L293.309 225.232C293.098 225.616 292.8 225.933 292.415 226.183C292.04 226.433 291.555 226.558 290.959 226.558ZM291.377 225.116C291.906 225.116 292.314 224.943 292.603 224.597C292.901 224.251 293.088 223.824 293.165 223.314H291.594C291.103 223.314 290.753 223.406 290.541 223.588C290.33 223.761 290.224 223.977 290.224 224.237C290.224 224.516 290.33 224.732 290.541 224.886C290.753 225.039 291.031 225.116 291.377 225.116ZM296.814 226.385V216.005H298.66V226.385H296.814Z" fill="#040815" style="fill:#040815;fill:color(display-p3 0.0157 0.0314 0.0824);fill-opacity:1;"/>
</g>
<g opacity="0.4">
<rect x="173" y="116" width="260" height="59.7701" rx="29.8851" fill="#FD7228" style="fill:#FD7228;fill:color(display-p3 0.9922 0.4471 0.1569);fill-opacity:1;"/>
<circle cx="202.885" cy="145.885" r="23.908" fill="#040815" fill-opacity="0.05" style="fill:#040815;fill:color(display-p3 0.0157 0.0314 0.0824);fill-opacity:0.05;"/>
<circle cx="202.885" cy="145.885" r="23.1609" stroke="#040815" stroke-opacity="0.2" style="stroke:#040815;stroke:color(display-p3 0.0157 0.0314 0.0824);stroke-opacity:0.2;" stroke-width="1.49425" stroke-dasharray="2.99 2.99"/>
<path d="M239.727 150.385V140.294H243.778C244.826 140.294 245.624 140.539 246.171 141.029C246.729 141.509 247.008 142.129 247.008 142.889C247.008 143.523 246.835 144.032 246.489 144.417C246.152 144.791 245.739 145.046 245.249 145.181C245.825 145.296 246.301 145.584 246.676 146.046C247.051 146.497 247.238 147.026 247.238 147.631C247.238 148.429 246.95 149.088 246.373 149.607C245.797 150.126 244.98 150.385 243.923 150.385H239.727ZM241.573 144.532H243.504C244.023 144.532 244.422 144.412 244.701 144.172C244.98 143.931 245.119 143.59 245.119 143.148C245.119 142.725 244.98 142.394 244.701 142.153C244.432 141.903 244.023 141.778 243.476 141.778H241.573V144.532ZM241.573 148.886H243.634C244.182 148.886 244.605 148.761 244.903 148.511C245.21 148.251 245.364 147.891 245.364 147.43C245.364 146.959 245.206 146.589 244.888 146.32C244.571 146.051 244.144 145.916 243.605 145.916H241.573V148.886ZM251.46 150.558C250.566 150.558 249.874 150.279 249.384 149.722C248.904 149.164 248.663 148.348 248.663 147.271V143.235H250.494V147.098C250.494 147.713 250.619 148.184 250.869 148.511C251.119 148.838 251.513 149.001 252.051 149.001C252.561 149.001 252.979 148.818 253.306 148.453C253.642 148.088 253.81 147.579 253.81 146.925V143.235H255.655V150.385H254.026L253.882 149.174C253.661 149.597 253.339 149.933 252.916 150.183C252.503 150.433 252.018 150.558 251.46 150.558ZM260.505 150.558C259.871 150.558 259.313 150.457 258.833 150.255C258.352 150.044 257.968 149.755 257.679 149.39C257.391 149.025 257.218 148.602 257.16 148.122H259.02C259.078 148.4 259.232 148.641 259.481 148.842C259.741 149.035 260.073 149.131 260.476 149.131C260.88 149.131 261.173 149.049 261.356 148.886C261.548 148.722 261.644 148.535 261.644 148.323C261.644 148.016 261.509 147.809 261.24 147.704C260.971 147.588 260.596 147.478 260.116 147.372C259.808 147.305 259.496 147.223 259.179 147.127C258.862 147.031 258.568 146.911 258.299 146.767C258.04 146.613 257.828 146.421 257.665 146.19C257.502 145.95 257.42 145.656 257.42 145.31C257.42 144.676 257.67 144.143 258.17 143.71C258.679 143.278 259.39 143.062 260.303 143.062C261.149 143.062 261.822 143.259 262.321 143.653C262.831 144.047 263.134 144.59 263.23 145.282H261.485C261.38 144.753 260.981 144.489 260.289 144.489C259.943 144.489 259.674 144.556 259.481 144.691C259.299 144.825 259.208 144.993 259.208 145.195C259.208 145.407 259.347 145.575 259.626 145.7C259.904 145.825 260.274 145.94 260.736 146.046C261.235 146.161 261.692 146.291 262.105 146.435C262.528 146.569 262.864 146.776 263.114 147.055C263.364 147.324 263.489 147.713 263.489 148.223C263.499 148.665 263.383 149.064 263.143 149.419C262.903 149.775 262.557 150.053 262.105 150.255C261.654 150.457 261.12 150.558 260.505 150.558ZM266.119 142.124C265.782 142.124 265.503 142.024 265.282 141.822C265.071 141.62 264.965 141.365 264.965 141.058C264.965 140.75 265.071 140.5 265.282 140.308C265.503 140.106 265.782 140.005 266.119 140.005C266.455 140.005 266.729 140.106 266.94 140.308C267.161 140.5 267.272 140.75 267.272 141.058C267.272 141.365 267.161 141.62 266.94 141.822C266.729 142.024 266.455 142.124 266.119 142.124ZM265.196 150.385V143.235H267.041V150.385H265.196ZM268.967 150.385V143.235H270.596L270.74 144.445C270.962 144.023 271.279 143.686 271.692 143.436C272.115 143.186 272.61 143.062 273.177 143.062C274.061 143.062 274.748 143.34 275.238 143.898C275.729 144.455 275.974 145.272 275.974 146.348V150.385H274.128V146.521C274.128 145.906 274.003 145.435 273.753 145.109C273.504 144.782 273.114 144.618 272.586 144.618C272.067 144.618 271.639 144.801 271.303 145.166C270.976 145.532 270.813 146.041 270.813 146.694V150.385H268.967ZM281.212 150.558C280.492 150.558 279.853 150.404 279.295 150.097C278.738 149.789 278.3 149.357 277.983 148.799C277.666 148.242 277.507 147.598 277.507 146.867C277.507 146.127 277.661 145.469 277.969 144.892C278.286 144.316 278.718 143.869 279.266 143.552C279.824 143.225 280.477 143.062 281.227 143.062C281.928 143.062 282.548 143.215 283.087 143.523C283.625 143.83 284.043 144.253 284.341 144.791C284.648 145.32 284.802 145.911 284.802 146.565C284.802 146.67 284.797 146.781 284.788 146.896C284.788 147.012 284.783 147.132 284.773 147.257H279.338C279.377 147.814 279.569 148.251 279.915 148.569C280.271 148.886 280.698 149.044 281.198 149.044C281.573 149.044 281.885 148.963 282.135 148.799C282.395 148.626 282.587 148.405 282.712 148.136H284.586C284.451 148.588 284.225 149.001 283.908 149.376C283.601 149.741 283.216 150.029 282.755 150.241C282.303 150.452 281.789 150.558 281.212 150.558ZM281.227 144.561C280.775 144.561 280.376 144.691 280.03 144.95C279.684 145.2 279.463 145.584 279.367 146.103H282.928C282.899 145.632 282.726 145.258 282.409 144.979C282.092 144.7 281.698 144.561 281.227 144.561ZM289.309 150.558C288.675 150.558 288.118 150.457 287.637 150.255C287.157 150.044 286.772 149.755 286.484 149.39C286.196 149.025 286.023 148.602 285.965 148.122H287.825C287.882 148.4 288.036 148.641 288.286 148.842C288.545 149.035 288.877 149.131 289.281 149.131C289.684 149.131 289.977 149.049 290.16 148.886C290.352 148.722 290.448 148.535 290.448 148.323C290.448 148.016 290.314 147.809 290.045 147.704C289.776 147.588 289.401 147.478 288.92 147.372C288.613 147.305 288.3 147.223 287.983 147.127C287.666 147.031 287.373 146.911 287.104 146.767C286.844 146.613 286.633 146.421 286.469 146.19C286.306 145.95 286.224 145.656 286.224 145.31C286.224 144.676 286.474 144.143 286.974 143.71C287.483 143.278 288.195 143.062 289.108 143.062C289.953 143.062 290.626 143.259 291.126 143.653C291.635 144.047 291.938 144.59 292.034 145.282H290.29C290.184 144.753 289.785 144.489 289.093 144.489C288.747 144.489 288.478 144.556 288.286 144.691C288.103 144.825 288.012 144.993 288.012 145.195C288.012 145.407 288.151 145.575 288.43 145.7C288.709 145.825 289.079 145.94 289.54 146.046C290.04 146.161 290.496 146.291 290.91 146.435C291.333 146.569 291.669 146.776 291.919 147.055C292.169 147.324 292.294 147.713 292.294 148.223C292.303 148.665 292.188 149.064 291.948 149.419C291.707 149.775 291.361 150.053 290.91 150.255C290.458 150.457 289.925 150.558 289.309 150.558ZM296.884 150.558C296.249 150.558 295.692 150.457 295.211 150.255C294.731 150.044 294.346 149.755 294.058 149.39C293.77 149.025 293.597 148.602 293.539 148.122H295.399C295.456 148.4 295.61 148.641 295.86 148.842C296.12 149.035 296.451 149.131 296.855 149.131C297.258 149.131 297.552 149.049 297.734 148.886C297.926 148.722 298.023 148.535 298.023 148.323C298.023 148.016 297.888 147.809 297.619 147.704C297.35 147.588 296.975 147.478 296.494 147.372C296.187 147.305 295.875 147.223 295.557 147.127C295.24 147.031 294.947 146.911 294.678 146.767C294.418 146.613 294.207 146.421 294.044 146.19C293.88 145.95 293.799 145.656 293.799 145.31C293.799 144.676 294.048 144.143 294.548 143.71C295.058 143.278 295.769 143.062 296.682 143.062C297.528 143.062 298.2 143.259 298.7 143.653C299.21 144.047 299.512 144.59 299.608 145.282H297.864C297.758 144.753 297.359 144.489 296.667 144.489C296.321 144.489 296.052 144.556 295.86 144.691C295.678 144.825 295.586 144.993 295.586 145.195C295.586 145.407 295.726 145.575 296.004 145.7C296.283 145.825 296.653 145.94 297.114 146.046C297.614 146.161 298.071 146.291 298.484 146.435C298.907 146.569 299.243 146.776 299.493 147.055C299.743 147.324 299.868 147.713 299.868 148.223C299.877 148.665 299.762 149.064 299.522 149.419C299.282 149.775 298.936 150.053 298.484 150.255C298.032 150.457 297.499 150.558 296.884 150.558ZM308.441 150.558C307.71 150.558 307.066 150.399 306.509 150.082C305.952 149.765 305.51 149.323 305.183 148.756C304.866 148.189 304.707 147.54 304.707 146.81C304.707 146.079 304.866 145.431 305.183 144.864C305.51 144.297 305.952 143.854 306.509 143.537C307.066 143.22 307.71 143.062 308.441 143.062C309.354 143.062 310.123 143.302 310.747 143.782C311.372 144.253 311.771 144.907 311.944 145.743H309.998C309.902 145.397 309.709 145.128 309.421 144.936C309.142 144.734 308.811 144.633 308.426 144.633C307.917 144.633 307.485 144.825 307.129 145.21C306.773 145.594 306.596 146.127 306.596 146.81C306.596 147.492 306.773 148.026 307.129 148.41C307.485 148.794 307.917 148.987 308.426 148.987C308.811 148.987 309.142 148.891 309.421 148.698C309.709 148.506 309.902 148.232 309.998 147.877H311.944C311.771 148.684 311.372 149.333 310.747 149.823C310.123 150.313 309.354 150.558 308.441 150.558ZM316.047 150.558C315.432 150.558 314.927 150.462 314.533 150.27C314.139 150.068 313.846 149.804 313.654 149.477C313.462 149.15 313.366 148.79 313.366 148.396C313.366 147.732 313.625 147.194 314.144 146.781C314.663 146.368 315.442 146.161 316.479 146.161H318.296V145.988C318.296 145.498 318.157 145.137 317.878 144.907C317.599 144.676 317.253 144.561 316.84 144.561C316.465 144.561 316.138 144.652 315.86 144.835C315.581 145.008 315.408 145.267 315.341 145.613H313.539C313.587 145.094 313.76 144.643 314.058 144.258C314.365 143.874 314.759 143.581 315.24 143.379C315.72 143.167 316.258 143.062 316.854 143.062C317.873 143.062 318.676 143.316 319.262 143.826C319.848 144.335 320.141 145.056 320.141 145.988V150.385H318.57L318.397 149.232C318.185 149.616 317.887 149.933 317.503 150.183C317.128 150.433 316.643 150.558 316.047 150.558ZM316.465 149.116C316.994 149.116 317.402 148.943 317.69 148.597C317.988 148.251 318.176 147.824 318.253 147.314H316.681C316.191 147.314 315.84 147.406 315.629 147.588C315.417 147.761 315.312 147.977 315.312 148.237C315.312 148.516 315.417 148.732 315.629 148.886C315.84 149.039 316.119 149.116 316.465 149.116ZM324.858 150.558C324.223 150.558 323.666 150.457 323.185 150.255C322.705 150.044 322.32 149.755 322.032 149.39C321.744 149.025 321.571 148.602 321.513 148.122H323.373C323.43 148.4 323.584 148.641 323.834 148.842C324.093 149.035 324.425 149.131 324.829 149.131C325.232 149.131 325.525 149.049 325.708 148.886C325.9 148.722 325.996 148.535 325.996 148.323C325.996 148.016 325.862 147.809 325.593 147.704C325.324 147.588 324.949 147.478 324.468 147.372C324.161 147.305 323.848 147.223 323.531 147.127C323.214 147.031 322.921 146.911 322.652 146.767C322.392 146.613 322.181 146.421 322.018 146.19C321.854 145.95 321.772 145.656 321.772 145.31C321.772 144.676 322.022 144.143 322.522 143.71C323.031 143.278 323.743 143.062 324.656 143.062C325.501 143.062 326.174 143.259 326.674 143.653C327.183 144.047 327.486 144.59 327.582 145.282H325.838C325.732 144.753 325.333 144.489 324.641 144.489C324.295 144.489 324.026 144.556 323.834 144.691C323.651 144.825 323.56 144.993 323.56 145.195C323.56 145.407 323.699 145.575 323.978 145.7C324.257 145.825 324.627 145.94 325.088 146.046C325.588 146.161 326.044 146.291 326.458 146.435C326.881 146.569 327.217 146.776 327.467 147.055C327.717 147.324 327.842 147.713 327.842 148.223C327.851 148.665 327.736 149.064 327.496 149.419C327.255 149.775 326.909 150.053 326.458 150.255C326.006 150.457 325.473 150.558 324.858 150.558ZM332.951 150.558C332.23 150.558 331.591 150.404 331.033 150.097C330.476 149.789 330.039 149.357 329.721 148.799C329.404 148.242 329.246 147.598 329.246 146.867C329.246 146.127 329.399 145.469 329.707 144.892C330.024 144.316 330.457 143.869 331.004 143.552C331.562 143.225 332.215 143.062 332.965 143.062C333.667 143.062 334.287 143.215 334.825 143.523C335.363 143.83 335.781 144.253 336.079 144.791C336.387 145.32 336.54 145.911 336.54 146.565C336.54 146.67 336.536 146.781 336.526 146.896C336.526 147.012 336.521 147.132 336.512 147.257H331.077C331.115 147.814 331.307 148.251 331.653 148.569C332.009 148.886 332.437 149.044 332.936 149.044C333.311 149.044 333.623 148.963 333.873 148.799C334.133 148.626 334.325 148.405 334.45 148.136H336.324C336.19 148.588 335.964 149.001 335.647 149.376C335.339 149.741 334.955 150.029 334.493 150.241C334.042 150.452 333.527 150.558 332.951 150.558ZM332.965 144.561C332.513 144.561 332.115 144.691 331.769 144.95C331.423 145.2 331.202 145.584 331.105 146.103H334.666C334.637 145.632 334.464 145.258 334.147 144.979C333.83 144.7 333.436 144.561 332.965 144.561Z" fill="#040815" style="fill:#040815;fill:color(display-p3 0.0157 0.0314 0.0824);fill-opacity:1;"/>
</g>
<rect x="173" y="344" width="260" height="59.7701" rx="29.8851" fill="#FD7228" style="fill:#FD7228;fill:color(display-p3 0.9922 0.4471 0.1569);fill-opacity:1;"/>
<circle cx="202.885" cy="373.885" r="23.908" fill="#FD7228" style="fill:#FD7228;fill:color(display-p3 0.9922 0.4471 0.1569);fill-opacity:1;"/>
<circle cx="202.885" cy="373.885" r="23.908" fill="white" fill-opacity="0.4" style="fill:white;fill-opacity:0.4;"/>
<mask id="mask0_532_1997" style="mask-type:alpha" maskUnits="userSpaceOnUse" x="190" y="361" width="25" height="25">
<rect x="190.931" y="361.931" width="23.908" height="23.908" fill="#D9D9D9" style="fill:#D9D9D9;fill:color(display-p3 0.8510 0.8510 0.8510);fill-opacity:1;"/>
</mask>
<g mask="url(#mask0_532_1997)">
<path d="M200.444 379.862L194.766 374.184L196.186 372.764L200.444 377.023L209.584 367.883L211.004 369.303L200.444 379.862Z" fill="#040815" style="fill:#040815;fill:color(display-p3 0.0157 0.0314 0.0824);fill-opacity:1;"/>
</g>
<path d="M241.075 378.385L244.765 368.294H246.841L250.532 378.385H248.571L247.764 376.05H243.828L243.007 378.385H241.075ZM244.333 374.608H247.259L245.789 370.413L244.333 374.608ZM254.954 378.558C254.223 378.558 253.579 378.399 253.022 378.082C252.465 377.765 252.023 377.323 251.696 376.756C251.379 376.189 251.22 375.54 251.22 374.81C251.22 374.079 251.379 373.431 251.696 372.864C252.023 372.297 252.465 371.854 253.022 371.537C253.579 371.22 254.223 371.062 254.954 371.062C255.867 371.062 256.636 371.302 257.26 371.782C257.885 372.253 258.284 372.907 258.457 373.743H256.511C256.415 373.397 256.222 373.128 255.934 372.936C255.655 372.734 255.324 372.633 254.939 372.633C254.43 372.633 253.998 372.825 253.642 373.21C253.286 373.594 253.109 374.127 253.109 374.81C253.109 375.492 253.286 376.026 253.642 376.41C253.998 376.794 254.43 376.987 254.939 376.987C255.324 376.987 255.655 376.891 255.934 376.698C256.222 376.506 256.415 376.232 256.511 375.877H258.457C258.284 376.684 257.885 377.333 257.26 377.823C256.636 378.313 255.867 378.558 254.954 378.558ZM263.182 378.385C262.433 378.385 261.832 378.202 261.38 377.837C260.929 377.472 260.703 376.823 260.703 375.891V372.777H259.477V371.235H260.703L260.919 369.317H262.548V371.235H264.48V372.777H262.548V375.905C262.548 376.251 262.62 376.492 262.764 376.626C262.918 376.751 263.177 376.814 263.543 376.814H264.436V378.385H263.182ZM268.746 378.558C267.852 378.558 267.16 378.279 266.67 377.722C266.189 377.164 265.949 376.348 265.949 375.271V371.235H267.78V375.098C267.78 375.713 267.905 376.184 268.154 376.511C268.404 376.838 268.798 377.001 269.337 377.001C269.846 377.001 270.264 376.818 270.591 376.453C270.927 376.088 271.095 375.579 271.095 374.925V371.235H272.941V378.385H271.312L271.167 377.174C270.946 377.597 270.624 377.933 270.202 378.183C269.788 378.433 269.303 378.558 268.746 378.558ZM277.3 378.558C276.685 378.558 276.18 378.462 275.786 378.27C275.392 378.068 275.099 377.804 274.907 377.477C274.715 377.15 274.619 376.79 274.619 376.396C274.619 375.732 274.878 375.194 275.397 374.781C275.916 374.368 276.695 374.161 277.733 374.161H279.549V373.988C279.549 373.498 279.41 373.138 279.131 372.907C278.852 372.676 278.506 372.561 278.093 372.561C277.718 372.561 277.391 372.652 277.113 372.835C276.834 373.008 276.661 373.267 276.594 373.613H274.792C274.84 373.094 275.013 372.643 275.311 372.258C275.618 371.874 276.012 371.581 276.493 371.379C276.973 371.167 277.512 371.062 278.107 371.062C279.126 371.062 279.929 371.316 280.515 371.826C281.101 372.335 281.394 373.056 281.394 373.988V378.385H279.823L279.65 377.232C279.439 377.616 279.141 377.933 278.756 378.183C278.381 378.433 277.896 378.558 277.3 378.558ZM277.718 377.116C278.247 377.116 278.655 376.943 278.944 376.597C279.242 376.251 279.429 375.824 279.506 375.314H277.934C277.444 375.314 277.093 375.406 276.882 375.588C276.671 375.761 276.565 375.978 276.565 376.237C276.565 376.516 276.671 376.732 276.882 376.886C277.093 377.04 277.372 377.116 277.718 377.116ZM283.155 378.385V368.005H285.001V378.385H283.155ZM290.321 381.557V371.235H291.965L292.166 372.258C292.397 371.941 292.7 371.662 293.075 371.422C293.459 371.182 293.954 371.062 294.56 371.062C295.232 371.062 295.833 371.225 296.362 371.552C296.89 371.879 297.308 372.325 297.616 372.892C297.923 373.459 298.077 374.103 298.077 374.824C298.077 375.545 297.923 376.189 297.616 376.756C297.308 377.313 296.89 377.756 296.362 378.082C295.833 378.399 295.232 378.558 294.56 378.558C294.021 378.558 293.55 378.457 293.147 378.255C292.743 378.053 292.416 377.77 292.166 377.405V381.557H290.321ZM294.17 376.943C294.757 376.943 295.242 376.746 295.626 376.352C296.011 375.958 296.203 375.449 296.203 374.824C296.203 374.2 296.011 373.685 295.626 373.282C295.242 372.878 294.757 372.676 294.17 372.676C293.574 372.676 293.084 372.878 292.7 373.282C292.325 373.676 292.138 374.185 292.138 374.81C292.138 375.435 292.325 375.949 292.7 376.352C293.084 376.746 293.574 376.943 294.17 376.943ZM303.2 378.558C302.479 378.558 301.84 378.404 301.283 378.097C300.725 377.789 300.288 377.357 299.971 376.799C299.654 376.242 299.495 375.598 299.495 374.867C299.495 374.127 299.649 373.469 299.956 372.892C300.273 372.316 300.706 371.869 301.254 371.552C301.811 371.225 302.465 371.062 303.214 371.062C303.916 371.062 304.536 371.215 305.074 371.523C305.612 371.83 306.03 372.253 306.328 372.792C306.636 373.32 306.79 373.911 306.79 374.565C306.79 374.67 306.785 374.781 306.775 374.896C306.775 375.012 306.77 375.132 306.761 375.257H301.326C301.364 375.814 301.556 376.251 301.902 376.569C302.258 376.886 302.686 377.044 303.186 377.044C303.56 377.044 303.873 376.963 304.123 376.799C304.382 376.626 304.574 376.405 304.699 376.136H306.573C306.439 376.588 306.213 377.001 305.896 377.376C305.588 377.741 305.204 378.029 304.742 378.241C304.291 378.452 303.777 378.558 303.2 378.558ZM303.214 372.561C302.763 372.561 302.364 372.691 302.018 372.95C301.672 373.2 301.451 373.584 301.355 374.103H304.915C304.887 373.632 304.714 373.258 304.396 372.979C304.079 372.7 303.685 372.561 303.214 372.561ZM308.342 378.385V371.235H309.985L310.158 372.575C310.418 372.114 310.768 371.749 311.21 371.48C311.662 371.201 312.191 371.062 312.796 371.062V373.008H312.277C311.874 373.008 311.513 373.07 311.196 373.195C310.879 373.32 310.629 373.536 310.446 373.844C310.273 374.151 310.187 374.579 310.187 375.127V378.385H308.342ZM314.389 378.385V372.777H313.409V371.235H314.389V370.398C314.389 369.533 314.605 368.918 315.038 368.553C315.48 368.188 316.076 368.005 316.825 368.005H317.618V369.577H317.114C316.797 369.577 316.571 369.639 316.436 369.764C316.302 369.889 316.234 370.1 316.234 370.398V371.235H317.777V372.777H316.234V378.385H314.389ZM322.388 378.558C321.696 378.558 321.071 378.399 320.514 378.082C319.966 377.765 319.529 377.328 319.202 376.77C318.885 376.203 318.726 375.55 318.726 374.81C318.726 374.07 318.889 373.421 319.216 372.864C319.543 372.297 319.98 371.854 320.528 371.537C321.086 371.22 321.71 371.062 322.402 371.062C323.085 371.062 323.7 371.22 324.248 371.537C324.805 371.854 325.242 372.297 325.559 372.864C325.886 373.421 326.05 374.07 326.05 374.81C326.05 375.55 325.886 376.203 325.559 376.77C325.242 377.328 324.805 377.765 324.248 378.082C323.69 378.399 323.07 378.558 322.388 378.558ZM322.388 376.958C322.868 376.958 323.286 376.78 323.642 376.424C323.998 376.059 324.175 375.521 324.175 374.81C324.175 374.099 323.998 373.565 323.642 373.21C323.286 372.844 322.873 372.662 322.402 372.662C321.912 372.662 321.489 372.844 321.134 373.21C320.788 373.565 320.615 374.099 320.615 374.81C320.615 375.521 320.788 376.059 321.134 376.424C321.489 376.78 321.907 376.958 322.388 376.958ZM327.699 378.385V371.235H329.343L329.516 372.575C329.775 372.114 330.126 371.749 330.568 371.48C331.02 371.201 331.549 371.062 332.154 371.062V373.008H331.635C331.231 373.008 330.871 373.07 330.554 373.195C330.237 373.32 329.987 373.536 329.804 373.844C329.631 374.151 329.545 374.579 329.545 375.127V378.385H327.699ZM333.415 378.385V371.235H335.044L335.203 372.2C335.434 371.854 335.736 371.581 336.111 371.379C336.496 371.167 336.938 371.062 337.437 371.062C338.543 371.062 339.326 371.489 339.787 372.345C340.047 371.951 340.393 371.638 340.825 371.408C341.267 371.177 341.748 371.062 342.267 371.062C343.199 371.062 343.915 371.34 344.415 371.898C344.915 372.455 345.165 373.272 345.165 374.349V378.385H343.319V374.521C343.319 373.906 343.199 373.435 342.959 373.109C342.728 372.782 342.368 372.619 341.878 372.619C341.378 372.619 340.974 372.801 340.667 373.166C340.369 373.532 340.22 374.041 340.22 374.694V378.385H338.374V374.521C338.374 373.906 338.254 373.435 338.014 373.109C337.774 372.782 337.404 372.619 336.904 372.619C336.414 372.619 336.015 372.801 335.707 373.166C335.41 373.532 335.261 374.041 335.261 374.694V378.385H333.415ZM349.382 378.558C348.767 378.558 348.262 378.462 347.868 378.27C347.474 378.068 347.181 377.804 346.989 377.477C346.796 377.15 346.7 376.79 346.7 376.396C346.7 375.732 346.96 375.194 347.479 374.781C347.998 374.368 348.776 374.161 349.814 374.161H351.631V373.988C351.631 373.498 351.491 373.138 351.213 372.907C350.934 372.676 350.588 372.561 350.175 372.561C349.8 372.561 349.473 372.652 349.194 372.835C348.916 373.008 348.743 373.267 348.675 373.613H346.873C346.921 373.094 347.094 372.643 347.392 372.258C347.7 371.874 348.094 371.581 348.574 371.379C349.055 371.167 349.593 371.062 350.189 371.062C351.208 371.062 352.01 371.316 352.597 371.826C353.183 372.335 353.476 373.056 353.476 373.988V378.385H351.905L351.732 377.232C351.52 377.616 351.222 377.933 350.838 378.183C350.463 378.433 349.978 378.558 349.382 378.558ZM349.8 377.116C350.328 377.116 350.737 376.943 351.025 376.597C351.323 376.251 351.51 375.824 351.587 375.314H350.016C349.526 375.314 349.175 375.406 348.964 375.588C348.752 375.761 348.646 375.978 348.646 376.237C348.646 376.516 348.752 376.732 348.964 376.886C349.175 377.04 349.454 377.116 349.8 377.116ZM355.237 378.385V371.235H356.866L357.01 372.446C357.231 372.023 357.548 371.686 357.962 371.436C358.384 371.187 358.879 371.062 359.446 371.062C360.331 371.062 361.018 371.34 361.508 371.898C361.998 372.455 362.243 373.272 362.243 374.349V378.385H360.398V374.521C360.398 373.906 360.273 373.435 360.023 373.109C359.773 372.782 359.384 372.619 358.855 372.619C358.336 372.619 357.909 372.801 357.572 373.166C357.246 373.532 357.082 374.041 357.082 374.694V378.385H355.237ZM367.511 378.558C366.78 378.558 366.137 378.399 365.579 378.082C365.022 377.765 364.58 377.323 364.253 376.756C363.936 376.189 363.777 375.54 363.777 374.81C363.777 374.079 363.936 373.431 364.253 372.864C364.58 372.297 365.022 371.854 365.579 371.537C366.137 371.22 366.78 371.062 367.511 371.062C368.424 371.062 369.193 371.302 369.817 371.782C370.442 372.253 370.841 372.907 371.014 373.743H369.068C368.972 373.397 368.78 373.128 368.491 372.936C368.212 372.734 367.881 372.633 367.496 372.633C366.987 372.633 366.555 372.825 366.199 373.21C365.843 373.594 365.666 374.127 365.666 374.81C365.666 375.492 365.843 376.026 366.199 376.41C366.555 376.794 366.987 376.987 367.496 376.987C367.881 376.987 368.212 376.891 368.491 376.698C368.78 376.506 368.972 376.232 369.068 375.877H371.014C370.841 376.684 370.442 377.333 369.817 377.823C369.193 378.313 368.424 378.558 367.511 378.558ZM376.126 378.558C375.405 378.558 374.766 378.404 374.209 378.097C373.651 377.789 373.214 377.357 372.897 376.799C372.58 376.242 372.421 375.598 372.421 374.867C372.421 374.127 372.575 373.469 372.883 372.892C373.2 372.316 373.632 371.869 374.18 371.552C374.737 371.225 375.391 371.062 376.141 371.062C376.842 371.062 377.462 371.215 378 371.523C378.539 371.83 378.957 372.253 379.255 372.792C379.562 373.32 379.716 373.911 379.716 374.565C379.716 374.67 379.711 374.781 379.701 374.896C379.701 375.012 379.697 375.132 379.687 375.257H374.252C374.291 375.814 374.483 376.251 374.829 376.569C375.184 376.886 375.612 377.044 376.112 377.044C376.487 377.044 376.799 376.963 377.049 376.799C377.308 376.626 377.501 376.405 377.626 376.136H379.5C379.365 376.588 379.139 377.001 378.822 377.376C378.515 377.741 378.13 378.029 377.669 378.241C377.217 378.452 376.703 378.558 376.126 378.558ZM376.141 372.561C375.689 372.561 375.29 372.691 374.944 372.95C374.598 373.2 374.377 373.584 374.281 374.103H377.842C377.813 373.632 377.64 373.258 377.323 372.979C377.006 372.7 376.612 372.561 376.141 372.561Z" fill="#040815" style="fill:#040815;fill:color(display-p3 0.0157 0.0314 0.0824);fill-opacity:1;"/>
<mask id="mask1_532_1997" style="mask-type:alpha" maskUnits="userSpaceOnUse" x="394" y="364" width="19" height="19">
<rect x="394.693" y="364.92" width="17.931" height="17.931" fill="#D9D9D9" style="fill:#D9D9D9;fill:color(display-p3 0.8510 0.8510 0.8510);fill-opacity:1;"/>
</mask>
<g mask="url(#mask1_532_1997)">
<path d="M408.982 371.513L406.012 368.562L407.002 367.572C407.271 367.304 407.601 367.17 407.993 367.17C408.385 367.17 408.715 367.305 408.983 367.575L409.962 368.559C410.23 368.829 410.367 369.155 410.374 369.538C410.38 369.921 410.249 370.246 409.98 370.515L408.982 371.513ZM407.983 372.522L400.11 380.394H397.14V377.425L405.013 369.552L407.983 372.522Z" fill="#040815" style="fill:#040815;fill:color(display-p3 0.0157 0.0314 0.0824);fill-opacity:1;"/>
</g>
</svg>
