<svg width="606" height="520" viewBox="0 0 606 520" fill="none" xmlns="http://www.w3.org/2000/svg">
<rect x="60" y="60" width="486" height="400" rx="32" fill="#F5F8FF" style="fill:#F5F8FF;fill:color(display-p3 0.9608 0.9725 1.0000);fill-opacity:1;"/>
<path d="M433 260.4C433 229.813 422.082 200.228 402.208 176.96C382.334 153.693 354.806 138.268 324.571 133.456L319.511 165.192C342.188 168.801 362.833 180.37 377.739 197.82C392.644 215.271 400.833 237.46 400.833 260.4H433Z" fill="#FD7228" style="fill:#FD7228;fill:color(display-p3 0.9922 0.4471 0.1569);fill-opacity:1;"/>
<path d="M324.571 133.457C301.797 129.833 278.467 132.39 257.021 140.861C235.576 149.332 216.803 163.406 202.668 181.609C188.533 199.812 179.554 221.476 176.672 244.334C173.79 267.192 177.11 290.404 186.284 311.541L215.796 298.756C208.915 282.903 206.425 265.494 208.587 248.351C210.749 231.207 217.482 214.959 228.084 201.307C238.685 187.654 252.765 177.099 268.849 170.746C284.933 164.393 302.431 162.475 319.511 165.193L324.571 133.457Z" fill="#FD7228" style="fill:#FD7228;fill:color(display-p3 0.9922 0.4471 0.1569);fill-opacity:1;"/>
<path d="M186.284 311.541C194.166 329.699 206.138 345.794 221.268 358.571C236.398 371.348 254.276 380.462 273.511 385.203C292.745 389.944 312.816 390.183 332.158 385.903C351.5 381.623 369.592 372.938 385.023 360.526L364.85 335.495C353.277 344.804 339.708 351.317 325.201 354.527C310.694 357.738 295.642 357.558 281.216 354.002C266.79 350.447 253.381 343.611 242.034 334.028C230.686 324.446 221.707 312.375 215.796 298.756L186.284 311.541Z" fill="#FD7228" style="fill:#FD7228;fill:color(display-p3 0.9922 0.4471 0.1569);fill-opacity:1;"/>
<path d="M385.023 360.526C400.001 348.479 412.085 333.231 420.388 315.904C428.69 298.577 433 279.611 433 260.401H400.833C400.833 274.808 397.601 289.033 391.374 302.028C385.147 315.023 376.084 326.459 364.851 335.494L385.023 360.526Z" fill="#EAEAEA" stroke="#F5F5F5" style="fill:#EAEAEA;fill:color(display-p3 0.9188 0.9188 0.9188);fill-opacity:1;stroke:#F5F5F5;stroke:color(display-p3 0.9600 0.9600 0.9600);stroke-opacity:1;" stroke-width="1.60758"/>
<g filter="url(#filter0_d_532_977)">
<rect x="401.147" y="297.875" width="78.1723" height="27.5431" rx="3.08616" fill="#040815" style="fill:#040815;fill:color(display-p3 0.0157 0.0314 0.0824);fill-opacity:1;" shape-rendering="crispEdges"/>
<path d="M407.816 306.749C407.233 306.749 406.729 306.621 406.305 306.367C405.886 306.107 405.561 305.747 405.329 305.289C405.097 304.825 404.981 304.287 404.981 303.676C404.981 303.071 405.097 302.539 405.329 302.081C405.561 301.617 405.886 301.255 406.305 300.995C406.729 300.734 407.233 300.604 407.816 300.604C408.494 300.604 409.046 300.768 409.47 301.096C409.9 301.419 410.175 301.872 410.294 302.454H409.504C409.414 302.087 409.227 301.792 408.944 301.572C408.667 301.345 408.291 301.232 407.816 301.232C407.391 301.232 407.021 301.331 406.704 301.529C406.387 301.722 406.141 302.002 405.965 302.369C405.796 302.732 405.711 303.167 405.711 303.676C405.711 304.186 405.796 304.624 405.965 304.992C406.141 305.354 406.387 305.634 406.704 305.832C407.021 306.024 407.391 306.121 407.816 306.121C408.291 306.121 408.667 306.013 408.944 305.798C409.227 305.577 409.414 305.286 409.504 304.924H410.294C410.175 305.495 409.9 305.942 409.47 306.265C409.046 306.587 408.494 306.749 407.816 306.749ZM413.194 306.749C412.798 306.749 412.441 306.658 412.125 306.477C411.808 306.296 411.556 306.041 411.369 305.713C411.188 305.379 411.098 304.989 411.098 304.542C411.098 304.095 411.191 303.708 411.378 303.379C411.564 303.046 411.816 302.788 412.133 302.607C412.456 302.426 412.815 302.335 413.211 302.335C413.607 302.335 413.963 302.426 414.28 302.607C414.597 302.788 414.846 303.046 415.027 303.379C415.214 303.708 415.307 304.095 415.307 304.542C415.307 304.989 415.214 305.379 415.027 305.713C414.84 306.041 414.586 306.296 414.263 306.477C413.946 306.658 413.59 306.749 413.194 306.749ZM413.194 306.138C413.437 306.138 413.664 306.078 413.873 305.959C414.082 305.841 414.252 305.662 414.382 305.425C414.512 305.187 414.577 304.893 414.577 304.542C414.577 304.191 414.512 303.897 414.382 303.659C414.258 303.422 414.091 303.244 413.881 303.125C413.672 303.006 413.449 302.947 413.211 302.947C412.968 302.947 412.741 303.006 412.532 303.125C412.323 303.244 412.153 303.422 412.023 303.659C411.893 303.897 411.828 304.191 411.828 304.542C411.828 304.893 411.893 305.187 412.023 305.425C412.153 305.662 412.32 305.841 412.523 305.959C412.733 306.078 412.956 306.138 413.194 306.138ZM417.911 306.749C417.407 306.749 416.989 306.621 416.655 306.367C416.321 306.112 416.126 305.767 416.069 305.331H416.799C416.844 305.552 416.96 305.744 417.147 305.908C417.339 306.067 417.597 306.146 417.919 306.146C418.219 306.146 418.44 306.084 418.581 305.959C418.723 305.829 418.794 305.677 418.794 305.501C418.794 305.247 418.7 305.077 418.513 304.992C418.332 304.907 418.075 304.831 417.741 304.763C417.515 304.717 417.289 304.652 417.062 304.568C416.836 304.483 416.646 304.364 416.494 304.211C416.341 304.053 416.264 303.846 416.264 303.592C416.264 303.224 416.4 302.924 416.672 302.692C416.949 302.454 417.323 302.335 417.792 302.335C418.239 302.335 418.604 302.449 418.887 302.675C419.175 302.896 419.342 303.212 419.388 303.626H418.683C418.655 303.411 418.562 303.244 418.403 303.125C418.25 303 418.044 302.938 417.784 302.938C417.529 302.938 417.331 302.992 417.19 303.099C417.054 303.207 416.986 303.348 416.986 303.524C416.986 303.693 417.074 303.826 417.249 303.923C417.43 304.019 417.673 304.101 417.979 304.169C418.239 304.225 418.485 304.296 418.717 304.381C418.955 304.46 419.147 304.582 419.294 304.746C419.447 304.904 419.523 305.136 419.523 305.442C419.529 305.821 419.385 306.135 419.091 306.384C418.802 306.627 418.409 306.749 417.911 306.749ZM422.015 306.647C421.63 306.647 421.327 306.553 421.107 306.367C420.886 306.18 420.776 305.843 420.776 305.357V303.04H420.046V302.437H420.776L420.869 301.427H421.488V302.437H422.728V303.04H421.488V305.357C421.488 305.623 421.542 305.804 421.65 305.9C421.757 305.991 421.947 306.036 422.218 306.036H422.66V306.647H422.015ZM427.797 306.749C427.401 306.749 427.045 306.658 426.728 306.477C426.411 306.296 426.159 306.041 425.973 305.713C425.792 305.379 425.701 304.989 425.701 304.542C425.701 304.095 425.794 303.708 425.981 303.379C426.168 303.046 426.42 302.788 426.737 302.607C427.059 302.426 427.418 302.335 427.814 302.335C428.21 302.335 428.567 302.426 428.884 302.607C429.201 302.788 429.45 303.046 429.631 303.379C429.817 303.708 429.911 304.095 429.911 304.542C429.911 304.989 429.817 305.379 429.631 305.713C429.444 306.041 429.189 306.296 428.867 306.477C428.55 306.658 428.193 306.749 427.797 306.749ZM427.797 306.138C428.041 306.138 428.267 306.078 428.476 305.959C428.686 305.841 428.855 305.662 428.986 305.425C429.116 305.187 429.181 304.893 429.181 304.542C429.181 304.191 429.116 303.897 428.986 303.659C428.861 303.422 428.694 303.244 428.485 303.125C428.276 303.006 428.052 302.947 427.814 302.947C427.571 302.947 427.345 303.006 427.135 303.125C426.926 303.244 426.756 303.422 426.626 303.659C426.496 303.897 426.431 304.191 426.431 304.542C426.431 304.893 426.496 305.187 426.626 305.425C426.756 305.662 426.923 305.841 427.127 305.959C427.336 306.078 427.56 306.138 427.797 306.138ZM431.131 306.647V303.04H430.495V302.437H431.131V301.707C431.131 301.3 431.233 301.003 431.437 300.816C431.64 300.63 431.937 300.536 432.328 300.536H432.752V301.147H432.438C432.223 301.147 432.07 301.193 431.98 301.283C431.889 301.368 431.844 301.515 431.844 301.724V302.437H432.879V303.04H431.844V306.647H431.131ZM437.892 306.749C437.496 306.749 437.14 306.658 436.823 306.477C436.506 306.296 436.254 306.041 436.068 305.713C435.886 305.379 435.796 304.989 435.796 304.542C435.796 304.095 435.889 303.708 436.076 303.379C436.263 303.046 436.514 302.788 436.831 302.607C437.154 302.426 437.513 302.335 437.909 302.335C438.305 302.335 438.662 302.426 438.979 302.607C439.295 302.788 439.544 303.046 439.725 303.379C439.912 303.708 440.005 304.095 440.005 304.542C440.005 304.989 439.912 305.379 439.725 305.713C439.539 306.041 439.284 306.296 438.962 306.477C438.645 306.658 438.288 306.749 437.892 306.749ZM437.892 306.138C438.136 306.138 438.362 306.078 438.571 305.959C438.781 305.841 438.95 305.662 439.08 305.425C439.211 305.187 439.276 304.893 439.276 304.542C439.276 304.191 439.211 303.897 439.08 303.659C438.956 303.422 438.789 303.244 438.58 303.125C438.37 303.006 438.147 302.947 437.909 302.947C437.666 302.947 437.44 303.006 437.23 303.125C437.021 303.244 436.851 303.422 436.721 303.659C436.591 303.897 436.526 304.191 436.526 304.542C436.526 304.893 436.591 305.187 436.721 305.425C436.851 305.662 437.018 305.841 437.222 305.959C437.431 306.078 437.655 306.138 437.892 306.138ZM441.688 306.647L440.457 302.437H441.17L442.061 305.739L443.046 302.437H443.852L444.845 305.739L445.728 302.437H446.449L445.218 306.647H444.489L443.453 303.176L442.418 306.647H441.688ZM447.238 306.647V302.437H447.883L447.925 303.193C448.061 302.927 448.256 302.717 448.511 302.565C448.765 302.412 449.054 302.335 449.376 302.335C449.874 302.335 450.27 302.488 450.564 302.794C450.864 303.094 451.014 303.558 451.014 304.186V306.647H450.301V304.262C450.301 303.385 449.939 302.947 449.215 302.947C448.853 302.947 448.55 303.08 448.307 303.345C448.069 303.606 447.95 303.979 447.95 304.466V306.647H447.238ZM453.987 306.749C453.585 306.749 453.229 306.658 452.918 306.477C452.606 306.29 452.36 306.033 452.179 305.705C452.004 305.377 451.916 304.989 451.916 304.542C451.916 304.101 452.004 303.716 452.179 303.388C452.355 303.054 452.598 302.797 452.909 302.616C453.226 302.429 453.591 302.335 454.004 302.335C454.411 302.335 454.762 302.429 455.056 302.616C455.356 302.797 455.585 303.037 455.744 303.337C455.902 303.637 455.981 303.959 455.981 304.304C455.981 304.367 455.979 304.429 455.973 304.491C455.973 304.553 455.973 304.624 455.973 304.703H452.621C452.638 305.026 452.711 305.295 452.841 305.51C452.977 305.719 453.144 305.877 453.342 305.985C453.546 306.092 453.761 306.146 453.987 306.146C454.281 306.146 454.527 306.078 454.725 305.942C454.923 305.807 455.068 305.623 455.158 305.391H455.863C455.749 305.781 455.532 306.107 455.209 306.367C454.892 306.621 454.485 306.749 453.987 306.749ZM453.987 302.938C453.647 302.938 453.345 303.043 453.079 303.252C452.819 303.456 452.669 303.756 452.629 304.152H455.277C455.26 303.773 455.13 303.476 454.887 303.261C454.643 303.046 454.343 302.938 453.987 302.938ZM456.926 306.647V302.437H457.571L457.631 303.244C457.761 302.966 457.959 302.746 458.225 302.582C458.491 302.418 458.819 302.335 459.209 302.335V303.082H459.014C458.765 303.082 458.536 303.128 458.327 303.218C458.117 303.303 457.95 303.45 457.826 303.659C457.701 303.869 457.639 304.157 457.639 304.525V306.647H456.926ZM461.622 306.749C461.118 306.749 460.7 306.621 460.366 306.367C460.032 306.112 459.837 305.767 459.78 305.331H460.51C460.555 305.552 460.671 305.744 460.858 305.908C461.05 306.067 461.308 306.146 461.63 306.146C461.93 306.146 462.151 306.084 462.292 305.959C462.434 305.829 462.505 305.677 462.505 305.501C462.505 305.247 462.411 305.077 462.225 304.992C462.043 304.907 461.786 304.831 461.452 304.763C461.226 304.717 461 304.652 460.773 304.568C460.547 304.483 460.357 304.364 460.205 304.211C460.052 304.053 459.975 303.846 459.975 303.592C459.975 303.224 460.111 302.924 460.383 302.692C460.66 302.454 461.034 302.335 461.503 302.335C461.95 302.335 462.315 302.449 462.598 302.675C462.886 302.896 463.053 303.212 463.099 303.626H462.394C462.366 303.411 462.273 303.244 462.114 303.125C461.961 303 461.755 302.938 461.495 302.938C461.24 302.938 461.042 302.992 460.901 303.099C460.765 303.207 460.697 303.348 460.697 303.524C460.697 303.693 460.785 303.826 460.96 303.923C461.141 304.019 461.384 304.101 461.69 304.169C461.95 304.225 462.196 304.296 462.428 304.381C462.666 304.46 462.858 304.582 463.005 304.746C463.158 304.904 463.234 305.136 463.234 305.442C463.24 305.821 463.096 306.135 462.802 306.384C462.513 306.627 462.12 306.749 461.622 306.749ZM464.253 306.647V300.536H464.966V303.159C465.107 302.898 465.308 302.698 465.568 302.556C465.829 302.409 466.112 302.335 466.417 302.335C466.904 302.335 467.294 302.488 467.588 302.794C467.882 303.094 468.03 303.558 468.03 304.186V306.647H467.325V304.262C467.325 303.385 466.972 302.947 466.264 302.947C465.897 302.947 465.588 303.08 465.339 303.345C465.09 303.606 464.966 303.979 464.966 304.466V306.647H464.253ZM469.542 301.504C469.401 301.504 469.282 301.459 469.186 301.368C469.096 301.272 469.05 301.153 469.05 301.012C469.05 300.876 469.096 300.763 469.186 300.672C469.282 300.582 469.401 300.536 469.542 300.536C469.678 300.536 469.794 300.582 469.89 300.672C469.987 300.763 470.035 300.876 470.035 301.012C470.035 301.153 469.987 301.272 469.89 301.368C469.794 301.459 469.678 301.504 469.542 301.504ZM469.186 306.647V302.437H469.899V306.647H469.186ZM471.14 308.514V302.437H471.785L471.853 303.133C471.989 302.93 472.181 302.746 472.43 302.582C472.685 302.418 473.007 302.335 473.398 302.335C473.816 302.335 474.181 302.432 474.493 302.624C474.804 302.816 475.044 303.08 475.214 303.413C475.389 303.747 475.477 304.126 475.477 304.551C475.477 304.975 475.389 305.354 475.214 305.688C475.044 306.016 474.801 306.276 474.484 306.469C474.173 306.655 473.808 306.749 473.389 306.749C473.044 306.749 472.736 306.678 472.464 306.537C472.198 306.395 471.995 306.197 471.853 305.942V308.514H471.14ZM473.313 306.129C473.596 306.129 473.845 306.064 474.06 305.934C474.275 305.798 474.444 305.611 474.569 305.374C474.693 305.136 474.756 304.859 474.756 304.542C474.756 304.225 474.693 303.948 474.569 303.71C474.444 303.473 474.275 303.289 474.06 303.159C473.845 303.023 473.596 302.955 473.313 302.955C473.03 302.955 472.781 303.023 472.566 303.159C472.351 303.289 472.181 303.473 472.057 303.71C471.932 303.948 471.87 304.225 471.87 304.542C471.87 304.859 471.932 305.136 472.057 305.374C472.181 305.611 472.351 305.798 472.566 305.934C472.781 306.064 473.03 306.129 473.313 306.129ZM421.297 320.647V319.837C421.578 319.556 421.794 319.268 421.945 318.973C422.096 318.67 422.172 318.281 422.172 317.806C422.172 317.684 422.161 317.558 422.139 317.428H420.908V316.477H421.837C421.772 316.29 421.714 316.096 421.664 315.894C421.621 315.693 421.599 315.48 421.599 315.257C421.599 314.782 421.7 314.371 421.902 314.026C422.11 313.68 422.398 313.417 422.766 313.237C423.14 313.05 423.569 312.956 424.051 312.956C424.598 312.956 425.052 313.061 425.412 313.269C425.772 313.478 426.046 313.759 426.233 314.112C426.42 314.465 426.525 314.857 426.546 315.289H425.272C425.257 314.951 425.149 314.67 424.948 314.447C424.746 314.216 424.454 314.101 424.073 314.101C423.756 314.101 423.482 314.198 423.252 314.393C423.021 314.587 422.906 314.89 422.906 315.3C422.906 315.487 422.935 315.682 422.993 315.883C423.05 316.078 423.115 316.276 423.187 316.477H425.207V317.428H423.446C423.468 317.558 423.479 317.684 423.479 317.806C423.479 318.101 423.421 318.4 423.306 318.703C423.191 319.005 423 319.286 422.733 319.545H426.579V320.647H421.297ZM427.735 320.647V319.642C428.196 319.261 428.643 318.883 429.075 318.508C429.514 318.134 429.903 317.763 430.241 317.396C430.587 317.028 430.861 316.672 431.062 316.326C431.271 315.973 431.376 315.631 431.376 315.3C431.376 314.99 431.289 314.717 431.116 314.479C430.951 314.242 430.673 314.123 430.285 314.123C429.889 314.123 429.59 314.252 429.388 314.512C429.186 314.771 429.086 315.084 429.086 315.451H427.746C427.761 314.897 427.883 314.436 428.113 314.069C428.344 313.694 428.65 313.417 429.032 313.237C429.413 313.05 429.842 312.956 430.317 312.956C431.088 312.956 431.685 313.169 432.11 313.593C432.542 314.011 432.758 314.555 432.758 315.224C432.758 315.642 432.661 316.049 432.467 316.445C432.279 316.841 432.031 317.223 431.721 317.59C431.412 317.957 431.077 318.303 430.717 318.627C430.357 318.944 430.007 319.239 429.669 319.513H432.942V320.647H427.735ZM436.619 320.776C436.093 320.776 435.65 320.676 435.29 320.474C434.93 320.265 434.649 319.995 434.448 319.664C434.246 319.333 434.127 318.976 434.091 318.595H435.377C435.434 318.926 435.571 319.181 435.787 319.361C436.01 319.541 436.291 319.632 436.629 319.632C437.112 319.632 437.501 319.412 437.796 318.973C438.091 318.526 438.25 317.849 438.271 316.942C438.099 317.237 437.836 317.482 437.483 317.676C437.137 317.871 436.756 317.968 436.338 317.968C435.92 317.968 435.528 317.867 435.16 317.666C434.793 317.464 434.494 317.18 434.264 316.812C434.034 316.445 433.918 316.013 433.918 315.516C433.918 315.062 434.03 314.641 434.253 314.252C434.476 313.863 434.786 313.55 435.182 313.313C435.578 313.075 436.043 312.956 436.575 312.956C437.144 312.956 437.623 313.061 438.012 313.269C438.401 313.478 438.711 313.759 438.941 314.112C439.179 314.465 439.348 314.857 439.449 315.289C439.557 315.721 439.611 316.164 439.611 316.618C439.611 317.46 439.492 318.195 439.254 318.821C439.024 319.441 438.682 319.923 438.228 320.269C437.782 320.607 437.245 320.776 436.619 320.776ZM436.662 316.801C436.928 316.801 437.17 316.744 437.386 316.629C437.602 316.506 437.771 316.348 437.893 316.153C438.016 315.952 438.077 315.729 438.077 315.484C438.077 315.095 437.94 314.774 437.666 314.522C437.4 314.27 437.062 314.144 436.651 314.144C436.248 314.144 435.913 314.27 435.647 314.522C435.38 314.767 435.247 315.08 435.247 315.462C435.247 315.865 435.38 316.189 435.647 316.434C435.913 316.679 436.251 316.801 436.662 316.801ZM440.3 321.9L440.915 319.21H442.255L441.207 321.9H440.3ZM446.839 320.647V319.243H443.113V318.141L446.656 313.086H448.222V318.044H449.216V319.243H448.222V320.647H446.839ZM444.593 318.044H446.926V314.609L444.593 318.044ZM453.014 320.776C452.459 320.776 451.981 320.679 451.577 320.485C451.181 320.29 450.868 320.024 450.638 319.686C450.414 319.34 450.285 318.951 450.249 318.519H451.599C451.664 318.829 451.822 319.088 452.074 319.297C452.326 319.498 452.639 319.599 453.014 319.599C453.417 319.599 453.745 319.451 453.997 319.156C454.256 318.861 454.386 318.494 454.386 318.054C454.386 317.601 454.256 317.241 453.997 316.974C453.745 316.708 453.424 316.575 453.036 316.575C452.711 316.575 452.431 316.654 452.193 316.812C451.955 316.971 451.786 317.169 451.685 317.406H450.357L451.005 313.086H455.196V314.296H452.042L451.696 316.045C451.855 315.873 452.071 315.732 452.344 315.624C452.618 315.509 452.924 315.451 453.262 315.451C453.802 315.451 454.253 315.574 454.613 315.819C454.973 316.056 455.246 316.373 455.433 316.769C455.621 317.158 455.714 317.583 455.714 318.044C455.714 318.569 455.599 319.037 455.369 319.448C455.145 319.858 454.829 320.182 454.418 320.42C454.015 320.658 453.547 320.776 453.014 320.776ZM457.822 320.647V314.663L456.58 314.954V313.896L458.405 313.086H459.258V320.647H457.822Z" fill="#F5F5F5" style="fill:#F5F5F5;fill:color(display-p3 0.9600 0.9600 0.9600);fill-opacity:1;"/>
</g>
<g filter="url(#filter1_d_532_977)">
<rect x="112" y="161.622" width="98.7021" height="47.6755" rx="5.35107" fill="#040815" style="fill:#040815;fill:color(display-p3 0.0157 0.0314 0.0824);fill-opacity:1;" shape-rendering="crispEdges"/>
<path d="M150.599 177.96V167.659H153.924C154.729 167.659 155.386 167.791 155.896 168.056C156.406 168.321 156.784 168.684 157.029 169.145C157.275 169.606 157.397 170.116 157.397 170.675C157.397 171.323 157.221 171.907 156.867 172.427C156.524 172.947 155.985 173.314 155.249 173.53L157.5 177.96H156.043L153.954 173.707H153.866H151.835V177.96H150.599ZM151.835 172.736H153.836C154.631 172.736 155.21 172.544 155.573 172.162C155.935 171.779 156.117 171.289 156.117 170.69C156.117 170.082 155.935 169.601 155.573 169.248C155.219 168.885 154.636 168.704 153.821 168.704H151.835V172.736ZM164.001 178.136C162.991 178.136 162.103 177.915 161.338 177.474C160.582 177.023 159.989 176.395 159.557 175.59C159.135 174.786 158.924 173.859 158.924 172.809C158.924 171.759 159.135 170.837 159.557 170.043C159.989 169.238 160.582 168.61 161.338 168.159C162.103 167.708 162.991 167.482 164.001 167.482C165.021 167.482 165.909 167.708 166.665 168.159C167.43 168.61 168.023 169.238 168.445 170.043C168.867 170.837 169.078 171.759 169.078 172.809C169.078 173.859 168.867 174.786 168.445 175.59C168.023 176.395 167.43 177.023 166.665 177.474C165.909 177.915 165.021 178.136 164.001 178.136ZM164.001 177.047C164.757 177.047 165.419 176.88 165.988 176.547C166.567 176.204 167.013 175.718 167.327 175.09C167.651 174.452 167.812 173.692 167.812 172.809C167.812 171.926 167.651 171.171 167.327 170.543C167.013 169.915 166.567 169.434 165.988 169.101C165.419 168.758 164.757 168.586 164.001 168.586C163.246 168.586 162.579 168.758 162 169.101C161.431 169.434 160.984 169.915 160.661 170.543C160.347 171.171 160.19 171.926 160.19 172.809C160.19 173.692 160.347 174.452 160.661 175.09C160.984 175.718 161.431 176.204 162 176.547C162.579 176.88 163.246 177.047 164.001 177.047ZM170.861 177.96V167.659H172.097V177.96H170.861ZM118.961 201.96V200.555C119.448 200.068 119.823 199.569 120.085 199.057C120.347 198.532 120.478 197.858 120.478 197.034C120.478 196.822 120.46 196.603 120.422 196.378H118.287V194.73H119.898C119.785 194.406 119.685 194.069 119.598 193.719C119.523 193.369 119.486 193.001 119.486 192.614C119.486 191.79 119.66 191.078 120.01 190.479C120.372 189.88 120.872 189.424 121.508 189.112C122.158 188.787 122.901 188.625 123.737 188.625C124.686 188.625 125.473 188.806 126.097 189.168C126.721 189.53 127.196 190.017 127.52 190.629C127.845 191.241 128.026 191.921 128.063 192.67H125.853C125.828 192.083 125.641 191.596 125.292 191.209C124.942 190.81 124.436 190.61 123.775 190.61C123.225 190.61 122.751 190.779 122.351 191.116C121.952 191.453 121.752 191.977 121.752 192.689C121.752 193.013 121.802 193.351 121.902 193.7C122.002 194.037 122.114 194.381 122.239 194.73H125.741V196.378H122.688C122.726 196.603 122.744 196.822 122.744 197.034C122.744 197.546 122.645 198.064 122.445 198.588C122.245 199.113 121.914 199.6 121.452 200.049H128.12V201.96H118.961ZM134.733 202.184C133.871 202.184 133.091 202.035 132.392 201.735C131.692 201.423 131.13 200.948 130.706 200.311C130.281 199.675 130.057 198.876 130.032 197.914H132.392C132.404 198.551 132.61 199.088 133.01 199.525C133.422 199.949 133.996 200.162 134.733 200.162C135.432 200.162 135.969 199.968 136.343 199.581C136.718 199.194 136.905 198.707 136.905 198.12C136.905 197.433 136.655 196.915 136.156 196.566C135.669 196.204 135.039 196.023 134.264 196.023H133.29V194.056H134.283C134.92 194.056 135.451 193.906 135.875 193.607C136.3 193.307 136.512 192.864 136.512 192.277C136.512 191.79 136.35 191.403 136.025 191.116C135.713 190.816 135.276 190.666 134.714 190.666C134.102 190.666 133.621 190.847 133.272 191.209C132.935 191.571 132.747 192.015 132.71 192.539H130.369C130.419 191.328 130.837 190.373 131.624 189.674C132.423 188.974 133.453 188.625 134.714 188.625C135.613 188.625 136.368 188.787 136.98 189.112C137.604 189.424 138.073 189.842 138.385 190.366C138.709 190.891 138.872 191.471 138.872 192.108C138.872 192.845 138.666 193.469 138.254 193.981C137.854 194.481 137.355 194.818 136.755 194.992C137.492 195.142 138.091 195.504 138.553 196.079C139.015 196.641 139.246 197.352 139.246 198.214C139.246 198.938 139.071 199.6 138.722 200.199C138.372 200.798 137.86 201.279 137.186 201.641C136.524 202.003 135.707 202.184 134.733 202.184ZM141.282 201.96V200.218C142.081 199.556 142.855 198.901 143.604 198.251C144.366 197.602 145.04 196.959 145.627 196.322C146.227 195.685 146.701 195.067 147.051 194.468C147.413 193.856 147.594 193.263 147.594 192.689C147.594 192.152 147.444 191.678 147.144 191.265C146.857 190.853 146.376 190.647 145.702 190.647C145.015 190.647 144.497 190.872 144.148 191.322C143.798 191.771 143.623 192.314 143.623 192.951H141.301C141.326 191.99 141.538 191.191 141.938 190.554C142.337 189.905 142.868 189.424 143.53 189.112C144.191 188.787 144.934 188.625 145.758 188.625C147.094 188.625 148.131 188.993 148.867 189.73C149.616 190.454 149.991 191.397 149.991 192.558C149.991 193.282 149.822 193.987 149.485 194.674C149.161 195.361 148.73 196.023 148.193 196.659C147.656 197.296 147.076 197.895 146.451 198.457C145.827 199.007 145.221 199.519 144.635 199.993H150.309V201.96H141.282ZM157.584 202.184C156.373 202.184 155.336 201.903 154.475 201.342C153.613 200.767 152.945 199.974 152.471 198.963C152.009 197.939 151.778 196.753 151.778 195.405C151.778 194.069 152.009 192.889 152.471 191.865C152.945 190.841 153.613 190.048 154.475 189.486C155.336 188.912 156.373 188.625 157.584 188.625C158.795 188.625 159.831 188.912 160.693 189.486C161.554 190.048 162.216 190.841 162.678 191.865C163.152 192.889 163.39 194.069 163.39 195.405C163.39 196.753 163.152 197.939 162.678 198.963C162.216 199.974 161.554 200.767 160.693 201.342C159.831 201.903 158.795 202.184 157.584 202.184ZM157.584 200.031C158.57 200.031 159.375 199.619 160 198.794C160.624 197.97 160.936 196.84 160.936 195.405C160.936 193.969 160.624 192.839 160 192.015C159.375 191.191 158.57 190.779 157.584 190.779C156.585 190.779 155.773 191.191 155.149 192.015C154.537 192.839 154.231 193.969 154.231 195.405C154.231 196.84 154.537 197.97 155.149 198.794C155.773 199.619 156.585 200.031 157.584 200.031ZM163.927 204.132L164.994 199.469H167.317L165.5 204.132H163.927ZM174.648 202.184C173.437 202.184 172.401 201.903 171.539 201.342C170.678 200.767 170.01 199.974 169.535 198.963C169.073 197.939 168.842 196.753 168.842 195.405C168.842 194.069 169.073 192.889 169.535 191.865C170.01 190.841 170.678 190.048 171.539 189.486C172.401 188.912 173.437 188.625 174.648 188.625C175.859 188.625 176.896 188.912 177.757 189.486C178.619 190.048 179.28 190.841 179.742 191.865C180.217 192.889 180.454 194.069 180.454 195.405C180.454 196.753 180.217 197.939 179.742 198.963C179.28 199.974 178.619 200.767 177.757 201.342C176.896 201.903 175.859 202.184 174.648 202.184ZM174.648 200.031C175.635 200.031 176.44 199.619 177.064 198.794C177.688 197.97 178.001 196.84 178.001 195.405C178.001 193.969 177.688 192.839 177.064 192.015C176.44 191.191 175.635 190.779 174.648 190.779C173.649 190.779 172.838 191.191 172.213 192.015C171.602 192.839 171.296 193.969 171.296 195.405C171.296 196.84 171.602 197.97 172.213 198.794C172.838 199.619 173.649 200.031 174.648 200.031ZM188.563 201.96V199.525H182.101V197.615L188.244 188.849H190.96V197.446H192.683V199.525H190.96V201.96H188.563ZM184.667 197.446H188.713V191.49L184.667 197.446ZM199.044 202.184C198.132 202.184 197.365 202.01 196.74 201.66C196.116 201.298 195.629 200.83 195.279 200.255C194.93 199.681 194.724 199.063 194.661 198.401H196.89C196.99 198.975 197.227 199.419 197.602 199.731C197.989 200.043 198.476 200.199 199.063 200.199C199.899 200.199 200.573 199.818 201.085 199.057C201.597 198.283 201.872 197.109 201.909 195.536C201.61 196.048 201.154 196.472 200.542 196.809C199.943 197.146 199.281 197.315 198.557 197.315C197.833 197.315 197.152 197.14 196.516 196.79C195.879 196.441 195.361 195.948 194.961 195.311C194.562 194.674 194.362 193.925 194.362 193.063C194.362 192.277 194.555 191.546 194.942 190.872C195.329 190.198 195.866 189.655 196.553 189.243C197.24 188.831 198.045 188.625 198.969 188.625C199.955 188.625 200.786 188.806 201.46 189.168C202.134 189.53 202.671 190.017 203.071 190.629C203.483 191.241 203.776 191.921 203.951 192.67C204.138 193.419 204.232 194.187 204.232 194.974C204.232 196.435 204.026 197.708 203.614 198.794C203.214 199.868 202.621 200.705 201.835 201.304C201.06 201.891 200.13 202.184 199.044 202.184ZM199.119 195.292C199.581 195.292 199.999 195.192 200.374 194.992C200.748 194.78 201.042 194.506 201.254 194.168C201.466 193.819 201.572 193.432 201.572 193.007C201.572 192.333 201.335 191.777 200.861 191.34C200.399 190.903 199.812 190.685 199.1 190.685C198.401 190.685 197.82 190.903 197.358 191.34C196.896 191.765 196.665 192.308 196.665 192.97C196.665 193.669 196.896 194.231 197.358 194.655C197.82 195.08 198.407 195.292 199.119 195.292Z" fill="white" style="fill:white;fill-opacity:1;"/>
</g>
<path d="M252.578 239.214V228.326H248.972V227.136H257.633V228.326H254.027V239.214H252.578ZM261.666 239.421C260.861 239.421 260.136 239.237 259.492 238.869C258.848 238.501 258.336 237.983 257.956 237.316C257.588 236.637 257.404 235.843 257.404 234.935C257.404 234.026 257.594 233.238 257.974 232.571C258.353 231.892 258.865 231.369 259.509 231.001C260.165 230.633 260.895 230.449 261.701 230.449C262.506 230.449 263.23 230.633 263.875 231.001C264.519 231.369 265.025 231.892 265.393 232.571C265.773 233.238 265.962 234.026 265.962 234.935C265.962 235.843 265.773 236.637 265.393 237.316C265.013 237.983 264.496 238.501 263.84 238.869C263.196 239.237 262.471 239.421 261.666 239.421ZM261.666 238.179C262.161 238.179 262.621 238.058 263.046 237.816C263.472 237.575 263.817 237.212 264.082 236.729C264.346 236.246 264.479 235.648 264.479 234.935C264.479 234.222 264.346 233.623 264.082 233.14C263.829 232.657 263.489 232.295 263.064 232.053C262.638 231.812 262.184 231.691 261.701 231.691C261.206 231.691 260.746 231.812 260.32 232.053C259.895 232.295 259.55 232.657 259.285 233.14C259.02 233.623 258.888 234.222 258.888 234.935C258.888 235.648 259.02 236.246 259.285 236.729C259.55 237.212 259.889 237.575 260.303 237.816C260.729 238.058 261.183 238.179 261.666 238.179ZM271.022 239.214C270.24 239.214 269.625 239.024 269.176 238.644C268.728 238.265 268.503 237.58 268.503 236.591V231.881H267.019V230.656H268.503L268.693 228.602H269.953V230.656H272.472V231.881H269.953V236.591C269.953 237.132 270.062 237.5 270.28 237.695C270.499 237.879 270.884 237.971 271.437 237.971H272.334V239.214H271.022ZM277.16 239.421C276.447 239.421 275.854 239.3 275.383 239.058C274.911 238.817 274.56 238.495 274.33 238.092C274.1 237.69 273.985 237.253 273.985 236.781C273.985 235.907 274.319 235.234 274.986 234.762C275.653 234.291 276.562 234.055 277.712 234.055H280.024V233.951C280.024 233.204 279.829 232.64 279.438 232.26C279.046 231.869 278.523 231.674 277.867 231.674C277.304 231.674 276.815 231.817 276.401 232.105C275.998 232.381 275.745 232.789 275.642 233.33H274.158C274.215 232.709 274.422 232.186 274.779 231.76C275.147 231.334 275.601 231.012 276.142 230.794C276.683 230.564 277.258 230.449 277.867 230.449C279.064 230.449 279.961 230.771 280.559 231.415C281.169 232.048 281.474 232.893 281.474 233.951V239.214H280.179L280.093 237.678C279.852 238.161 279.495 238.575 279.023 238.92C278.563 239.254 277.942 239.421 277.16 239.421ZM277.384 238.196C277.936 238.196 278.408 238.052 278.799 237.764C279.202 237.477 279.507 237.103 279.714 236.643C279.921 236.183 280.024 235.7 280.024 235.194V235.176H277.833C276.982 235.176 276.378 235.326 276.021 235.625C275.676 235.912 275.504 236.275 275.504 236.712C275.504 237.161 275.665 237.523 275.987 237.799C276.32 238.063 276.786 238.196 277.384 238.196ZM283.648 239.214V226.791H285.097V239.214H283.648ZM294.506 239.214L291.263 230.656H292.781L295.352 237.816L297.94 230.656H299.424L296.18 239.214H294.506ZM303.446 239.421C302.732 239.421 302.14 239.3 301.668 239.058C301.197 238.817 300.846 238.495 300.616 238.092C300.386 237.69 300.271 237.253 300.271 236.781C300.271 235.907 300.604 235.234 301.271 234.762C301.939 234.291 302.847 234.055 303.998 234.055H306.31V233.951C306.31 233.204 306.114 232.64 305.723 232.26C305.332 231.869 304.809 231.674 304.153 231.674C303.589 231.674 303.1 231.817 302.686 232.105C302.284 232.381 302.031 232.789 301.927 233.33H300.443C300.501 232.709 300.708 232.186 301.064 231.76C301.433 231.334 301.887 231.012 302.428 230.794C302.968 230.564 303.543 230.449 304.153 230.449C305.349 230.449 306.246 230.771 306.845 231.415C307.454 232.048 307.759 232.893 307.759 233.951V239.214H306.465L306.379 237.678C306.137 238.161 305.781 238.575 305.309 238.92C304.849 239.254 304.228 239.421 303.446 239.421ZM303.67 238.196C304.222 238.196 304.694 238.052 305.085 237.764C305.487 237.477 305.792 237.103 305.999 236.643C306.206 236.183 306.31 235.7 306.31 235.194V235.176H304.118C303.267 235.176 302.663 235.326 302.307 235.625C301.962 235.912 301.789 236.275 301.789 236.712C301.789 237.161 301.95 237.523 302.272 237.799C302.606 238.063 303.072 238.196 303.67 238.196ZM309.933 239.214V226.791H311.383V239.214H309.933ZM316.881 239.421C315.869 239.421 315.064 239.116 314.466 238.506C313.867 237.885 313.568 236.936 313.568 235.659V230.656H315.018V235.504C315.018 237.287 315.748 238.179 317.209 238.179C317.957 238.179 318.572 237.914 319.055 237.385C319.55 236.844 319.797 236.079 319.797 235.09V230.656H321.246V239.214H319.935L319.832 237.678C319.567 238.219 319.17 238.644 318.641 238.955C318.123 239.266 317.537 239.421 316.881 239.421ZM327.48 239.421C326.663 239.421 325.938 239.237 325.306 238.869C324.673 238.489 324.173 237.966 323.805 237.299C323.448 236.631 323.27 235.843 323.27 234.935C323.27 234.038 323.448 233.255 323.805 232.588C324.161 231.91 324.656 231.386 325.288 231.018C325.933 230.638 326.675 230.449 327.514 230.449C328.342 230.449 329.056 230.638 329.654 231.018C330.263 231.386 330.729 231.875 331.051 232.485C331.373 233.094 331.534 233.75 331.534 234.452C331.534 234.578 331.529 234.705 331.517 234.831C331.517 234.958 331.517 235.102 331.517 235.263H324.702C324.736 235.918 324.886 236.465 325.15 236.902C325.427 237.327 325.766 237.649 326.168 237.868C326.583 238.086 327.02 238.196 327.48 238.196C328.078 238.196 328.578 238.058 328.981 237.782C329.383 237.506 329.677 237.132 329.861 236.66H331.293C331.063 237.454 330.62 238.115 329.964 238.644C329.32 239.162 328.492 239.421 327.48 239.421ZM327.48 231.674C326.79 231.674 326.174 231.887 325.634 232.312C325.104 232.726 324.8 233.336 324.719 234.141H330.102C330.068 233.37 329.803 232.766 329.309 232.329C328.814 231.892 328.204 231.674 327.48 231.674ZM341.921 239.421C341.116 239.421 340.391 239.237 339.747 238.869C339.103 238.501 338.591 237.983 338.212 237.316C337.843 236.637 337.659 235.843 337.659 234.935C337.659 234.026 337.849 233.238 338.229 232.571C338.608 231.892 339.12 231.369 339.764 231.001C340.42 230.633 341.15 230.449 341.956 230.449C342.761 230.449 343.486 230.633 344.13 231.001C344.774 231.369 345.28 231.892 345.648 232.571C346.028 233.238 346.217 234.026 346.217 234.935C346.217 235.843 346.028 236.637 345.648 237.316C345.268 237.983 344.751 238.501 344.095 238.869C343.451 239.237 342.726 239.421 341.921 239.421ZM341.921 238.179C342.416 238.179 342.876 238.058 343.301 237.816C343.727 237.575 344.072 237.212 344.337 236.729C344.601 236.246 344.734 235.648 344.734 234.935C344.734 234.222 344.601 233.623 344.337 233.14C344.084 232.657 343.744 232.295 343.319 232.053C342.893 231.812 342.439 231.691 341.956 231.691C341.461 231.691 341.001 231.812 340.575 232.053C340.15 232.295 339.805 232.657 339.54 233.14C339.276 233.623 339.143 234.222 339.143 234.935C339.143 235.648 339.276 236.246 339.54 236.729C339.805 237.212 340.144 237.575 340.558 237.816C340.984 238.058 341.438 238.179 341.921 238.179ZM348.698 239.214V231.881H347.404V230.656H348.698V229.172C348.698 228.344 348.906 227.74 349.32 227.36C349.734 226.981 350.338 226.791 351.131 226.791H351.994V228.033H351.356C350.919 228.033 350.608 228.125 350.424 228.309C350.24 228.482 350.148 228.781 350.148 229.206V230.656H352.253V231.881H350.148V239.214H348.698ZM267.774 261.421C266.969 261.421 266.244 261.237 265.6 260.869C264.956 260.501 264.444 259.983 264.064 259.316C263.696 258.637 263.512 257.843 263.512 256.935C263.512 256.026 263.702 255.238 264.082 254.571C264.461 253.892 264.973 253.369 265.617 253.001C266.273 252.633 267.003 252.449 267.809 252.449C268.614 252.449 269.338 252.633 269.983 253.001C270.627 253.369 271.133 253.892 271.501 254.571C271.881 255.238 272.07 256.026 272.07 256.935C272.07 257.843 271.881 258.637 271.501 259.316C271.121 259.983 270.604 260.501 269.948 260.869C269.304 261.237 268.579 261.421 267.774 261.421ZM267.774 260.179C268.269 260.179 268.729 260.058 269.154 259.816C269.58 259.575 269.925 259.212 270.19 258.729C270.454 258.246 270.587 257.648 270.587 256.935C270.587 256.222 270.454 255.623 270.19 255.14C269.937 254.657 269.597 254.295 269.172 254.053C268.746 253.812 268.292 253.691 267.809 253.691C267.314 253.691 266.854 253.812 266.428 254.053C266.003 254.295 265.658 254.657 265.393 255.14C265.128 255.623 264.996 256.222 264.996 256.935C264.996 257.648 265.128 258.246 265.393 258.729C265.658 259.212 265.997 259.575 266.411 259.816C266.837 260.058 267.291 260.179 267.774 260.179ZM277.209 261.421C276.196 261.421 275.391 261.116 274.793 260.506C274.195 259.885 273.896 258.936 273.896 257.659V252.656H275.345V257.504C275.345 259.287 276.076 260.179 277.536 260.179C278.284 260.179 278.899 259.914 279.383 259.385C279.877 258.844 280.125 258.079 280.125 257.09V252.656H281.574V261.214H280.263L280.159 259.678C279.894 260.219 279.498 260.644 278.969 260.955C278.451 261.266 277.864 261.421 277.209 261.421ZM287.341 261.214C286.559 261.214 285.944 261.024 285.495 260.644C285.047 260.265 284.822 259.58 284.822 258.591V253.881H283.338V252.656H284.822L285.012 250.602H286.272V252.656H288.791V253.881H286.272V258.591C286.272 259.132 286.381 259.5 286.599 259.695C286.818 259.879 287.203 259.971 287.755 259.971H288.653V261.214H287.341ZM294.33 261.421C293.513 261.421 292.777 261.237 292.122 260.869C291.477 260.489 290.965 259.966 290.586 259.299C290.218 258.62 290.034 257.832 290.034 256.935C290.034 256.038 290.218 255.255 290.586 254.588C290.965 253.91 291.477 253.386 292.122 253.018C292.777 252.638 293.513 252.449 294.33 252.449C295.342 252.449 296.193 252.713 296.884 253.242C297.585 253.771 298.028 254.479 298.212 255.365H296.728C296.613 254.835 296.331 254.427 295.883 254.14C295.434 253.841 294.911 253.691 294.313 253.691C293.83 253.691 293.375 253.812 292.95 254.053C292.524 254.295 292.179 254.657 291.914 255.14C291.65 255.623 291.518 256.222 291.518 256.935C291.518 257.648 291.65 258.246 291.914 258.729C292.179 259.212 292.524 259.58 292.95 259.833C293.375 260.075 293.83 260.196 294.313 260.196C294.911 260.196 295.434 260.052 295.883 259.764C296.331 259.465 296.613 259.045 296.728 258.505H298.212C298.04 259.368 297.603 260.069 296.901 260.61C296.199 261.15 295.342 261.421 294.33 261.421ZM304.136 261.421C303.331 261.421 302.606 261.237 301.962 260.869C301.318 260.501 300.806 259.983 300.426 259.316C300.058 258.637 299.874 257.843 299.874 256.935C299.874 256.026 300.064 255.238 300.443 254.571C300.823 253.892 301.335 253.369 301.979 253.001C302.635 252.633 303.365 252.449 304.17 252.449C304.975 252.449 305.7 252.633 306.344 253.001C306.988 253.369 307.495 253.892 307.863 254.571C308.242 255.238 308.432 256.026 308.432 256.935C308.432 257.843 308.242 258.637 307.863 259.316C307.483 259.983 306.965 260.501 306.31 260.869C305.666 261.237 304.941 261.421 304.136 261.421ZM304.136 260.179C304.63 260.179 305.09 260.058 305.516 259.816C305.942 259.575 306.287 259.212 306.551 258.729C306.816 258.246 306.948 257.648 306.948 256.935C306.948 256.222 306.816 255.623 306.551 255.14C306.298 254.657 305.959 254.295 305.533 254.053C305.108 253.812 304.653 253.691 304.17 253.691C303.676 253.691 303.216 253.812 302.79 254.053C302.364 254.295 302.019 254.657 301.755 255.14C301.49 255.623 301.358 256.222 301.358 256.935C301.358 257.648 301.49 258.246 301.755 258.729C302.019 259.212 302.359 259.575 302.773 259.816C303.198 260.058 303.653 260.179 304.136 260.179ZM310.447 261.214V252.656H311.759L311.862 253.898C312.138 253.438 312.506 253.081 312.966 252.828C313.426 252.575 313.944 252.449 314.519 252.449C315.198 252.449 315.779 252.587 316.262 252.863C316.756 253.139 317.136 253.559 317.401 254.122C317.7 253.605 318.108 253.196 318.626 252.897C319.155 252.598 319.724 252.449 320.334 252.449C321.358 252.449 322.174 252.759 322.784 253.38C323.394 253.99 323.698 254.933 323.698 256.21V261.214H322.266V256.365C322.266 255.48 322.088 254.812 321.731 254.364C321.375 253.915 320.863 253.691 320.196 253.691C319.506 253.691 318.93 253.961 318.47 254.502C318.022 255.031 317.797 255.79 317.797 256.779V261.214H316.348V256.365C316.348 255.48 316.17 254.812 315.813 254.364C315.457 253.915 314.945 253.691 314.278 253.691C313.599 253.691 313.03 253.961 312.569 254.502C312.121 255.031 311.897 255.79 311.897 256.779V261.214H310.447ZM329.729 261.421C328.912 261.421 328.188 261.237 327.555 260.869C326.923 260.489 326.422 259.966 326.054 259.299C325.697 258.631 325.519 257.843 325.519 256.935C325.519 256.038 325.697 255.255 326.054 254.588C326.411 253.91 326.905 253.386 327.538 253.018C328.182 252.638 328.924 252.449 329.764 252.449C330.592 252.449 331.305 252.638 331.903 253.018C332.513 253.386 332.979 253.875 333.301 254.485C333.623 255.094 333.784 255.75 333.784 256.452C333.784 256.578 333.778 256.705 333.767 256.831C333.767 256.958 333.767 257.102 333.767 257.263H326.951C326.986 257.918 327.135 258.465 327.4 258.902C327.676 259.327 328.015 259.649 328.418 259.868C328.832 260.086 329.269 260.196 329.729 260.196C330.327 260.196 330.828 260.058 331.23 259.782C331.633 259.506 331.926 259.132 332.11 258.66H333.542C333.312 259.454 332.869 260.115 332.214 260.644C331.57 261.162 330.741 261.421 329.729 261.421ZM329.729 253.674C329.039 253.674 328.424 253.887 327.883 254.312C327.354 254.726 327.049 255.336 326.969 256.141H332.352C332.317 255.37 332.053 254.766 331.558 254.329C331.063 253.892 330.454 253.674 329.729 253.674ZM338.983 261.421C337.959 261.421 337.108 261.162 336.43 260.644C335.751 260.127 335.354 259.425 335.239 258.539H336.723C336.815 258.988 337.051 259.379 337.43 259.713C337.821 260.035 338.345 260.196 339 260.196C339.61 260.196 340.059 260.069 340.346 259.816C340.634 259.552 340.778 259.241 340.778 258.884C340.778 258.367 340.588 258.022 340.208 257.849C339.84 257.677 339.317 257.521 338.638 257.383C338.178 257.291 337.718 257.159 337.258 256.986C336.798 256.814 336.412 256.572 336.102 256.262C335.791 255.94 335.636 255.52 335.636 255.002C335.636 254.255 335.912 253.645 336.464 253.173C337.028 252.69 337.787 252.449 338.742 252.449C339.65 252.449 340.392 252.679 340.967 253.139C341.554 253.587 341.893 254.232 341.985 255.071H340.553C340.496 254.634 340.306 254.295 339.984 254.053C339.673 253.8 339.253 253.674 338.724 253.674C338.207 253.674 337.804 253.783 337.517 254.002C337.241 254.22 337.102 254.508 337.102 254.864C337.102 255.209 337.281 255.48 337.637 255.675C338.005 255.871 338.5 256.038 339.121 256.176C339.65 256.291 340.151 256.434 340.622 256.607C341.105 256.768 341.497 257.015 341.796 257.349C342.106 257.671 342.261 258.143 342.261 258.764C342.273 259.534 341.98 260.173 341.381 260.679C340.795 261.173 339.995 261.421 338.983 261.421ZM246.089 290.214V288.365C246.73 287.724 247.223 287.067 247.568 286.393C247.913 285.703 248.086 284.816 248.086 283.731C248.086 283.452 248.061 283.164 248.012 282.868H245.202V280.699H247.321C247.174 280.272 247.042 279.828 246.927 279.368C246.828 278.908 246.779 278.423 246.779 277.914C246.779 276.83 247.009 275.893 247.469 275.104C247.946 274.315 248.603 273.716 249.441 273.305C250.296 272.878 251.273 272.664 252.374 272.664C253.623 272.664 254.659 272.902 255.48 273.379C256.302 273.855 256.926 274.496 257.353 275.301C257.781 276.106 258.019 277.002 258.068 277.988H255.16C255.127 277.216 254.88 276.575 254.42 276.065C253.96 275.54 253.295 275.277 252.424 275.277C251.701 275.277 251.076 275.498 250.55 275.942C250.025 276.386 249.762 277.076 249.762 278.013C249.762 278.44 249.827 278.884 249.959 279.344C250.09 279.787 250.238 280.239 250.403 280.699H255.012V282.868H250.994C251.043 283.164 251.068 283.452 251.068 283.731C251.068 284.405 250.937 285.087 250.674 285.777C250.411 286.467 249.975 287.108 249.367 287.7H258.142V290.214H246.089ZM266.846 290.51C265.712 290.51 264.685 290.312 263.764 289.918C262.844 289.507 262.105 288.883 261.546 288.045C260.987 287.207 260.692 286.155 260.659 284.89H263.764C263.781 285.728 264.052 286.434 264.578 287.009C265.12 287.568 265.876 287.847 266.846 287.847C267.766 287.847 268.472 287.593 268.965 287.083C269.458 286.574 269.705 285.933 269.705 285.161C269.705 284.257 269.376 283.575 268.719 283.115C268.078 282.638 267.248 282.4 266.229 282.4H264.948V279.812H266.254C267.092 279.812 267.79 279.615 268.349 279.22C268.908 278.826 269.187 278.243 269.187 277.47C269.187 276.83 268.974 276.32 268.546 275.942C268.135 275.548 267.56 275.351 266.821 275.351C266.016 275.351 265.383 275.589 264.923 276.065C264.479 276.542 264.233 277.125 264.183 277.815H261.102C261.168 276.222 261.719 274.964 262.754 274.044C263.806 273.124 265.161 272.664 266.821 272.664C268.004 272.664 268.998 272.878 269.803 273.305C270.625 273.716 271.241 274.266 271.652 274.956C272.079 275.646 272.293 276.41 272.293 277.249C272.293 278.218 272.022 279.04 271.479 279.713C270.954 280.371 270.296 280.814 269.508 281.044C270.477 281.242 271.266 281.718 271.874 282.474C272.482 283.214 272.786 284.15 272.786 285.284C272.786 286.237 272.556 287.108 272.096 287.897C271.636 288.686 270.962 289.318 270.074 289.795C269.204 290.271 268.127 290.51 266.846 290.51ZM283.772 290.214V287.009H275.268V284.495L283.353 272.96H286.927V284.273H289.195V287.009H286.927V290.214H283.772ZM278.645 284.273H283.969V276.435L278.645 284.273ZM297.566 290.51C296.366 290.51 295.356 290.279 294.534 289.819C293.712 289.343 293.072 288.727 292.611 287.971C292.151 287.215 291.88 286.401 291.798 285.53H294.731C294.863 286.286 295.175 286.87 295.668 287.281C296.177 287.691 296.818 287.897 297.59 287.897C298.691 287.897 299.579 287.396 300.253 286.393C300.926 285.374 301.288 283.83 301.337 281.759C300.943 282.433 300.343 282.992 299.538 283.435C298.749 283.879 297.878 284.101 296.925 284.101C295.972 284.101 295.076 283.871 294.238 283.411C293.4 282.951 292.718 282.302 292.192 281.463C291.667 280.625 291.404 279.639 291.404 278.506C291.404 277.47 291.658 276.509 292.168 275.622C292.677 274.734 293.384 274.02 294.288 273.477C295.191 272.935 296.251 272.664 297.467 272.664C298.765 272.664 299.858 272.902 300.746 273.379C301.633 273.855 302.339 274.496 302.865 275.301C303.408 276.106 303.794 277.002 304.024 277.988C304.27 278.974 304.394 279.985 304.394 281.02C304.394 282.942 304.122 284.618 303.58 286.048C303.054 287.461 302.274 288.562 301.238 289.351C300.22 290.123 298.995 290.51 297.566 290.51ZM297.664 281.439C298.272 281.439 298.823 281.307 299.316 281.044C299.809 280.765 300.195 280.404 300.474 279.96C300.754 279.5 300.893 278.99 300.893 278.432C300.893 277.544 300.581 276.813 299.957 276.238C299.349 275.663 298.576 275.375 297.64 275.375C296.72 275.375 295.955 275.663 295.347 276.238C294.739 276.797 294.435 277.511 294.435 278.382C294.435 279.303 294.739 280.042 295.347 280.601C295.955 281.159 296.728 281.439 297.664 281.439ZM305.966 293.073L307.371 286.935H310.427L308.036 293.073H305.966ZM319.189 290.51C317.923 290.51 316.83 290.288 315.91 289.844C315.006 289.4 314.292 288.792 313.766 288.02C313.256 287.231 312.961 286.344 312.878 285.358H315.96C316.107 286.065 316.469 286.656 317.044 287.133C317.619 287.593 318.334 287.823 319.189 287.823C320.109 287.823 320.856 287.486 321.432 286.812C322.023 286.138 322.319 285.3 322.319 284.298C322.319 283.263 322.023 282.441 321.432 281.833C320.856 281.225 320.125 280.921 319.238 280.921C318.498 280.921 317.857 281.102 317.315 281.463C316.773 281.825 316.387 282.277 316.157 282.819H313.125L314.604 272.96H324.168V275.72H316.97L316.181 279.713C316.543 279.319 317.036 278.999 317.66 278.752C318.285 278.489 318.983 278.358 319.755 278.358C320.988 278.358 322.015 278.637 322.837 279.196C323.658 279.738 324.283 280.461 324.71 281.365C325.137 282.252 325.351 283.222 325.351 284.273C325.351 285.473 325.088 286.541 324.562 287.478C324.053 288.414 323.329 289.154 322.393 289.696C321.473 290.238 320.405 290.51 319.189 290.51ZM335.361 290.51C333.767 290.51 332.403 290.14 331.269 289.4C330.135 288.644 329.256 287.601 328.632 286.27C328.024 284.922 327.72 283.361 327.72 281.587C327.72 279.828 328.024 278.276 328.632 276.928C329.256 275.581 330.135 274.537 331.269 273.798C332.403 273.042 333.767 272.664 335.361 272.664C336.955 272.664 338.319 273.042 339.453 273.798C340.586 274.537 341.457 275.581 342.065 276.928C342.69 278.276 343.002 279.828 343.002 281.587C343.002 283.361 342.69 284.922 342.065 286.27C341.457 287.601 340.586 288.644 339.453 289.4C338.319 290.14 336.955 290.51 335.361 290.51ZM335.361 287.675C336.659 287.675 337.719 287.133 338.541 286.048C339.362 284.964 339.773 283.476 339.773 281.587C339.773 279.697 339.362 278.21 338.541 277.125C337.719 276.041 336.659 275.498 335.361 275.498C334.046 275.498 332.978 276.041 332.157 277.125C331.351 278.21 330.949 279.697 330.949 281.587C330.949 283.476 331.351 284.964 332.157 286.048C332.978 287.133 334.046 287.675 335.361 287.675ZM352.861 290.51C351.267 290.51 349.903 290.14 348.769 289.4C347.635 288.644 346.756 287.601 346.131 286.27C345.523 284.922 345.219 283.361 345.219 281.587C345.219 279.828 345.523 278.276 346.131 276.928C346.756 275.581 347.635 274.537 348.769 273.798C349.903 273.042 351.267 272.664 352.861 272.664C354.454 272.664 355.818 273.042 356.952 273.798C358.086 274.537 358.957 275.581 359.565 276.928C360.189 278.276 360.502 279.828 360.502 281.587C360.502 283.361 360.189 284.922 359.565 286.27C358.957 287.601 358.086 288.644 356.952 289.4C355.818 290.14 354.454 290.51 352.861 290.51ZM352.861 287.675C354.159 287.675 355.219 287.133 356.04 286.048C356.862 284.964 357.273 283.476 357.273 281.587C357.273 279.697 356.862 278.21 356.04 277.125C355.219 276.041 354.159 275.498 352.861 275.498C351.546 275.498 350.478 276.041 349.656 277.125C348.851 278.21 348.448 279.697 348.448 281.587C348.448 283.476 348.851 284.964 349.656 286.048C350.478 287.133 351.546 287.675 352.861 287.675Z" fill="black" style="fill:black;fill-opacity:1;"/>
<defs>
<filter id="filter0_d_532_977" x="353.147" y="253.875" width="174.172" height="123.543" filterUnits="userSpaceOnUse" color-interpolation-filters="sRGB">
<feFlood flood-opacity="0" result="BackgroundImageFix"/>
<feColorMatrix in="SourceAlpha" type="matrix" values="0 0 0 0 0 0 0 0 0 0 0 0 0 0 0 0 0 0 127 0" result="hardAlpha"/>
<feOffset dy="4"/>
<feGaussianBlur stdDeviation="24"/>
<feComposite in2="hardAlpha" operator="out"/>
<feColorMatrix type="matrix" values="0 0 0 0 0 0 0 0 0 0 0 0 0 0 0 0 0 0 0.25 0"/>
<feBlend mode="normal" in2="BackgroundImageFix" result="effect1_dropShadow_532_977"/>
<feBlend mode="normal" in="SourceGraphic" in2="effect1_dropShadow_532_977" result="shape"/>
</filter>
<filter id="filter1_d_532_977" x="64" y="117.622" width="194.702" height="143.676" filterUnits="userSpaceOnUse" color-interpolation-filters="sRGB">
<feFlood flood-opacity="0" result="BackgroundImageFix"/>
<feColorMatrix in="SourceAlpha" type="matrix" values="0 0 0 0 0 0 0 0 0 0 0 0 0 0 0 0 0 0 127 0" result="hardAlpha"/>
<feOffset dy="4"/>
<feGaussianBlur stdDeviation="24"/>
<feComposite in2="hardAlpha" operator="out"/>
<feColorMatrix type="matrix" values="0 0 0 0 0 0 0 0 0 0 0 0 0 0 0 0 0 0 0.25 0"/>
<feBlend mode="normal" in2="BackgroundImageFix" result="effect1_dropShadow_532_977"/>
<feBlend mode="normal" in="SourceGraphic" in2="effect1_dropShadow_532_977" result="shape"/>
</filter>
</defs>
</svg>
