<svg width="606" height="524" viewBox="0 0 606 524" fill="none" xmlns="http://www.w3.org/2000/svg">
<rect x="60" y="60" width="486" height="400" rx="32" fill="#F5F8FF" style="fill:#F5F8FF;fill:color(display-p3 0.9608 0.9725 1.0000);fill-opacity:1;"/>
<rect x="137.527" y="143" width="21.7376" height="70" fill="#FD7228" style="fill:#FD7228;fill:color(display-p3 0.9922 0.4471 0.1569);fill-opacity:1;"/>
<rect x="287" y="143" width="22" height="43" fill="#FD7228" style="fill:#FD7228;fill:color(display-p3 0.9922 0.4471 0.1569);fill-opacity:1;"/>
<rect x="287" y="209" width="22" height="26" fill="#CFCFCF" style="fill:#CFCFCF;fill:color(display-p3 0.8125 0.8125 0.8125);fill-opacity:1;"/>
<rect x="438" y="143" width="21" height="29" fill="#FD7228" style="fill:#FD7228;fill:color(display-p3 0.9922 0.4471 0.1569);fill-opacity:1;"/>
<rect x="437.882" y="182" width="21.5028" height="13" fill="#CFCFCF" style="fill:#CFCFCF;fill:color(display-p3 0.8125 0.8125 0.8125);fill-opacity:1;"/>
<path opacity="0.2" fill-rule="evenodd" clip-rule="evenodd" d="M287 143.015C222.5 143.015 222.5 143 158 143V186C222.5 186 222.5 185.645 287 185.645" fill="url(#paint0_linear_532_1617)" style=""/>
<path opacity="0.2" fill-rule="evenodd" clip-rule="evenodd" d="M287.135 208.34C222.562 208.34 222.562 186 157.99 186V212.66C222.562 212.66 222.562 235 287.135 235" fill="url(#paint1_linear_532_1617)" style=""/>
<path opacity="0.2" fill-rule="evenodd" clip-rule="evenodd" d="M438 143C373.5 143 373.5 143 309 143V172C373.5 172 373.5 172 438 172" fill="url(#paint2_linear_532_1617)" style=""/>
<path opacity="0.2" fill-rule="evenodd" clip-rule="evenodd" d="M437.879 181.352C373.371 181.352 373.371 172 308.862 172V185.648C373.371 185.648 373.371 195 437.879 195" fill="url(#paint3_linear_532_1617)" style=""/>
<g opacity="0.8">
<rect x="391.36" y="92" width="113.64" height="44" rx="8" fill="#040815" style="fill:#040815;fill:color(display-p3 0.0157 0.0314 0.0824);fill-opacity:1;"/>
<path d="M406.832 110V100.2H408.624V110H406.832ZM410.481 110V103.056H412.063L412.217 103.994C412.441 103.658 412.735 103.392 413.099 103.196C413.472 102.991 413.902 102.888 414.387 102.888C415.46 102.888 416.221 103.303 416.669 104.134C416.921 103.751 417.257 103.448 417.677 103.224C418.106 103 418.573 102.888 419.077 102.888C419.982 102.888 420.678 103.159 421.163 103.7C421.648 104.241 421.891 105.035 421.891 106.08V110H420.099V106.248C420.099 105.651 419.982 105.193 419.749 104.876C419.525 104.559 419.175 104.4 418.699 104.4C418.214 104.4 417.822 104.577 417.523 104.932C417.234 105.287 417.089 105.781 417.089 106.416V110H415.297V106.248C415.297 105.651 415.18 105.193 414.947 104.876C414.714 104.559 414.354 104.4 413.869 104.4C413.393 104.4 413.006 104.577 412.707 104.932C412.418 105.287 412.273 105.781 412.273 106.416V110H410.481ZM423.592 113.08V103.056H425.188L425.384 104.05C425.608 103.742 425.902 103.471 426.266 103.238C426.64 103.005 427.12 102.888 427.708 102.888C428.362 102.888 428.945 103.047 429.458 103.364C429.972 103.681 430.378 104.115 430.676 104.666C430.975 105.217 431.124 105.842 431.124 106.542C431.124 107.242 430.975 107.867 430.676 108.418C430.378 108.959 429.972 109.389 429.458 109.706C428.945 110.014 428.362 110.168 427.708 110.168C427.186 110.168 426.728 110.07 426.336 109.874C425.944 109.678 425.627 109.403 425.384 109.048V113.08H423.592ZM427.33 108.6C427.9 108.6 428.371 108.409 428.744 108.026C429.118 107.643 429.304 107.149 429.304 106.542C429.304 105.935 429.118 105.436 428.744 105.044C428.371 104.652 427.9 104.456 427.33 104.456C426.752 104.456 426.276 104.652 425.902 105.044C425.538 105.427 425.356 105.921 425.356 106.528C425.356 107.135 425.538 107.634 425.902 108.026C426.276 108.409 426.752 108.6 427.33 108.6ZM432.725 110V103.056H434.321L434.489 104.358C434.741 103.91 435.082 103.555 435.511 103.294C435.95 103.023 436.463 102.888 437.051 102.888V104.778H436.547C436.155 104.778 435.805 104.839 435.497 104.96C435.189 105.081 434.946 105.291 434.769 105.59C434.601 105.889 434.517 106.304 434.517 106.836V110H432.725ZM441.485 110.168C440.813 110.168 440.206 110.014 439.665 109.706C439.133 109.398 438.708 108.973 438.391 108.432C438.083 107.881 437.929 107.247 437.929 106.528C437.929 105.809 438.087 105.179 438.405 104.638C438.722 104.087 439.147 103.658 439.679 103.35C440.22 103.042 440.827 102.888 441.499 102.888C442.161 102.888 442.759 103.042 443.291 103.35C443.832 103.658 444.257 104.087 444.565 104.638C444.882 105.179 445.041 105.809 445.041 106.528C445.041 107.247 444.882 107.881 444.565 108.432C444.257 108.973 443.832 109.398 443.291 109.706C442.749 110.014 442.147 110.168 441.485 110.168ZM441.485 108.614C441.951 108.614 442.357 108.441 442.703 108.096C443.048 107.741 443.221 107.219 443.221 106.528C443.221 105.837 443.048 105.319 442.703 104.974C442.357 104.619 441.956 104.442 441.499 104.442C441.023 104.442 440.612 104.619 440.267 104.974C439.931 105.319 439.763 105.837 439.763 106.528C439.763 107.219 439.931 107.741 440.267 108.096C440.612 108.441 441.018 108.614 441.485 108.614ZM448.177 110L445.629 103.056H447.505L449.269 108.306L451.033 103.056H452.909L450.347 110H448.177ZM457.072 110.168C456.372 110.168 455.751 110.019 455.21 109.72C454.668 109.421 454.244 109.001 453.936 108.46C453.628 107.919 453.474 107.293 453.474 106.584C453.474 105.865 453.623 105.226 453.922 104.666C454.23 104.106 454.65 103.672 455.182 103.364C455.723 103.047 456.358 102.888 457.086 102.888C457.767 102.888 458.369 103.037 458.892 103.336C459.414 103.635 459.82 104.045 460.11 104.568C460.408 105.081 460.558 105.655 460.558 106.29C460.558 106.393 460.553 106.5 460.544 106.612C460.544 106.724 460.539 106.841 460.53 106.962H455.252C455.289 107.503 455.476 107.928 455.812 108.236C456.157 108.544 456.572 108.698 457.058 108.698C457.422 108.698 457.725 108.619 457.968 108.46C458.22 108.292 458.406 108.077 458.528 107.816H460.348C460.217 108.255 459.998 108.656 459.69 109.02C459.391 109.375 459.018 109.655 458.57 109.86C458.131 110.065 457.632 110.168 457.072 110.168ZM457.086 104.344C456.647 104.344 456.26 104.47 455.924 104.722C455.588 104.965 455.373 105.338 455.28 105.842H458.738C458.71 105.385 458.542 105.021 458.234 104.75C457.926 104.479 457.543 104.344 457.086 104.344ZM465.257 110.168C464.604 110.168 464.02 110.009 463.507 109.692C462.994 109.375 462.588 108.941 462.289 108.39C461.99 107.839 461.841 107.214 461.841 106.514C461.841 105.814 461.99 105.193 462.289 104.652C462.588 104.101 462.994 103.672 463.507 103.364C464.02 103.047 464.604 102.888 465.257 102.888C465.78 102.888 466.237 102.986 466.629 103.182C467.021 103.378 467.338 103.653 467.581 104.008V99.92H469.373V110H467.777L467.581 109.006C467.357 109.314 467.058 109.585 466.685 109.818C466.321 110.051 465.845 110.168 465.257 110.168ZM465.635 108.6C466.214 108.6 466.685 108.409 467.049 108.026C467.422 107.634 467.609 107.135 467.609 106.528C467.609 105.921 467.422 105.427 467.049 105.044C466.685 104.652 466.214 104.456 465.635 104.456C465.066 104.456 464.594 104.647 464.221 105.03C463.848 105.413 463.661 105.907 463.661 106.514C463.661 107.121 463.848 107.62 464.221 108.012C464.594 108.404 465.066 108.6 465.635 108.6ZM478.65 110.168C478.127 110.168 477.67 110.07 477.278 109.874C476.886 109.678 476.568 109.403 476.326 109.048L476.13 110H474.534V99.92H476.326V104.05C476.55 103.742 476.844 103.471 477.208 103.238C477.581 103.005 478.062 102.888 478.65 102.888C479.303 102.888 479.886 103.047 480.4 103.364C480.913 103.681 481.319 104.115 481.618 104.666C481.916 105.217 482.066 105.842 482.066 106.542C482.066 107.242 481.916 107.867 481.618 108.418C481.319 108.959 480.913 109.389 480.4 109.706C479.886 110.014 479.303 110.168 478.65 110.168ZM478.272 108.6C478.841 108.6 479.312 108.409 479.686 108.026C480.059 107.643 480.246 107.149 480.246 106.542C480.246 105.935 480.059 105.436 479.686 105.044C479.312 104.652 478.841 104.456 478.272 104.456C477.693 104.456 477.217 104.652 476.844 105.044C476.48 105.427 476.298 105.921 476.298 106.528C476.298 107.135 476.48 107.634 476.844 108.026C477.217 108.409 477.693 108.6 478.272 108.6ZM483.906 113.08L485.516 109.538H485.096L482.394 103.056H484.34L486.286 107.942L488.316 103.056H490.22L485.81 113.08H483.906ZM438.89 128V120.244L437.28 120.622V119.25L439.646 118.2H440.752V128H438.89ZM446.67 128.168C445.764 128.168 444.99 127.958 444.346 127.538C443.702 127.109 443.202 126.516 442.848 125.76C442.502 124.995 442.33 124.108 442.33 123.1C442.33 122.101 442.502 121.219 442.848 120.454C443.202 119.689 443.702 119.096 444.346 118.676C444.99 118.247 445.764 118.032 446.67 118.032C447.575 118.032 448.35 118.247 448.994 118.676C449.638 119.096 450.132 119.689 450.478 120.454C450.832 121.219 451.01 122.101 451.01 123.1C451.01 124.108 450.832 124.995 450.478 125.76C450.132 126.516 449.638 127.109 448.994 127.538C448.35 127.958 447.575 128.168 446.67 128.168ZM446.67 126.558C447.407 126.558 448.009 126.25 448.476 125.634C448.942 125.018 449.176 124.173 449.176 123.1C449.176 122.027 448.942 121.182 448.476 120.566C448.009 119.95 447.407 119.642 446.67 119.642C445.923 119.642 445.316 119.95 444.85 120.566C444.392 121.182 444.164 122.027 444.164 123.1C444.164 124.173 444.392 125.018 444.85 125.634C445.316 126.25 445.923 126.558 446.67 126.558ZM451.891 128L454.411 124.528L451.891 121.056H453.809L455.573 123.52L457.323 121.056H459.255L456.721 124.528L459.255 128H457.323L455.573 125.536L453.809 128H451.891Z" fill="#F5F5F5" style="fill:#F5F5F5;fill:color(display-p3 0.9600 0.9600 0.9600);fill-opacity:1;"/>
</g>
<g filter="url(#filter0_d_532_1617)">
<rect x="48" y="256" width="357" height="216" rx="32" fill="white" style="fill:white;fill-opacity:1;" shape-rendering="crispEdges"/>
<path d="M80.5 292C80.5 290.067 82.067 288.5 84 288.5H231.5V319.5H84C82.067 319.5 80.5 317.933 80.5 316V292Z" fill="white" style="fill:white;fill-opacity:1;"/>
<path d="M80.5 292C80.5 290.067 82.067 288.5 84 288.5H231.5V319.5H84C82.067 319.5 80.5 317.933 80.5 316V292Z" stroke="#040815" style="stroke:#040815;stroke:color(display-p3 0.0157 0.0314 0.0824);stroke-opacity:1;"/>
<path d="M88.814 308V300.3H89.738V307.263H93.324V308H88.814ZM95.0993 301.334C94.916 301.334 94.762 301.275 94.6373 301.158C94.52 301.033 94.4613 300.879 94.4613 300.696C94.4613 300.52 94.52 300.373 94.6373 300.256C94.762 300.139 94.916 300.08 95.0993 300.08C95.2753 300.08 95.4256 300.139 95.5503 300.256C95.675 300.373 95.7373 300.52 95.7373 300.696C95.7373 300.879 95.675 301.033 95.5503 301.158C95.4256 301.275 95.2753 301.334 95.0993 301.334ZM94.6373 308V302.544H95.5613V308H94.6373ZM99.6781 308.132C99.1575 308.132 98.6881 308.015 98.2701 307.78C97.8595 307.538 97.5331 307.204 97.2911 306.779C97.0565 306.346 96.9391 305.844 96.9391 305.272C96.9391 304.7 97.0565 304.201 97.2911 303.776C97.5331 303.343 97.8595 303.01 98.2701 302.775C98.6881 302.533 99.1575 302.412 99.6781 302.412C100.323 302.412 100.866 302.581 101.306 302.918C101.753 303.255 102.036 303.706 102.153 304.271H101.207C101.134 303.934 100.954 303.673 100.668 303.49C100.382 303.299 100.048 303.204 99.6671 303.204C99.3591 303.204 99.0695 303.281 98.7981 303.435C98.5268 303.589 98.3068 303.82 98.1381 304.128C97.9695 304.436 97.8851 304.817 97.8851 305.272C97.8851 305.727 97.9695 306.108 98.1381 306.416C98.3068 306.724 98.5268 306.959 98.7981 307.12C99.0695 307.274 99.3591 307.351 99.6671 307.351C100.048 307.351 100.382 307.259 100.668 307.076C100.954 306.885 101.134 306.618 101.207 306.273H102.153C102.043 306.823 101.764 307.27 101.317 307.615C100.87 307.96 100.323 308.132 99.6781 308.132ZM105.897 308.132C105.376 308.132 104.914 308.015 104.511 307.78C104.107 307.538 103.788 307.204 103.554 306.779C103.326 306.354 103.213 305.851 103.213 305.272C103.213 304.7 103.326 304.201 103.554 303.776C103.781 303.343 104.096 303.01 104.5 302.775C104.91 302.533 105.383 302.412 105.919 302.412C106.447 302.412 106.901 302.533 107.283 302.775C107.671 303.01 107.968 303.321 108.174 303.71C108.379 304.099 108.482 304.517 108.482 304.964C108.482 305.045 108.478 305.125 108.471 305.206C108.471 305.287 108.471 305.378 108.471 305.481H104.126C104.148 305.899 104.243 306.247 104.412 306.526C104.588 306.797 104.804 307.003 105.061 307.142C105.325 307.281 105.603 307.351 105.897 307.351C106.278 307.351 106.597 307.263 106.854 307.087C107.11 306.911 107.297 306.673 107.415 306.372H108.328C108.181 306.878 107.899 307.3 107.481 307.637C107.07 307.967 106.542 308.132 105.897 308.132ZM105.897 303.193C105.457 303.193 105.064 303.329 104.72 303.6C104.382 303.864 104.188 304.253 104.137 304.766H107.569C107.547 304.275 107.378 303.89 107.063 303.611C106.747 303.332 106.359 303.193 105.897 303.193ZM109.706 308V302.544H110.542L110.597 303.523C110.773 303.178 111.026 302.907 111.356 302.709C111.686 302.511 112.06 302.412 112.478 302.412C113.124 302.412 113.637 302.61 114.018 303.006C114.407 303.395 114.601 303.996 114.601 304.81V308H113.677V304.909C113.677 303.772 113.208 303.204 112.269 303.204C111.8 303.204 111.408 303.376 111.092 303.721C110.784 304.058 110.63 304.542 110.63 305.173V308H109.706ZM118.509 308.132C117.989 308.132 117.519 308.015 117.101 307.78C116.691 307.538 116.364 307.204 116.122 306.779C115.888 306.346 115.77 305.844 115.77 305.272C115.77 304.7 115.888 304.201 116.122 303.776C116.364 303.343 116.691 303.01 117.101 302.775C117.519 302.533 117.989 302.412 118.509 302.412C119.155 302.412 119.697 302.581 120.137 302.918C120.585 303.255 120.867 303.706 120.984 304.271H120.038C119.965 303.934 119.785 303.673 119.499 303.49C119.213 303.299 118.88 303.204 118.498 303.204C118.19 303.204 117.901 303.281 117.629 303.435C117.358 303.589 117.138 303.82 116.969 304.128C116.801 304.436 116.716 304.817 116.716 305.272C116.716 305.727 116.801 306.108 116.969 306.416C117.138 306.724 117.358 306.959 117.629 307.12C117.901 307.274 118.19 307.351 118.498 307.351C118.88 307.351 119.213 307.259 119.499 307.076C119.785 306.885 119.965 306.618 120.038 306.273H120.984C120.874 306.823 120.596 307.27 120.148 307.615C119.701 307.96 119.155 308.132 118.509 308.132ZM124.728 308.132C124.207 308.132 123.745 308.015 123.342 307.78C122.938 307.538 122.619 307.204 122.385 306.779C122.157 306.354 122.044 305.851 122.044 305.272C122.044 304.7 122.157 304.201 122.385 303.776C122.612 303.343 122.927 303.01 123.331 302.775C123.741 302.533 124.214 302.412 124.75 302.412C125.278 302.412 125.732 302.533 126.114 302.775C126.502 303.01 126.799 303.321 127.005 303.71C127.21 304.099 127.313 304.517 127.313 304.964C127.313 305.045 127.309 305.125 127.302 305.206C127.302 305.287 127.302 305.378 127.302 305.481H122.957C122.979 305.899 123.074 306.247 123.243 306.526C123.419 306.797 123.635 307.003 123.892 307.142C124.156 307.281 124.434 307.351 124.728 307.351C125.109 307.351 125.428 307.263 125.685 307.087C125.941 306.911 126.128 306.673 126.246 306.372H127.159C127.012 306.878 126.73 307.3 126.312 307.637C125.901 307.967 125.373 308.132 124.728 308.132ZM124.728 303.193C124.288 303.193 123.895 303.329 123.551 303.6C123.213 303.864 123.019 304.253 122.968 304.766H126.4C126.378 304.275 126.209 303.89 125.894 303.611C125.578 303.332 125.19 303.193 124.728 303.193ZM130.627 308.132C129.975 308.132 129.432 307.967 128.999 307.637C128.567 307.307 128.314 306.86 128.24 306.295H129.186C129.245 306.581 129.395 306.83 129.637 307.043C129.887 307.248 130.22 307.351 130.638 307.351C131.027 307.351 131.313 307.27 131.496 307.109C131.68 306.94 131.771 306.742 131.771 306.515C131.771 306.185 131.65 305.965 131.408 305.855C131.174 305.745 130.84 305.646 130.407 305.558C130.114 305.499 129.821 305.415 129.527 305.305C129.234 305.195 128.988 305.041 128.79 304.843C128.592 304.638 128.493 304.37 128.493 304.04C128.493 303.563 128.669 303.175 129.021 302.874C129.381 302.566 129.865 302.412 130.473 302.412C131.053 302.412 131.526 302.559 131.892 302.852C132.266 303.138 132.483 303.549 132.541 304.084H131.628C131.592 303.805 131.471 303.589 131.265 303.435C131.067 303.274 130.8 303.193 130.462 303.193C130.132 303.193 129.876 303.263 129.692 303.402C129.516 303.541 129.428 303.725 129.428 303.952C129.428 304.172 129.542 304.344 129.769 304.469C130.004 304.594 130.319 304.7 130.715 304.788C131.053 304.861 131.372 304.953 131.672 305.063C131.98 305.166 132.23 305.323 132.42 305.536C132.618 305.741 132.717 306.042 132.717 306.438C132.725 306.929 132.538 307.336 132.156 307.659C131.782 307.974 131.273 308.132 130.627 308.132Z" fill="#040815" style="fill:#040815;fill:color(display-p3 0.0157 0.0314 0.0824);fill-opacity:1;"/>
<g opacity="0.8">
<mask id="mask0_532_1617" style="mask-type:alpha" maskUnits="userSpaceOnUse" x="203" y="292" width="24" height="24">
<rect x="203" y="292" width="24" height="24" fill="#D9D9D9" style="fill:#D9D9D9;fill:color(display-p3 0.8510 0.8510 0.8510);fill-opacity:1;"/>
</mask>
<g mask="url(#mask0_532_1617)">
<path d="M215 307L210 302H220L215 307Z" fill="black" style="fill:black;fill-opacity:1;"/>
</g>
</g>
<path d="M231.5 288.5H369C370.933 288.5 372.5 290.067 372.5 292V316C372.5 317.933 370.933 319.5 369 319.5H231.5V288.5Z" fill="white" style="fill:white;fill-opacity:1;"/>
<path d="M231.5 288.5H369C370.933 288.5 372.5 290.067 372.5 292V316C372.5 317.933 370.933 319.5 369 319.5H231.5V288.5Z" stroke="#040815" style="stroke:#040815;stroke:color(display-p3 0.0157 0.0314 0.0824);stroke-opacity:1;"/>
<path d="M239.882 309V308.174C240.545 307.651 241.17 307.124 241.758 306.592C242.355 306.051 242.883 305.519 243.34 304.996C243.807 304.473 244.171 303.96 244.432 303.456C244.703 302.952 244.838 302.467 244.838 302C244.838 301.655 244.777 301.333 244.656 301.034C244.544 300.735 244.357 300.497 244.096 300.32C243.835 300.133 243.48 300.04 243.032 300.04C242.603 300.04 242.243 300.138 241.954 300.334C241.665 300.521 241.445 300.773 241.296 301.09C241.156 301.407 241.086 301.748 241.086 302.112H239.952C239.952 301.468 240.087 300.917 240.358 300.46C240.629 299.993 240.997 299.639 241.464 299.396C241.931 299.153 242.458 299.032 243.046 299.032C243.914 299.032 244.623 299.279 245.174 299.774C245.734 300.259 246.014 300.987 246.014 301.958C246.014 302.537 245.869 303.111 245.58 303.68C245.291 304.24 244.922 304.786 244.474 305.318C244.026 305.841 243.545 306.331 243.032 306.788C242.528 307.245 242.057 307.656 241.618 308.02H246.35V309H239.882ZM247.04 310.666L247.852 307.572H249.07L247.852 310.666H247.04ZM254.064 309.168C253.355 309.168 252.757 309.037 252.272 308.776C251.787 308.505 251.395 308.146 251.096 307.698C250.807 307.25 250.592 306.751 250.452 306.2C250.321 305.64 250.256 305.071 250.256 304.492C250.256 303.409 250.405 302.462 250.704 301.65C251.003 300.829 251.432 300.189 251.992 299.732C252.561 299.265 253.247 299.032 254.05 299.032C254.666 299.032 255.193 299.153 255.632 299.396C256.071 299.639 256.416 299.965 256.668 300.376C256.929 300.777 257.093 301.225 257.158 301.72H256.066C255.963 301.188 255.735 300.777 255.38 300.488C255.025 300.199 254.577 300.054 254.036 300.054C253.299 300.054 252.678 300.404 252.174 301.104C251.679 301.795 251.413 302.877 251.376 304.352C251.6 303.913 251.955 303.535 252.44 303.218C252.935 302.891 253.527 302.728 254.218 302.728C254.778 302.728 255.301 302.859 255.786 303.12C256.281 303.381 256.682 303.75 256.99 304.226C257.298 304.693 257.452 305.243 257.452 305.878C257.452 306.429 257.317 306.956 257.046 307.46C256.775 307.964 256.383 308.375 255.87 308.692C255.366 309.009 254.764 309.168 254.064 309.168ZM253.98 308.132C254.419 308.132 254.811 308.039 255.156 307.852C255.501 307.665 255.772 307.409 255.968 307.082C256.164 306.746 256.262 306.363 256.262 305.934C256.262 305.271 256.043 304.744 255.604 304.352C255.175 303.951 254.633 303.75 253.98 303.75C253.541 303.75 253.149 303.853 252.804 304.058C252.459 304.254 252.183 304.52 251.978 304.856C251.782 305.192 251.684 305.556 251.684 305.948C251.684 306.368 251.782 306.746 251.978 307.082C252.183 307.409 252.459 307.665 252.804 307.852C253.149 308.039 253.541 308.132 253.98 308.132ZM262.406 309.168C261.781 309.168 261.216 309.056 260.712 308.832C260.208 308.599 259.802 308.253 259.494 307.796C259.196 307.339 259.037 306.769 259.018 306.088H260.208C260.218 306.648 260.414 307.133 260.796 307.544C261.179 307.945 261.716 308.146 262.406 308.146C263.097 308.146 263.615 307.955 263.96 307.572C264.315 307.189 264.492 306.727 264.492 306.186C264.492 305.729 264.38 305.355 264.156 305.066C263.942 304.777 263.648 304.562 263.274 304.422C262.91 304.282 262.509 304.212 262.07 304.212H261.342V303.218H262.07C262.705 303.218 263.2 303.073 263.554 302.784C263.918 302.495 264.1 302.089 264.1 301.566C264.1 301.127 263.956 300.768 263.666 300.488C263.386 300.199 262.966 300.054 262.406 300.054C261.865 300.054 261.431 300.217 261.104 300.544C260.778 300.861 260.596 301.263 260.558 301.748H259.368C259.396 301.216 259.536 300.745 259.788 300.334C260.05 299.923 260.404 299.606 260.852 299.382C261.3 299.149 261.818 299.032 262.406 299.032C263.041 299.032 263.568 299.144 263.988 299.368C264.418 299.592 264.74 299.891 264.954 300.264C265.178 300.637 265.29 301.048 265.29 301.496C265.29 301.991 265.155 302.443 264.884 302.854C264.614 303.255 264.208 303.526 263.666 303.666C264.245 303.787 264.726 304.063 265.108 304.492C265.491 304.921 265.682 305.486 265.682 306.186C265.682 306.727 265.556 307.227 265.304 307.684C265.062 308.132 264.698 308.491 264.212 308.762C263.727 309.033 263.125 309.168 262.406 309.168ZM271.407 309.168C270.539 309.168 269.787 308.958 269.153 308.538C268.527 308.109 268.047 307.516 267.711 306.76C267.375 305.995 267.207 305.108 267.207 304.1C267.207 303.092 267.375 302.21 267.711 301.454C268.047 300.689 268.527 300.096 269.153 299.676C269.787 299.247 270.539 299.032 271.407 299.032C272.275 299.032 273.021 299.247 273.647 299.676C274.272 300.096 274.753 300.689 275.089 301.454C275.425 302.21 275.593 303.092 275.593 304.1C275.593 305.108 275.425 305.995 275.089 306.76C274.753 307.516 274.272 308.109 273.647 308.538C273.021 308.958 272.275 309.168 271.407 309.168ZM271.407 308.132C271.976 308.132 272.485 307.973 272.933 307.656C273.39 307.329 273.745 306.867 273.997 306.27C274.258 305.663 274.389 304.94 274.389 304.1C274.389 303.26 274.258 302.541 273.997 301.944C273.745 301.347 273.39 300.889 272.933 300.572C272.485 300.245 271.976 300.082 271.407 300.082C270.828 300.082 270.315 300.245 269.867 300.572C269.419 300.889 269.064 301.347 268.803 301.944C268.541 302.541 268.411 303.26 268.411 304.1C268.411 304.94 268.541 305.663 268.803 306.27C269.064 306.867 269.419 307.329 269.867 307.656C270.315 307.973 270.828 308.132 271.407 308.132Z" fill="#040815" style="fill:#040815;fill:color(display-p3 0.0157 0.0314 0.0824);fill-opacity:1;"/>
<mask id="mask1_532_1617" style="mask-type:alpha" maskUnits="userSpaceOnUse" x="80" y="332" width="24" height="24">
<rect x="80" y="332" width="24" height="24" fill="#D9D9D9" style="fill:#D9D9D9;fill:color(display-p3 0.8510 0.8510 0.8510);fill-opacity:1;"/>
</mask>
<g mask="url(#mask1_532_1617)">
<path d="M94 353L92.575 351.575L96.175 348H85V336H87V346H96.175L92.575 342.4L93.975 340.975L100 347L94 353Z" fill="black" style="fill:black;fill-opacity:1;"/>
</g>
<path d="M111.5 332C111.5 330.067 113.067 328.5 115 328.5H262.5V359.5H115C113.067 359.5 111.5 357.933 111.5 356V332Z" fill="white" style="fill:white;fill-opacity:1;"/>
<path d="M111.5 332C111.5 330.067 113.067 328.5 115 328.5H262.5V359.5H115C113.067 359.5 111.5 357.933 111.5 356V332Z" stroke="#040815" style="stroke:#040815;stroke:color(display-p3 0.0157 0.0314 0.0824);stroke-opacity:1;"/>
<path d="M119.33 348L122.168 340.3H123.147L125.974 348H124.995L124.291 346.02H121.013L120.298 348H119.33ZM121.288 345.272H124.016L122.652 341.466L121.288 345.272ZM129.271 348.132C128.75 348.132 128.281 348.015 127.863 347.78C127.452 347.538 127.126 347.204 126.884 346.779C126.649 346.346 126.532 345.844 126.532 345.272C126.532 344.7 126.649 344.201 126.884 343.776C127.126 343.343 127.452 343.01 127.863 342.775C128.281 342.533 128.75 342.412 129.271 342.412C129.916 342.412 130.459 342.581 130.899 342.918C131.346 343.255 131.629 343.706 131.746 344.271H130.8C130.727 343.934 130.547 343.673 130.261 343.49C129.975 343.299 129.641 343.204 129.26 343.204C128.952 343.204 128.662 343.281 128.391 343.435C128.12 343.589 127.9 343.82 127.731 344.128C127.562 344.436 127.478 344.817 127.478 345.272C127.478 345.727 127.562 346.108 127.731 346.416C127.9 346.724 128.12 346.959 128.391 347.12C128.662 347.274 128.952 347.351 129.26 347.351C129.641 347.351 129.975 347.259 130.261 347.076C130.547 346.885 130.727 346.618 130.8 346.273H131.746C131.636 346.823 131.357 347.27 130.91 347.615C130.463 347.96 129.916 348.132 129.271 348.132ZM135.042 348C134.543 348 134.151 347.879 133.865 347.637C133.579 347.395 133.436 346.959 133.436 346.328V343.325H132.49V342.544H133.436L133.557 341.235H134.36V342.544H135.966V343.325H134.36V346.328C134.36 346.673 134.43 346.907 134.569 347.032C134.708 347.149 134.954 347.208 135.306 347.208H135.878V348H135.042ZM137.701 341.334C137.518 341.334 137.364 341.275 137.239 341.158C137.122 341.033 137.063 340.879 137.063 340.696C137.063 340.52 137.122 340.373 137.239 340.256C137.364 340.139 137.518 340.08 137.701 340.08C137.877 340.08 138.027 340.139 138.152 340.256C138.277 340.373 138.339 340.52 138.339 340.696C138.339 340.879 138.277 341.033 138.152 341.158C138.027 341.275 137.877 341.334 137.701 341.334ZM137.239 348V342.544H138.163V348H137.239ZM141.345 348L139.277 342.544H140.245L141.884 347.109L143.534 342.544H144.48L142.412 348H141.345ZM147.044 348.132C146.589 348.132 146.211 348.055 145.911 347.901C145.61 347.747 145.386 347.542 145.24 347.285C145.093 347.028 145.02 346.75 145.02 346.449C145.02 345.892 145.232 345.463 145.658 345.162C146.083 344.861 146.662 344.711 147.396 344.711H148.87V344.645C148.87 344.168 148.745 343.809 148.496 343.567C148.246 343.318 147.913 343.193 147.495 343.193C147.135 343.193 146.824 343.285 146.56 343.468C146.303 343.644 146.142 343.904 146.076 344.249H145.13C145.166 343.853 145.298 343.519 145.526 343.248C145.76 342.977 146.05 342.771 146.395 342.632C146.739 342.485 147.106 342.412 147.495 342.412C148.257 342.412 148.829 342.617 149.211 343.028C149.599 343.431 149.794 343.97 149.794 344.645V348H148.969L148.914 347.021C148.76 347.329 148.532 347.593 148.232 347.813C147.938 348.026 147.542 348.132 147.044 348.132ZM147.187 347.351C147.539 347.351 147.839 347.259 148.089 347.076C148.345 346.893 148.54 346.654 148.672 346.361C148.804 346.068 148.87 345.76 148.87 345.437V345.426H147.473C146.93 345.426 146.545 345.521 146.318 345.712C146.098 345.895 145.988 346.126 145.988 346.405C145.988 346.691 146.09 346.922 146.296 347.098C146.508 347.267 146.805 347.351 147.187 347.351ZM153.186 348C152.687 348 152.295 347.879 152.009 347.637C151.723 347.395 151.58 346.959 151.58 346.328V343.325H150.634V342.544H151.58L151.701 341.235H152.504V342.544H154.11V343.325H152.504V346.328C152.504 346.673 152.573 346.907 152.713 347.032C152.852 347.149 153.098 347.208 153.45 347.208H154.022V348H153.186ZM157.586 348.132C157.065 348.132 156.603 348.015 156.2 347.78C155.797 347.538 155.478 347.204 155.243 346.779C155.016 346.354 154.902 345.851 154.902 345.272C154.902 344.7 155.016 344.201 155.243 343.776C155.47 343.343 155.786 343.01 156.189 342.775C156.6 342.533 157.073 342.412 157.608 342.412C158.136 342.412 158.591 342.533 158.972 342.775C159.361 343.01 159.658 343.321 159.863 343.71C160.068 344.099 160.171 344.517 160.171 344.964C160.171 345.045 160.167 345.125 160.16 345.206C160.16 345.287 160.16 345.378 160.16 345.481H155.815C155.837 345.899 155.932 346.247 156.101 346.526C156.277 346.797 156.493 347.003 156.75 347.142C157.014 347.281 157.293 347.351 157.586 347.351C157.967 347.351 158.286 347.263 158.543 347.087C158.8 346.911 158.987 346.673 159.104 346.372H160.017C159.87 346.878 159.588 347.3 159.17 347.637C158.759 347.967 158.231 348.132 157.586 348.132ZM157.586 343.193C157.146 343.193 156.754 343.329 156.409 343.6C156.072 343.864 155.877 344.253 155.826 344.766H159.258C159.236 344.275 159.067 343.89 158.752 343.611C158.437 343.332 158.048 343.193 157.586 343.193ZM163.871 348.132C163.328 348.132 162.851 348.007 162.441 347.758C162.037 347.509 161.722 347.168 161.495 346.735C161.275 346.302 161.165 345.811 161.165 345.261C161.165 344.711 161.278 344.223 161.506 343.798C161.733 343.365 162.048 343.028 162.452 342.786C162.855 342.537 163.332 342.412 163.882 342.412C164.329 342.412 164.725 342.504 165.07 342.687C165.414 342.87 165.682 343.127 165.873 343.457V340.08H166.797V348H165.961L165.873 347.098C165.697 347.362 165.444 347.6 165.114 347.813C164.784 348.026 164.369 348.132 163.871 348.132ZM163.97 347.329C164.336 347.329 164.659 347.245 164.938 347.076C165.224 346.9 165.444 346.658 165.598 346.35C165.759 346.042 165.84 345.683 165.84 345.272C165.84 344.861 165.759 344.502 165.598 344.194C165.444 343.886 165.224 343.648 164.938 343.479C164.659 343.303 164.336 343.215 163.97 343.215C163.61 343.215 163.288 343.303 163.002 343.479C162.723 343.648 162.503 343.886 162.342 344.194C162.188 344.502 162.111 344.861 162.111 345.272C162.111 345.683 162.188 346.042 162.342 346.35C162.503 346.658 162.723 346.9 163.002 347.076C163.288 347.245 163.61 347.329 163.97 347.329Z" fill="#040815" style="fill:#040815;fill:color(display-p3 0.0157 0.0314 0.0824);fill-opacity:1;"/>
<path d="M262.5 328.5H338C339.933 328.5 341.5 330.067 341.5 332V356C341.5 357.933 339.933 359.5 338 359.5H262.5V328.5Z" fill="white" style="fill:white;fill-opacity:1;"/>
<path d="M262.5 328.5H338C339.933 328.5 341.5 330.067 341.5 332V356C341.5 357.933 339.933 359.5 338 359.5H262.5V328.5Z" stroke="#040815" style="stroke:#040815;stroke:color(display-p3 0.0157 0.0314 0.0824);stroke-opacity:1;"/>
<path d="M274.564 349.168C273.855 349.168 273.257 349.037 272.772 348.776C272.287 348.505 271.895 348.146 271.596 347.698C271.307 347.25 271.092 346.751 270.952 346.2C270.821 345.64 270.756 345.071 270.756 344.492C270.756 343.409 270.905 342.462 271.204 341.65C271.503 340.829 271.932 340.189 272.492 339.732C273.061 339.265 273.747 339.032 274.55 339.032C275.166 339.032 275.693 339.153 276.132 339.396C276.571 339.639 276.916 339.965 277.168 340.376C277.429 340.777 277.593 341.225 277.658 341.72H276.566C276.463 341.188 276.235 340.777 275.88 340.488C275.525 340.199 275.077 340.054 274.536 340.054C273.799 340.054 273.178 340.404 272.674 341.104C272.179 341.795 271.913 342.877 271.876 344.352C272.1 343.913 272.455 343.535 272.94 343.218C273.435 342.891 274.027 342.728 274.718 342.728C275.278 342.728 275.801 342.859 276.286 343.12C276.781 343.381 277.182 343.75 277.49 344.226C277.798 344.693 277.952 345.243 277.952 345.878C277.952 346.429 277.817 346.956 277.546 347.46C277.275 347.964 276.883 348.375 276.37 348.692C275.866 349.009 275.264 349.168 274.564 349.168ZM274.48 348.132C274.919 348.132 275.311 348.039 275.656 347.852C276.001 347.665 276.272 347.409 276.468 347.082C276.664 346.746 276.762 346.363 276.762 345.934C276.762 345.271 276.543 344.744 276.104 344.352C275.675 343.951 275.133 343.75 274.48 343.75C274.041 343.75 273.649 343.853 273.304 344.058C272.959 344.254 272.683 344.52 272.478 344.856C272.282 345.192 272.184 345.556 272.184 345.948C272.184 346.368 272.282 346.746 272.478 347.082C272.683 347.409 272.959 347.665 273.304 347.852C273.649 348.039 274.041 348.132 274.48 348.132ZM283.088 349.168C282.444 349.168 281.866 349.051 281.352 348.818C280.839 348.575 280.433 348.244 280.134 347.824C279.845 347.395 279.7 346.9 279.7 346.34C279.7 345.743 279.873 345.206 280.218 344.73C280.573 344.254 281.04 343.937 281.618 343.778C281.086 343.601 280.676 343.316 280.386 342.924C280.097 342.532 279.952 342.103 279.952 341.636C279.952 341.16 280.078 340.726 280.33 340.334C280.582 339.933 280.942 339.615 281.408 339.382C281.875 339.149 282.435 339.032 283.088 339.032C283.742 339.032 284.302 339.149 284.768 339.382C285.235 339.615 285.594 339.933 285.846 340.334C286.098 340.726 286.224 341.16 286.224 341.636C286.224 342.093 286.08 342.523 285.79 342.924C285.501 343.316 285.09 343.601 284.558 343.778C285.137 343.937 285.599 344.254 285.944 344.73C286.299 345.206 286.476 345.743 286.476 346.34C286.476 346.9 286.327 347.395 286.028 347.824C285.739 348.244 285.338 348.575 284.824 348.818C284.311 349.051 283.732 349.168 283.088 349.168ZM283.088 343.358C283.686 343.358 284.157 343.209 284.502 342.91C284.857 342.602 285.034 342.201 285.034 341.706C285.034 341.155 284.862 340.74 284.516 340.46C284.171 340.18 283.695 340.04 283.088 340.04C282.482 340.04 282.006 340.18 281.66 340.46C281.324 340.74 281.156 341.155 281.156 341.706C281.156 342.201 281.329 342.602 281.674 342.91C282.02 343.209 282.491 343.358 283.088 343.358ZM283.088 348.132C283.826 348.132 284.376 347.964 284.74 347.628C285.114 347.283 285.3 346.83 285.3 346.27C285.3 345.635 285.1 345.155 284.698 344.828C284.297 344.501 283.76 344.338 283.088 344.338C282.416 344.338 281.88 344.501 281.478 344.828C281.077 345.155 280.876 345.635 280.876 346.27C280.876 346.83 281.058 347.283 281.422 347.628C281.796 347.964 282.351 348.132 283.088 348.132ZM293.868 343.75C293.448 343.75 293.066 343.657 292.72 343.47C292.384 343.274 292.118 343.003 291.922 342.658C291.726 342.303 291.628 341.883 291.628 341.398C291.628 340.913 291.726 340.497 291.922 340.152C292.128 339.797 292.398 339.527 292.734 339.34C293.08 339.144 293.462 339.046 293.882 339.046C294.302 339.046 294.68 339.144 295.016 339.34C295.352 339.527 295.618 339.797 295.814 340.152C296.01 340.497 296.108 340.913 296.108 341.398C296.108 341.883 296.006 342.303 295.8 342.658C295.604 343.003 295.338 343.274 295.002 343.47C294.666 343.657 294.288 343.75 293.868 343.75ZM293 349L298.698 339.2H299.874L294.176 349H293ZM293.868 342.84C294.195 342.84 294.48 342.719 294.722 342.476C294.974 342.233 295.1 341.874 295.1 341.398C295.1 340.913 294.979 340.549 294.736 340.306C294.494 340.054 294.209 339.928 293.882 339.928C293.556 339.928 293.262 340.054 293 340.306C292.748 340.549 292.622 340.913 292.622 341.398C292.622 341.874 292.748 342.233 293 342.476C293.252 342.719 293.542 342.84 293.868 342.84ZM299.104 349.168C298.684 349.168 298.302 349.075 297.956 348.888C297.62 348.692 297.354 348.421 297.158 348.076C296.962 347.721 296.864 347.301 296.864 346.816C296.864 346.331 296.962 345.915 297.158 345.57C297.364 345.215 297.634 344.945 297.97 344.758C298.306 344.562 298.684 344.464 299.104 344.464C299.524 344.464 299.902 344.562 300.238 344.758C300.574 344.945 300.84 345.215 301.036 345.57C301.232 345.915 301.33 346.331 301.33 346.816C301.33 347.301 301.232 347.721 301.036 348.076C300.84 348.421 300.574 348.692 300.238 348.888C299.902 349.075 299.524 349.168 299.104 349.168ZM299.09 348.258C299.426 348.258 299.716 348.137 299.958 347.894C300.21 347.651 300.336 347.292 300.336 346.816C300.336 346.331 300.215 345.967 299.972 345.724C299.73 345.481 299.44 345.36 299.104 345.36C298.778 345.36 298.488 345.481 298.236 345.724C297.984 345.967 297.858 346.331 297.858 346.816C297.858 347.292 297.98 347.651 298.222 347.894C298.474 348.137 298.764 348.258 299.09 348.258Z" fill="#040815" style="fill:#040815;fill:color(display-p3 0.0157 0.0314 0.0824);fill-opacity:1;"/>
<mask id="mask2_532_1617" style="mask-type:alpha" maskUnits="userSpaceOnUse" x="349" y="332" width="24" height="24">
<rect x="349" y="332" width="24" height="24" fill="#D9D9D9" style="fill:#D9D9D9;fill:color(display-p3 0.8510 0.8510 0.8510);fill-opacity:1;"/>
</mask>
<g mask="url(#mask2_532_1617)">
<path d="M355.4 351L354 349.6L359.6 344L354 338.4L355.4 337L361 342.6L366.6 337L368 338.4L362.4 344L368 349.6L366.6 351L361 345.4L355.4 351Z" fill="white" style="fill:white;fill-opacity:1;"/>
</g>
<mask id="mask3_532_1617" style="mask-type:alpha" maskUnits="userSpaceOnUse" x="80" y="372" width="24" height="24">
<rect x="80" y="372" width="24" height="24" fill="#D9D9D9" style="fill:#D9D9D9;fill:color(display-p3 0.8510 0.8510 0.8510);fill-opacity:1;"/>
</mask>
<g mask="url(#mask3_532_1617)">
<path d="M94 393L92.575 391.575L96.175 388H85V376H87V386H96.175L92.575 382.4L93.975 380.975L100 387L94 393Z" fill="black" style="fill:black;fill-opacity:1;"/>
</g>
<path d="M111.5 372C111.5 370.067 113.067 368.5 115 368.5H262.5V399.5H115C113.067 399.5 111.5 397.933 111.5 396V372Z" fill="white" style="fill:white;fill-opacity:1;"/>
<path d="M111.5 372C111.5 370.067 113.067 368.5 115 368.5H262.5V399.5H115C113.067 399.5 111.5 397.933 111.5 396V372Z" stroke="#040815" style="stroke:#040815;stroke:color(display-p3 0.0157 0.0314 0.0824);stroke-opacity:1;"/>
<path d="M119.814 388V380.3H120.738V388H119.814ZM122.316 388V382.544H123.152L123.218 383.336C123.394 383.043 123.628 382.815 123.922 382.654C124.215 382.493 124.545 382.412 124.912 382.412C125.344 382.412 125.715 382.5 126.023 382.676C126.338 382.852 126.58 383.12 126.749 383.479C126.939 383.149 127.2 382.889 127.53 382.698C127.867 382.507 128.23 382.412 128.619 382.412C129.271 382.412 129.792 382.61 130.181 383.006C130.569 383.395 130.764 383.996 130.764 384.81V388H129.851V384.909C129.851 384.344 129.737 383.919 129.51 383.633C129.282 383.347 128.956 383.204 128.531 383.204C128.091 383.204 127.724 383.376 127.431 383.721C127.145 384.058 127.002 384.542 127.002 385.173V388H126.078V384.909C126.078 384.344 125.964 383.919 125.737 383.633C125.509 383.347 125.183 383.204 124.758 383.204C124.325 383.204 123.962 383.376 123.669 383.721C123.383 384.058 123.24 384.542 123.24 385.173V388H122.316ZM132.155 390.42V382.544H132.991L133.079 383.446C133.255 383.182 133.505 382.944 133.827 382.731C134.157 382.518 134.575 382.412 135.081 382.412C135.624 382.412 136.097 382.537 136.5 382.786C136.904 383.035 137.215 383.376 137.435 383.809C137.663 384.242 137.776 384.733 137.776 385.283C137.776 385.833 137.663 386.324 137.435 386.757C137.215 387.182 136.9 387.52 136.489 387.769C136.086 388.011 135.613 388.132 135.07 388.132C134.623 388.132 134.223 388.04 133.871 387.857C133.527 387.674 133.263 387.417 133.079 387.087V390.42H132.155ZM134.971 387.329C135.338 387.329 135.661 387.245 135.939 387.076C136.218 386.9 136.438 386.658 136.599 386.35C136.761 386.042 136.841 385.683 136.841 385.272C136.841 384.861 136.761 384.502 136.599 384.194C136.438 383.886 136.218 383.648 135.939 383.479C135.661 383.303 135.338 383.215 134.971 383.215C134.605 383.215 134.282 383.303 134.003 383.479C133.725 383.648 133.505 383.886 133.343 384.194C133.182 384.502 133.101 384.861 133.101 385.272C133.101 385.683 133.182 386.042 133.343 386.35C133.505 386.658 133.725 386.9 134.003 387.076C134.282 387.245 134.605 387.329 134.971 387.329ZM140.878 388.132C140.423 388.132 140.045 388.055 139.745 387.901C139.444 387.747 139.22 387.542 139.074 387.285C138.927 387.028 138.854 386.75 138.854 386.449C138.854 385.892 139.066 385.463 139.492 385.162C139.917 384.861 140.496 384.711 141.23 384.711H142.704V384.645C142.704 384.168 142.579 383.809 142.33 383.567C142.08 383.318 141.747 383.193 141.329 383.193C140.969 383.193 140.658 383.285 140.394 383.468C140.137 383.644 139.976 383.904 139.91 384.249H138.964C139 383.853 139.132 383.519 139.36 383.248C139.594 382.977 139.884 382.771 140.229 382.632C140.573 382.485 140.94 382.412 141.329 382.412C142.091 382.412 142.663 382.617 143.045 383.028C143.433 383.431 143.628 383.97 143.628 384.645V388H142.803L142.748 387.021C142.594 387.329 142.366 387.593 142.066 387.813C141.772 388.026 141.376 388.132 140.878 388.132ZM141.021 387.351C141.373 387.351 141.673 387.259 141.923 387.076C142.179 386.893 142.374 386.654 142.506 386.361C142.638 386.068 142.704 385.76 142.704 385.437V385.426H141.307C140.764 385.426 140.379 385.521 140.152 385.712C139.932 385.895 139.822 386.126 139.822 386.405C139.822 386.691 139.924 386.922 140.13 387.098C140.342 387.267 140.639 387.351 141.021 387.351ZM147.522 388.132C147.001 388.132 146.532 388.015 146.114 387.78C145.703 387.538 145.377 387.204 145.135 386.779C144.9 386.346 144.783 385.844 144.783 385.272C144.783 384.7 144.9 384.201 145.135 383.776C145.377 383.343 145.703 383.01 146.114 382.775C146.532 382.533 147.001 382.412 147.522 382.412C148.167 382.412 148.71 382.581 149.15 382.918C149.597 383.255 149.88 383.706 149.997 384.271H149.051C148.978 383.934 148.798 383.673 148.512 383.49C148.226 383.299 147.892 383.204 147.511 383.204C147.203 383.204 146.913 383.281 146.642 383.435C146.371 383.589 146.151 383.82 145.982 384.128C145.813 384.436 145.729 384.817 145.729 385.272C145.729 385.727 145.813 386.108 145.982 386.416C146.151 386.724 146.371 386.959 146.642 387.12C146.913 387.274 147.203 387.351 147.511 387.351C147.892 387.351 148.226 387.259 148.512 387.076C148.798 386.885 148.978 386.618 149.051 386.273H149.997C149.887 386.823 149.608 387.27 149.161 387.615C148.714 387.96 148.167 388.132 147.522 388.132ZM153.293 388C152.794 388 152.402 387.879 152.116 387.637C151.83 387.395 151.687 386.959 151.687 386.328V383.325H150.741V382.544H151.687L151.808 381.235H152.611V382.544H154.217V383.325H152.611V386.328C152.611 386.673 152.681 386.907 152.82 387.032C152.959 387.149 153.205 387.208 153.557 387.208H154.129V388H153.293ZM157.693 388.132C157.173 388.132 156.711 388.015 156.307 387.78C155.904 387.538 155.585 387.204 155.35 386.779C155.123 386.354 155.009 385.851 155.009 385.272C155.009 384.7 155.123 384.201 155.35 383.776C155.578 383.343 155.893 383.01 156.296 382.775C156.707 382.533 157.18 382.412 157.715 382.412C158.243 382.412 158.698 382.533 159.079 382.775C159.468 383.01 159.765 383.321 159.97 383.71C160.176 384.099 160.278 384.517 160.278 384.964C160.278 385.045 160.275 385.125 160.267 385.206C160.267 385.287 160.267 385.378 160.267 385.481H155.922C155.944 385.899 156.04 386.247 156.208 386.526C156.384 386.797 156.601 387.003 156.857 387.142C157.121 387.281 157.4 387.351 157.693 387.351C158.075 387.351 158.394 387.263 158.65 387.087C158.907 386.911 159.094 386.673 159.211 386.372H160.124C159.978 386.878 159.695 387.3 159.277 387.637C158.867 387.967 158.339 388.132 157.693 388.132ZM157.693 383.193C157.253 383.193 156.861 383.329 156.516 383.6C156.179 383.864 155.985 384.253 155.933 384.766H159.365C159.343 384.275 159.175 383.89 158.859 383.611C158.544 383.332 158.155 383.193 157.693 383.193ZM163.978 388.132C163.435 388.132 162.959 388.007 162.548 387.758C162.145 387.509 161.829 387.168 161.602 386.735C161.382 386.302 161.272 385.811 161.272 385.261C161.272 384.711 161.386 384.223 161.613 383.798C161.84 383.365 162.156 383.028 162.559 382.786C162.962 382.537 163.439 382.412 163.989 382.412C164.436 382.412 164.832 382.504 165.177 382.687C165.522 382.87 165.789 383.127 165.98 383.457V380.08H166.904V388H166.068L165.98 387.098C165.804 387.362 165.551 387.6 165.221 387.813C164.891 388.026 164.477 388.132 163.978 388.132ZM164.077 387.329C164.444 387.329 164.766 387.245 165.045 387.076C165.331 386.9 165.551 386.658 165.705 386.35C165.866 386.042 165.947 385.683 165.947 385.272C165.947 384.861 165.866 384.502 165.705 384.194C165.551 383.886 165.331 383.648 165.045 383.479C164.766 383.303 164.444 383.215 164.077 383.215C163.718 383.215 163.395 383.303 163.109 383.479C162.83 383.648 162.61 383.886 162.449 384.194C162.295 384.502 162.218 384.861 162.218 385.272C162.218 385.683 162.295 386.042 162.449 386.35C162.61 386.658 162.83 386.9 163.109 387.076C163.395 387.245 163.718 387.329 164.077 387.329Z" fill="#040815" style="fill:#040815;fill:color(display-p3 0.0157 0.0314 0.0824);fill-opacity:1;"/>
<path d="M262.5 368.5H338C339.933 368.5 341.5 370.067 341.5 372V396C341.5 397.933 339.933 399.5 338 399.5H262.5V368.5Z" fill="white" style="fill:white;fill-opacity:1;"/>
<path d="M262.5 368.5H338C339.933 368.5 341.5 370.067 341.5 372V396C341.5 397.933 339.933 399.5 338 399.5H262.5V368.5Z" stroke="#040815" style="stroke:#040815;stroke:color(display-p3 0.0157 0.0314 0.0824);stroke-opacity:1;"/>
<path d="M270.882 389V388.174C271.545 387.651 272.17 387.124 272.758 386.592C273.355 386.051 273.883 385.519 274.34 384.996C274.807 384.473 275.171 383.96 275.432 383.456C275.703 382.952 275.838 382.467 275.838 382C275.838 381.655 275.777 381.333 275.656 381.034C275.544 380.735 275.357 380.497 275.096 380.32C274.835 380.133 274.48 380.04 274.032 380.04C273.603 380.04 273.243 380.138 272.954 380.334C272.665 380.521 272.445 380.773 272.296 381.09C272.156 381.407 272.086 381.748 272.086 382.112H270.952C270.952 381.468 271.087 380.917 271.358 380.46C271.629 379.993 271.997 379.639 272.464 379.396C272.931 379.153 273.458 379.032 274.046 379.032C274.914 379.032 275.623 379.279 276.174 379.774C276.734 380.259 277.014 380.987 277.014 381.958C277.014 382.537 276.869 383.111 276.58 383.68C276.291 384.24 275.922 384.786 275.474 385.318C275.026 385.841 274.545 386.331 274.032 386.788C273.528 387.245 273.057 387.656 272.618 388.02H277.35V389H270.882ZM282.38 389.168C281.708 389.168 281.124 389.047 280.63 388.804C280.135 388.561 279.738 388.23 279.44 387.81C279.15 387.381 278.973 386.895 278.908 386.354H280.056C280.168 386.895 280.429 387.334 280.84 387.67C281.25 387.997 281.768 388.16 282.394 388.16C282.86 388.16 283.262 388.053 283.598 387.838C283.934 387.614 284.19 387.315 284.368 386.942C284.554 386.569 284.648 386.153 284.648 385.696C284.648 384.968 284.442 384.38 284.032 383.932C283.621 383.484 283.089 383.26 282.436 383.26C281.894 383.26 281.432 383.381 281.05 383.624C280.667 383.867 280.387 384.184 280.21 384.576H279.09L279.93 379.2H285.068V380.222H280.84L280.266 383.204C280.49 382.933 280.798 382.709 281.19 382.532C281.591 382.355 282.048 382.266 282.562 382.266C283.206 382.266 283.766 382.415 284.242 382.714C284.727 383.013 285.105 383.419 285.376 383.932C285.646 384.445 285.782 385.029 285.782 385.682C285.782 386.307 285.646 386.886 285.376 387.418C285.114 387.95 284.727 388.375 284.214 388.692C283.71 389.009 283.098 389.168 282.38 389.168ZM293.089 383.75C292.669 383.75 292.286 383.657 291.941 383.47C291.605 383.274 291.339 383.003 291.143 382.658C290.947 382.303 290.849 381.883 290.849 381.398C290.849 380.913 290.947 380.497 291.143 380.152C291.348 379.797 291.619 379.527 291.955 379.34C292.3 379.144 292.683 379.046 293.103 379.046C293.523 379.046 293.901 379.144 294.237 379.34C294.573 379.527 294.839 379.797 295.035 380.152C295.231 380.497 295.329 380.913 295.329 381.398C295.329 381.883 295.226 382.303 295.021 382.658C294.825 383.003 294.559 383.274 294.223 383.47C293.887 383.657 293.509 383.75 293.089 383.75ZM292.221 389L297.919 379.2H299.095L293.397 389H292.221ZM293.089 382.84C293.416 382.84 293.7 382.719 293.943 382.476C294.195 382.233 294.321 381.874 294.321 381.398C294.321 380.913 294.2 380.549 293.957 380.306C293.714 380.054 293.43 379.928 293.103 379.928C292.776 379.928 292.482 380.054 292.221 380.306C291.969 380.549 291.843 380.913 291.843 381.398C291.843 381.874 291.969 382.233 292.221 382.476C292.473 382.719 292.762 382.84 293.089 382.84ZM298.325 389.168C297.905 389.168 297.522 389.075 297.177 388.888C296.841 388.692 296.575 388.421 296.379 388.076C296.183 387.721 296.085 387.301 296.085 386.816C296.085 386.331 296.183 385.915 296.379 385.57C296.584 385.215 296.855 384.945 297.191 384.758C297.527 384.562 297.905 384.464 298.325 384.464C298.745 384.464 299.123 384.562 299.459 384.758C299.795 384.945 300.061 385.215 300.257 385.57C300.453 385.915 300.551 386.331 300.551 386.816C300.551 387.301 300.453 387.721 300.257 388.076C300.061 388.421 299.795 388.692 299.459 388.888C299.123 389.075 298.745 389.168 298.325 389.168ZM298.311 388.258C298.647 388.258 298.936 388.137 299.179 387.894C299.431 387.651 299.557 387.292 299.557 386.816C299.557 386.331 299.436 385.967 299.193 385.724C298.95 385.481 298.661 385.36 298.325 385.36C297.998 385.36 297.709 385.481 297.457 385.724C297.205 385.967 297.079 386.331 297.079 386.816C297.079 387.292 297.2 387.651 297.443 387.894C297.695 388.137 297.984 388.258 298.311 388.258Z" fill="#040815" style="fill:#040815;fill:color(display-p3 0.0157 0.0314 0.0824);fill-opacity:1;"/>
<mask id="mask4_532_1617" style="mask-type:alpha" maskUnits="userSpaceOnUse" x="349" y="372" width="24" height="24">
<rect x="349" y="372" width="24" height="24" fill="#D9D9D9" style="fill:#D9D9D9;fill:color(display-p3 0.8510 0.8510 0.8510);fill-opacity:1;"/>
</mask>
<g mask="url(#mask4_532_1617)">
<path d="M355.4 391L354 389.6L359.6 384L354 378.4L355.4 377L361 382.6L366.6 377L368 378.4L362.4 384L368 389.6L366.6 391L361 385.4L355.4 391Z" fill="white" style="fill:white;fill-opacity:1;"/>
</g>
<mask id="mask5_532_1617" style="mask-type:alpha" maskUnits="userSpaceOnUse" x="80" y="412" width="24" height="24">
<rect x="80" y="412" width="24" height="24" fill="#D9D9D9" style="fill:#D9D9D9;fill:color(display-p3 0.8510 0.8510 0.8510);fill-opacity:1;"/>
</mask>
<g mask="url(#mask5_532_1617)">
<path d="M94 433L92.575 431.575L96.175 428H85V416H87V426H96.175L92.575 422.4L93.975 420.975L100 427L94 433Z" fill="white" style="fill:white;fill-opacity:1;"/>
</g>
<path d="M112.5 424C112.5 415.44 119.44 408.5 128 408.5H188.5V439.5H128C119.44 439.5 112.5 432.56 112.5 424Z" fill="white" style="fill:white;fill-opacity:1;"/>
<path d="M112.5 424C112.5 415.44 119.44 408.5 128 408.5H188.5V439.5H128C119.44 439.5 112.5 432.56 112.5 424Z" stroke="#040815" style="stroke:#040815;stroke:color(display-p3 0.0157 0.0314 0.0824);stroke-opacity:1;"/>
<path d="M147.886 423.75C147.466 423.75 147.083 423.657 146.738 423.47C146.402 423.274 146.136 423.003 145.94 422.658C145.744 422.303 145.646 421.883 145.646 421.398C145.646 420.913 145.744 420.497 145.94 420.152C146.145 419.797 146.416 419.527 146.752 419.34C147.097 419.144 147.48 419.046 147.9 419.046C148.32 419.046 148.698 419.144 149.034 419.34C149.37 419.527 149.636 419.797 149.832 420.152C150.028 420.497 150.126 420.913 150.126 421.398C150.126 421.883 150.023 422.303 149.818 422.658C149.622 423.003 149.356 423.274 149.02 423.47C148.684 423.657 148.306 423.75 147.886 423.75ZM147.018 429L152.716 419.2H153.892L148.194 429H147.018ZM147.886 422.84C148.213 422.84 148.497 422.719 148.74 422.476C148.992 422.233 149.118 421.874 149.118 421.398C149.118 420.913 148.997 420.549 148.754 420.306C148.511 420.054 148.227 419.928 147.9 419.928C147.573 419.928 147.279 420.054 147.018 420.306C146.766 420.549 146.64 420.913 146.64 421.398C146.64 421.874 146.766 422.233 147.018 422.476C147.27 422.719 147.559 422.84 147.886 422.84ZM153.122 429.168C152.702 429.168 152.319 429.075 151.974 428.888C151.638 428.692 151.372 428.421 151.176 428.076C150.98 427.721 150.882 427.301 150.882 426.816C150.882 426.331 150.98 425.915 151.176 425.57C151.381 425.215 151.652 424.945 151.988 424.758C152.324 424.562 152.702 424.464 153.122 424.464C153.542 424.464 153.92 424.562 154.256 424.758C154.592 424.945 154.858 425.215 155.054 425.57C155.25 425.915 155.348 426.331 155.348 426.816C155.348 427.301 155.25 427.721 155.054 428.076C154.858 428.421 154.592 428.692 154.256 428.888C153.92 429.075 153.542 429.168 153.122 429.168ZM153.108 428.258C153.444 428.258 153.733 428.137 153.976 427.894C154.228 427.651 154.354 427.292 154.354 426.816C154.354 426.331 154.233 425.967 153.99 425.724C153.747 425.481 153.458 425.36 153.122 425.36C152.795 425.36 152.506 425.481 152.254 425.724C152.002 425.967 151.876 426.331 151.876 426.816C151.876 427.292 151.997 427.651 152.24 427.894C152.492 428.137 152.781 428.258 153.108 428.258Z" fill="#040815" style="fill:#040815;fill:color(display-p3 0.0157 0.0314 0.0824);fill-opacity:1;"/>
<rect x="188.5" y="408.5" width="76" height="31" fill="white" style="fill:white;fill-opacity:1;"/>
<rect x="188.5" y="408.5" width="76" height="31" stroke="#040815" style="stroke:#040815;stroke:color(display-p3 0.0157 0.0314 0.0824);stroke-opacity:1;"/>
<path d="M224.616 427.516L223.916 426.816L225.792 424.926L223.986 423.12L224.7 422.42L226.506 424.226L228.382 422.336L229.082 423.036L227.206 424.926L229.012 426.732L228.298 427.432L226.492 425.626L224.616 427.516Z" fill="#040815" style="fill:#040815;fill:color(display-p3 0.0157 0.0314 0.0824);fill-opacity:1;"/>
<path d="M264.5 408.5H325C333.56 408.5 340.5 415.44 340.5 424C340.5 432.56 333.56 439.5 325 439.5H264.5V408.5Z" fill="white" style="fill:white;fill-opacity:1;"/>
<path d="M264.5 408.5H325C333.56 408.5 340.5 415.44 340.5 424C340.5 432.56 333.56 439.5 325 439.5H264.5V408.5Z" stroke="#040815" style="stroke:#040815;stroke:color(display-p3 0.0157 0.0314 0.0824);stroke-opacity:1;"/>
<path d="M300.158 430.33L303.672 418.304H304.834L301.32 430.33H300.158Z" fill="#040815" style="fill:#040815;fill:color(display-p3 0.0157 0.0314 0.0824);fill-opacity:1;"/>
</g>
<defs>
<filter id="filter0_d_532_1617" x="0" y="212" width="453" height="312" filterUnits="userSpaceOnUse" color-interpolation-filters="sRGB">
<feFlood flood-opacity="0" result="BackgroundImageFix"/>
<feColorMatrix in="SourceAlpha" type="matrix" values="0 0 0 0 0 0 0 0 0 0 0 0 0 0 0 0 0 0 127 0" result="hardAlpha"/>
<feOffset dy="4"/>
<feGaussianBlur stdDeviation="24"/>
<feComposite in2="hardAlpha" operator="out"/>
<feColorMatrix type="matrix" values="0 0 0 0 0 0 0 0 0 0 0 0 0 0 0 0 0 0 0.25 0"/>
<feBlend mode="normal" in2="BackgroundImageFix" result="effect1_dropShadow_532_1617"/>
<feBlend mode="normal" in="SourceGraphic" in2="effect1_dropShadow_532_1617" result="shape"/>
</filter>
<linearGradient id="paint0_linear_532_1617" x1="158" y1="143" x2="222.5" y2="186" gradientUnits="userSpaceOnUse">
<stop stop-color="#FD7228" style="stop-color:#FD7228;stop-color:color(display-p3 0.9922 0.4471 0.1569);stop-opacity:1;"/>
<stop offset="0.5" stop-color="#FD7228" style="stop-color:#FD7228;stop-color:color(display-p3 0.9922 0.4471 0.1569);stop-opacity:1;"/>
</linearGradient>
<linearGradient id="paint1_linear_532_1617" x1="157.99" y1="206" x2="287.135" y2="206" gradientUnits="userSpaceOnUse">
<stop stop-color="#FD7228" style="stop-color:#FD7228;stop-color:color(display-p3 0.9922 0.4471 0.1569);stop-opacity:1;"/>
<stop offset="0.5" stop-color="#CFCFCF" style="stop-color:#CFCFCF;stop-color:color(display-p3 0.8118 0.8118 0.8118);stop-opacity:1;"/>
</linearGradient>
<linearGradient id="paint2_linear_532_1617" x1="309" y1="143" x2="373.5" y2="172" gradientUnits="userSpaceOnUse">
<stop stop-color="#FD7228" style="stop-color:#FD7228;stop-color:color(display-p3 0.9922 0.4471 0.1569);stop-opacity:1;"/>
<stop offset="0.5" stop-color="#FD7228" style="stop-color:#FD7228;stop-color:color(display-p3 0.9922 0.4471 0.1569);stop-opacity:1;"/>
</linearGradient>
<linearGradient id="paint3_linear_532_1617" x1="308.862" y1="180.625" x2="437.879" y2="180.625" gradientUnits="userSpaceOnUse">
<stop stop-color="#FD7228" style="stop-color:#FD7228;stop-color:color(display-p3 0.9922 0.4471 0.1569);stop-opacity:1;"/>
<stop offset="0.5" stop-color="#CFCFCF" style="stop-color:#CFCFCF;stop-color:color(display-p3 0.8125 0.8125 0.8125);stop-opacity:1;"/>
</linearGradient>
</defs>
</svg>
